{
    "asset" : {
        "generator" : "Khronos glTF Blender I/O v1.7.33",
        "version" : "2.0"
    },
    "scene" : 0,
    "scenes" : [
        {
            "name" : "Scene",
            "nodes" : [
                0
            ]
        }
    ],
    "nodes" : [
        {
            "mesh" : 0,
            "name" : "Cube"
        }
    ],
    "materials" : [
        {
            "doubleSided" : true,
            "emissiveFactor" : [
                1,
                1,
                1
            ],
            "emissiveTexture" : {
                "index" : 0
            },
            "name" : "Rock",
            "pbrMetallicRoughness" : {
                "baseColorTexture" : {
                    "index" : 1
                },
                "metallicFactor" : 0,
                "roughnessFactor" : 0.9205992221832275
            }
        }
    ],
    "meshes" : [
        {
            "name" : "Cube",
            "primitives" : [
                {
                    "attributes" : {
                        "POSITION" : 0,
                        "NORMAL" : 1,
                        "TEXCOORD_0" : 2
                    },
                    "indices" : 3,
                    "material" : 0
                }
            ]
        }
    ],
    "textures" : [
        {
            "sampler" : 0,
            "source" : 0
        },
        {
            "sampler" : 0,
            "source" : 1
        }
    ],
    "images" : [
        {
            "mimeType" : "image/png",
            "name" : "ImphenziaPalette01-256-GradientX4-Emission",
            "uri" : "ImphenziaPalette01-256-GradientX4-Emission.png"
        },
        {
            "mimeType" : "image/png",
            "name" : "ImphenziaPalette01-256-GradientX4",
            "uri" : "ImphenziaPalette01-256-GradientX4.png"
        }
    ],
    "accessors" : [
        {
            "bufferView" : 0,
            "componentType" : 5126,
            "count" : 222,
            "max" : [
                1.5393568277359009,
                1.4672664403915405,
                1.903890609741211
            ],
            "min" : [
                -1.393629550933838,
                -1.146217703819275,
                -1.6278616189956665
            ],
            "type" : "VEC3"
        },
        {
            "bufferView" : 1,
            "componentType" : 5126,
            "count" : 222,
            "type" : "VEC3"
        },
        {
            "bufferView" : 2,
            "componentType" : 5126,
            "count" : 222,
            "type" : "VEC2"
        },
        {
            "bufferView" : 3,
            "componentType" : 5123,
            "count" : 258,
            "type" : "SCALAR"
        }
    ],
    "bufferViews" : [
        {
            "buffer" : 0,
            "byteLength" : 2664,
            "byteOffset" : 0
        },
        {
            "buffer" : 0,
            "byteLength" : 2664,
            "byteOffset" : 2664
        },
        {
            "buffer" : 0,
            "byteLength" : 1776,
            "byteOffset" : 5328
        },
        {
            "buffer" : 0,
            "byteLength" : 516,
            "byteOffset" : 7104
        }
    ],
    "samplers" : [
        {
            "magFilter" : 9728,
            "minFilter" : 9984
        }
    ],
    "buffers" : [
        {
            "byteLength" : 7620,
            "uri" : "asteroid03.bin"
        }
    ]
}
