{"asset":{"generator":"Khronos glTF Spline I/O v0.0.1","version":"2.0"},"scenes":[{"nodes":[0]}],"nodes":[{"name":"","children":[1,2]},{"name":"Group","matrix":[1,0,0,0,0,1,0,0,0,0,1,0,0.004999999999995897,0,0,1],"children":[3,4,5]},{"name":"Personal Camera","camera":0,"translation":[299.5397492557239,949.9480356237265,-91.41608337731695],"rotation":[0.651135598367757,0.34880045203213544,0.4822553803625004,-0.47094630831110773]},{"name":"Conveyer Belt 2","matrix":[1,0,0,0,0,1,0,0,0,0,1,0,0.9950000000000041,0,0,1],"mesh":0},{"name":"Pyramid","matrix":[2.220446049250349e-16,1.0000000000000164,0,0,-1.0000000000000164,2.220446049250349e-16,0,0,0,0,1,0,-0.994999999999996,0,0,1],"mesh":1},{"name":"Conveyer Belt","matrix":[1,0,0,0,0,1,0,0,0,0,1,0,-0.004999999999995897,0,0,1],"mesh":2}],"cameras":[{"type":"orthographic","orthographic":{"xmag":1920,"ymag":1080,"zfar":100000,"znear":-100000}}],"meshes":[{"primitives":[{"attributes":{"POSITION":1,"NORMAL":2,"TEXCOORD_0":3},"indices":0}]},{"primitives":[{"attributes":{"POSITION":5,"NORMAL":6,"TEXCOORD_0":7},"indices":4}]},{"primitives":[{"attributes":{"POSITION":9,"NORMAL":10,"TEXCOORD_0":11},"indices":8}]}],"buffers":[{"uri":"data:application/octet-stream;base64,","byteLength":840},{"uri":"data:application/octet-stream;base64,","byteLength":592},{"uri":"data:application/octet-stream;base64,","byteLength":840}],"bufferViews":[{"buffer":0,"byteOffset":0,"byteLength":72,"target":34963},{"buffer":0,"byteOffset":72,"byteLength":288,"target":34962},{"buffer":0,"byteOffset":360,"byteLength":288,"target":34962},{"buffer":0,"byteOffset":648,"byteLength":192,"target":34962},{"buffer":1,"byteOffset":0,"byteLength":48,"target":34963},{"buffer":1,"byteOffset":48,"byteLength":204,"target":34962},{"buffer":1,"byteOffset":252,"byteLength":204,"target":34962},{"buffer":1,"byteOffset":456,"byteLength":136,"target":34962},{"buffer":2,"byteOffset":0,"byteLength":72,"target":34963},{"buffer":2,"byteOffset":72,"byteLength":288,"target":34962},{"buffer":2,"byteOffset":360,"byteLength":288,"target":34962},{"buffer":2,"byteOffset":648,"byteLength":192,"target":34962}],"accessors":[{"bufferView":0,"byteOffset":0,"componentType":5123,"count":36,"type":"SCALAR","min":[0],"max":[23]},{"bufferView":1,"byteOffset":0,"componentType":5126,"count":24,"type":"VEC3","min":[-0.5,-0.125,-0.5],"max":[0.5,0.125,0.5]},{"bufferView":2,"byteOffset":0,"componentType":5126,"count":24,"type":"VEC3","min":[-1,-1,-1],"max":[1,1,1]},{"bufferView":3,"byteOffset":0,"componentType":5126,"count":24,"type":"VEC2","min":[0,0],"max":[1,1]},{"bufferView":4,"byteOffset":0,"componentType":5123,"count":24,"type":"SCALAR","min":[0],"max":[16]},{"bufferView":5,"byteOffset":0,"componentType":5126,"count":17,"type":"VEC3","min":[-0.1767766922712326,-0.5,-0.3535533845424652],"max":[0.1767766922712326,0.5,0.3535533845424652]},{"bufferView":6,"byteOffset":0,"componentType":5126,"count":17,"type":"VEC3","min":[-0.984731912612915,-1,-0.9428090453147888],"max":[0.984731912612915,0.3333333432674408,0.9428090453147888]},{"bufferView":7,"byteOffset":0,"componentType":5126,"count":17,"type":"VEC2","min":[0,0],"max":[0,0]},{"bufferView":8,"byteOffset":0,"componentType":5123,"count":36,"type":"SCALAR","min":[0],"max":[23]},{"bufferView":9,"byteOffset":0,"componentType":5126,"count":24,"type":"VEC3","min":[-0.5,-0.125,-0.5],"max":[0.5,0.125,0.5]},{"bufferView":10,"byteOffset":0,"componentType":5126,"count":24,"type":"VEC3","min":[-1,-1,-1],"max":[1,1,1]},{"bufferView":11,"byteOffset":0,"componentType":5126,"count":24,"type":"VEC2","min":[0,0],"max":[1,1]}],"extensions":{"KHR_lights_punctual":{"lights":[]}},"extensionsUsed":["KHR_lights_punctual"]}