{
    "asset" : {
        "generator" : "Khronos glTF Blender I/O v1.7.33",
        "version" : "2.0"
    },
    "scene" : 0,
    "scenes" : [
        {
            "name" : "Scene",
            "nodes" : [
                0
            ]
        }
    ],
    "nodes" : [
        {
            "mesh" : 0,
            "name" : "Archery_FirstAge_Level3"
        }
    ],
    "materials" : [
        {
            "doubleSided" : true,
            "name" : "Wood",
            "pbrMetallicRoughness" : {
                "baseColorFactor" : [
                    0.24618732929229736,
                    0.14435896277427673,
                    0.053798429667949677,
                    1
                ],
                "metallicFactor" : 0,
                "roughnessFactor" : 0.5
            }
        },
        {
            "doubleSided" : true,
            "name" : "Wood_Light",
            "pbrMetallicRoughness" : {
                "baseColorFactor" : [
                    0.3757452964782715,
                    0.24318844079971313,
                    0.09746062755584717,
                    1
                ],
                "metallicFactor" : 0,
                "roughnessFactor" : 0.5
            }
        },
        {
            "doubleSided" : true,
            "name" : "Main",
            "pbrMetallicRoughness" : {
                "baseColorFactor" : [
                    0.4385380148887634,
                    0.09992149472236633,
                    0.05885644257068634,
                    1
                ],
                "metallicFactor" : 0,
                "roughnessFactor" : 0.5
            }
        },
        {
            "doubleSided" : true,
            "name" : "White",
            "pbrMetallicRoughness" : {
                "baseColorFactor" : [
                    0.4868917763233185,
                    0.4868917763233185,
                    0.4868917763233185,
                    1
                ],
                "metallicFactor" : 0,
                "roughnessFactor" : 0.5
            }
        },
        {
            "doubleSided" : true,
            "name" : "Red",
            "pbrMetallicRoughness" : {
                "baseColorFactor" : [
                    0.28100141882896423,
                    0.005420661997050047,
                    0.0022358763962984085,
                    1
                ],
                "metallicFactor" : 0,
                "roughnessFactor" : 0.5
            }
        },
        {
            "doubleSided" : true,
            "name" : "Stone",
            "pbrMetallicRoughness" : {
                "baseColorFactor" : [
                    0.24436430633068085,
                    0.24618881940841675,
                    0.21545054018497467,
                    1
                ],
                "metallicFactor" : 0,
                "roughnessFactor" : 0.5
            }
        }
    ],
    "meshes" : [
        {
            "name" : "Cube.297",
            "primitives" : [
                {
                    "attributes" : {
                        "POSITION" : 0,
                        "NORMAL" : 1,
                        "TEXCOORD_0" : 2
                    },
                    "indices" : 3,
                    "material" : 0
                },
                {
                    "attributes" : {
                        "POSITION" : 4,
                        "NORMAL" : 5,
                        "TEXCOORD_0" : 6
                    },
                    "indices" : 7,
                    "material" : 1
                },
                {
                    "attributes" : {
                        "POSITION" : 8,
                        "NORMAL" : 9,
                        "TEXCOORD_0" : 10
                    },
                    "indices" : 11,
                    "material" : 2
                },
                {
                    "attributes" : {
                        "POSITION" : 12,
                        "NORMAL" : 13,
                        "TEXCOORD_0" : 14
                    },
                    "indices" : 15,
                    "material" : 3
                },
                {
                    "attributes" : {
                        "POSITION" : 16,
                        "NORMAL" : 17,
                        "TEXCOORD_0" : 18
                    },
                    "indices" : 19,
                    "material" : 4
                },
                {
                    "attributes" : {
                        "POSITION" : 20,
                        "NORMAL" : 21,
                        "TEXCOORD_0" : 22
                    },
                    "indices" : 23,
                    "material" : 5
                }
            ]
        }
    ],
    "accessors" : [
        {
            "bufferView" : 0,
            "componentType" : 5126,
            "count" : 6408,
            "max" : [
                0.9379281401634216,
                1.4625476598739624,
                0.3662676215171814
            ],
            "min" : [
                -0.9379276633262634,
                -0.042449675500392914,
                -0.9035171270370483
            ],
            "type" : "VEC3"
        },
        {
            "bufferView" : 1,
            "componentType" : 5126,
            "count" : 6408,
            "type" : "VEC3"
        },
        {
            "bufferView" : 2,
            "componentType" : 5126,
            "count" : 6408,
            "type" : "VEC2"
        },
        {
            "bufferView" : 3,
            "componentType" : 5123,
            "count" : 9636,
            "type" : "SCALAR"
        },
        {
            "bufferView" : 4,
            "componentType" : 5126,
            "count" : 1904,
            "max" : [
                0.9379281401634216,
                1.311056137084961,
                0.3581602871417999
            ],
            "min" : [
                -0.9379276633262634,
                -0.003589211031794548,
                -0.9035171270370483
            ],
            "type" : "VEC3"
        },
        {
            "bufferView" : 5,
            "componentType" : 5126,
            "count" : 1904,
            "type" : "VEC3"
        },
        {
            "bufferView" : 6,
            "componentType" : 5126,
            "count" : 1904,
            "type" : "VEC2"
        },
        {
            "bufferView" : 7,
            "componentType" : 5123,
            "count" : 2856,
            "type" : "SCALAR"
        },
        {
            "bufferView" : 8,
            "componentType" : 5126,
            "count" : 272,
            "max" : [
                0.898334801197052,
                1.4419804811477661,
                -0.43735945224761963
            ],
            "min" : [
                -0.8983342051506042,
                0.8137937784194946,
                -0.8659323453903198
            ],
            "type" : "VEC3"
        },
        {
            "bufferView" : 9,
            "componentType" : 5126,
            "count" : 272,
            "type" : "VEC3"
        },
        {
            "bufferView" : 10,
            "componentType" : 5126,
            "count" : 272,
            "type" : "VEC2"
        },
        {
            "bufferView" : 11,
            "componentType" : 5123,
            "count" : 408,
            "type" : "SCALAR"
        },
        {
            "bufferView" : 12,
            "componentType" : 5126,
            "count" : 2250,
            "max" : [
                0.8372105956077576,
                1.3821423053741455,
                -0.3506925404071808
            ],
            "min" : [
                -0.8372101187705994,
                0.049800120294094086,
                -0.682049572467804
            ],
            "type" : "VEC3"
        },
        {
            "bufferView" : 13,
            "componentType" : 5126,
            "count" : 2250,
            "type" : "VEC3"
        },
        {
            "bufferView" : 14,
            "componentType" : 5126,
            "count" : 2250,
            "type" : "VEC2"
        },
        {
            "bufferView" : 15,
            "componentType" : 5123,
            "count" : 3420,
            "type" : "SCALAR"
        },
        {
            "bufferView" : 16,
            "componentType" : 5126,
            "count" : 250,
            "max" : [
                0.8126797676086426,
                1.3352441787719727,
                -0.4783928692340851
            ],
            "min" : [
                -0.8126794099807739,
                0.07226976752281189,
                -0.6437281370162964
            ],
            "type" : "VEC3"
        },
        {
            "bufferView" : 17,
            "componentType" : 5126,
            "count" : 250,
            "type" : "VEC3"
        },
        {
            "bufferView" : 18,
            "componentType" : 5126,
            "count" : 250,
            "type" : "VEC2"
        },
        {
            "bufferView" : 19,
            "componentType" : 5123,
            "count" : 420,
            "type" : "SCALAR"
        },
        {
            "bufferView" : 20,
            "componentType" : 5126,
            "count" : 102,
            "max" : [
                0.39820975065231323,
                0.02977568656206131,
                -0.1027398407459259
            ],
            "min" : [
                -0.4074650704860687,
                -0.0390368327498436,
                -0.7886002063751221
            ],
            "type" : "VEC3"
        },
        {
            "bufferView" : 21,
            "componentType" : 5126,
            "count" : 102,
            "type" : "VEC3"
        },
        {
            "bufferView" : 22,
            "componentType" : 5126,
            "count" : 102,
            "type" : "VEC2"
        },
        {
            "bufferView" : 23,
            "componentType" : 5123,
            "count" : 156,
            "type" : "SCALAR"
        }
    ],
    "bufferViews" : [
        {
            "buffer" : 0,
            "byteLength" : 76896,
            "byteOffset" : 0
        },
        {
            "buffer" : 0,
            "byteLength" : 76896,
            "byteOffset" : 76896
        },
        {
            "buffer" : 0,
            "byteLength" : 51264,
            "byteOffset" : 153792
        },
        {
            "buffer" : 0,
            "byteLength" : 19272,
            "byteOffset" : 205056
        },
        {
            "buffer" : 0,
            "byteLength" : 22848,
            "byteOffset" : 224328
        },
        {
            "buffer" : 0,
            "byteLength" : 22848,
            "byteOffset" : 247176
        },
        {
            "buffer" : 0,
            "byteLength" : 15232,
            "byteOffset" : 270024
        },
        {
            "buffer" : 0,
            "byteLength" : 5712,
            "byteOffset" : 285256
        },
        {
            "buffer" : 0,
            "byteLength" : 3264,
            "byteOffset" : 290968
        },
        {
            "buffer" : 0,
            "byteLength" : 3264,
            "byteOffset" : 294232
        },
        {
            "buffer" : 0,
            "byteLength" : 2176,
            "byteOffset" : 297496
        },
        {
            "buffer" : 0,
            "byteLength" : 816,
            "byteOffset" : 299672
        },
        {
            "buffer" : 0,
            "byteLength" : 27000,
            "byteOffset" : 300488
        },
        {
            "buffer" : 0,
            "byteLength" : 27000,
            "byteOffset" : 327488
        },
        {
            "buffer" : 0,
            "byteLength" : 18000,
            "byteOffset" : 354488
        },
        {
            "buffer" : 0,
            "byteLength" : 6840,
            "byteOffset" : 372488
        },
        {
            "buffer" : 0,
            "byteLength" : 3000,
            "byteOffset" : 379328
        },
        {
            "buffer" : 0,
            "byteLength" : 3000,
            "byteOffset" : 382328
        },
        {
            "buffer" : 0,
            "byteLength" : 2000,
            "byteOffset" : 385328
        },
        {
            "buffer" : 0,
            "byteLength" : 840,
            "byteOffset" : 387328
        },
        {
            "buffer" : 0,
            "byteLength" : 1224,
            "byteOffset" : 388168
        },
        {
            "buffer" : 0,
            "byteLength" : 1224,
            "byteOffset" : 389392
        },
        {
            "buffer" : 0,
            "byteLength" : 816,
            "byteOffset" : 390616
        },
        {
            "buffer" : 0,
            "byteLength" : 312,
            "byteOffset" : 391432
        }
    ],
    "buffers" : [
        {
            "byteLength" : 391744,
            "uri" : "data:application/octet-stream;base64,"
        }
    ]
}
