{
    "asset" : {
        "generator" : "Khronos glTF Blender I/O v1.7.33",
        "version" : "2.0"
    },
    "scene" : 0,
    "scenes" : [
        {
            "name" : "Scene",
            "nodes" : [
                0
            ]
        }
    ],
    "nodes" : [
        {
            "mesh" : 0,
            "name" : "Archery_SecondAge_Level3"
        }
    ],
    "materials" : [
        {
            "doubleSided" : true,
            "name" : "Wood",
            "pbrMetallicRoughness" : {
                "baseColorFactor" : [
                    0.24618732929229736,
                    0.14435896277427673,
                    0.053798429667949677,
                    1
                ],
                "metallicFactor" : 0,
                "roughnessFactor" : 0.5
            }
        },
        {
            "doubleSided" : true,
            "name" : "Wood_Light",
            "pbrMetallicRoughness" : {
                "baseColorFactor" : [
                    0.3757452964782715,
                    0.24318844079971313,
                    0.09746062755584717,
                    1
                ],
                "metallicFactor" : 0,
                "roughnessFactor" : 0.5
            }
        },
        {
            "doubleSided" : true,
            "name" : "Main",
            "pbrMetallicRoughness" : {
                "baseColorFactor" : [
                    0.4385380148887634,
                    0.09992149472236633,
                    0.05885644257068634,
                    1
                ],
                "metallicFactor" : 0,
                "roughnessFactor" : 0.5
            }
        },
        {
            "doubleSided" : true,
            "name" : "Walls",
            "pbrMetallicRoughness" : {
                "baseColorFactor" : [
                    0.4352165758609772,
                    0.4385380148887634,
                    0.3826240599155426,
                    1
                ],
                "metallicFactor" : 0,
                "roughnessFactor" : 0.5
            }
        },
        {
            "doubleSided" : true,
            "name" : "Stone",
            "pbrMetallicRoughness" : {
                "baseColorFactor" : [
                    0.24436430633068085,
                    0.24618881940841675,
                    0.21545054018497467,
                    1
                ],
                "metallicFactor" : 0,
                "roughnessFactor" : 0.5
            }
        },
        {
            "doubleSided" : true,
            "name" : "White",
            "pbrMetallicRoughness" : {
                "baseColorFactor" : [
                    0.4868917763233185,
                    0.4868917763233185,
                    0.4868917763233185,
                    1
                ],
                "metallicFactor" : 0,
                "roughnessFactor" : 0.5
            }
        },
        {
            "doubleSided" : true,
            "name" : "Red",
            "pbrMetallicRoughness" : {
                "baseColorFactor" : [
                    0.28100141882896423,
                    0.005420661997050047,
                    0.0022358763962984085,
                    1
                ],
                "metallicFactor" : 0,
                "roughnessFactor" : 0.5
            }
        },
        {
            "doubleSided" : true,
            "name" : "Stone_Light",
            "pbrMetallicRoughness" : {
                "baseColorFactor" : [
                    0.454056978225708,
                    0.4575270116329193,
                    0.3991142511367798,
                    1
                ],
                "metallicFactor" : 0,
                "roughnessFactor" : 0.5
            }
        },
        {
            "doubleSided" : true,
            "name" : "Metal_Light",
            "pbrMetallicRoughness" : {
                "baseColorFactor" : [
                    0.19017364084720612,
                    0.19017364084720612,
                    0.19017364084720612,
                    1
                ],
                "metallicFactor" : 0,
                "roughnessFactor" : 0.5
            }
        }
    ],
    "meshes" : [
        {
            "name" : "Cube.288",
            "primitives" : [
                {
                    "attributes" : {
                        "POSITION" : 0,
                        "NORMAL" : 1,
                        "TEXCOORD_0" : 2
                    },
                    "indices" : 3,
                    "material" : 0
                },
                {
                    "attributes" : {
                        "POSITION" : 4,
                        "NORMAL" : 5,
                        "TEXCOORD_0" : 6
                    },
                    "indices" : 7,
                    "material" : 1
                },
                {
                    "attributes" : {
                        "POSITION" : 8,
                        "NORMAL" : 9,
                        "TEXCOORD_0" : 10
                    },
                    "indices" : 11,
                    "material" : 2
                },
                {
                    "attributes" : {
                        "POSITION" : 12,
                        "NORMAL" : 13,
                        "TEXCOORD_0" : 14
                    },
                    "indices" : 15,
                    "material" : 3
                },
                {
                    "attributes" : {
                        "POSITION" : 16,
                        "NORMAL" : 17,
                        "TEXCOORD_0" : 18
                    },
                    "indices" : 19,
                    "material" : 4
                },
                {
                    "attributes" : {
                        "POSITION" : 20,
                        "NORMAL" : 21,
                        "TEXCOORD_0" : 22
                    },
                    "indices" : 23,
                    "material" : 5
                },
                {
                    "attributes" : {
                        "POSITION" : 24,
                        "NORMAL" : 25,
                        "TEXCOORD_0" : 26
                    },
                    "indices" : 27,
                    "material" : 6
                },
                {
                    "attributes" : {
                        "POSITION" : 28,
                        "NORMAL" : 29,
                        "TEXCOORD_0" : 30
                    },
                    "indices" : 31,
                    "material" : 7
                },
                {
                    "attributes" : {
                        "POSITION" : 32,
                        "NORMAL" : 33,
                        "TEXCOORD_0" : 34
                    },
                    "indices" : 35,
                    "material" : 8
                }
            ]
        }
    ],
    "accessors" : [
        {
            "bufferView" : 0,
            "componentType" : 5126,
            "count" : 3508,
            "max" : [
                1.0206952095031738,
                1.9405453205108643,
                0.6645985841751099
            ],
            "min" : [
                -0.9195824265480042,
                -0.005377449095249176,
                -0.9238649606704712
            ],
            "type" : "VEC3"
        },
        {
            "bufferView" : 1,
            "componentType" : 5126,
            "count" : 3508,
            "type" : "VEC3"
        },
        {
            "bufferView" : 2,
            "componentType" : 5126,
            "count" : 3508,
            "type" : "VEC2"
        },
        {
            "bufferView" : 3,
            "componentType" : 5123,
            "count" : 5772,
            "type" : "SCALAR"
        },
        {
            "bufferView" : 4,
            "componentType" : 5126,
            "count" : 1288,
            "max" : [
                1.0004768371582031,
                0.32374221086502075,
                0.6495869159698486
            ],
            "min" : [
                0.15540018677711487,
                -0.003045603632926941,
                -0.881162166595459
            ],
            "type" : "VEC3"
        },
        {
            "bufferView" : 5,
            "componentType" : 5126,
            "count" : 1288,
            "type" : "VEC3"
        },
        {
            "bufferView" : 6,
            "componentType" : 5126,
            "count" : 1288,
            "type" : "VEC2"
        },
        {
            "bufferView" : 7,
            "componentType" : 5123,
            "count" : 1956,
            "type" : "SCALAR"
        },
        {
            "bufferView" : 8,
            "componentType" : 5126,
            "count" : 3478,
            "max" : [
                0.9691308736801147,
                0.7051255702972412,
                0.3918786644935608
            ],
            "min" : [
                -0.507509171962738,
                0.4826279580593109,
                -0.8780217170715332
            ],
            "type" : "VEC3"
        },
        {
            "bufferView" : 9,
            "componentType" : 5126,
            "count" : 3478,
            "type" : "VEC3"
        },
        {
            "bufferView" : 10,
            "componentType" : 5126,
            "count" : 3478,
            "type" : "VEC2"
        },
        {
            "bufferView" : 11,
            "componentType" : 5123,
            "count" : 7260,
            "type" : "SCALAR"
        },
        {
            "bufferView" : 12,
            "componentType" : 5126,
            "count" : 32,
            "max" : [
                0.955042839050293,
                0.6166692972183228,
                0.3745543360710144
            ],
            "min" : [
                0.3610393702983856,
                0.055712997913360596,
                -0.8488064408302307
            ],
            "type" : "VEC3"
        },
        {
            "bufferView" : 13,
            "componentType" : 5126,
            "count" : 32,
            "type" : "VEC3"
        },
        {
            "bufferView" : 14,
            "componentType" : 5126,
            "count" : 32,
            "type" : "VEC2"
        },
        {
            "bufferView" : 15,
            "componentType" : 5123,
            "count" : 48,
            "type" : "SCALAR"
        },
        {
            "bufferView" : 16,
            "componentType" : 5126,
            "count" : 1222,
            "max" : [
                0.9769830703735352,
                1.6819791793823242,
                0.6461743116378784
            ],
            "min" : [
                -0.9195824265480042,
                -0.0038402811624109745,
                -0.8858739137649536
            ],
            "type" : "VEC3"
        },
        {
            "bufferView" : 17,
            "componentType" : 5126,
            "count" : 1222,
            "type" : "VEC3"
        },
        {
            "bufferView" : 18,
            "componentType" : 5126,
            "count" : 1222,
            "type" : "VEC2"
        },
        {
            "bufferView" : 19,
            "componentType" : 5123,
            "count" : 2952,
            "type" : "SCALAR"
        },
        {
            "bufferView" : 20,
            "componentType" : 5126,
            "count" : 2328,
            "max" : [
                0.7518084049224854,
                1.9147241115570068,
                0.07058937102556229
            ],
            "min" : [
                -0.7854236960411072,
                0.06177005171775818,
                -0.6519796252250671
            ],
            "type" : "VEC3"
        },
        {
            "bufferView" : 21,
            "componentType" : 5126,
            "count" : 2328,
            "type" : "VEC3"
        },
        {
            "bufferView" : 22,
            "componentType" : 5126,
            "count" : 2328,
            "type" : "VEC2"
        },
        {
            "bufferView" : 23,
            "componentType" : 5123,
            "count" : 3540,
            "type" : "SCALAR"
        },
        {
            "bufferView" : 24,
            "componentType" : 5126,
            "count" : 250,
            "max" : [
                0.7336385250091553,
                1.8730039596557617,
                -0.43807780742645264
            ],
            "min" : [
                -0.765699565410614,
                0.08423969894647598,
                -0.6211668848991394
            ],
            "type" : "VEC3"
        },
        {
            "bufferView" : 25,
            "componentType" : 5126,
            "count" : 250,
            "type" : "VEC3"
        },
        {
            "bufferView" : 26,
            "componentType" : 5126,
            "count" : 250,
            "type" : "VEC2"
        },
        {
            "bufferView" : 27,
            "componentType" : 5123,
            "count" : 420,
            "type" : "SCALAR"
        },
        {
            "bufferView" : 28,
            "componentType" : 5126,
            "count" : 4672,
            "max" : [
                0.9200413227081299,
                1.768491506576538,
                0.5707637071609497
            ],
            "min" : [
                -0.9305195808410645,
                -0.0017176417168229818,
                -0.8915885090827942
            ],
            "type" : "VEC3"
        },
        {
            "bufferView" : 29,
            "componentType" : 5126,
            "count" : 4672,
            "type" : "VEC3"
        },
        {
            "bufferView" : 30,
            "componentType" : 5126,
            "count" : 4672,
            "type" : "VEC2"
        },
        {
            "bufferView" : 31,
            "componentType" : 5123,
            "count" : 7032,
            "type" : "SCALAR"
        },
        {
            "bufferView" : 32,
            "componentType" : 5126,
            "count" : 576,
            "max" : [
                0.4582856297492981,
                0.14234845340251923,
                0.5315908193588257
            ],
            "min" : [
                0.21716704964637756,
                0,
                -0.23662549257278442
            ],
            "type" : "VEC3"
        },
        {
            "bufferView" : 33,
            "componentType" : 5126,
            "count" : 576,
            "type" : "VEC3"
        },
        {
            "bufferView" : 34,
            "componentType" : 5126,
            "count" : 576,
            "type" : "VEC2"
        },
        {
            "bufferView" : 35,
            "componentType" : 5123,
            "count" : 1056,
            "type" : "SCALAR"
        }
    ],
    "bufferViews" : [
        {
            "buffer" : 0,
            "byteLength" : 42096,
            "byteOffset" : 0
        },
        {
            "buffer" : 0,
            "byteLength" : 42096,
            "byteOffset" : 42096
        },
        {
            "buffer" : 0,
            "byteLength" : 28064,
            "byteOffset" : 84192
        },
        {
            "buffer" : 0,
            "byteLength" : 11544,
            "byteOffset" : 112256
        },
        {
            "buffer" : 0,
            "byteLength" : 15456,
            "byteOffset" : 123800
        },
        {
            "buffer" : 0,
            "byteLength" : 15456,
            "byteOffset" : 139256
        },
        {
            "buffer" : 0,
            "byteLength" : 10304,
            "byteOffset" : 154712
        },
        {
            "buffer" : 0,
            "byteLength" : 3912,
            "byteOffset" : 165016
        },
        {
            "buffer" : 0,
            "byteLength" : 41736,
            "byteOffset" : 168928
        },
        {
            "buffer" : 0,
            "byteLength" : 41736,
            "byteOffset" : 210664
        },
        {
            "buffer" : 0,
            "byteLength" : 27824,
            "byteOffset" : 252400
        },
        {
            "buffer" : 0,
            "byteLength" : 14520,
            "byteOffset" : 280224
        },
        {
            "buffer" : 0,
            "byteLength" : 384,
            "byteOffset" : 294744
        },
        {
            "buffer" : 0,
            "byteLength" : 384,
            "byteOffset" : 295128
        },
        {
            "buffer" : 0,
            "byteLength" : 256,
            "byteOffset" : 295512
        },
        {
            "buffer" : 0,
            "byteLength" : 96,
            "byteOffset" : 295768
        },
        {
            "buffer" : 0,
            "byteLength" : 14664,
            "byteOffset" : 295864
        },
        {
            "buffer" : 0,
            "byteLength" : 14664,
            "byteOffset" : 310528
        },
        {
            "buffer" : 0,
            "byteLength" : 9776,
            "byteOffset" : 325192
        },
        {
            "buffer" : 0,
            "byteLength" : 5904,
            "byteOffset" : 334968
        },
        {
            "buffer" : 0,
            "byteLength" : 27936,
            "byteOffset" : 340872
        },
        {
            "buffer" : 0,
            "byteLength" : 27936,
            "byteOffset" : 368808
        },
        {
            "buffer" : 0,
            "byteLength" : 18624,
            "byteOffset" : 396744
        },
        {
            "buffer" : 0,
            "byteLength" : 7080,
            "byteOffset" : 415368
        },
        {
            "buffer" : 0,
            "byteLength" : 3000,
            "byteOffset" : 422448
        },
        {
            "buffer" : 0,
            "byteLength" : 3000,
            "byteOffset" : 425448
        },
        {
            "buffer" : 0,
            "byteLength" : 2000,
            "byteOffset" : 428448
        },
        {
            "buffer" : 0,
            "byteLength" : 840,
            "byteOffset" : 430448
        },
        {
            "buffer" : 0,
            "byteLength" : 56064,
            "byteOffset" : 431288
        },
        {
            "buffer" : 0,
            "byteLength" : 56064,
            "byteOffset" : 487352
        },
        {
            "buffer" : 0,
            "byteLength" : 37376,
            "byteOffset" : 543416
        },
        {
            "buffer" : 0,
            "byteLength" : 14064,
            "byteOffset" : 580792
        },
        {
            "buffer" : 0,
            "byteLength" : 6912,
            "byteOffset" : 594856
        },
        {
            "buffer" : 0,
            "byteLength" : 6912,
            "byteOffset" : 601768
        },
        {
            "buffer" : 0,
            "byteLength" : 4608,
            "byteOffset" : 608680
        },
        {
            "buffer" : 0,
            "byteLength" : 2112,
            "byteOffset" : 613288
        }
    ],
    "buffers" : [
        {
            "byteLength" : 615400,
            "uri" : "data:application/octet-stream;base64,"
        }
    ]
}
