{
    "asset" : {
        "generator" : "Khronos glTF Blender I/O v1.7.33",
        "version" : "2.0"
    },
    "scene" : 0,
    "scenes" : [
        {
            "name" : "Scene",
            "nodes" : [
                0
            ]
        }
    ],
    "nodes" : [
        {
            "mesh" : 0,
            "name" : "Archery_FirstAge_Level1"
        }
    ],
    "materials" : [
        {
            "doubleSided" : true,
            "name" : "Wood",
            "pbrMetallicRoughness" : {
                "baseColorFactor" : [
                    0.24618732929229736,
                    0.14435896277427673,
                    0.053798429667949677,
                    1
                ],
                "metallicFactor" : 0,
                "roughnessFactor" : 0.5
            }
        },
        {
            "doubleSided" : true,
            "name" : "Main",
            "pbrMetallicRoughness" : {
                "baseColorFactor" : [
                    0.4385380148887634,
                    0.09992149472236633,
                    0.05885644257068634,
                    1
                ],
                "metallicFactor" : 0,
                "roughnessFactor" : 0.5
            }
        },
        {
            "doubleSided" : true,
            "name" : "White",
            "pbrMetallicRoughness" : {
                "baseColorFactor" : [
                    0.4868917763233185,
                    0.4868917763233185,
                    0.4868917763233185,
                    1
                ],
                "metallicFactor" : 0,
                "roughnessFactor" : 0.5
            }
        },
        {
            "doubleSided" : true,
            "name" : "Wood_Light",
            "pbrMetallicRoughness" : {
                "baseColorFactor" : [
                    0.3757452964782715,
                    0.24318844079971313,
                    0.09746062755584717,
                    1
                ],
                "metallicFactor" : 0,
                "roughnessFactor" : 0.5
            }
        },
        {
            "doubleSided" : true,
            "name" : "Red",
            "pbrMetallicRoughness" : {
                "baseColorFactor" : [
                    0.28100141882896423,
                    0.005420661997050047,
                    0.0022358763962984085,
                    1
                ],
                "metallicFactor" : 0,
                "roughnessFactor" : 0.5
            }
        }
    ],
    "meshes" : [
        {
            "name" : "Cube.295",
            "primitives" : [
                {
                    "attributes" : {
                        "POSITION" : 0,
                        "NORMAL" : 1,
                        "TEXCOORD_0" : 2
                    },
                    "indices" : 3,
                    "material" : 0
                },
                {
                    "attributes" : {
                        "POSITION" : 4,
                        "NORMAL" : 5,
                        "TEXCOORD_0" : 6
                    },
                    "indices" : 7,
                    "material" : 1
                },
                {
                    "attributes" : {
                        "POSITION" : 8,
                        "NORMAL" : 9,
                        "TEXCOORD_0" : 10
                    },
                    "indices" : 11,
                    "material" : 2
                },
                {
                    "attributes" : {
                        "POSITION" : 12,
                        "NORMAL" : 13,
                        "TEXCOORD_0" : 14
                    },
                    "indices" : 15,
                    "material" : 3
                },
                {
                    "attributes" : {
                        "POSITION" : 16,
                        "NORMAL" : 17,
                        "TEXCOORD_0" : 18
                    },
                    "indices" : 19,
                    "material" : 4
                }
            ]
        }
    ],
    "accessors" : [
        {
            "bufferView" : 0,
            "componentType" : 5126,
            "count" : 3000,
            "max" : [
                0.28090301156044006,
                1.1341726779937744,
                0.09643173217773438
            ],
            "min" : [
                -0.9379276633262634,
                -0.008587018586695194,
                -0.9035171270370483
            ],
            "type" : "VEC3"
        },
        {
            "bufferView" : 1,
            "componentType" : 5126,
            "count" : 3000,
            "type" : "VEC3"
        },
        {
            "bufferView" : 2,
            "componentType" : 5126,
            "count" : 3000,
            "type" : "VEC2"
        },
        {
            "bufferView" : 3,
            "componentType" : 5123,
            "count" : 5256,
            "type" : "SCALAR"
        },
        {
            "bufferView" : 4,
            "componentType" : 5126,
            "count" : 424,
            "max" : [
                0.2879231870174408,
                1.1136054992675781,
                -0.4373599886894226
            ],
            "min" : [
                -0.8983342051506042,
                0.19480770826339722,
                -0.8659323453903198
            ],
            "type" : "VEC3"
        },
        {
            "bufferView" : 5,
            "componentType" : 5126,
            "count" : 424,
            "type" : "VEC3"
        },
        {
            "bufferView" : 6,
            "componentType" : 5126,
            "count" : 424,
            "type" : "VEC2"
        },
        {
            "bufferView" : 7,
            "componentType" : 5123,
            "count" : 636,
            "type" : "SCALAR"
        },
        {
            "bufferView" : 8,
            "componentType" : 5126,
            "count" : 1548,
            "max" : [
                0.287082701921463,
                1.0537673234939575,
                -0.3787310719490051
            ],
            "min" : [
                -0.8372101187705994,
                0.021420935168862343,
                -0.8548907041549683
            ],
            "type" : "VEC3"
        },
        {
            "bufferView" : 9,
            "componentType" : 5126,
            "count" : 1548,
            "type" : "VEC3"
        },
        {
            "bufferView" : 10,
            "componentType" : 5126,
            "count" : 1548,
            "type" : "VEC2"
        },
        {
            "bufferView" : 11,
            "componentType" : 5123,
            "count" : 2352,
            "type" : "SCALAR"
        },
        {
            "bufferView" : 12,
            "componentType" : 5126,
            "count" : 1816,
            "max" : [
                0.24296455085277557,
                0.982681155204773,
                -0.317365437746048
            ],
            "min" : [
                -0.9379276633262634,
                -0.003045600140467286,
                -0.9035171270370483
            ],
            "type" : "VEC3"
        },
        {
            "bufferView" : 13,
            "componentType" : 5126,
            "count" : 1816,
            "type" : "VEC3"
        },
        {
            "bufferView" : 14,
            "componentType" : 5126,
            "count" : 1816,
            "type" : "VEC2"
        },
        {
            "bufferView" : 15,
            "componentType" : 5123,
            "count" : 2724,
            "type" : "SCALAR"
        },
        {
            "bufferView" : 16,
            "componentType" : 5126,
            "count" : 150,
            "max" : [
                0.13769054412841797,
                1.0068691968917847,
                -0.4982250928878784
            ],
            "min" : [
                -0.8126794099807739,
                0.043890584260225296,
                -0.6437281370162964
            ],
            "type" : "VEC3"
        },
        {
            "bufferView" : 17,
            "componentType" : 5126,
            "count" : 150,
            "type" : "VEC3"
        },
        {
            "bufferView" : 18,
            "componentType" : 5126,
            "count" : 150,
            "type" : "VEC2"
        },
        {
            "bufferView" : 19,
            "componentType" : 5123,
            "count" : 252,
            "type" : "SCALAR"
        }
    ],
    "bufferViews" : [
        {
            "buffer" : 0,
            "byteLength" : 36000,
            "byteOffset" : 0
        },
        {
            "buffer" : 0,
            "byteLength" : 36000,
            "byteOffset" : 36000
        },
        {
            "buffer" : 0,
            "byteLength" : 24000,
            "byteOffset" : 72000
        },
        {
            "buffer" : 0,
            "byteLength" : 10512,
            "byteOffset" : 96000
        },
        {
            "buffer" : 0,
            "byteLength" : 5088,
            "byteOffset" : 106512
        },
        {
            "buffer" : 0,
            "byteLength" : 5088,
            "byteOffset" : 111600
        },
        {
            "buffer" : 0,
            "byteLength" : 3392,
            "byteOffset" : 116688
        },
        {
            "buffer" : 0,
            "byteLength" : 1272,
            "byteOffset" : 120080
        },
        {
            "buffer" : 0,
            "byteLength" : 18576,
            "byteOffset" : 121352
        },
        {
            "buffer" : 0,
            "byteLength" : 18576,
            "byteOffset" : 139928
        },
        {
            "buffer" : 0,
            "byteLength" : 12384,
            "byteOffset" : 158504
        },
        {
            "buffer" : 0,
            "byteLength" : 4704,
            "byteOffset" : 170888
        },
        {
            "buffer" : 0,
            "byteLength" : 21792,
            "byteOffset" : 175592
        },
        {
            "buffer" : 0,
            "byteLength" : 21792,
            "byteOffset" : 197384
        },
        {
            "buffer" : 0,
            "byteLength" : 14528,
            "byteOffset" : 219176
        },
        {
            "buffer" : 0,
            "byteLength" : 5448,
            "byteOffset" : 233704
        },
        {
            "buffer" : 0,
            "byteLength" : 1800,
            "byteOffset" : 239152
        },
        {
            "buffer" : 0,
            "byteLength" : 1800,
            "byteOffset" : 240952
        },
        {
            "buffer" : 0,
            "byteLength" : 1200,
            "byteOffset" : 242752
        },
        {
            "buffer" : 0,
            "byteLength" : 504,
            "byteOffset" : 243952
        }
    ],
    "buffers" : [
        {
            "byteLength" : 244456,
            "uri" : "data:application/octet-stream;base64,"
        }
    ]
}
