{
    "asset" : {
        "generator" : "Khronos glTF Blender I/O v1.7.33",
        "version" : "2.0"
    },
    "scene" : 0,
    "scenes" : [
        {
            "name" : "Scene",
            "nodes" : [
                0
            ]
        }
    ],
    "nodes" : [
        {
            "mesh" : 0,
            "name" : "Archery_SecondAge_Level1"
        }
    ],
    "materials" : [
        {
            "doubleSided" : true,
            "name" : "Wood_Light",
            "pbrMetallicRoughness" : {
                "baseColorFactor" : [
                    0.3757452964782715,
                    0.24318844079971313,
                    0.09746062755584717,
                    1
                ],
                "metallicFactor" : 0,
                "roughnessFactor" : 0.5
            }
        },
        {
            "doubleSided" : true,
            "name" : "Wood",
            "pbrMetallicRoughness" : {
                "baseColorFactor" : [
                    0.24618732929229736,
                    0.14435896277427673,
                    0.053798429667949677,
                    1
                ],
                "metallicFactor" : 0,
                "roughnessFactor" : 0.5
            }
        },
        {
            "doubleSided" : true,
            "name" : "Stone",
            "pbrMetallicRoughness" : {
                "baseColorFactor" : [
                    0.24436430633068085,
                    0.24618881940841675,
                    0.21545054018497467,
                    1
                ],
                "metallicFactor" : 0,
                "roughnessFactor" : 0.5
            }
        },
        {
            "doubleSided" : true,
            "name" : "Stone_Light",
            "pbrMetallicRoughness" : {
                "baseColorFactor" : [
                    0.454056978225708,
                    0.4575270116329193,
                    0.3991142511367798,
                    1
                ],
                "metallicFactor" : 0,
                "roughnessFactor" : 0.5
            }
        },
        {
            "doubleSided" : true,
            "name" : "White",
            "pbrMetallicRoughness" : {
                "baseColorFactor" : [
                    0.4868917763233185,
                    0.4868917763233185,
                    0.4868917763233185,
                    1
                ],
                "metallicFactor" : 0,
                "roughnessFactor" : 0.5
            }
        },
        {
            "doubleSided" : true,
            "name" : "Red",
            "pbrMetallicRoughness" : {
                "baseColorFactor" : [
                    0.28100141882896423,
                    0.005420661997050047,
                    0.0022358763962984085,
                    1
                ],
                "metallicFactor" : 0,
                "roughnessFactor" : 0.5
            }
        },
        {
            "doubleSided" : true,
            "name" : "Main",
            "pbrMetallicRoughness" : {
                "baseColorFactor" : [
                    0.4385380148887634,
                    0.09992149472236633,
                    0.05885644257068634,
                    1
                ],
                "metallicFactor" : 0,
                "roughnessFactor" : 0.5
            }
        }
    ],
    "meshes" : [
        {
            "name" : "Cube.286",
            "primitives" : [
                {
                    "attributes" : {
                        "POSITION" : 0,
                        "NORMAL" : 1,
                        "TEXCOORD_0" : 2
                    },
                    "indices" : 3,
                    "material" : 0
                },
                {
                    "attributes" : {
                        "POSITION" : 4,
                        "NORMAL" : 5,
                        "TEXCOORD_0" : 6
                    },
                    "indices" : 7,
                    "material" : 1
                },
                {
                    "attributes" : {
                        "POSITION" : 8,
                        "NORMAL" : 9,
                        "TEXCOORD_0" : 10
                    },
                    "indices" : 11,
                    "material" : 2
                },
                {
                    "attributes" : {
                        "POSITION" : 12,
                        "NORMAL" : 13,
                        "TEXCOORD_0" : 14
                    },
                    "indices" : 15,
                    "material" : 3
                },
                {
                    "attributes" : {
                        "POSITION" : 16,
                        "NORMAL" : 17,
                        "TEXCOORD_0" : 18
                    },
                    "indices" : 19,
                    "material" : 4
                },
                {
                    "attributes" : {
                        "POSITION" : 20,
                        "NORMAL" : 21,
                        "TEXCOORD_0" : 22
                    },
                    "indices" : 23,
                    "material" : 5
                },
                {
                    "attributes" : {
                        "POSITION" : 24,
                        "NORMAL" : 25,
                        "TEXCOORD_0" : 26
                    },
                    "indices" : 27,
                    "material" : 6
                }
            ]
        }
    ],
    "accessors" : [
        {
            "bufferView" : 0,
            "componentType" : 5126,
            "count" : 1728,
            "max" : [
                0.35444581508636475,
                0.26637929677963257,
                0.07535356283187866
            ],
            "min" : [
                -0.819263219833374,
                -0.003045600140467286,
                -0.8111398220062256
            ],
            "type" : "VEC3"
        },
        {
            "bufferView" : 1,
            "componentType" : 5126,
            "count" : 1728,
            "type" : "VEC3"
        },
        {
            "bufferView" : 2,
            "componentType" : 5126,
            "count" : 1728,
            "type" : "VEC2"
        },
        {
            "bufferView" : 3,
            "componentType" : 5123,
            "count" : 2592,
            "type" : "SCALAR"
        },
        {
            "bufferView" : 4,
            "componentType" : 5126,
            "count" : 2296,
            "max" : [
                0.44976601004600525,
                1.2435177564620972,
                0.08080136775970459
            ],
            "min" : [
                -0.9195824265480042,
                -0.005377447698265314,
                -0.9051847457885742
            ],
            "type" : "VEC3"
        },
        {
            "bufferView" : 5,
            "componentType" : 5126,
            "count" : 2296,
            "type" : "VEC3"
        },
        {
            "bufferView" : 6,
            "componentType" : 5126,
            "count" : 2296,
            "type" : "VEC2"
        },
        {
            "bufferView" : 7,
            "componentType" : 5123,
            "count" : 3954,
            "type" : "SCALAR"
        },
        {
            "bufferView" : 8,
            "componentType" : 5126,
            "count" : 732,
            "max" : [
                0.4248678386211395,
                1.0098103284835815,
                0.09562641382217407
            ],
            "min" : [
                -0.9195824265480042,
                -0.0038402811624109745,
                -0.8858739137649536
            ],
            "type" : "VEC3"
        },
        {
            "bufferView" : 9,
            "componentType" : 5126,
            "count" : 732,
            "type" : "VEC3"
        },
        {
            "bufferView" : 10,
            "componentType" : 5126,
            "count" : 732,
            "type" : "VEC2"
        },
        {
            "bufferView" : 11,
            "componentType" : 5123,
            "count" : 1794,
            "type" : "SCALAR"
        },
        {
            "bufferView" : 12,
            "componentType" : 5126,
            "count" : 2344,
            "max" : [
                -0.4696979224681854,
                1.0880054235458374,
                0.049083590507507324
            ],
            "min" : [
                -0.9305195808410645,
                -0.0017176417168229818,
                -0.8915885090827942
            ],
            "type" : "VEC3"
        },
        {
            "bufferView" : 13,
            "componentType" : 5126,
            "count" : 2344,
            "type" : "VEC3"
        },
        {
            "bufferView" : 14,
            "componentType" : 5126,
            "count" : 2344,
            "type" : "VEC2"
        },
        {
            "bufferView" : 15,
            "componentType" : 5123,
            "count" : 3540,
            "type" : "SCALAR"
        },
        {
            "bufferView" : 16,
            "componentType" : 5126,
            "count" : 1796,
            "max" : [
                0.33162644505500793,
                1.2201789617538452,
                -0.37953639030456543
            ],
            "min" : [
                -0.7854236960411072,
                0.06177005171775818,
                -0.6519796252250671
            ],
            "type" : "VEC3"
        },
        {
            "bufferView" : 17,
            "componentType" : 5126,
            "count" : 1796,
            "type" : "VEC3"
        },
        {
            "bufferView" : 18,
            "componentType" : 5126,
            "count" : 1796,
            "type" : "VEC2"
        },
        {
            "bufferView" : 19,
            "componentType" : 5123,
            "count" : 2736,
            "type" : "SCALAR"
        },
        {
            "bufferView" : 20,
            "componentType" : 5126,
            "count" : 200,
            "max" : [
                0.313799649477005,
                1.1824700832366943,
                -0.4990304112434387
            ],
            "min" : [
                -0.765699565410614,
                0.08423969894647598,
                -0.6211668848991394
            ],
            "type" : "VEC3"
        },
        {
            "bufferView" : 21,
            "componentType" : 5126,
            "count" : 200,
            "type" : "VEC3"
        },
        {
            "bufferView" : 22,
            "componentType" : 5126,
            "count" : 200,
            "type" : "VEC2"
        },
        {
            "bufferView" : 23,
            "componentType" : 5123,
            "count" : 336,
            "type" : "SCALAR"
        },
        {
            "bufferView" : 24,
            "componentType" : 5126,
            "count" : 1440,
            "max" : [
                0.4238831698894501,
                0.5859331488609314,
                -0.25235453248023987
            ],
            "min" : [
                -0.507509171962738,
                0.4826279580593109,
                -0.8780217170715332
            ],
            "type" : "VEC3"
        },
        {
            "bufferView" : 25,
            "componentType" : 5126,
            "count" : 1440,
            "type" : "VEC3"
        },
        {
            "bufferView" : 26,
            "componentType" : 5126,
            "count" : 1440,
            "type" : "VEC2"
        },
        {
            "bufferView" : 27,
            "componentType" : 5123,
            "count" : 3000,
            "type" : "SCALAR"
        }
    ],
    "bufferViews" : [
        {
            "buffer" : 0,
            "byteLength" : 20736,
            "byteOffset" : 0
        },
        {
            "buffer" : 0,
            "byteLength" : 20736,
            "byteOffset" : 20736
        },
        {
            "buffer" : 0,
            "byteLength" : 13824,
            "byteOffset" : 41472
        },
        {
            "buffer" : 0,
            "byteLength" : 5184,
            "byteOffset" : 55296
        },
        {
            "buffer" : 0,
            "byteLength" : 27552,
            "byteOffset" : 60480
        },
        {
            "buffer" : 0,
            "byteLength" : 27552,
            "byteOffset" : 88032
        },
        {
            "buffer" : 0,
            "byteLength" : 18368,
            "byteOffset" : 115584
        },
        {
            "buffer" : 0,
            "byteLength" : 7908,
            "byteOffset" : 133952
        },
        {
            "buffer" : 0,
            "byteLength" : 8784,
            "byteOffset" : 141860
        },
        {
            "buffer" : 0,
            "byteLength" : 8784,
            "byteOffset" : 150644
        },
        {
            "buffer" : 0,
            "byteLength" : 5856,
            "byteOffset" : 159428
        },
        {
            "buffer" : 0,
            "byteLength" : 3588,
            "byteOffset" : 165284
        },
        {
            "buffer" : 0,
            "byteLength" : 28128,
            "byteOffset" : 168872
        },
        {
            "buffer" : 0,
            "byteLength" : 28128,
            "byteOffset" : 197000
        },
        {
            "buffer" : 0,
            "byteLength" : 18752,
            "byteOffset" : 225128
        },
        {
            "buffer" : 0,
            "byteLength" : 7080,
            "byteOffset" : 243880
        },
        {
            "buffer" : 0,
            "byteLength" : 21552,
            "byteOffset" : 250960
        },
        {
            "buffer" : 0,
            "byteLength" : 21552,
            "byteOffset" : 272512
        },
        {
            "buffer" : 0,
            "byteLength" : 14368,
            "byteOffset" : 294064
        },
        {
            "buffer" : 0,
            "byteLength" : 5472,
            "byteOffset" : 308432
        },
        {
            "buffer" : 0,
            "byteLength" : 2400,
            "byteOffset" : 313904
        },
        {
            "buffer" : 0,
            "byteLength" : 2400,
            "byteOffset" : 316304
        },
        {
            "buffer" : 0,
            "byteLength" : 1600,
            "byteOffset" : 318704
        },
        {
            "buffer" : 0,
            "byteLength" : 672,
            "byteOffset" : 320304
        },
        {
            "buffer" : 0,
            "byteLength" : 17280,
            "byteOffset" : 320976
        },
        {
            "buffer" : 0,
            "byteLength" : 17280,
            "byteOffset" : 338256
        },
        {
            "buffer" : 0,
            "byteLength" : 11520,
            "byteOffset" : 355536
        },
        {
            "buffer" : 0,
            "byteLength" : 6000,
            "byteOffset" : 367056
        }
    ],
    "buffers" : [
        {
            "byteLength" : 373056,
            "uri" : "data:application/octet-stream;base64,"
        }
    ]
}
