{
    "asset" : {
        "generator" : "Khronos glTF Blender I/O v1.7.33",
        "version" : "2.0"
    },
    "scene" : 0,
    "scenes" : [
        {
            "name" : "Scene",
            "nodes" : [
                0
            ]
        }
    ],
    "nodes" : [
        {
            "mesh" : 0,
            "name" : "Archery_SecondAge_Level2"
        }
    ],
    "materials" : [
        {
            "doubleSided" : true,
            "name" : "Wood",
            "pbrMetallicRoughness" : {
                "baseColorFactor" : [
                    0.24618732929229736,
                    0.14435896277427673,
                    0.053798429667949677,
                    1
                ],
                "metallicFactor" : 0,
                "roughnessFactor" : 0.5
            }
        },
        {
            "doubleSided" : true,
            "name" : "Wood_Light",
            "pbrMetallicRoughness" : {
                "baseColorFactor" : [
                    0.3757452964782715,
                    0.24318844079971313,
                    0.09746062755584717,
                    1
                ],
                "metallicFactor" : 0,
                "roughnessFactor" : 0.5
            }
        },
        {
            "doubleSided" : true,
            "name" : "Main",
            "pbrMetallicRoughness" : {
                "baseColorFactor" : [
                    0.4385380148887634,
                    0.09992149472236633,
                    0.05885644257068634,
                    1
                ],
                "metallicFactor" : 0,
                "roughnessFactor" : 0.5
            }
        },
        {
            "doubleSided" : true,
            "name" : "Walls",
            "pbrMetallicRoughness" : {
                "baseColorFactor" : [
                    0.4352165758609772,
                    0.4385380148887634,
                    0.3826240599155426,
                    1
                ],
                "metallicFactor" : 0,
                "roughnessFactor" : 0.5
            }
        },
        {
            "doubleSided" : true,
            "name" : "Stone",
            "pbrMetallicRoughness" : {
                "baseColorFactor" : [
                    0.24436430633068085,
                    0.24618881940841675,
                    0.21545054018497467,
                    1
                ],
                "metallicFactor" : 0,
                "roughnessFactor" : 0.5
            }
        },
        {
            "doubleSided" : true,
            "name" : "White",
            "pbrMetallicRoughness" : {
                "baseColorFactor" : [
                    0.4868917763233185,
                    0.4868917763233185,
                    0.4868917763233185,
                    1
                ],
                "metallicFactor" : 0,
                "roughnessFactor" : 0.5
            }
        },
        {
            "doubleSided" : true,
            "name" : "Red",
            "pbrMetallicRoughness" : {
                "baseColorFactor" : [
                    0.28100141882896423,
                    0.005420661997050047,
                    0.0022358763962984085,
                    1
                ],
                "metallicFactor" : 0,
                "roughnessFactor" : 0.5
            }
        },
        {
            "doubleSided" : true,
            "name" : "Stone_Light",
            "pbrMetallicRoughness" : {
                "baseColorFactor" : [
                    0.454056978225708,
                    0.4575270116329193,
                    0.3991142511367798,
                    1
                ],
                "metallicFactor" : 0,
                "roughnessFactor" : 0.5
            }
        }
    ],
    "meshes" : [
        {
            "name" : "Cube.285",
            "primitives" : [
                {
                    "attributes" : {
                        "POSITION" : 0,
                        "NORMAL" : 1,
                        "TEXCOORD_0" : 2
                    },
                    "indices" : 3,
                    "material" : 0
                },
                {
                    "attributes" : {
                        "POSITION" : 4,
                        "NORMAL" : 5,
                        "TEXCOORD_0" : 6
                    },
                    "indices" : 7,
                    "material" : 1
                },
                {
                    "attributes" : {
                        "POSITION" : 8,
                        "NORMAL" : 9,
                        "TEXCOORD_0" : 10
                    },
                    "indices" : 11,
                    "material" : 2
                },
                {
                    "attributes" : {
                        "POSITION" : 12,
                        "NORMAL" : 13,
                        "TEXCOORD_0" : 14
                    },
                    "indices" : 15,
                    "material" : 3
                },
                {
                    "attributes" : {
                        "POSITION" : 16,
                        "NORMAL" : 17,
                        "TEXCOORD_0" : 18
                    },
                    "indices" : 19,
                    "material" : 4
                },
                {
                    "attributes" : {
                        "POSITION" : 20,
                        "NORMAL" : 21,
                        "TEXCOORD_0" : 22
                    },
                    "indices" : 23,
                    "material" : 5
                },
                {
                    "attributes" : {
                        "POSITION" : 24,
                        "NORMAL" : 25,
                        "TEXCOORD_0" : 26
                    },
                    "indices" : 27,
                    "material" : 6
                },
                {
                    "attributes" : {
                        "POSITION" : 28,
                        "NORMAL" : 29,
                        "TEXCOORD_0" : 30
                    },
                    "indices" : 31,
                    "material" : 7
                }
            ]
        }
    ],
    "accessors" : [
        {
            "bufferView" : 0,
            "componentType" : 5126,
            "count" : 2308,
            "max" : [
                0.9962939023971558,
                1.4995206594467163,
                0.7311795353889465
            ],
            "min" : [
                -0.9195824265480042,
                -0.005377447698265314,
                -0.9238649606704712
            ],
            "type" : "VEC3"
        },
        {
            "bufferView" : 1,
            "componentType" : 5126,
            "count" : 2308,
            "type" : "VEC3"
        },
        {
            "bufferView" : 2,
            "componentType" : 5126,
            "count" : 2308,
            "type" : "VEC2"
        },
        {
            "bufferView" : 3,
            "componentType" : 5123,
            "count" : 3750,
            "type" : "SCALAR"
        },
        {
            "bufferView" : 4,
            "componentType" : 5126,
            "count" : 712,
            "max" : [
                0.741386890411377,
                0.26910990476608276,
                0.6161854267120361
            ],
            "min" : [
                -0.8185868859291077,
                -0.003045600140467286,
                -0.881162166595459
            ],
            "type" : "VEC3"
        },
        {
            "bufferView" : 5,
            "componentType" : 5126,
            "count" : 712,
            "type" : "VEC3"
        },
        {
            "bufferView" : 6,
            "componentType" : 5126,
            "count" : 712,
            "type" : "VEC2"
        },
        {
            "bufferView" : 7,
            "componentType" : 5123,
            "count" : 1092,
            "type" : "SCALAR"
        },
        {
            "bufferView" : 8,
            "componentType" : 5126,
            "count" : 3478,
            "max" : [
                0.9691308736801147,
                0.7051255702972412,
                0.3918786644935608
            ],
            "min" : [
                -0.507509171962738,
                0.4826279580593109,
                -0.8780217170715332
            ],
            "type" : "VEC3"
        },
        {
            "bufferView" : 9,
            "componentType" : 5126,
            "count" : 3478,
            "type" : "VEC3"
        },
        {
            "bufferView" : 10,
            "componentType" : 5126,
            "count" : 3478,
            "type" : "VEC2"
        },
        {
            "bufferView" : 11,
            "componentType" : 5123,
            "count" : 7260,
            "type" : "SCALAR"
        },
        {
            "bufferView" : 12,
            "componentType" : 5126,
            "count" : 32,
            "max" : [
                0.955042839050293,
                0.6166692972183228,
                0.3745543360710144
            ],
            "min" : [
                0.3610393702983856,
                0.055712997913360596,
                -0.8488064408302307
            ],
            "type" : "VEC3"
        },
        {
            "bufferView" : 13,
            "componentType" : 5126,
            "count" : 32,
            "type" : "VEC3"
        },
        {
            "bufferView" : 14,
            "componentType" : 5126,
            "count" : 32,
            "type" : "VEC2"
        },
        {
            "bufferView" : 15,
            "componentType" : 5123,
            "count" : 48,
            "type" : "SCALAR"
        },
        {
            "bufferView" : 16,
            "componentType" : 5126,
            "count" : 772,
            "max" : [
                0.9769830703735352,
                1.2658132314682007,
                0.6461743116378784
            ],
            "min" : [
                -0.9195824265480042,
                -0.0038402811624109745,
                -0.8858739137649536
            ],
            "type" : "VEC3"
        },
        {
            "bufferView" : 17,
            "componentType" : 5126,
            "count" : 772,
            "type" : "VEC3"
        },
        {
            "bufferView" : 18,
            "componentType" : 5126,
            "count" : 772,
            "type" : "VEC2"
        },
        {
            "bufferView" : 19,
            "componentType" : 5123,
            "count" : 1854,
            "type" : "SCALAR"
        },
        {
            "bufferView" : 20,
            "componentType" : 5126,
            "count" : 1878,
            "max" : [
                0.3038906455039978,
                1.4761818647384644,
                0.7314822673797607
            ],
            "min" : [
                -0.7854236960411072,
                0.06177005171775818,
                -0.6519796252250671
            ],
            "type" : "VEC3"
        },
        {
            "bufferView" : 21,
            "componentType" : 5126,
            "count" : 1878,
            "type" : "VEC3"
        },
        {
            "bufferView" : 22,
            "componentType" : 5126,
            "count" : 1878,
            "type" : "VEC2"
        },
        {
            "bufferView" : 23,
            "componentType" : 5123,
            "count" : 2856,
            "type" : "SCALAR"
        },
        {
            "bufferView" : 24,
            "componentType" : 5126,
            "count" : 200,
            "max" : [
                0.2860638499259949,
                1.4384729862213135,
                -0.4990304112434387
            ],
            "min" : [
                -0.765699565410614,
                0.08423969894647598,
                -0.6211668848991394
            ],
            "type" : "VEC3"
        },
        {
            "bufferView" : 25,
            "componentType" : 5126,
            "count" : 200,
            "type" : "VEC3"
        },
        {
            "bufferView" : 26,
            "componentType" : 5126,
            "count" : 200,
            "type" : "VEC2"
        },
        {
            "bufferView" : 27,
            "componentType" : 5123,
            "count" : 336,
            "type" : "SCALAR"
        },
        {
            "bufferView" : 28,
            "componentType" : 5126,
            "count" : 2824,
            "max" : [
                -0.4696979224681854,
                1.3440083265304565,
                0.5707637071609497
            ],
            "min" : [
                -0.9305195808410645,
                -0.0017176417168229818,
                -0.8915885090827942
            ],
            "type" : "VEC3"
        },
        {
            "bufferView" : 29,
            "componentType" : 5126,
            "count" : 2824,
            "type" : "VEC3"
        },
        {
            "bufferView" : 30,
            "componentType" : 5126,
            "count" : 2824,
            "type" : "VEC2"
        },
        {
            "bufferView" : 31,
            "componentType" : 5123,
            "count" : 4260,
            "type" : "SCALAR"
        }
    ],
    "bufferViews" : [
        {
            "buffer" : 0,
            "byteLength" : 27696,
            "byteOffset" : 0
        },
        {
            "buffer" : 0,
            "byteLength" : 27696,
            "byteOffset" : 27696
        },
        {
            "buffer" : 0,
            "byteLength" : 18464,
            "byteOffset" : 55392
        },
        {
            "buffer" : 0,
            "byteLength" : 7500,
            "byteOffset" : 73856
        },
        {
            "buffer" : 0,
            "byteLength" : 8544,
            "byteOffset" : 81356
        },
        {
            "buffer" : 0,
            "byteLength" : 8544,
            "byteOffset" : 89900
        },
        {
            "buffer" : 0,
            "byteLength" : 5696,
            "byteOffset" : 98444
        },
        {
            "buffer" : 0,
            "byteLength" : 2184,
            "byteOffset" : 104140
        },
        {
            "buffer" : 0,
            "byteLength" : 41736,
            "byteOffset" : 106324
        },
        {
            "buffer" : 0,
            "byteLength" : 41736,
            "byteOffset" : 148060
        },
        {
            "buffer" : 0,
            "byteLength" : 27824,
            "byteOffset" : 189796
        },
        {
            "buffer" : 0,
            "byteLength" : 14520,
            "byteOffset" : 217620
        },
        {
            "buffer" : 0,
            "byteLength" : 384,
            "byteOffset" : 232140
        },
        {
            "buffer" : 0,
            "byteLength" : 384,
            "byteOffset" : 232524
        },
        {
            "buffer" : 0,
            "byteLength" : 256,
            "byteOffset" : 232908
        },
        {
            "buffer" : 0,
            "byteLength" : 96,
            "byteOffset" : 233164
        },
        {
            "buffer" : 0,
            "byteLength" : 9264,
            "byteOffset" : 233260
        },
        {
            "buffer" : 0,
            "byteLength" : 9264,
            "byteOffset" : 242524
        },
        {
            "buffer" : 0,
            "byteLength" : 6176,
            "byteOffset" : 251788
        },
        {
            "buffer" : 0,
            "byteLength" : 3708,
            "byteOffset" : 257964
        },
        {
            "buffer" : 0,
            "byteLength" : 22536,
            "byteOffset" : 261672
        },
        {
            "buffer" : 0,
            "byteLength" : 22536,
            "byteOffset" : 284208
        },
        {
            "buffer" : 0,
            "byteLength" : 15024,
            "byteOffset" : 306744
        },
        {
            "buffer" : 0,
            "byteLength" : 5712,
            "byteOffset" : 321768
        },
        {
            "buffer" : 0,
            "byteLength" : 2400,
            "byteOffset" : 327480
        },
        {
            "buffer" : 0,
            "byteLength" : 2400,
            "byteOffset" : 329880
        },
        {
            "buffer" : 0,
            "byteLength" : 1600,
            "byteOffset" : 332280
        },
        {
            "buffer" : 0,
            "byteLength" : 672,
            "byteOffset" : 333880
        },
        {
            "buffer" : 0,
            "byteLength" : 33888,
            "byteOffset" : 334552
        },
        {
            "buffer" : 0,
            "byteLength" : 33888,
            "byteOffset" : 368440
        },
        {
            "buffer" : 0,
            "byteLength" : 22592,
            "byteOffset" : 402328
        },
        {
            "buffer" : 0,
            "byteLength" : 8520,
            "byteOffset" : 424920
        }
    ],
    "buffers" : [
        {
            "byteLength" : 433440,
            "uri" : "data:application/octet-stream;base64,"
        }
    ]
}
