{
    "asset" : {
        "generator" : "Khronos glTF Blender I/O v1.7.33",
        "version" : "2.0"
    },
    "scene" : 0,
    "scenes" : [
        {
            "name" : "Scene",
            "nodes" : [
                0
            ]
        }
    ],
    "nodes" : [
        {
            "mesh" : 0,
            "name" : "Barracks_FirstAge_Level3"
        }
    ],
    "materials" : [
        {
            "doubleSided" : true,
            "name" : "Wood",
            "pbrMetallicRoughness" : {
                "baseColorFactor" : [
                    0.24618732929229736,
                    0.14435896277427673,
                    0.053798429667949677,
                    1
                ],
                "metallicFactor" : 0,
                "roughnessFactor" : 0.5
            }
        },
        {
            "doubleSided" : true,
            "name" : "Stone",
            "pbrMetallicRoughness" : {
                "baseColorFactor" : [
                    0.24436430633068085,
                    0.24618881940841675,
                    0.21545054018497467,
                    1
                ],
                "metallicFactor" : 0,
                "roughnessFactor" : 0.5
            }
        },
        {
            "doubleSided" : true,
            "name" : "Wood_Light",
            "pbrMetallicRoughness" : {
                "baseColorFactor" : [
                    0.3757452964782715,
                    0.24318844079971313,
                    0.09746062755584717,
                    1
                ],
                "metallicFactor" : 0,
                "roughnessFactor" : 0.5
            }
        },
        {
            "doubleSided" : true,
            "name" : "Stone_Light",
            "pbrMetallicRoughness" : {
                "baseColorFactor" : [
                    0.454056978225708,
                    0.4575270116329193,
                    0.3991142511367798,
                    1
                ],
                "metallicFactor" : 0,
                "roughnessFactor" : 0.5
            }
        },
        {
            "doubleSided" : true,
            "name" : "Main",
            "pbrMetallicRoughness" : {
                "baseColorFactor" : [
                    0.4385380148887634,
                    0.09992149472236633,
                    0.05885644257068634,
                    1
                ],
                "metallicFactor" : 0,
                "roughnessFactor" : 0.5
            }
        },
        {
            "doubleSided" : true,
            "name" : "Gold",
            "pbrMetallicRoughness" : {
                "baseColorFactor" : [
                    0.3843711018562317,
                    0.22474361956119537,
                    0.05112964287400246,
                    1
                ],
                "metallicFactor" : 0,
                "roughnessFactor" : 0.5
            }
        },
        {
            "doubleSided" : true,
            "name" : "Metal_Light",
            "pbrMetallicRoughness" : {
                "baseColorFactor" : [
                    0.19017364084720612,
                    0.19017364084720612,
                    0.19017364084720612,
                    1
                ],
                "metallicFactor" : 0,
                "roughnessFactor" : 0.5
            }
        },
        {
            "doubleSided" : true,
            "name" : "White",
            "pbrMetallicRoughness" : {
                "baseColorFactor" : [
                    0.4868917763233185,
                    0.4868917763233185,
                    0.4868917763233185,
                    1
                ],
                "metallicFactor" : 0,
                "roughnessFactor" : 0.5
            }
        }
    ],
    "meshes" : [
        {
            "name" : "Cube.231",
            "primitives" : [
                {
                    "attributes" : {
                        "POSITION" : 0,
                        "NORMAL" : 1,
                        "TEXCOORD_0" : 2
                    },
                    "indices" : 3,
                    "material" : 0
                },
                {
                    "attributes" : {
                        "POSITION" : 4,
                        "NORMAL" : 5,
                        "TEXCOORD_0" : 6
                    },
                    "indices" : 7,
                    "material" : 1
                },
                {
                    "attributes" : {
                        "POSITION" : 8,
                        "NORMAL" : 9,
                        "TEXCOORD_0" : 10
                    },
                    "indices" : 11,
                    "material" : 2
                },
                {
                    "attributes" : {
                        "POSITION" : 12,
                        "NORMAL" : 13,
                        "TEXCOORD_0" : 14
                    },
                    "indices" : 15,
                    "material" : 3
                },
                {
                    "attributes" : {
                        "POSITION" : 16,
                        "NORMAL" : 17,
                        "TEXCOORD_0" : 18
                    },
                    "indices" : 19,
                    "material" : 4
                },
                {
                    "attributes" : {
                        "POSITION" : 20,
                        "NORMAL" : 21,
                        "TEXCOORD_0" : 22
                    },
                    "indices" : 23,
                    "material" : 5
                },
                {
                    "attributes" : {
                        "POSITION" : 24,
                        "NORMAL" : 25,
                        "TEXCOORD_0" : 26
                    },
                    "indices" : 27,
                    "material" : 6
                },
                {
                    "attributes" : {
                        "POSITION" : 28,
                        "NORMAL" : 29,
                        "TEXCOORD_0" : 30
                    },
                    "indices" : 31,
                    "material" : 7
                }
            ]
        }
    ],
    "accessors" : [
        {
            "bufferView" : 0,
            "componentType" : 5126,
            "count" : 4662,
            "max" : [
                1.1650501489639282,
                1.4625476598739624,
                0.6865199208259583
            ],
            "min" : [
                -1.1650501489639282,
                -0.007163794245570898,
                -0.6865199208259583
            ],
            "type" : "VEC3"
        },
        {
            "bufferView" : 1,
            "componentType" : 5126,
            "count" : 4662,
            "type" : "VEC3"
        },
        {
            "bufferView" : 2,
            "componentType" : 5126,
            "count" : 4662,
            "type" : "VEC2"
        },
        {
            "bufferView" : 3,
            "componentType" : 5123,
            "count" : 7476,
            "type" : "SCALAR"
        },
        {
            "bufferView" : 4,
            "componentType" : 5126,
            "count" : 638,
            "max" : [
                1.0745205879211426,
                0.4087029695510864,
                0.7830820679664612
            ],
            "min" : [
                -1.0745205879211426,
                -0.005481027066707611,
                -0.7830820679664612
            ],
            "type" : "VEC3"
        },
        {
            "bufferView" : 5,
            "componentType" : 5126,
            "count" : 638,
            "type" : "VEC3"
        },
        {
            "bufferView" : 6,
            "componentType" : 5126,
            "count" : 638,
            "type" : "VEC2"
        },
        {
            "bufferView" : 7,
            "componentType" : 5123,
            "count" : 1056,
            "type" : "SCALAR"
        },
        {
            "bufferView" : 8,
            "componentType" : 5126,
            "count" : 435,
            "max" : [
                1.1650501489639282,
                1.311056137084961,
                0.560144305229187
            ],
            "min" : [
                -1.1650501489639282,
                -0.003791391383856535,
                -0.560144305229187
            ],
            "type" : "VEC3"
        },
        {
            "bufferView" : 9,
            "componentType" : 5126,
            "count" : 435,
            "type" : "VEC3"
        },
        {
            "bufferView" : 10,
            "componentType" : 5126,
            "count" : 435,
            "type" : "VEC2"
        },
        {
            "bufferView" : 11,
            "componentType" : 5123,
            "count" : 756,
            "type" : "SCALAR"
        },
        {
            "bufferView" : 12,
            "componentType" : 5126,
            "count" : 192,
            "max" : [
                1.0466570854187012,
                0.38574716448783875,
                0.5461918711662292
            ],
            "min" : [
                -1.0466570854187012,
                0.30241164565086365,
                -0.5461918711662292
            ],
            "type" : "VEC3"
        },
        {
            "bufferView" : 13,
            "componentType" : 5126,
            "count" : 192,
            "type" : "VEC3"
        },
        {
            "bufferView" : 14,
            "componentType" : 5126,
            "count" : 192,
            "type" : "VEC2"
        },
        {
            "bufferView" : 15,
            "componentType" : 5123,
            "count" : 288,
            "type" : "SCALAR"
        },
        {
            "bufferView" : 16,
            "componentType" : 5126,
            "count" : 330,
            "max" : [
                1.0385839939117432,
                1.4419804811477661,
                0.5434577465057373
            ],
            "min" : [
                -1.0385839939117432,
                0.10687290877103806,
                -0.5434577465057373
            ],
            "type" : "VEC3"
        },
        {
            "bufferView" : 17,
            "componentType" : 5126,
            "count" : 330,
            "type" : "VEC3"
        },
        {
            "bufferView" : 18,
            "componentType" : 5126,
            "count" : 330,
            "type" : "VEC2"
        },
        {
            "bufferView" : 19,
            "componentType" : 5123,
            "count" : 552,
            "type" : "SCALAR"
        },
        {
            "bufferView" : 20,
            "componentType" : 5126,
            "count" : 448,
            "max" : [
                0.13130757212638855,
                0.5658848285675049,
                0.5503412485122681
            ],
            "min" : [
                -0.13130725920200348,
                0.46906521916389465,
                -0.5503412485122681
            ],
            "type" : "VEC3"
        },
        {
            "bufferView" : 21,
            "componentType" : 5126,
            "count" : 448,
            "type" : "VEC3"
        },
        {
            "bufferView" : 22,
            "componentType" : 5126,
            "count" : 448,
            "type" : "VEC2"
        },
        {
            "bufferView" : 23,
            "componentType" : 5123,
            "count" : 672,
            "type" : "SCALAR"
        },
        {
            "bufferView" : 24,
            "componentType" : 5126,
            "count" : 456,
            "max" : [
                0.08738734573125839,
                0.6804299354553223,
                0.5332667231559753
            ],
            "min" : [
                -0.08738705515861511,
                0.5227196216583252,
                -0.5332667231559753
            ],
            "type" : "VEC3"
        },
        {
            "bufferView" : 25,
            "componentType" : 5126,
            "count" : 456,
            "type" : "VEC3"
        },
        {
            "bufferView" : 26,
            "componentType" : 5126,
            "count" : 456,
            "type" : "VEC2"
        },
        {
            "bufferView" : 27,
            "componentType" : 5123,
            "count" : 648,
            "type" : "SCALAR"
        },
        {
            "bufferView" : 28,
            "componentType" : 5126,
            "count" : 320,
            "max" : [
                0.1050533875823021,
                0.6968306303024292,
                0.5332667231559753
            ],
            "min" : [
                -0.10505308955907822,
                0.5189211964607239,
                -0.5332667231559753
            ],
            "type" : "VEC3"
        },
        {
            "bufferView" : 29,
            "componentType" : 5126,
            "count" : 320,
            "type" : "VEC3"
        },
        {
            "bufferView" : 30,
            "componentType" : 5126,
            "count" : 320,
            "type" : "VEC2"
        },
        {
            "bufferView" : 31,
            "componentType" : 5123,
            "count" : 480,
            "type" : "SCALAR"
        }
    ],
    "bufferViews" : [
        {
            "buffer" : 0,
            "byteLength" : 55944,
            "byteOffset" : 0
        },
        {
            "buffer" : 0,
            "byteLength" : 55944,
            "byteOffset" : 55944
        },
        {
            "buffer" : 0,
            "byteLength" : 37296,
            "byteOffset" : 111888
        },
        {
            "buffer" : 0,
            "byteLength" : 14952,
            "byteOffset" : 149184
        },
        {
            "buffer" : 0,
            "byteLength" : 7656,
            "byteOffset" : 164136
        },
        {
            "buffer" : 0,
            "byteLength" : 7656,
            "byteOffset" : 171792
        },
        {
            "buffer" : 0,
            "byteLength" : 5104,
            "byteOffset" : 179448
        },
        {
            "buffer" : 0,
            "byteLength" : 2112,
            "byteOffset" : 184552
        },
        {
            "buffer" : 0,
            "byteLength" : 5220,
            "byteOffset" : 186664
        },
        {
            "buffer" : 0,
            "byteLength" : 5220,
            "byteOffset" : 191884
        },
        {
            "buffer" : 0,
            "byteLength" : 3480,
            "byteOffset" : 197104
        },
        {
            "buffer" : 0,
            "byteLength" : 1512,
            "byteOffset" : 200584
        },
        {
            "buffer" : 0,
            "byteLength" : 2304,
            "byteOffset" : 202096
        },
        {
            "buffer" : 0,
            "byteLength" : 2304,
            "byteOffset" : 204400
        },
        {
            "buffer" : 0,
            "byteLength" : 1536,
            "byteOffset" : 206704
        },
        {
            "buffer" : 0,
            "byteLength" : 576,
            "byteOffset" : 208240
        },
        {
            "buffer" : 0,
            "byteLength" : 3960,
            "byteOffset" : 208816
        },
        {
            "buffer" : 0,
            "byteLength" : 3960,
            "byteOffset" : 212776
        },
        {
            "buffer" : 0,
            "byteLength" : 2640,
            "byteOffset" : 216736
        },
        {
            "buffer" : 0,
            "byteLength" : 1104,
            "byteOffset" : 219376
        },
        {
            "buffer" : 0,
            "byteLength" : 5376,
            "byteOffset" : 220480
        },
        {
            "buffer" : 0,
            "byteLength" : 5376,
            "byteOffset" : 225856
        },
        {
            "buffer" : 0,
            "byteLength" : 3584,
            "byteOffset" : 231232
        },
        {
            "buffer" : 0,
            "byteLength" : 1344,
            "byteOffset" : 234816
        },
        {
            "buffer" : 0,
            "byteLength" : 5472,
            "byteOffset" : 236160
        },
        {
            "buffer" : 0,
            "byteLength" : 5472,
            "byteOffset" : 241632
        },
        {
            "buffer" : 0,
            "byteLength" : 3648,
            "byteOffset" : 247104
        },
        {
            "buffer" : 0,
            "byteLength" : 1296,
            "byteOffset" : 250752
        },
        {
            "buffer" : 0,
            "byteLength" : 3840,
            "byteOffset" : 252048
        },
        {
            "buffer" : 0,
            "byteLength" : 3840,
            "byteOffset" : 255888
        },
        {
            "buffer" : 0,
            "byteLength" : 2560,
            "byteOffset" : 259728
        },
        {
            "buffer" : 0,
            "byteLength" : 960,
            "byteOffset" : 262288
        }
    ],
    "buffers" : [
        {
            "byteLength" : 263248,
            "uri" : "data:application/octet-stream;base64,"
        }
    ]
}
