{
    "asset" : {
        "generator" : "Khronos glTF Blender I/O v1.7.33",
        "version" : "2.0"
    },
    "scene" : 0,
    "scenes" : [
        {
            "name" : "Scene",
            "nodes" : [
                0
            ]
        }
    ],
    "nodes" : [
        {
            "mesh" : 0,
            "name" : "Barracks_SecondAge_Level1"
        }
    ],
    "materials" : [
        {
            "doubleSided" : true,
            "name" : "Wood",
            "pbrMetallicRoughness" : {
                "baseColorFactor" : [
                    0.24618732929229736,
                    0.14435896277427673,
                    0.053798429667949677,
                    1
                ],
                "metallicFactor" : 0,
                "roughnessFactor" : 0.5
            }
        },
        {
            "doubleSided" : true,
            "name" : "Wood_Light",
            "pbrMetallicRoughness" : {
                "baseColorFactor" : [
                    0.3757452964782715,
                    0.24318844079971313,
                    0.09746062755584717,
                    1
                ],
                "metallicFactor" : 0,
                "roughnessFactor" : 0.5
            }
        },
        {
            "doubleSided" : true,
            "name" : "Stone",
            "pbrMetallicRoughness" : {
                "baseColorFactor" : [
                    0.24436430633068085,
                    0.24618881940841675,
                    0.21545054018497467,
                    1
                ],
                "metallicFactor" : 0,
                "roughnessFactor" : 0.5
            }
        },
        {
            "doubleSided" : true,
            "name" : "Walls",
            "pbrMetallicRoughness" : {
                "baseColorFactor" : [
                    0.4352165758609772,
                    0.4385380148887634,
                    0.3826240599155426,
                    1
                ],
                "metallicFactor" : 0,
                "roughnessFactor" : 0.5
            }
        },
        {
            "doubleSided" : true,
            "name" : "Stone_Light",
            "pbrMetallicRoughness" : {
                "baseColorFactor" : [
                    0.454056978225708,
                    0.4575270116329193,
                    0.3991142511367798,
                    1
                ],
                "metallicFactor" : 0,
                "roughnessFactor" : 0.5
            }
        },
        {
            "doubleSided" : true,
            "name" : "Main",
            "pbrMetallicRoughness" : {
                "baseColorFactor" : [
                    0.4385380148887634,
                    0.09992149472236633,
                    0.05885644257068634,
                    1
                ],
                "metallicFactor" : 0,
                "roughnessFactor" : 0.5
            }
        },
        {
            "doubleSided" : true,
            "name" : "Gold",
            "pbrMetallicRoughness" : {
                "baseColorFactor" : [
                    0.3843711018562317,
                    0.22474361956119537,
                    0.05112964287400246,
                    1
                ],
                "metallicFactor" : 0,
                "roughnessFactor" : 0.5
            }
        },
        {
            "doubleSided" : true,
            "name" : "Metal_Light",
            "pbrMetallicRoughness" : {
                "baseColorFactor" : [
                    0.19017364084720612,
                    0.19017364084720612,
                    0.19017364084720612,
                    1
                ],
                "metallicFactor" : 0,
                "roughnessFactor" : 0.5
            }
        },
        {
            "doubleSided" : true,
            "name" : "White",
            "pbrMetallicRoughness" : {
                "baseColorFactor" : [
                    0.4868917763233185,
                    0.4868917763233185,
                    0.4868917763233185,
                    1
                ],
                "metallicFactor" : 0,
                "roughnessFactor" : 0.5
            }
        }
    ],
    "meshes" : [
        {
            "name" : "Cube.283",
            "primitives" : [
                {
                    "attributes" : {
                        "POSITION" : 0,
                        "NORMAL" : 1,
                        "TEXCOORD_0" : 2
                    },
                    "indices" : 3,
                    "material" : 0
                },
                {
                    "attributes" : {
                        "POSITION" : 4,
                        "NORMAL" : 5,
                        "TEXCOORD_0" : 6
                    },
                    "indices" : 7,
                    "material" : 1
                },
                {
                    "attributes" : {
                        "POSITION" : 8,
                        "NORMAL" : 9,
                        "TEXCOORD_0" : 10
                    },
                    "indices" : 11,
                    "material" : 2
                },
                {
                    "attributes" : {
                        "POSITION" : 12,
                        "NORMAL" : 13,
                        "TEXCOORD_0" : 14
                    },
                    "indices" : 15,
                    "material" : 3
                },
                {
                    "attributes" : {
                        "POSITION" : 16,
                        "NORMAL" : 17,
                        "TEXCOORD_0" : 18
                    },
                    "indices" : 19,
                    "material" : 4
                },
                {
                    "attributes" : {
                        "POSITION" : 20,
                        "NORMAL" : 21,
                        "TEXCOORD_0" : 22
                    },
                    "indices" : 23,
                    "material" : 5
                },
                {
                    "attributes" : {
                        "POSITION" : 24,
                        "NORMAL" : 25,
                        "TEXCOORD_0" : 26
                    },
                    "indices" : 27,
                    "material" : 6
                },
                {
                    "attributes" : {
                        "POSITION" : 28,
                        "NORMAL" : 29,
                        "TEXCOORD_0" : 30
                    },
                    "indices" : 31,
                    "material" : 7
                },
                {
                    "attributes" : {
                        "POSITION" : 32,
                        "NORMAL" : 33,
                        "TEXCOORD_0" : 34
                    },
                    "indices" : 35,
                    "material" : 8
                }
            ]
        }
    ],
    "accessors" : [
        {
            "bufferView" : 0,
            "componentType" : 5126,
            "count" : 1420,
            "max" : [
                0.4646035432815552,
                0.8851940035820007,
                0.43675196170806885
            ],
            "min" : [
                -0.4646035432815552,
                -0.007163794245570898,
                -0.6865199208259583
            ],
            "type" : "VEC3"
        },
        {
            "bufferView" : 1,
            "componentType" : 5126,
            "count" : 1420,
            "type" : "VEC3"
        },
        {
            "bufferView" : 2,
            "componentType" : 5126,
            "count" : 1420,
            "type" : "VEC2"
        },
        {
            "bufferView" : 3,
            "componentType" : 5123,
            "count" : 2220,
            "type" : "SCALAR"
        },
        {
            "bufferView" : 4,
            "componentType" : 5126,
            "count" : 179,
            "max" : [
                0.4569549560546875,
                0.8165010213851929,
                0.3391180634498596
            ],
            "min" : [
                -0.4569548964500427,
                -0.0053663854487240314,
                -0.560144305229187
            ],
            "type" : "VEC3"
        },
        {
            "bufferView" : 5,
            "componentType" : 5126,
            "count" : 179,
            "type" : "VEC3"
        },
        {
            "bufferView" : 6,
            "componentType" : 5126,
            "count" : 179,
            "type" : "VEC2"
        },
        {
            "bufferView" : 7,
            "componentType" : 5123,
            "count" : 264,
            "type" : "SCALAR"
        },
        {
            "bufferView" : 8,
            "componentType" : 5126,
            "count" : 434,
            "max" : [
                0.504803478717804,
                0.403594434261322,
                0.5473130345344543
            ],
            "min" : [
                -0.504803478717804,
                -0.005481027066707611,
                -0.7830820679664612
            ],
            "type" : "VEC3"
        },
        {
            "bufferView" : 9,
            "componentType" : 5126,
            "count" : 434,
            "type" : "VEC3"
        },
        {
            "bufferView" : 10,
            "componentType" : 5126,
            "count" : 434,
            "type" : "VEC2"
        },
        {
            "bufferView" : 11,
            "componentType" : 5123,
            "count" : 660,
            "type" : "SCALAR"
        },
        {
            "bufferView" : 12,
            "componentType" : 5126,
            "count" : 136,
            "max" : [
                0.4295958876609802,
                0.1751324087381363,
                0.585551381111145
            ],
            "min" : [
                -0.4295958876609802,
                -0.007909965701401234,
                -0.8213204145431519
            ],
            "type" : "VEC3"
        },
        {
            "bufferView" : 13,
            "componentType" : 5126,
            "count" : 136,
            "type" : "VEC3"
        },
        {
            "bufferView" : 14,
            "componentType" : 5126,
            "count" : 136,
            "type" : "VEC2"
        },
        {
            "bufferView" : 15,
            "componentType" : 5123,
            "count" : 216,
            "type" : "SCALAR"
        },
        {
            "bufferView" : 16,
            "componentType" : 5126,
            "count" : 64,
            "max" : [
                0.4258319139480591,
                0.5611441135406494,
                0.005183666944503784
            ],
            "min" : [
                -0.4258319139480591,
                -0.003791391383856535,
                -0.4349689781665802
            ],
            "type" : "VEC3"
        },
        {
            "bufferView" : 17,
            "componentType" : 5126,
            "count" : 64,
            "type" : "VEC3"
        },
        {
            "bufferView" : 18,
            "componentType" : 5126,
            "count" : 64,
            "type" : "VEC2"
        },
        {
            "bufferView" : 19,
            "componentType" : 5123,
            "count" : 96,
            "type" : "SCALAR"
        },
        {
            "bufferView" : 20,
            "componentType" : 5126,
            "count" : 2704,
            "max" : [
                0.44963833689689636,
                0.8815560936927795,
                0.32725340127944946
            ],
            "min" : [
                -0.44963833689689636,
                0.6067262291908264,
                -0.43431344628334045
            ],
            "type" : "VEC3"
        },
        {
            "bufferView" : 21,
            "componentType" : 5126,
            "count" : 2704,
            "type" : "VEC3"
        },
        {
            "bufferView" : 22,
            "componentType" : 5126,
            "count" : 2704,
            "type" : "VEC2"
        },
        {
            "bufferView" : 23,
            "componentType" : 5123,
            "count" : 4056,
            "type" : "SCALAR"
        },
        {
            "bufferView" : 24,
            "componentType" : 5126,
            "count" : 448,
            "max" : [
                0.13130739331245422,
                0.5660704970359802,
                0.3551844358444214
            ],
            "min" : [
                -0.1313074678182602,
                0.435339093208313,
                -0.5178265571594238
            ],
            "type" : "VEC3"
        },
        {
            "bufferView" : 25,
            "componentType" : 5126,
            "count" : 448,
            "type" : "VEC3"
        },
        {
            "bufferView" : 26,
            "componentType" : 5126,
            "count" : 448,
            "type" : "VEC2"
        },
        {
            "bufferView" : 27,
            "componentType" : 5123,
            "count" : 672,
            "type" : "SCALAR"
        },
        {
            "bufferView" : 28,
            "componentType" : 5126,
            "count" : 456,
            "max" : [
                0.08738719671964645,
                0.682747483253479,
                0.3545781373977661
            ],
            "min" : [
                -0.08738724887371063,
                0.4886559545993805,
                -0.5172202587127686
            ],
            "type" : "VEC3"
        },
        {
            "bufferView" : 29,
            "componentType" : 5126,
            "count" : 456,
            "type" : "VEC3"
        },
        {
            "bufferView" : 30,
            "componentType" : 5126,
            "count" : 456,
            "type" : "VEC2"
        },
        {
            "bufferView" : 31,
            "componentType" : 5123,
            "count" : 648,
            "type" : "SCALAR"
        },
        {
            "bufferView" : 32,
            "componentType" : 5126,
            "count" : 320,
            "max" : [
                0.10505323112010956,
                0.6996191740036011,
                0.3545781373977661
            ],
            "min" : [
                -0.10505329072475433,
                0.4845414161682129,
                -0.5172202587127686
            ],
            "type" : "VEC3"
        },
        {
            "bufferView" : 33,
            "componentType" : 5126,
            "count" : 320,
            "type" : "VEC3"
        },
        {
            "bufferView" : 34,
            "componentType" : 5126,
            "count" : 320,
            "type" : "VEC2"
        },
        {
            "bufferView" : 35,
            "componentType" : 5123,
            "count" : 480,
            "type" : "SCALAR"
        }
    ],
    "bufferViews" : [
        {
            "buffer" : 0,
            "byteLength" : 17040,
            "byteOffset" : 0
        },
        {
            "buffer" : 0,
            "byteLength" : 17040,
            "byteOffset" : 17040
        },
        {
            "buffer" : 0,
            "byteLength" : 11360,
            "byteOffset" : 34080
        },
        {
            "buffer" : 0,
            "byteLength" : 4440,
            "byteOffset" : 45440
        },
        {
            "buffer" : 0,
            "byteLength" : 2148,
            "byteOffset" : 49880
        },
        {
            "buffer" : 0,
            "byteLength" : 2148,
            "byteOffset" : 52028
        },
        {
            "buffer" : 0,
            "byteLength" : 1432,
            "byteOffset" : 54176
        },
        {
            "buffer" : 0,
            "byteLength" : 528,
            "byteOffset" : 55608
        },
        {
            "buffer" : 0,
            "byteLength" : 5208,
            "byteOffset" : 56136
        },
        {
            "buffer" : 0,
            "byteLength" : 5208,
            "byteOffset" : 61344
        },
        {
            "buffer" : 0,
            "byteLength" : 3472,
            "byteOffset" : 66552
        },
        {
            "buffer" : 0,
            "byteLength" : 1320,
            "byteOffset" : 70024
        },
        {
            "buffer" : 0,
            "byteLength" : 1632,
            "byteOffset" : 71344
        },
        {
            "buffer" : 0,
            "byteLength" : 1632,
            "byteOffset" : 72976
        },
        {
            "buffer" : 0,
            "byteLength" : 1088,
            "byteOffset" : 74608
        },
        {
            "buffer" : 0,
            "byteLength" : 432,
            "byteOffset" : 75696
        },
        {
            "buffer" : 0,
            "byteLength" : 768,
            "byteOffset" : 76128
        },
        {
            "buffer" : 0,
            "byteLength" : 768,
            "byteOffset" : 76896
        },
        {
            "buffer" : 0,
            "byteLength" : 512,
            "byteOffset" : 77664
        },
        {
            "buffer" : 0,
            "byteLength" : 192,
            "byteOffset" : 78176
        },
        {
            "buffer" : 0,
            "byteLength" : 32448,
            "byteOffset" : 78368
        },
        {
            "buffer" : 0,
            "byteLength" : 32448,
            "byteOffset" : 110816
        },
        {
            "buffer" : 0,
            "byteLength" : 21632,
            "byteOffset" : 143264
        },
        {
            "buffer" : 0,
            "byteLength" : 8112,
            "byteOffset" : 164896
        },
        {
            "buffer" : 0,
            "byteLength" : 5376,
            "byteOffset" : 173008
        },
        {
            "buffer" : 0,
            "byteLength" : 5376,
            "byteOffset" : 178384
        },
        {
            "buffer" : 0,
            "byteLength" : 3584,
            "byteOffset" : 183760
        },
        {
            "buffer" : 0,
            "byteLength" : 1344,
            "byteOffset" : 187344
        },
        {
            "buffer" : 0,
            "byteLength" : 5472,
            "byteOffset" : 188688
        },
        {
            "buffer" : 0,
            "byteLength" : 5472,
            "byteOffset" : 194160
        },
        {
            "buffer" : 0,
            "byteLength" : 3648,
            "byteOffset" : 199632
        },
        {
            "buffer" : 0,
            "byteLength" : 1296,
            "byteOffset" : 203280
        },
        {
            "buffer" : 0,
            "byteLength" : 3840,
            "byteOffset" : 204576
        },
        {
            "buffer" : 0,
            "byteLength" : 3840,
            "byteOffset" : 208416
        },
        {
            "buffer" : 0,
            "byteLength" : 2560,
            "byteOffset" : 212256
        },
        {
            "buffer" : 0,
            "byteLength" : 960,
            "byteOffset" : 214816
        }
    ],
    "buffers" : [
        {
            "byteLength" : 215776,
            "uri" : "data:application/octet-stream;base64,"
        }
    ]
}
