{
    "asset" : {
        "generator" : "Khronos glTF Blender I/O v1.7.33",
        "version" : "2.0"
    },
    "scene" : 0,
    "scenes" : [
        {
            "name" : "Scene",
            "nodes" : [
                0
            ]
        }
    ],
    "nodes" : [
        {
            "mesh" : 0,
            "name" : "Barracks_SecondAge_Level2"
        }
    ],
    "materials" : [
        {
            "doubleSided" : true,
            "name" : "Wood",
            "pbrMetallicRoughness" : {
                "baseColorFactor" : [
                    0.24618732929229736,
                    0.14435896277427673,
                    0.053798429667949677,
                    1
                ],
                "metallicFactor" : 0,
                "roughnessFactor" : 0.5
            }
        },
        {
            "doubleSided" : true,
            "name" : "Wood_Light",
            "pbrMetallicRoughness" : {
                "baseColorFactor" : [
                    0.3757452964782715,
                    0.24318844079971313,
                    0.09746062755584717,
                    1
                ],
                "metallicFactor" : 0,
                "roughnessFactor" : 0.5
            }
        },
        {
            "doubleSided" : true,
            "name" : "Stone",
            "pbrMetallicRoughness" : {
                "baseColorFactor" : [
                    0.24436430633068085,
                    0.24618881940841675,
                    0.21545054018497467,
                    1
                ],
                "metallicFactor" : 0,
                "roughnessFactor" : 0.5
            }
        },
        {
            "doubleSided" : true,
            "name" : "Walls",
            "pbrMetallicRoughness" : {
                "baseColorFactor" : [
                    0.4352165758609772,
                    0.4385380148887634,
                    0.3826240599155426,
                    1
                ],
                "metallicFactor" : 0,
                "roughnessFactor" : 0.5
            }
        },
        {
            "doubleSided" : true,
            "name" : "Stone_Light",
            "pbrMetallicRoughness" : {
                "baseColorFactor" : [
                    0.454056978225708,
                    0.4575270116329193,
                    0.3991142511367798,
                    1
                ],
                "metallicFactor" : 0,
                "roughnessFactor" : 0.5
            }
        },
        {
            "doubleSided" : true,
            "name" : "Main",
            "pbrMetallicRoughness" : {
                "baseColorFactor" : [
                    0.4385380148887634,
                    0.09992149472236633,
                    0.05885644257068634,
                    1
                ],
                "metallicFactor" : 0,
                "roughnessFactor" : 0.5
            }
        },
        {
            "doubleSided" : true,
            "name" : "Gold",
            "pbrMetallicRoughness" : {
                "baseColorFactor" : [
                    0.3843711018562317,
                    0.22474361956119537,
                    0.05112964287400246,
                    1
                ],
                "metallicFactor" : 0,
                "roughnessFactor" : 0.5
            }
        },
        {
            "doubleSided" : true,
            "name" : "Metal_Light",
            "pbrMetallicRoughness" : {
                "baseColorFactor" : [
                    0.19017364084720612,
                    0.19017364084720612,
                    0.19017364084720612,
                    1
                ],
                "metallicFactor" : 0,
                "roughnessFactor" : 0.5
            }
        },
        {
            "doubleSided" : true,
            "name" : "White",
            "pbrMetallicRoughness" : {
                "baseColorFactor" : [
                    0.4868917763233185,
                    0.4868917763233185,
                    0.4868917763233185,
                    1
                ],
                "metallicFactor" : 0,
                "roughnessFactor" : 0.5
            }
        }
    ],
    "meshes" : [
        {
            "name" : "Cube.062",
            "primitives" : [
                {
                    "attributes" : {
                        "POSITION" : 0,
                        "NORMAL" : 1,
                        "TEXCOORD_0" : 2
                    },
                    "indices" : 3,
                    "material" : 0
                },
                {
                    "attributes" : {
                        "POSITION" : 4,
                        "NORMAL" : 5,
                        "TEXCOORD_0" : 6
                    },
                    "indices" : 7,
                    "material" : 1
                },
                {
                    "attributes" : {
                        "POSITION" : 8,
                        "NORMAL" : 9,
                        "TEXCOORD_0" : 10
                    },
                    "indices" : 11,
                    "material" : 2
                },
                {
                    "attributes" : {
                        "POSITION" : 12,
                        "NORMAL" : 13,
                        "TEXCOORD_0" : 14
                    },
                    "indices" : 15,
                    "material" : 3
                },
                {
                    "attributes" : {
                        "POSITION" : 16,
                        "NORMAL" : 17,
                        "TEXCOORD_0" : 18
                    },
                    "indices" : 19,
                    "material" : 4
                },
                {
                    "attributes" : {
                        "POSITION" : 20,
                        "NORMAL" : 21,
                        "TEXCOORD_0" : 22
                    },
                    "indices" : 23,
                    "material" : 5
                },
                {
                    "attributes" : {
                        "POSITION" : 24,
                        "NORMAL" : 25,
                        "TEXCOORD_0" : 26
                    },
                    "indices" : 27,
                    "material" : 6
                },
                {
                    "attributes" : {
                        "POSITION" : 28,
                        "NORMAL" : 29,
                        "TEXCOORD_0" : 30
                    },
                    "indices" : 31,
                    "material" : 7
                },
                {
                    "attributes" : {
                        "POSITION" : 32,
                        "NORMAL" : 33,
                        "TEXCOORD_0" : 34
                    },
                    "indices" : 35,
                    "material" : 8
                }
            ]
        }
    ],
    "accessors" : [
        {
            "bufferView" : 0,
            "componentType" : 5126,
            "count" : 1460,
            "max" : [
                0.8447187542915344,
                1.2658131122589111,
                0.6725209951400757
            ],
            "min" : [
                -0.8447187542915344,
                -0.007163794245570898,
                -0.6865199208259583
            ],
            "type" : "VEC3"
        },
        {
            "bufferView" : 1,
            "componentType" : 5126,
            "count" : 1460,
            "type" : "VEC3"
        },
        {
            "bufferView" : 2,
            "componentType" : 5126,
            "count" : 1460,
            "type" : "VEC2"
        },
        {
            "bufferView" : 3,
            "componentType" : 5123,
            "count" : 2352,
            "type" : "SCALAR"
        },
        {
            "bufferView" : 4,
            "componentType" : 5126,
            "count" : 179,
            "max" : [
                0.4569549560546875,
                0.8165010213851929,
                0.5748870968818665
            ],
            "min" : [
                -0.4569548964500427,
                -0.0053663854487240314,
                -0.560144305229187
            ],
            "type" : "VEC3"
        },
        {
            "bufferView" : 5,
            "componentType" : 5126,
            "count" : 179,
            "type" : "VEC3"
        },
        {
            "bufferView" : 6,
            "componentType" : 5126,
            "count" : 179,
            "type" : "VEC2"
        },
        {
            "bufferView" : 7,
            "componentType" : 5123,
            "count" : 264,
            "type" : "SCALAR"
        },
        {
            "bufferView" : 8,
            "componentType" : 5126,
            "count" : 1772,
            "max" : [
                0.8447187542915344,
                1.2658131122589111,
                0.7830820679664612
            ],
            "min" : [
                -0.8447187542915344,
                -0.005481027066707611,
                -0.7830820679664612
            ],
            "type" : "VEC3"
        },
        {
            "bufferView" : 9,
            "componentType" : 5126,
            "count" : 1772,
            "type" : "VEC3"
        },
        {
            "bufferView" : 10,
            "componentType" : 5126,
            "count" : 1772,
            "type" : "VEC2"
        },
        {
            "bufferView" : 11,
            "componentType" : 5123,
            "count" : 2796,
            "type" : "SCALAR"
        },
        {
            "bufferView" : 12,
            "componentType" : 5126,
            "count" : 138,
            "max" : [
                0.4295958876609802,
                0.1751324087381363,
                0.8213204145431519
            ],
            "min" : [
                -0.4295958876609802,
                -0.007909965701401234,
                -0.8213204145431519
            ],
            "type" : "VEC3"
        },
        {
            "bufferView" : 13,
            "componentType" : 5126,
            "count" : 138,
            "type" : "VEC3"
        },
        {
            "bufferView" : 14,
            "componentType" : 5126,
            "count" : 138,
            "type" : "VEC2"
        },
        {
            "bufferView" : 15,
            "componentType" : 5123,
            "count" : 216,
            "type" : "SCALAR"
        },
        {
            "bufferView" : 16,
            "componentType" : 5126,
            "count" : 5248,
            "max" : [
                0.855682909488678,
                1.344008207321167,
                0.24095268547534943
            ],
            "min" : [
                -0.855682909488678,
                -0.003791391383856535,
                -0.4349689781665802
            ],
            "type" : "VEC3"
        },
        {
            "bufferView" : 17,
            "componentType" : 5126,
            "count" : 5248,
            "type" : "VEC3"
        },
        {
            "bufferView" : 18,
            "componentType" : 5126,
            "count" : 5248,
            "type" : "VEC2"
        },
        {
            "bufferView" : 19,
            "componentType" : 5123,
            "count" : 7872,
            "type" : "SCALAR"
        },
        {
            "bufferView" : 20,
            "componentType" : 5126,
            "count" : 3600,
            "max" : [
                0.44963833689689636,
                0.8815560936927795,
                0.5630224347114563
            ],
            "min" : [
                -0.44963833689689636,
                0.6067262291908264,
                -0.43431344628334045
            ],
            "type" : "VEC3"
        },
        {
            "bufferView" : 21,
            "componentType" : 5126,
            "count" : 3600,
            "type" : "VEC3"
        },
        {
            "bufferView" : 22,
            "componentType" : 5126,
            "count" : 3600,
            "type" : "VEC2"
        },
        {
            "bufferView" : 23,
            "componentType" : 5123,
            "count" : 5400,
            "type" : "SCALAR"
        },
        {
            "bufferView" : 24,
            "componentType" : 5126,
            "count" : 448,
            "max" : [
                0.13130739331245422,
                0.5660704970359802,
                0.5966914296150208
            ],
            "min" : [
                -0.1313074678182602,
                0.435339093208313,
                -0.5178265571594238
            ],
            "type" : "VEC3"
        },
        {
            "bufferView" : 25,
            "componentType" : 5126,
            "count" : 448,
            "type" : "VEC3"
        },
        {
            "bufferView" : 26,
            "componentType" : 5126,
            "count" : 448,
            "type" : "VEC2"
        },
        {
            "bufferView" : 27,
            "componentType" : 5123,
            "count" : 672,
            "type" : "SCALAR"
        },
        {
            "bufferView" : 28,
            "componentType" : 5126,
            "count" : 456,
            "max" : [
                0.08738719671964645,
                0.682747483253479,
                0.5960851311683655
            ],
            "min" : [
                -0.08738724887371063,
                0.4886559545993805,
                -0.5172202587127686
            ],
            "type" : "VEC3"
        },
        {
            "bufferView" : 29,
            "componentType" : 5126,
            "count" : 456,
            "type" : "VEC3"
        },
        {
            "bufferView" : 30,
            "componentType" : 5126,
            "count" : 456,
            "type" : "VEC2"
        },
        {
            "bufferView" : 31,
            "componentType" : 5123,
            "count" : 648,
            "type" : "SCALAR"
        },
        {
            "bufferView" : 32,
            "componentType" : 5126,
            "count" : 320,
            "max" : [
                0.10505323112010956,
                0.6996191740036011,
                0.5960851311683655
            ],
            "min" : [
                -0.10505329072475433,
                0.4845414161682129,
                -0.5172202587127686
            ],
            "type" : "VEC3"
        },
        {
            "bufferView" : 33,
            "componentType" : 5126,
            "count" : 320,
            "type" : "VEC3"
        },
        {
            "bufferView" : 34,
            "componentType" : 5126,
            "count" : 320,
            "type" : "VEC2"
        },
        {
            "bufferView" : 35,
            "componentType" : 5123,
            "count" : 480,
            "type" : "SCALAR"
        }
    ],
    "bufferViews" : [
        {
            "buffer" : 0,
            "byteLength" : 17520,
            "byteOffset" : 0
        },
        {
            "buffer" : 0,
            "byteLength" : 17520,
            "byteOffset" : 17520
        },
        {
            "buffer" : 0,
            "byteLength" : 11680,
            "byteOffset" : 35040
        },
        {
            "buffer" : 0,
            "byteLength" : 4704,
            "byteOffset" : 46720
        },
        {
            "buffer" : 0,
            "byteLength" : 2148,
            "byteOffset" : 51424
        },
        {
            "buffer" : 0,
            "byteLength" : 2148,
            "byteOffset" : 53572
        },
        {
            "buffer" : 0,
            "byteLength" : 1432,
            "byteOffset" : 55720
        },
        {
            "buffer" : 0,
            "byteLength" : 528,
            "byteOffset" : 57152
        },
        {
            "buffer" : 0,
            "byteLength" : 21264,
            "byteOffset" : 57680
        },
        {
            "buffer" : 0,
            "byteLength" : 21264,
            "byteOffset" : 78944
        },
        {
            "buffer" : 0,
            "byteLength" : 14176,
            "byteOffset" : 100208
        },
        {
            "buffer" : 0,
            "byteLength" : 5592,
            "byteOffset" : 114384
        },
        {
            "buffer" : 0,
            "byteLength" : 1656,
            "byteOffset" : 119976
        },
        {
            "buffer" : 0,
            "byteLength" : 1656,
            "byteOffset" : 121632
        },
        {
            "buffer" : 0,
            "byteLength" : 1104,
            "byteOffset" : 123288
        },
        {
            "buffer" : 0,
            "byteLength" : 432,
            "byteOffset" : 124392
        },
        {
            "buffer" : 0,
            "byteLength" : 62976,
            "byteOffset" : 124824
        },
        {
            "buffer" : 0,
            "byteLength" : 62976,
            "byteOffset" : 187800
        },
        {
            "buffer" : 0,
            "byteLength" : 41984,
            "byteOffset" : 250776
        },
        {
            "buffer" : 0,
            "byteLength" : 15744,
            "byteOffset" : 292760
        },
        {
            "buffer" : 0,
            "byteLength" : 43200,
            "byteOffset" : 308504
        },
        {
            "buffer" : 0,
            "byteLength" : 43200,
            "byteOffset" : 351704
        },
        {
            "buffer" : 0,
            "byteLength" : 28800,
            "byteOffset" : 394904
        },
        {
            "buffer" : 0,
            "byteLength" : 10800,
            "byteOffset" : 423704
        },
        {
            "buffer" : 0,
            "byteLength" : 5376,
            "byteOffset" : 434504
        },
        {
            "buffer" : 0,
            "byteLength" : 5376,
            "byteOffset" : 439880
        },
        {
            "buffer" : 0,
            "byteLength" : 3584,
            "byteOffset" : 445256
        },
        {
            "buffer" : 0,
            "byteLength" : 1344,
            "byteOffset" : 448840
        },
        {
            "buffer" : 0,
            "byteLength" : 5472,
            "byteOffset" : 450184
        },
        {
            "buffer" : 0,
            "byteLength" : 5472,
            "byteOffset" : 455656
        },
        {
            "buffer" : 0,
            "byteLength" : 3648,
            "byteOffset" : 461128
        },
        {
            "buffer" : 0,
            "byteLength" : 1296,
            "byteOffset" : 464776
        },
        {
            "buffer" : 0,
            "byteLength" : 3840,
            "byteOffset" : 466072
        },
        {
            "buffer" : 0,
            "byteLength" : 3840,
            "byteOffset" : 469912
        },
        {
            "buffer" : 0,
            "byteLength" : 2560,
            "byteOffset" : 473752
        },
        {
            "buffer" : 0,
            "byteLength" : 960,
            "byteOffset" : 476312
        }
    ],
    "buffers" : [
        {
            "byteLength" : 477272,
            "uri" : "data:application/octet-stream;base64,"
        }
    ]
}
