{
    "asset" : {
        "generator" : "Khronos glTF Blender I/O v1.7.33",
        "version" : "2.0"
    },
    "scene" : 0,
    "scenes" : [
        {
            "name" : "Scene",
            "nodes" : [
                0
            ]
        }
    ],
    "nodes" : [
        {
            "mesh" : 0,
            "name" : "Barracks_FirstAge_Level2"
        }
    ],
    "materials" : [
        {
            "doubleSided" : true,
            "name" : "Wood",
            "pbrMetallicRoughness" : {
                "baseColorFactor" : [
                    0.24618732929229736,
                    0.14435896277427673,
                    0.053798429667949677,
                    1
                ],
                "metallicFactor" : 0,
                "roughnessFactor" : 0.5
            }
        },
        {
            "doubleSided" : true,
            "name" : "Stone",
            "pbrMetallicRoughness" : {
                "baseColorFactor" : [
                    0.24436430633068085,
                    0.24618881940841675,
                    0.21545054018497467,
                    1
                ],
                "metallicFactor" : 0,
                "roughnessFactor" : 0.5
            }
        },
        {
            "doubleSided" : true,
            "name" : "Wood_Light",
            "pbrMetallicRoughness" : {
                "baseColorFactor" : [
                    0.3757452964782715,
                    0.24318844079971313,
                    0.09746062755584717,
                    1
                ],
                "metallicFactor" : 0,
                "roughnessFactor" : 0.5
            }
        },
        {
            "doubleSided" : true,
            "name" : "Stone_Light",
            "pbrMetallicRoughness" : {
                "baseColorFactor" : [
                    0.454056978225708,
                    0.4575270116329193,
                    0.3991142511367798,
                    1
                ],
                "metallicFactor" : 0,
                "roughnessFactor" : 0.5
            }
        },
        {
            "doubleSided" : true,
            "name" : "Main",
            "pbrMetallicRoughness" : {
                "baseColorFactor" : [
                    0.4385380148887634,
                    0.09992149472236633,
                    0.05885644257068634,
                    1
                ],
                "metallicFactor" : 0,
                "roughnessFactor" : 0.5
            }
        },
        {
            "doubleSided" : true,
            "name" : "Gold",
            "pbrMetallicRoughness" : {
                "baseColorFactor" : [
                    0.3843711018562317,
                    0.22474361956119537,
                    0.05112964287400246,
                    1
                ],
                "metallicFactor" : 0,
                "roughnessFactor" : 0.5
            }
        },
        {
            "doubleSided" : true,
            "name" : "Metal_Light",
            "pbrMetallicRoughness" : {
                "baseColorFactor" : [
                    0.19017364084720612,
                    0.19017364084720612,
                    0.19017364084720612,
                    1
                ],
                "metallicFactor" : 0,
                "roughnessFactor" : 0.5
            }
        },
        {
            "doubleSided" : true,
            "name" : "White",
            "pbrMetallicRoughness" : {
                "baseColorFactor" : [
                    0.4868917763233185,
                    0.4868917763233185,
                    0.4868917763233185,
                    1
                ],
                "metallicFactor" : 0,
                "roughnessFactor" : 0.5
            }
        }
    ],
    "meshes" : [
        {
            "name" : "Cube.228",
            "primitives" : [
                {
                    "attributes" : {
                        "POSITION" : 0,
                        "NORMAL" : 1
                    },
                    "indices" : 2,
                    "material" : 0
                },
                {
                    "attributes" : {
                        "POSITION" : 3,
                        "NORMAL" : 4
                    },
                    "indices" : 5,
                    "material" : 1
                },
                {
                    "attributes" : {
                        "POSITION" : 6,
                        "NORMAL" : 7
                    },
                    "indices" : 8,
                    "material" : 2
                },
                {
                    "attributes" : {
                        "POSITION" : 9,
                        "NORMAL" : 10
                    },
                    "indices" : 11,
                    "material" : 3
                },
                {
                    "attributes" : {
                        "POSITION" : 12,
                        "NORMAL" : 13
                    },
                    "indices" : 14,
                    "material" : 4
                },
                {
                    "attributes" : {
                        "POSITION" : 15,
                        "NORMAL" : 16
                    },
                    "indices" : 17,
                    "material" : 5
                },
                {
                    "attributes" : {
                        "POSITION" : 18,
                        "NORMAL" : 19
                    },
                    "indices" : 20,
                    "material" : 6
                },
                {
                    "attributes" : {
                        "POSITION" : 21,
                        "NORMAL" : 22
                    },
                    "indices" : 23,
                    "material" : 7
                }
            ]
        }
    ],
    "accessors" : [
        {
            "bufferView" : 0,
            "componentType" : 5126,
            "count" : 2462,
            "max" : [
                0.8948000073432922,
                0.8851940035820007,
                0.6865199208259583
            ],
            "min" : [
                -0.8948000073432922,
                -0.007163794245570898,
                -0.6865199208259583
            ],
            "type" : "VEC3"
        },
        {
            "bufferView" : 1,
            "componentType" : 5126,
            "count" : 2462,
            "type" : "VEC3"
        },
        {
            "bufferView" : 2,
            "componentType" : 5123,
            "count" : 4308,
            "type" : "SCALAR"
        },
        {
            "bufferView" : 3,
            "componentType" : 5126,
            "count" : 558,
            "max" : [
                0.8448420166969299,
                0.403594434261322,
                0.7830820679664612
            ],
            "min" : [
                -0.8448420166969299,
                -0.005481027066707611,
                -0.7830820679664612
            ],
            "type" : "VEC3"
        },
        {
            "bufferView" : 4,
            "componentType" : 5126,
            "count" : 558,
            "type" : "VEC3"
        },
        {
            "bufferView" : 5,
            "componentType" : 5123,
            "count" : 936,
            "type" : "SCALAR"
        },
        {
            "bufferView" : 6,
            "componentType" : 5126,
            "count" : 211,
            "max" : [
                0.45293980836868286,
                0.8165010213851929,
                0.560144305229187
            ],
            "min" : [
                -0.45293980836868286,
                -0.003791391383856535,
                -0.560144305229187
            ],
            "type" : "VEC3"
        },
        {
            "bufferView" : 7,
            "componentType" : 5126,
            "count" : 211,
            "type" : "VEC3"
        },
        {
            "bufferView" : 8,
            "componentType" : 5123,
            "count" : 420,
            "type" : "SCALAR"
        },
        {
            "bufferView" : 9,
            "componentType" : 5126,
            "count" : 192,
            "max" : [
                0.8169786930084229,
                0.38574716448783875,
                0.5461918711662292
            ],
            "min" : [
                -0.8169786930084229,
                0.30776673555374146,
                -0.5461918711662292
            ],
            "type" : "VEC3"
        },
        {
            "bufferView" : 10,
            "componentType" : 5126,
            "count" : 192,
            "type" : "VEC3"
        },
        {
            "bufferView" : 11,
            "componentType" : 5123,
            "count" : 288,
            "type" : "SCALAR"
        },
        {
            "bufferView" : 12,
            "componentType" : 5126,
            "count" : 64,
            "max" : [
                0.8089054226875305,
                0.38389113545417786,
                0.5434577465057373
            ],
            "min" : [
                -0.8089054226875305,
                0.10687290877103806,
                -0.5434577465057373
            ],
            "type" : "VEC3"
        },
        {
            "bufferView" : 13,
            "componentType" : 5126,
            "count" : 64,
            "type" : "VEC3"
        },
        {
            "bufferView" : 14,
            "componentType" : 5123,
            "count" : 144,
            "type" : "SCALAR"
        },
        {
            "bufferView" : 15,
            "componentType" : 5126,
            "count" : 448,
            "max" : [
                0.13130757212638855,
                0.5658848285675049,
                0.5503412485122681
            ],
            "min" : [
                -0.13130725920200348,
                0.46906521916389465,
                -0.5503412485122681
            ],
            "type" : "VEC3"
        },
        {
            "bufferView" : 16,
            "componentType" : 5126,
            "count" : 448,
            "type" : "VEC3"
        },
        {
            "bufferView" : 17,
            "componentType" : 5123,
            "count" : 672,
            "type" : "SCALAR"
        },
        {
            "bufferView" : 18,
            "componentType" : 5126,
            "count" : 456,
            "max" : [
                0.08738734573125839,
                0.6804299354553223,
                0.5332667231559753
            ],
            "min" : [
                -0.08738705515861511,
                0.5227196216583252,
                -0.5332667231559753
            ],
            "type" : "VEC3"
        },
        {
            "bufferView" : 19,
            "componentType" : 5126,
            "count" : 456,
            "type" : "VEC3"
        },
        {
            "bufferView" : 20,
            "componentType" : 5123,
            "count" : 648,
            "type" : "SCALAR"
        },
        {
            "bufferView" : 21,
            "componentType" : 5126,
            "count" : 320,
            "max" : [
                0.1050533875823021,
                0.6968306303024292,
                0.5332667231559753
            ],
            "min" : [
                -0.10505308955907822,
                0.5189211964607239,
                -0.5332667231559753
            ],
            "type" : "VEC3"
        },
        {
            "bufferView" : 22,
            "componentType" : 5126,
            "count" : 320,
            "type" : "VEC3"
        },
        {
            "bufferView" : 23,
            "componentType" : 5123,
            "count" : 480,
            "type" : "SCALAR"
        }
    ],
    "bufferViews" : [
        {
            "buffer" : 0,
            "byteLength" : 29544,
            "byteOffset" : 0
        },
        {
            "buffer" : 0,
            "byteLength" : 29544,
            "byteOffset" : 29544
        },
        {
            "buffer" : 0,
            "byteLength" : 8616,
            "byteOffset" : 59088
        },
        {
            "buffer" : 0,
            "byteLength" : 6696,
            "byteOffset" : 67704
        },
        {
            "buffer" : 0,
            "byteLength" : 6696,
            "byteOffset" : 74400
        },
        {
            "buffer" : 0,
            "byteLength" : 1872,
            "byteOffset" : 81096
        },
        {
            "buffer" : 0,
            "byteLength" : 2532,
            "byteOffset" : 82968
        },
        {
            "buffer" : 0,
            "byteLength" : 2532,
            "byteOffset" : 85500
        },
        {
            "buffer" : 0,
            "byteLength" : 840,
            "byteOffset" : 88032
        },
        {
            "buffer" : 0,
            "byteLength" : 2304,
            "byteOffset" : 88872
        },
        {
            "buffer" : 0,
            "byteLength" : 2304,
            "byteOffset" : 91176
        },
        {
            "buffer" : 0,
            "byteLength" : 576,
            "byteOffset" : 93480
        },
        {
            "buffer" : 0,
            "byteLength" : 768,
            "byteOffset" : 94056
        },
        {
            "buffer" : 0,
            "byteLength" : 768,
            "byteOffset" : 94824
        },
        {
            "buffer" : 0,
            "byteLength" : 288,
            "byteOffset" : 95592
        },
        {
            "buffer" : 0,
            "byteLength" : 5376,
            "byteOffset" : 95880
        },
        {
            "buffer" : 0,
            "byteLength" : 5376,
            "byteOffset" : 101256
        },
        {
            "buffer" : 0,
            "byteLength" : 1344,
            "byteOffset" : 106632
        },
        {
            "buffer" : 0,
            "byteLength" : 5472,
            "byteOffset" : 107976
        },
        {
            "buffer" : 0,
            "byteLength" : 5472,
            "byteOffset" : 113448
        },
        {
            "buffer" : 0,
            "byteLength" : 1296,
            "byteOffset" : 118920
        },
        {
            "buffer" : 0,
            "byteLength" : 3840,
            "byteOffset" : 120216
        },
        {
            "buffer" : 0,
            "byteLength" : 3840,
            "byteOffset" : 124056
        },
        {
            "buffer" : 0,
            "byteLength" : 960,
            "byteOffset" : 127896
        }
    ],
    "buffers" : [
        {
            "byteLength" : 128856,
            "uri" : "data:application/octet-stream;base64,"
        }
    ]
}
