{
    "asset" : {
        "generator" : "Khronos glTF Blender I/O v1.7.33",
        "version" : "2.0"
    },
    "scene" : 0,
    "scenes" : [
        {
            "name" : "Scene",
            "nodes" : [
                0
            ]
        }
    ],
    "nodes" : [
        {
            "mesh" : 0,
            "name" : "Barracks_FirstAge_Level1"
        }
    ],
    "materials" : [
        {
            "doubleSided" : true,
            "name" : "Wood",
            "pbrMetallicRoughness" : {
                "baseColorFactor" : [
                    0.24618732929229736,
                    0.14435896277427673,
                    0.053798429667949677,
                    1
                ],
                "metallicFactor" : 0,
                "roughnessFactor" : 0.5
            }
        },
        {
            "doubleSided" : true,
            "name" : "Stone",
            "pbrMetallicRoughness" : {
                "baseColorFactor" : [
                    0.24436430633068085,
                    0.24618881940841675,
                    0.21545054018497467,
                    1
                ],
                "metallicFactor" : 0,
                "roughnessFactor" : 0.5
            }
        },
        {
            "doubleSided" : true,
            "name" : "Wood_Light",
            "pbrMetallicRoughness" : {
                "baseColorFactor" : [
                    0.3757452964782715,
                    0.24318844079971313,
                    0.09746062755584717,
                    1
                ],
                "metallicFactor" : 0,
                "roughnessFactor" : 0.5
            }
        },
        {
            "doubleSided" : true,
            "name" : "Stone_Light",
            "pbrMetallicRoughness" : {
                "baseColorFactor" : [
                    0.454056978225708,
                    0.4575270116329193,
                    0.3991142511367798,
                    1
                ],
                "metallicFactor" : 0,
                "roughnessFactor" : 0.5
            }
        },
        {
            "doubleSided" : true,
            "name" : "Main",
            "pbrMetallicRoughness" : {
                "baseColorFactor" : [
                    0.4385380148887634,
                    0.09992149472236633,
                    0.05885644257068634,
                    1
                ],
                "metallicFactor" : 0,
                "roughnessFactor" : 0.5
            }
        },
        {
            "doubleSided" : true,
            "name" : "Gold",
            "pbrMetallicRoughness" : {
                "baseColorFactor" : [
                    0.3843711018562317,
                    0.22474361956119537,
                    0.05112964287400246,
                    1
                ],
                "metallicFactor" : 0,
                "roughnessFactor" : 0.5
            }
        },
        {
            "doubleSided" : true,
            "name" : "Metal_Light",
            "pbrMetallicRoughness" : {
                "baseColorFactor" : [
                    0.19017364084720612,
                    0.19017364084720612,
                    0.19017364084720612,
                    1
                ],
                "metallicFactor" : 0,
                "roughnessFactor" : 0.5
            }
        },
        {
            "doubleSided" : true,
            "name" : "White",
            "pbrMetallicRoughness" : {
                "baseColorFactor" : [
                    0.4868917763233185,
                    0.4868917763233185,
                    0.4868917763233185,
                    1
                ],
                "metallicFactor" : 0,
                "roughnessFactor" : 0.5
            }
        }
    ],
    "meshes" : [
        {
            "name" : "Cube.001",
            "primitives" : [
                {
                    "attributes" : {
                        "POSITION" : 0,
                        "NORMAL" : 1
                    },
                    "indices" : 2,
                    "material" : 0
                },
                {
                    "attributes" : {
                        "POSITION" : 3,
                        "NORMAL" : 4
                    },
                    "indices" : 5,
                    "material" : 1
                },
                {
                    "attributes" : {
                        "POSITION" : 6,
                        "NORMAL" : 7
                    },
                    "indices" : 8,
                    "material" : 2
                },
                {
                    "attributes" : {
                        "POSITION" : 9,
                        "NORMAL" : 10
                    },
                    "indices" : 11,
                    "material" : 3
                },
                {
                    "attributes" : {
                        "POSITION" : 12,
                        "NORMAL" : 13
                    },
                    "indices" : 14,
                    "material" : 4
                },
                {
                    "attributes" : {
                        "POSITION" : 15,
                        "NORMAL" : 16
                    },
                    "indices" : 17,
                    "material" : 5
                },
                {
                    "attributes" : {
                        "POSITION" : 18,
                        "NORMAL" : 19
                    },
                    "indices" : 20,
                    "material" : 6
                },
                {
                    "attributes" : {
                        "POSITION" : 21,
                        "NORMAL" : 22
                    },
                    "indices" : 23,
                    "material" : 7
                }
            ]
        }
    ],
    "accessors" : [
        {
            "bufferView" : 0,
            "componentType" : 5126,
            "count" : 1338,
            "max" : [
                0.4961220622062683,
                0.7120128870010376,
                0.6865199208259583
            ],
            "min" : [
                -0.4961220622062683,
                -0.007163794245570898,
                -0.3592745363712311
            ],
            "type" : "VEC3"
        },
        {
            "bufferView" : 1,
            "componentType" : 5126,
            "count" : 1338,
            "type" : "VEC3"
        },
        {
            "bufferView" : 2,
            "componentType" : 5123,
            "count" : 2442,
            "type" : "SCALAR"
        },
        {
            "bufferView" : 3,
            "componentType" : 5126,
            "count" : 298,
            "max" : [
                0.504803478717804,
                0.403594434261322,
                0.53533536195755
            ],
            "min" : [
                -0.504803478717804,
                -0.00539652444422245,
                -0.3807543218135834
            ],
            "type" : "VEC3"
        },
        {
            "bufferView" : 4,
            "componentType" : 5126,
            "count" : 298,
            "type" : "VEC3"
        },
        {
            "bufferView" : 5,
            "componentType" : 5123,
            "count" : 480,
            "type" : "SCALAR"
        },
        {
            "bufferView" : 6,
            "componentType" : 5126,
            "count" : 175,
            "max" : [
                0.45293980836868286,
                0.6532983183860779,
                0.560144305229187
            ],
            "min" : [
                -0.45293980836868286,
                -0.003791391383856535,
                -0.3288906514644623
            ],
            "type" : "VEC3"
        },
        {
            "bufferView" : 7,
            "componentType" : 5126,
            "count" : 175,
            "type" : "VEC3"
        },
        {
            "bufferView" : 8,
            "componentType" : 5123,
            "count" : 360,
            "type" : "SCALAR"
        },
        {
            "bufferView" : 9,
            "componentType" : 5126,
            "count" : 96,
            "max" : [
                0.4865225553512573,
                0.38574716448783875,
                0.5461918711662292
            ],
            "min" : [
                -0.4865225553512573,
                0.35493484139442444,
                -0.3916108310222626
            ],
            "type" : "VEC3"
        },
        {
            "bufferView" : 10,
            "componentType" : 5126,
            "count" : 96,
            "type" : "VEC3"
        },
        {
            "bufferView" : 11,
            "componentType" : 5123,
            "count" : 144,
            "type" : "SCALAR"
        },
        {
            "bufferView" : 12,
            "componentType" : 5126,
            "count" : 32,
            "max" : [
                0.47658684849739075,
                0.38389113545417786,
                0.5434577465057373
            ],
            "min" : [
                -0.47658684849739075,
                0.10687290877103806,
                -0.38887670636177063
            ],
            "type" : "VEC3"
        },
        {
            "bufferView" : 13,
            "componentType" : 5126,
            "count" : 32,
            "type" : "VEC3"
        },
        {
            "bufferView" : 14,
            "componentType" : 5123,
            "count" : 72,
            "type" : "SCALAR"
        },
        {
            "bufferView" : 15,
            "componentType" : 5126,
            "count" : 224,
            "max" : [
                0.13130757212638855,
                0.46578148007392883,
                0.5503412485122681
            ],
            "min" : [
                -0.13130725920200348,
                0.368961900472641,
                0.5115097165107727
            ],
            "type" : "VEC3"
        },
        {
            "bufferView" : 16,
            "componentType" : 5126,
            "count" : 224,
            "type" : "VEC3"
        },
        {
            "bufferView" : 17,
            "componentType" : 5123,
            "count" : 336,
            "type" : "SCALAR"
        },
        {
            "bufferView" : 18,
            "componentType" : 5126,
            "count" : 228,
            "max" : [
                0.08738734573125839,
                0.5803265571594238,
                0.5332667231559753
            ],
            "min" : [
                -0.08738704770803452,
                0.42261627316474915,
                0.4985603392124176
            ],
            "type" : "VEC3"
        },
        {
            "bufferView" : 19,
            "componentType" : 5126,
            "count" : 228,
            "type" : "VEC3"
        },
        {
            "bufferView" : 20,
            "componentType" : 5123,
            "count" : 324,
            "type" : "SCALAR"
        },
        {
            "bufferView" : 21,
            "componentType" : 5126,
            "count" : 160,
            "max" : [
                0.1050533875823021,
                0.5967272520065308,
                0.5332667231559753
            ],
            "min" : [
                -0.10505308955907822,
                0.4188178479671478,
                0.4980766177177429
            ],
            "type" : "VEC3"
        },
        {
            "bufferView" : 22,
            "componentType" : 5126,
            "count" : 160,
            "type" : "VEC3"
        },
        {
            "bufferView" : 23,
            "componentType" : 5123,
            "count" : 240,
            "type" : "SCALAR"
        }
    ],
    "bufferViews" : [
        {
            "buffer" : 0,
            "byteLength" : 16056,
            "byteOffset" : 0
        },
        {
            "buffer" : 0,
            "byteLength" : 16056,
            "byteOffset" : 16056
        },
        {
            "buffer" : 0,
            "byteLength" : 4884,
            "byteOffset" : 32112
        },
        {
            "buffer" : 0,
            "byteLength" : 3576,
            "byteOffset" : 36996
        },
        {
            "buffer" : 0,
            "byteLength" : 3576,
            "byteOffset" : 40572
        },
        {
            "buffer" : 0,
            "byteLength" : 960,
            "byteOffset" : 44148
        },
        {
            "buffer" : 0,
            "byteLength" : 2100,
            "byteOffset" : 45108
        },
        {
            "buffer" : 0,
            "byteLength" : 2100,
            "byteOffset" : 47208
        },
        {
            "buffer" : 0,
            "byteLength" : 720,
            "byteOffset" : 49308
        },
        {
            "buffer" : 0,
            "byteLength" : 1152,
            "byteOffset" : 50028
        },
        {
            "buffer" : 0,
            "byteLength" : 1152,
            "byteOffset" : 51180
        },
        {
            "buffer" : 0,
            "byteLength" : 288,
            "byteOffset" : 52332
        },
        {
            "buffer" : 0,
            "byteLength" : 384,
            "byteOffset" : 52620
        },
        {
            "buffer" : 0,
            "byteLength" : 384,
            "byteOffset" : 53004
        },
        {
            "buffer" : 0,
            "byteLength" : 144,
            "byteOffset" : 53388
        },
        {
            "buffer" : 0,
            "byteLength" : 2688,
            "byteOffset" : 53532
        },
        {
            "buffer" : 0,
            "byteLength" : 2688,
            "byteOffset" : 56220
        },
        {
            "buffer" : 0,
            "byteLength" : 672,
            "byteOffset" : 58908
        },
        {
            "buffer" : 0,
            "byteLength" : 2736,
            "byteOffset" : 59580
        },
        {
            "buffer" : 0,
            "byteLength" : 2736,
            "byteOffset" : 62316
        },
        {
            "buffer" : 0,
            "byteLength" : 648,
            "byteOffset" : 65052
        },
        {
            "buffer" : 0,
            "byteLength" : 1920,
            "byteOffset" : 65700
        },
        {
            "buffer" : 0,
            "byteLength" : 1920,
            "byteOffset" : 67620
        },
        {
            "buffer" : 0,
            "byteLength" : 480,
            "byteOffset" : 69540
        }
    ],
    "buffers" : [
        {
            "byteLength" : 70020,
            "uri" : "data:application/octet-stream;base64,"
        }
    ]
}
