{
    "asset" : {
        "generator" : "Khronos glTF Blender I/O v1.7.33",
        "version" : "2.0"
    },
    "scene" : 0,
    "scenes" : [
        {
            "name" : "Scene",
            "nodes" : [
                0
            ]
        }
    ],
    "nodes" : [
        {
            "mesh" : 0,
            "name" : "Farm_SecondAge_Level3"
        }
    ],
    "materials" : [
        {
            "doubleSided" : true,
            "name" : "Wood",
            "pbrMetallicRoughness" : {
                "baseColorFactor" : [
                    0.24618732929229736,
                    0.14435896277427673,
                    0.053798429667949677,
                    1
                ],
                "metallicFactor" : 0,
                "roughnessFactor" : 0.5
            }
        },
        {
            "doubleSided" : true,
            "name" : "Wood_Light",
            "pbrMetallicRoughness" : {
                "baseColorFactor" : [
                    0.3757452964782715,
                    0.24318844079971313,
                    0.09746062755584717,
                    1
                ],
                "metallicFactor" : 0,
                "roughnessFactor" : 0.5
            }
        },
        {
            "doubleSided" : true,
            "name" : "Dirt",
            "pbrMetallicRoughness" : {
                "baseColorFactor" : [
                    0.09462355077266693,
                    0.07399486005306244,
                    0.028943030163645744,
                    1
                ],
                "metallicFactor" : 0,
                "roughnessFactor" : 0.5
            }
        },
        {
            "doubleSided" : true,
            "name" : "Main",
            "pbrMetallicRoughness" : {
                "baseColorFactor" : [
                    0.4385380148887634,
                    0.09992149472236633,
                    0.05885644257068634,
                    1
                ],
                "metallicFactor" : 0,
                "roughnessFactor" : 0.5
            }
        },
        {
            "doubleSided" : true,
            "name" : "Walls",
            "pbrMetallicRoughness" : {
                "baseColorFactor" : [
                    0.4352165758609772,
                    0.4385380148887634,
                    0.3826240599155426,
                    1
                ],
                "metallicFactor" : 0,
                "roughnessFactor" : 0.5
            }
        },
        {
            "doubleSided" : true,
            "name" : "Stone",
            "pbrMetallicRoughness" : {
                "baseColorFactor" : [
                    0.24436430633068085,
                    0.24618881940841675,
                    0.21545054018497467,
                    1
                ],
                "metallicFactor" : 0,
                "roughnessFactor" : 0.5
            }
        },
        {
            "doubleSided" : true,
            "name" : "Stone_Light",
            "pbrMetallicRoughness" : {
                "baseColorFactor" : [
                    0.454056978225708,
                    0.4575270116329193,
                    0.3991142511367798,
                    1
                ],
                "metallicFactor" : 0,
                "roughnessFactor" : 0.5
            }
        }
    ],
    "meshes" : [
        {
            "name" : "Cube.046",
            "primitives" : [
                {
                    "attributes" : {
                        "POSITION" : 0,
                        "NORMAL" : 1,
                        "TEXCOORD_0" : 2
                    },
                    "indices" : 3,
                    "material" : 0
                },
                {
                    "attributes" : {
                        "POSITION" : 4,
                        "NORMAL" : 5,
                        "TEXCOORD_0" : 6
                    },
                    "indices" : 7,
                    "material" : 1
                },
                {
                    "attributes" : {
                        "POSITION" : 8,
                        "NORMAL" : 9,
                        "TEXCOORD_0" : 10
                    },
                    "indices" : 11,
                    "material" : 2
                },
                {
                    "attributes" : {
                        "POSITION" : 12,
                        "NORMAL" : 13,
                        "TEXCOORD_0" : 14
                    },
                    "indices" : 15,
                    "material" : 3
                },
                {
                    "attributes" : {
                        "POSITION" : 16,
                        "NORMAL" : 17,
                        "TEXCOORD_0" : 18
                    },
                    "indices" : 19,
                    "material" : 4
                },
                {
                    "attributes" : {
                        "POSITION" : 20,
                        "NORMAL" : 21,
                        "TEXCOORD_0" : 22
                    },
                    "indices" : 23,
                    "material" : 5
                },
                {
                    "attributes" : {
                        "POSITION" : 24,
                        "NORMAL" : 25,
                        "TEXCOORD_0" : 26
                    },
                    "indices" : 27,
                    "material" : 6
                }
            ]
        }
    ],
    "accessors" : [
        {
            "bufferView" : 0,
            "componentType" : 5126,
            "count" : 2340,
            "max" : [
                0.9747286438941956,
                1.815395474433899,
                0.9633793234825134
            ],
            "min" : [
                -0.9265815019607544,
                -0.02124757319688797,
                -1.0133006572723389
            ],
            "type" : "VEC3"
        },
        {
            "bufferView" : 1,
            "componentType" : 5126,
            "count" : 2340,
            "type" : "VEC3"
        },
        {
            "bufferView" : 2,
            "componentType" : 5126,
            "count" : 2340,
            "type" : "VEC2"
        },
        {
            "bufferView" : 3,
            "componentType" : 5123,
            "count" : 3996,
            "type" : "SCALAR"
        },
        {
            "bufferView" : 4,
            "componentType" : 5126,
            "count" : 296,
            "max" : [
                0.9747286438941956,
                1.3850796222686768,
                0.9633793234825134
            ],
            "min" : [
                -0.8047478199005127,
                -0.02124757319688797,
                -0.8733136057853699
            ],
            "type" : "VEC3"
        },
        {
            "bufferView" : 5,
            "componentType" : 5126,
            "count" : 296,
            "type" : "VEC3"
        },
        {
            "bufferView" : 6,
            "componentType" : 5126,
            "count" : 296,
            "type" : "VEC2"
        },
        {
            "bufferView" : 7,
            "componentType" : 5123,
            "count" : 450,
            "type" : "SCALAR"
        },
        {
            "bufferView" : 8,
            "componentType" : 5126,
            "count" : 486,
            "max" : [
                0.8973329067230225,
                0.051195308566093445,
                0.7645915746688843
            ],
            "min" : [
                -0.7213553786277771,
                -0.005080047063529491,
                -0.6755141019821167
            ],
            "type" : "VEC3"
        },
        {
            "bufferView" : 9,
            "componentType" : 5126,
            "count" : 486,
            "type" : "VEC3"
        },
        {
            "bufferView" : 10,
            "componentType" : 5126,
            "count" : 486,
            "type" : "VEC2"
        },
        {
            "bufferView" : 11,
            "componentType" : 5123,
            "count" : 2004,
            "type" : "SCALAR"
        },
        {
            "bufferView" : 12,
            "componentType" : 5126,
            "count" : 2468,
            "max" : [
                -0.04695047438144684,
                1.7913509607315063,
                -0.04355693608522415
            ],
            "min" : [
                -0.9369035363197327,
                1.1071406602859497,
                -0.891592800617218
            ],
            "type" : "VEC3"
        },
        {
            "bufferView" : 13,
            "componentType" : 5126,
            "count" : 2468,
            "type" : "VEC3"
        },
        {
            "bufferView" : 14,
            "componentType" : 5126,
            "count" : 2468,
            "type" : "VEC2"
        },
        {
            "bufferView" : 15,
            "componentType" : 5123,
            "count" : 5148,
            "type" : "SCALAR"
        },
        {
            "bufferView" : 16,
            "componentType" : 5126,
            "count" : 32,
            "max" : [
                -0.1949252188205719,
                1.5592597723007202,
                -0.09829580038785934
            ],
            "min" : [
                -0.7889288067817688,
                0.4011325538158417,
                -0.8742684125900269
            ],
            "type" : "VEC3"
        },
        {
            "bufferView" : 17,
            "componentType" : 5126,
            "count" : 32,
            "type" : "VEC3"
        },
        {
            "bufferView" : 18,
            "componentType" : 5126,
            "count" : 32,
            "type" : "VEC2"
        },
        {
            "bufferView" : 19,
            "componentType" : 5123,
            "count" : 48,
            "type" : "SCALAR"
        },
        {
            "bufferView" : 20,
            "componentType" : 5126,
            "count" : 518,
            "max" : [
                -0.1729849874973297,
                0.4246685206890106,
                -0.0799868032336235
            ],
            "min" : [
                -0.810869038105011,
                0.006781399250030518,
                -0.8925774097442627
            ],
            "type" : "VEC3"
        },
        {
            "bufferView" : 21,
            "componentType" : 5126,
            "count" : 518,
            "type" : "VEC3"
        },
        {
            "bufferView" : 22,
            "componentType" : 5126,
            "count" : 518,
            "type" : "VEC2"
        },
        {
            "bufferView" : 23,
            "componentType" : 5123,
            "count" : 780,
            "type" : "SCALAR"
        },
        {
            "bufferView" : 24,
            "componentType" : 5126,
            "count" : 40,
            "max" : [
                -0.18668323755264282,
                0.3575323522090912,
                -0.09243886917829514
            ],
            "min" : [
                -0.7971707582473755,
                0.0027190744876861572,
                -0.8801253437995911
            ],
            "type" : "VEC3"
        },
        {
            "bufferView" : 25,
            "componentType" : 5126,
            "count" : 40,
            "type" : "VEC3"
        },
        {
            "bufferView" : 26,
            "componentType" : 5126,
            "count" : 40,
            "type" : "VEC2"
        },
        {
            "bufferView" : 27,
            "componentType" : 5123,
            "count" : 60,
            "type" : "SCALAR"
        }
    ],
    "bufferViews" : [
        {
            "buffer" : 0,
            "byteLength" : 28080,
            "byteOffset" : 0
        },
        {
            "buffer" : 0,
            "byteLength" : 28080,
            "byteOffset" : 28080
        },
        {
            "buffer" : 0,
            "byteLength" : 18720,
            "byteOffset" : 56160
        },
        {
            "buffer" : 0,
            "byteLength" : 7992,
            "byteOffset" : 74880
        },
        {
            "buffer" : 0,
            "byteLength" : 3552,
            "byteOffset" : 82872
        },
        {
            "buffer" : 0,
            "byteLength" : 3552,
            "byteOffset" : 86424
        },
        {
            "buffer" : 0,
            "byteLength" : 2368,
            "byteOffset" : 89976
        },
        {
            "buffer" : 0,
            "byteLength" : 900,
            "byteOffset" : 92344
        },
        {
            "buffer" : 0,
            "byteLength" : 5832,
            "byteOffset" : 93244
        },
        {
            "buffer" : 0,
            "byteLength" : 5832,
            "byteOffset" : 99076
        },
        {
            "buffer" : 0,
            "byteLength" : 3888,
            "byteOffset" : 104908
        },
        {
            "buffer" : 0,
            "byteLength" : 4008,
            "byteOffset" : 108796
        },
        {
            "buffer" : 0,
            "byteLength" : 29616,
            "byteOffset" : 112804
        },
        {
            "buffer" : 0,
            "byteLength" : 29616,
            "byteOffset" : 142420
        },
        {
            "buffer" : 0,
            "byteLength" : 19744,
            "byteOffset" : 172036
        },
        {
            "buffer" : 0,
            "byteLength" : 10296,
            "byteOffset" : 191780
        },
        {
            "buffer" : 0,
            "byteLength" : 384,
            "byteOffset" : 202076
        },
        {
            "buffer" : 0,
            "byteLength" : 384,
            "byteOffset" : 202460
        },
        {
            "buffer" : 0,
            "byteLength" : 256,
            "byteOffset" : 202844
        },
        {
            "buffer" : 0,
            "byteLength" : 96,
            "byteOffset" : 203100
        },
        {
            "buffer" : 0,
            "byteLength" : 6216,
            "byteOffset" : 203196
        },
        {
            "buffer" : 0,
            "byteLength" : 6216,
            "byteOffset" : 209412
        },
        {
            "buffer" : 0,
            "byteLength" : 4144,
            "byteOffset" : 215628
        },
        {
            "buffer" : 0,
            "byteLength" : 1560,
            "byteOffset" : 219772
        },
        {
            "buffer" : 0,
            "byteLength" : 480,
            "byteOffset" : 221332
        },
        {
            "buffer" : 0,
            "byteLength" : 480,
            "byteOffset" : 221812
        },
        {
            "buffer" : 0,
            "byteLength" : 320,
            "byteOffset" : 222292
        },
        {
            "buffer" : 0,
            "byteLength" : 120,
            "byteOffset" : 222612
        }
    ],
    "buffers" : [
        {
            "byteLength" : 222732,
            "uri" : "data:application/octet-stream;base64,"
        }
    ]
}
