{
    "asset" : {
        "generator" : "Khronos glTF Blender I/O v1.7.33",
        "version" : "2.0"
    },
    "scene" : 0,
    "scenes" : [
        {
            "name" : "Scene",
            "nodes" : [
                0
            ]
        }
    ],
    "nodes" : [
        {
            "mesh" : 0,
            "name" : "Farm_FirstAge_Level3_Wheat"
        }
    ],
    "materials" : [
        {
            "doubleSided" : true,
            "name" : "Wheat",
            "pbrMetallicRoughness" : {
                "baseColorFactor" : [
                    0.38437071442604065,
                    0.3004944622516632,
                    0.06506850570440292,
                    1
                ],
                "metallicFactor" : 0,
                "roughnessFactor" : 0.5
            }
        }
    ],
    "meshes" : [
        {
            "name" : "Cube.282",
            "primitives" : [
                {
                    "attributes" : {
                        "POSITION" : 0,
                        "NORMAL" : 1,
                        "TEXCOORD_0" : 2
                    },
                    "indices" : 3,
                    "material" : 0
                }
            ]
        }
    ],
    "accessors" : [
        {
            "bufferView" : 0,
            "componentType" : 5126,
            "count" : 26624,
            "max" : [
                0.8783841133117676,
                0.18843044340610504,
                0.7686091661453247
            ],
            "min" : [
                -0.8373854160308838,
                0.0001548124710097909,
                -0.6847947239875793
            ],
            "type" : "VEC3"
        },
        {
            "bufferView" : 1,
            "componentType" : 5126,
            "count" : 26624,
            "type" : "VEC3"
        },
        {
            "bufferView" : 2,
            "componentType" : 5126,
            "count" : 26624,
            "type" : "VEC2"
        },
        {
            "bufferView" : 3,
            "componentType" : 5123,
            "count" : 39936,
            "type" : "SCALAR"
        }
    ],
    "bufferViews" : [
        {
            "buffer" : 0,
            "byteLength" : 319488,
            "byteOffset" : 0
        },
        {
            "buffer" : 0,
            "byteLength" : 319488,
            "byteOffset" : 319488
        },
        {
            "buffer" : 0,
            "byteLength" : 212992,
            "byteOffset" : 638976
        },
        {
            "buffer" : 0,
            "byteLength" : 79872,
            "byteOffset" : 851968
        }
    ],
    "buffers" : [
        {
            "byteLength" : 931840,
            "uri" : "data:application/octet-stream;base64,"
        }
    ]
}
