{
    "asset" : {
        "generator" : "Khronos glTF Blender I/O v1.7.33",
        "version" : "2.0"
    },
    "scene" : 0,
    "scenes" : [
        {
            "name" : "Scene",
            "nodes" : [
                0
            ]
        }
    ],
    "nodes" : [
        {
            "mesh" : 0,
            "name" : "Farm_SecondAge_Level1_Wheat"
        }
    ],
    "materials" : [
        {
            "doubleSided" : true,
            "name" : "Wheat",
            "pbrMetallicRoughness" : {
                "baseColorFactor" : [
                    0.38437071442604065,
                    0.3004944622516632,
                    0.06506850570440292,
                    1
                ],
                "metallicFactor" : 0,
                "roughnessFactor" : 0.5
            }
        }
    ],
    "meshes" : [
        {
            "name" : "Plane.005",
            "primitives" : [
                {
                    "attributes" : {
                        "POSITION" : 0,
                        "NORMAL" : 1
                    },
                    "indices" : 2,
                    "material" : 0
                }
            ]
        }
    ],
    "accessors" : [
        {
            "bufferView" : 0,
            "componentType" : 5126,
            "count" : 10088,
            "max" : [
                0.809117317199707,
                0.1861840784549713,
                0.08380387723445892
            ],
            "min" : [
                -0.6662231087684631,
                0.0001548124710097909,
                -0.6847947239875793
            ],
            "type" : "VEC3"
        },
        {
            "bufferView" : 1,
            "componentType" : 5126,
            "count" : 10088,
            "type" : "VEC3"
        },
        {
            "bufferView" : 2,
            "componentType" : 5123,
            "count" : 15132,
            "type" : "SCALAR"
        }
    ],
    "bufferViews" : [
        {
            "buffer" : 0,
            "byteLength" : 121056,
            "byteOffset" : 0
        },
        {
            "buffer" : 0,
            "byteLength" : 121056,
            "byteOffset" : 121056
        },
        {
            "buffer" : 0,
            "byteLength" : 30264,
            "byteOffset" : 242112
        }
    ],
    "buffers" : [
        {
            "byteLength" : 272376,
            "uri" : "data:application/octet-stream;base64,"
        }
    ]
}
