{
    "asset" : {
        "generator" : "Khronos glTF Blender I/O v1.7.33",
        "version" : "2.0"
    },
    "scene" : 0,
    "scenes" : [
        {
            "name" : "Scene",
            "nodes" : [
                0
            ]
        }
    ],
    "nodes" : [
        {
            "mesh" : 0,
            "name" : "Farm_SecondAge_Level1"
        }
    ],
    "materials" : [
        {
            "doubleSided" : true,
            "name" : "Wood",
            "pbrMetallicRoughness" : {
                "baseColorFactor" : [
                    0.24618732929229736,
                    0.14435896277427673,
                    0.053798429667949677,
                    1
                ],
                "metallicFactor" : 0,
                "roughnessFactor" : 0.5
            }
        },
        {
            "doubleSided" : true,
            "name" : "Wood_Light",
            "pbrMetallicRoughness" : {
                "baseColorFactor" : [
                    0.3757452964782715,
                    0.24318844079971313,
                    0.09746062755584717,
                    1
                ],
                "metallicFactor" : 0,
                "roughnessFactor" : 0.5
            }
        },
        {
            "doubleSided" : true,
            "name" : "Dirt",
            "pbrMetallicRoughness" : {
                "baseColorFactor" : [
                    0.09462355077266693,
                    0.07399486005306244,
                    0.028943030163645744,
                    1
                ],
                "metallicFactor" : 0,
                "roughnessFactor" : 0.5
            }
        },
        {
            "doubleSided" : true,
            "name" : "Main",
            "pbrMetallicRoughness" : {
                "baseColorFactor" : [
                    0.4385380148887634,
                    0.09992149472236633,
                    0.05885644257068634,
                    1
                ],
                "metallicFactor" : 0,
                "roughnessFactor" : 0.5
            }
        },
        {
            "doubleSided" : true,
            "name" : "Walls",
            "pbrMetallicRoughness" : {
                "baseColorFactor" : [
                    0.4352165758609772,
                    0.4385380148887634,
                    0.3826240599155426,
                    1
                ],
                "metallicFactor" : 0,
                "roughnessFactor" : 0.5
            }
        },
        {
            "doubleSided" : true,
            "name" : "Stone",
            "pbrMetallicRoughness" : {
                "baseColorFactor" : [
                    0.24436430633068085,
                    0.24618881940841675,
                    0.21545054018497467,
                    1
                ],
                "metallicFactor" : 0,
                "roughnessFactor" : 0.5
            }
        },
        {
            "doubleSided" : true,
            "name" : "Stone_Light",
            "pbrMetallicRoughness" : {
                "baseColorFactor" : [
                    0.454056978225708,
                    0.4575270116329193,
                    0.3991142511367798,
                    1
                ],
                "metallicFactor" : 0,
                "roughnessFactor" : 0.5
            }
        }
    ],
    "meshes" : [
        {
            "name" : "Cube.041",
            "primitives" : [
                {
                    "attributes" : {
                        "POSITION" : 0,
                        "NORMAL" : 1,
                        "TEXCOORD_0" : 2
                    },
                    "indices" : 3,
                    "material" : 0
                },
                {
                    "attributes" : {
                        "POSITION" : 4,
                        "NORMAL" : 5,
                        "TEXCOORD_0" : 6
                    },
                    "indices" : 7,
                    "material" : 1
                },
                {
                    "attributes" : {
                        "POSITION" : 8,
                        "NORMAL" : 9,
                        "TEXCOORD_0" : 10
                    },
                    "indices" : 11,
                    "material" : 2
                },
                {
                    "attributes" : {
                        "POSITION" : 12,
                        "NORMAL" : 13,
                        "TEXCOORD_0" : 14
                    },
                    "indices" : 15,
                    "material" : 3
                },
                {
                    "attributes" : {
                        "POSITION" : 16,
                        "NORMAL" : 17,
                        "TEXCOORD_0" : 18
                    },
                    "indices" : 19,
                    "material" : 4
                },
                {
                    "attributes" : {
                        "POSITION" : 20,
                        "NORMAL" : 21,
                        "TEXCOORD_0" : 22
                    },
                    "indices" : 23,
                    "material" : 5
                },
                {
                    "attributes" : {
                        "POSITION" : 24,
                        "NORMAL" : 25,
                        "TEXCOORD_0" : 26
                    },
                    "indices" : 27,
                    "material" : 6
                }
            ]
        }
    ],
    "accessors" : [
        {
            "bufferView" : 0,
            "componentType" : 5126,
            "count" : 598,
            "max" : [
                0.22038322687149048,
                1.049271583557129,
                0.08164122700691223
            ],
            "min" : [
                -0.9265815019607544,
                -0.021247565746307373,
                -1.0133006572723389
            ],
            "type" : "VEC3"
        },
        {
            "bufferView" : 1,
            "componentType" : 5126,
            "count" : 598,
            "type" : "VEC3"
        },
        {
            "bufferView" : 2,
            "componentType" : 5126,
            "count" : 598,
            "type" : "VEC2"
        },
        {
            "bufferView" : 3,
            "componentType" : 5123,
            "count" : 972,
            "type" : "SCALAR"
        },
        {
            "bufferView" : 4,
            "componentType" : 5126,
            "count" : 128,
            "max" : [
                0.22038322687149048,
                0.2753375470638275,
                0.08164122700691223
            ],
            "min" : [
                -0.8047478199005127,
                -0.021247565746307373,
                -0.8673235177993774
            ],
            "type" : "VEC3"
        },
        {
            "bufferView" : 5,
            "componentType" : 5126,
            "count" : 128,
            "type" : "VEC3"
        },
        {
            "bufferView" : 6,
            "componentType" : 5126,
            "count" : 128,
            "type" : "VEC2"
        },
        {
            "bufferView" : 7,
            "componentType" : 5123,
            "count" : 204,
            "type" : "SCALAR"
        },
        {
            "bufferView" : 8,
            "componentType" : 5126,
            "count" : 279,
            "max" : [
                0.8754892945289612,
                0.051195308566093445,
                0.09651095420122147
            ],
            "min" : [
                -0.7213553786277771,
                -0.005080047063529491,
                -0.6755141019821167
            ],
            "type" : "VEC3"
        },
        {
            "bufferView" : 9,
            "componentType" : 5126,
            "count" : 279,
            "type" : "VEC3"
        },
        {
            "bufferView" : 10,
            "componentType" : 5126,
            "count" : 279,
            "type" : "VEC2"
        },
        {
            "bufferView" : 11,
            "componentType" : 5123,
            "count" : 1152,
            "type" : "SCALAR"
        },
        {
            "bufferView" : 12,
            "componentType" : 5126,
            "count" : 1672,
            "max" : [
                -0.04695047810673714,
                1.0252270698547363,
                -0.27629390358924866
            ],
            "min" : [
                -0.9369035363197327,
                0.3410167694091797,
                -0.891592800617218
            ],
            "type" : "VEC3"
        },
        {
            "bufferView" : 13,
            "componentType" : 5126,
            "count" : 1672,
            "type" : "VEC3"
        },
        {
            "bufferView" : 14,
            "componentType" : 5126,
            "count" : 1672,
            "type" : "VEC2"
        },
        {
            "bufferView" : 15,
            "componentType" : 5123,
            "count" : 3468,
            "type" : "SCALAR"
        },
        {
            "bufferView" : 16,
            "componentType" : 5126,
            "count" : 40,
            "max" : [
                -0.1949252337217331,
                0.7931358814239502,
                -0.33103278279304504
            ],
            "min" : [
                -0.7889288067817688,
                0.4332539141178131,
                -0.8742684125900269
            ],
            "type" : "VEC3"
        },
        {
            "bufferView" : 17,
            "componentType" : 5126,
            "count" : 40,
            "type" : "VEC3"
        },
        {
            "bufferView" : 18,
            "componentType" : 5126,
            "count" : 40,
            "type" : "VEC2"
        },
        {
            "bufferView" : 19,
            "componentType" : 5123,
            "count" : 60,
            "type" : "SCALAR"
        },
        {
            "bufferView" : 20,
            "componentType" : 5126,
            "count" : 520,
            "max" : [
                -0.1729850023984909,
                0.4246685206890106,
                -0.3127237856388092
            ],
            "min" : [
                -0.810869038105011,
                0.006781399250030518,
                -0.8925774097442627
            ],
            "type" : "VEC3"
        },
        {
            "bufferView" : 21,
            "componentType" : 5126,
            "count" : 520,
            "type" : "VEC3"
        },
        {
            "bufferView" : 22,
            "componentType" : 5126,
            "count" : 520,
            "type" : "VEC2"
        },
        {
            "bufferView" : 23,
            "componentType" : 5123,
            "count" : 780,
            "type" : "SCALAR"
        },
        {
            "bufferView" : 24,
            "componentType" : 5126,
            "count" : 40,
            "max" : [
                -0.18668325245380402,
                0.3575323522090912,
                -0.32517585158348083
            ],
            "min" : [
                -0.7971707582473755,
                0.0027190744876861572,
                -0.8801253437995911
            ],
            "type" : "VEC3"
        },
        {
            "bufferView" : 25,
            "componentType" : 5126,
            "count" : 40,
            "type" : "VEC3"
        },
        {
            "bufferView" : 26,
            "componentType" : 5126,
            "count" : 40,
            "type" : "VEC2"
        },
        {
            "bufferView" : 27,
            "componentType" : 5123,
            "count" : 60,
            "type" : "SCALAR"
        }
    ],
    "bufferViews" : [
        {
            "buffer" : 0,
            "byteLength" : 7176,
            "byteOffset" : 0
        },
        {
            "buffer" : 0,
            "byteLength" : 7176,
            "byteOffset" : 7176
        },
        {
            "buffer" : 0,
            "byteLength" : 4784,
            "byteOffset" : 14352
        },
        {
            "buffer" : 0,
            "byteLength" : 1944,
            "byteOffset" : 19136
        },
        {
            "buffer" : 0,
            "byteLength" : 1536,
            "byteOffset" : 21080
        },
        {
            "buffer" : 0,
            "byteLength" : 1536,
            "byteOffset" : 22616
        },
        {
            "buffer" : 0,
            "byteLength" : 1024,
            "byteOffset" : 24152
        },
        {
            "buffer" : 0,
            "byteLength" : 408,
            "byteOffset" : 25176
        },
        {
            "buffer" : 0,
            "byteLength" : 3348,
            "byteOffset" : 25584
        },
        {
            "buffer" : 0,
            "byteLength" : 3348,
            "byteOffset" : 28932
        },
        {
            "buffer" : 0,
            "byteLength" : 2232,
            "byteOffset" : 32280
        },
        {
            "buffer" : 0,
            "byteLength" : 2304,
            "byteOffset" : 34512
        },
        {
            "buffer" : 0,
            "byteLength" : 20064,
            "byteOffset" : 36816
        },
        {
            "buffer" : 0,
            "byteLength" : 20064,
            "byteOffset" : 56880
        },
        {
            "buffer" : 0,
            "byteLength" : 13376,
            "byteOffset" : 76944
        },
        {
            "buffer" : 0,
            "byteLength" : 6936,
            "byteOffset" : 90320
        },
        {
            "buffer" : 0,
            "byteLength" : 480,
            "byteOffset" : 97256
        },
        {
            "buffer" : 0,
            "byteLength" : 480,
            "byteOffset" : 97736
        },
        {
            "buffer" : 0,
            "byteLength" : 320,
            "byteOffset" : 98216
        },
        {
            "buffer" : 0,
            "byteLength" : 120,
            "byteOffset" : 98536
        },
        {
            "buffer" : 0,
            "byteLength" : 6240,
            "byteOffset" : 98656
        },
        {
            "buffer" : 0,
            "byteLength" : 6240,
            "byteOffset" : 104896
        },
        {
            "buffer" : 0,
            "byteLength" : 4160,
            "byteOffset" : 111136
        },
        {
            "buffer" : 0,
            "byteLength" : 1560,
            "byteOffset" : 115296
        },
        {
            "buffer" : 0,
            "byteLength" : 480,
            "byteOffset" : 116856
        },
        {
            "buffer" : 0,
            "byteLength" : 480,
            "byteOffset" : 117336
        },
        {
            "buffer" : 0,
            "byteLength" : 320,
            "byteOffset" : 117816
        },
        {
            "buffer" : 0,
            "byteLength" : 120,
            "byteOffset" : 118136
        }
    ],
    "buffers" : [
        {
            "byteLength" : 118256,
            "uri" : "data:application/octet-stream;base64,"
        }
    ]
}
