{
    "asset" : {
        "generator" : "Khronos glTF Blender I/O v1.7.33",
        "version" : "2.0"
    },
    "scene" : 0,
    "scenes" : [
        {
            "name" : "Scene",
            "nodes" : [
                0
            ]
        }
    ],
    "nodes" : [
        {
            "mesh" : 0,
            "name" : "Farm_FirstAge_Level2"
        }
    ],
    "materials" : [
        {
            "doubleSided" : true,
            "name" : "Dirt",
            "pbrMetallicRoughness" : {
                "baseColorFactor" : [
                    0.09462355077266693,
                    0.07399486005306244,
                    0.028943030163645744,
                    1
                ],
                "metallicFactor" : 0,
                "roughnessFactor" : 0.5
            }
        }
    ],
    "meshes" : [
        {
            "name" : "Cube.278",
            "primitives" : [
                {
                    "attributes" : {
                        "POSITION" : 0,
                        "NORMAL" : 1
                    },
                    "indices" : 2,
                    "material" : 0
                }
            ]
        }
    ],
    "accessors" : [
        {
            "bufferView" : 0,
            "componentType" : 5126,
            "count" : 380,
            "max" : [
                0.897333025932312,
                0.05119530111551285,
                0.4171898066997528
            ],
            "min" : [
                -0.8918341398239136,
                -0.005080042406916618,
                -0.675514280796051
            ],
            "type" : "VEC3"
        },
        {
            "bufferView" : 1,
            "componentType" : 5126,
            "count" : 380,
            "type" : "VEC3"
        },
        {
            "bufferView" : 2,
            "componentType" : 5123,
            "count" : 1920,
            "type" : "SCALAR"
        }
    ],
    "bufferViews" : [
        {
            "buffer" : 0,
            "byteLength" : 4560,
            "byteOffset" : 0
        },
        {
            "buffer" : 0,
            "byteLength" : 4560,
            "byteOffset" : 4560
        },
        {
            "buffer" : 0,
            "byteLength" : 3840,
            "byteOffset" : 9120
        }
    ],
    "buffers" : [
        {
            "byteLength" : 12960,
            "uri" : "data:application/octet-stream;base64,"
        }
    ]
}
