{
    "asset" : {
        "generator" : "Khronos glTF Blender I/O v1.7.33",
        "version" : "2.0"
    },
    "scene" : 0,
    "scenes" : [
        {
            "name" : "Scene",
            "nodes" : [
                0
            ]
        }
    ],
    "nodes" : [
        {
            "mesh" : 0,
            "name" : "Farm_FirstAge_Level1"
        }
    ],
    "materials" : [
        {
            "doubleSided" : true,
            "name" : "Dirt",
            "pbrMetallicRoughness" : {
                "baseColorFactor" : [
                    0.09462355077266693,
                    0.07399486005306244,
                    0.028943030163645744,
                    1
                ],
                "metallicFactor" : 0,
                "roughnessFactor" : 0.5
            }
        }
    ],
    "meshes" : [
        {
            "name" : "Cube.277",
            "primitives" : [
                {
                    "attributes" : {
                        "POSITION" : 0,
                        "NORMAL" : 1
                    },
                    "indices" : 2,
                    "material" : 0
                }
            ]
        }
    ],
    "accessors" : [
        {
            "bufferView" : 0,
            "componentType" : 5126,
            "count" : 190,
            "max" : [
                0.8754891157150269,
                0.05119530111551285,
                -0.25089070200920105
            ],
            "min" : [
                -0.8918341398239136,
                -0.005080042406916618,
                -0.675514280796051
            ],
            "type" : "VEC3"
        },
        {
            "bufferView" : 1,
            "componentType" : 5126,
            "count" : 190,
            "type" : "VEC3"
        },
        {
            "bufferView" : 2,
            "componentType" : 5123,
            "count" : 960,
            "type" : "SCALAR"
        }
    ],
    "bufferViews" : [
        {
            "buffer" : 0,
            "byteLength" : 2280,
            "byteOffset" : 0
        },
        {
            "buffer" : 0,
            "byteLength" : 2280,
            "byteOffset" : 2280
        },
        {
            "buffer" : 0,
            "byteLength" : 1920,
            "byteOffset" : 4560
        }
    ],
    "buffers" : [
        {
            "byteLength" : 6480,
            "uri" : "data:application/octet-stream;base64,"
        }
    ]
}
