{
    "asset" : {
        "generator" : "Khronos glTF Blender I/O v1.7.33",
        "version" : "2.0"
    },
    "scene" : 0,
    "scenes" : [
        {
            "name" : "Scene",
            "nodes" : [
                0
            ]
        }
    ],
    "nodes" : [
        {
            "mesh" : 0,
            "name" : "Farm_Dirt_Level3"
        }
    ],
    "materials" : [
        {
            "doubleSided" : true,
            "name" : "Dirt",
            "pbrMetallicRoughness" : {
                "baseColorFactor" : [
                    0.09462355077266693,
                    0.07399486005306244,
                    0.028943030163645744,
                    1
                ],
                "metallicFactor" : 0,
                "roughnessFactor" : 0.5
            }
        },
        {
            "doubleSided" : true,
            "name" : "Lettuce",
            "pbrMetallicRoughness" : {
                "baseColorFactor" : [
                    0.1471814215183258,
                    0.1679467111825943,
                    0.09200603514909744,
                    1
                ],
                "metallicFactor" : 0,
                "roughnessFactor" : 0.5
            }
        },
        {
            "doubleSided" : true,
            "name" : "Red",
            "pbrMetallicRoughness" : {
                "baseColorFactor" : [
                    0.28100141882896423,
                    0.005420661997050047,
                    0.0022358763962984085,
                    1
                ],
                "metallicFactor" : 0,
                "roughnessFactor" : 0.5
            }
        },
        {
            "doubleSided" : true,
            "name" : "Green",
            "pbrMetallicRoughness" : {
                "baseColorFactor" : [
                    0.09404914081096649,
                    0.1788560301065445,
                    0.012008205987513065,
                    1
                ],
                "metallicFactor" : 0,
                "roughnessFactor" : 0.5
            }
        },
        {
            "doubleSided" : true,
            "name" : "Orange",
            "pbrMetallicRoughness" : {
                "baseColorFactor" : [
                    0.4769855737686157,
                    0.11858613044023514,
                    0.02765939012169838,
                    1
                ],
                "metallicFactor" : 0,
                "roughnessFactor" : 0.5
            }
        },
        {
            "doubleSided" : true,
            "name" : "Watermelon_DarkGreen",
            "pbrMetallicRoughness" : {
                "baseColorFactor" : [
                    0.16704785823822021,
                    0.23301151394844055,
                    0.05678928270936012,
                    1
                ],
                "metallicFactor" : 0,
                "roughnessFactor" : 0.5
            }
        }
    ],
    "meshes" : [
        {
            "name" : "Cube.053",
            "primitives" : [
                {
                    "attributes" : {
                        "POSITION" : 0,
                        "NORMAL" : 1
                    },
                    "indices" : 2,
                    "material" : 0
                },
                {
                    "attributes" : {
                        "POSITION" : 3,
                        "NORMAL" : 4
                    },
                    "indices" : 5,
                    "material" : 1
                },
                {
                    "attributes" : {
                        "POSITION" : 6,
                        "NORMAL" : 7
                    },
                    "indices" : 8,
                    "material" : 2
                },
                {
                    "attributes" : {
                        "POSITION" : 9,
                        "NORMAL" : 10
                    },
                    "indices" : 11,
                    "material" : 3
                },
                {
                    "attributes" : {
                        "POSITION" : 12,
                        "NORMAL" : 13
                    },
                    "indices" : 14,
                    "material" : 4
                },
                {
                    "attributes" : {
                        "POSITION" : 15,
                        "NORMAL" : 16
                    },
                    "indices" : 17,
                    "material" : 5
                }
            ]
        }
    ],
    "accessors" : [
        {
            "bufferView" : 0,
            "componentType" : 5126,
            "count" : 475,
            "max" : [
                0.8918339610099792,
                0.05119530111551285,
                0.6755141019821167
            ],
            "min" : [
                -0.8973329067230225,
                -0.005080042406916618,
                -0.7645915746688843
            ],
            "type" : "VEC3"
        },
        {
            "bufferView" : 1,
            "componentType" : 5126,
            "count" : 475,
            "type" : "VEC3"
        },
        {
            "bufferView" : 2,
            "componentType" : 5123,
            "count" : 2400,
            "type" : "SCALAR"
        },
        {
            "bufferView" : 3,
            "componentType" : 5126,
            "count" : 20608,
            "max" : [
                0.7656394243240356,
                0.12886999547481537,
                0.4039233922958374
            ],
            "min" : [
                -0.7704071402549744,
                0.04122639074921608,
                0.22109398245811462
            ],
            "type" : "VEC3"
        },
        {
            "bufferView" : 4,
            "componentType" : 5126,
            "count" : 20608,
            "type" : "VEC3"
        },
        {
            "bufferView" : 5,
            "componentType" : 5123,
            "count" : 29232,
            "type" : "SCALAR"
        },
        {
            "bufferView" : 6,
            "componentType" : 5126,
            "count" : 4800,
            "max" : [
                0.5927537679672241,
                0.2488389015197754,
                0.02754148095846176
            ],
            "min" : [
                -0.7342607975006104,
                0.11090147495269775,
                -0.7636384963989258
            ],
            "type" : "VEC3"
        },
        {
            "bufferView" : 7,
            "componentType" : 5126,
            "count" : 4800,
            "type" : "VEC3"
        },
        {
            "bufferView" : 8,
            "componentType" : 5123,
            "count" : 4800,
            "type" : "SCALAR"
        },
        {
            "bufferView" : 9,
            "componentType" : 5126,
            "count" : 32762,
            "max" : [
                0.6133531928062439,
                0.31764286756515503,
                0.7021918892860413
            ],
            "min" : [
                -0.7807047367095947,
                0.014604248106479645,
                -0.7880818843841553
            ],
            "type" : "VEC3"
        },
        {
            "bufferView" : 10,
            "componentType" : 5126,
            "count" : 32762,
            "type" : "VEC3"
        },
        {
            "bufferView" : 11,
            "componentType" : 5123,
            "count" : 46770,
            "type" : "SCALAR"
        },
        {
            "bufferView" : 12,
            "componentType" : 5126,
            "count" : 4200,
            "max" : [
                0.6927765607833862,
                0.1360994130373001,
                -0.28856948018074036
            ],
            "min" : [
                -0.7679910659790039,
                0.03745562583208084,
                -0.4135633409023285
            ],
            "type" : "VEC3"
        },
        {
            "bufferView" : 13,
            "componentType" : 5126,
            "count" : 4200,
            "type" : "VEC3"
        },
        {
            "bufferView" : 14,
            "componentType" : 5123,
            "count" : 6408,
            "type" : "SCALAR"
        },
        {
            "bufferView" : 15,
            "componentType" : 5126,
            "count" : 10462,
            "max" : [
                0.4963577687740326,
                0.16539764404296875,
                0.7677299976348877
            ],
            "min" : [
                -0.78227698802948,
                0.027797110378742218,
                0.45767977833747864
            ],
            "type" : "VEC3"
        },
        {
            "bufferView" : 16,
            "componentType" : 5126,
            "count" : 10462,
            "type" : "VEC3"
        },
        {
            "bufferView" : 17,
            "componentType" : 5123,
            "count" : 15618,
            "type" : "SCALAR"
        }
    ],
    "bufferViews" : [
        {
            "buffer" : 0,
            "byteLength" : 5700,
            "byteOffset" : 0
        },
        {
            "buffer" : 0,
            "byteLength" : 5700,
            "byteOffset" : 5700
        },
        {
            "buffer" : 0,
            "byteLength" : 4800,
            "byteOffset" : 11400
        },
        {
            "buffer" : 0,
            "byteLength" : 247296,
            "byteOffset" : 16200
        },
        {
            "buffer" : 0,
            "byteLength" : 247296,
            "byteOffset" : 263496
        },
        {
            "buffer" : 0,
            "byteLength" : 58464,
            "byteOffset" : 510792
        },
        {
            "buffer" : 0,
            "byteLength" : 57600,
            "byteOffset" : 569256
        },
        {
            "buffer" : 0,
            "byteLength" : 57600,
            "byteOffset" : 626856
        },
        {
            "buffer" : 0,
            "byteLength" : 9600,
            "byteOffset" : 684456
        },
        {
            "buffer" : 0,
            "byteLength" : 393144,
            "byteOffset" : 694056
        },
        {
            "buffer" : 0,
            "byteLength" : 393144,
            "byteOffset" : 1087200
        },
        {
            "buffer" : 0,
            "byteLength" : 93540,
            "byteOffset" : 1480344
        },
        {
            "buffer" : 0,
            "byteLength" : 50400,
            "byteOffset" : 1573884
        },
        {
            "buffer" : 0,
            "byteLength" : 50400,
            "byteOffset" : 1624284
        },
        {
            "buffer" : 0,
            "byteLength" : 12816,
            "byteOffset" : 1674684
        },
        {
            "buffer" : 0,
            "byteLength" : 125544,
            "byteOffset" : 1687500
        },
        {
            "buffer" : 0,
            "byteLength" : 125544,
            "byteOffset" : 1813044
        },
        {
            "buffer" : 0,
            "byteLength" : 31236,
            "byteOffset" : 1938588
        }
    ],
    "buffers" : [
        {
            "byteLength" : 1969824,
            "uri" : "data:application/octet-stream;base64,"
        }
    ]
}
