{
    "asset" : {
        "generator" : "Khronos glTF Blender I/O v1.7.33",
        "version" : "2.0"
    },
    "scene" : 0,
    "scenes" : [
        {
            "name" : "Scene",
            "nodes" : [
                0
            ]
        }
    ],
    "nodes" : [
        {
            "mesh" : 0,
            "name" : "Farm_SecondAge_Level2"
        }
    ],
    "materials" : [
        {
            "doubleSided" : true,
            "name" : "Wood",
            "pbrMetallicRoughness" : {
                "baseColorFactor" : [
                    0.24618732929229736,
                    0.14435896277427673,
                    0.053798429667949677,
                    1
                ],
                "metallicFactor" : 0,
                "roughnessFactor" : 0.5
            }
        },
        {
            "doubleSided" : true,
            "name" : "Wood_Light",
            "pbrMetallicRoughness" : {
                "baseColorFactor" : [
                    0.3757452964782715,
                    0.24318844079971313,
                    0.09746062755584717,
                    1
                ],
                "metallicFactor" : 0,
                "roughnessFactor" : 0.5
            }
        },
        {
            "doubleSided" : true,
            "name" : "Dirt",
            "pbrMetallicRoughness" : {
                "baseColorFactor" : [
                    0.09462355077266693,
                    0.07399486005306244,
                    0.028943030163645744,
                    1
                ],
                "metallicFactor" : 0,
                "roughnessFactor" : 0.5
            }
        },
        {
            "doubleSided" : true,
            "name" : "Main",
            "pbrMetallicRoughness" : {
                "baseColorFactor" : [
                    0.4385380148887634,
                    0.09992149472236633,
                    0.05885644257068634,
                    1
                ],
                "metallicFactor" : 0,
                "roughnessFactor" : 0.5
            }
        },
        {
            "doubleSided" : true,
            "name" : "Walls",
            "pbrMetallicRoughness" : {
                "baseColorFactor" : [
                    0.4352165758609772,
                    0.4385380148887634,
                    0.3826240599155426,
                    1
                ],
                "metallicFactor" : 0,
                "roughnessFactor" : 0.5
            }
        },
        {
            "doubleSided" : true,
            "name" : "Stone",
            "pbrMetallicRoughness" : {
                "baseColorFactor" : [
                    0.24436430633068085,
                    0.24618881940841675,
                    0.21545054018497467,
                    1
                ],
                "metallicFactor" : 0,
                "roughnessFactor" : 0.5
            }
        },
        {
            "doubleSided" : true,
            "name" : "Stone_Light",
            "pbrMetallicRoughness" : {
                "baseColorFactor" : [
                    0.454056978225708,
                    0.4575270116329193,
                    0.3991142511367798,
                    1
                ],
                "metallicFactor" : 0,
                "roughnessFactor" : 0.5
            }
        }
    ],
    "meshes" : [
        {
            "name" : "Cube.129",
            "primitives" : [
                {
                    "attributes" : {
                        "POSITION" : 0,
                        "NORMAL" : 1,
                        "TEXCOORD_0" : 2
                    },
                    "indices" : 3,
                    "material" : 0
                },
                {
                    "attributes" : {
                        "POSITION" : 4,
                        "NORMAL" : 5,
                        "TEXCOORD_0" : 6
                    },
                    "indices" : 7,
                    "material" : 1
                },
                {
                    "attributes" : {
                        "POSITION" : 8,
                        "NORMAL" : 9,
                        "TEXCOORD_0" : 10
                    },
                    "indices" : 11,
                    "material" : 2
                },
                {
                    "attributes" : {
                        "POSITION" : 12,
                        "NORMAL" : 13,
                        "TEXCOORD_0" : 14
                    },
                    "indices" : 15,
                    "material" : 3
                },
                {
                    "attributes" : {
                        "POSITION" : 16,
                        "NORMAL" : 17,
                        "TEXCOORD_0" : 18
                    },
                    "indices" : 19,
                    "material" : 4
                },
                {
                    "attributes" : {
                        "POSITION" : 20,
                        "NORMAL" : 21,
                        "TEXCOORD_0" : 22
                    },
                    "indices" : 23,
                    "material" : 5
                },
                {
                    "attributes" : {
                        "POSITION" : 24,
                        "NORMAL" : 25,
                        "TEXCOORD_0" : 26
                    },
                    "indices" : 27,
                    "material" : 6
                }
            ]
        }
    ],
    "accessors" : [
        {
            "bufferView" : 0,
            "componentType" : 5126,
            "count" : 930,
            "max" : [
                0.5712972283363342,
                1.2893915176391602,
                0.432555228471756
            ],
            "min" : [
                -0.9265815019607544,
                -0.021247565746307373,
                -1.0133006572723389
            ],
            "type" : "VEC3"
        },
        {
            "bufferView" : 1,
            "componentType" : 5126,
            "count" : 930,
            "type" : "VEC3"
        },
        {
            "bufferView" : 2,
            "componentType" : 5126,
            "count" : 930,
            "type" : "VEC2"
        },
        {
            "bufferView" : 3,
            "componentType" : 5123,
            "count" : 1548,
            "type" : "SCALAR"
        },
        {
            "bufferView" : 4,
            "componentType" : 5126,
            "count" : 136,
            "max" : [
                0.5712972283363342,
                0.2753375470638275,
                0.432555228471756
            ],
            "min" : [
                -0.8047478199005127,
                -0.021247565746307373,
                -0.8673235177993774
            ],
            "type" : "VEC3"
        },
        {
            "bufferView" : 5,
            "componentType" : 5126,
            "count" : 136,
            "type" : "VEC3"
        },
        {
            "bufferView" : 6,
            "componentType" : 5126,
            "count" : 136,
            "type" : "VEC2"
        },
        {
            "bufferView" : 7,
            "componentType" : 5123,
            "count" : 216,
            "type" : "SCALAR"
        },
        {
            "bufferView" : 8,
            "componentType" : 5126,
            "count" : 369,
            "max" : [
                0.8973329067230225,
                0.051195308566093445,
                0.41549190878868103
            ],
            "min" : [
                -0.7213553786277771,
                -0.005080047063529491,
                -0.6755141019821167
            ],
            "type" : "VEC3"
        },
        {
            "bufferView" : 9,
            "componentType" : 5126,
            "count" : 369,
            "type" : "VEC3"
        },
        {
            "bufferView" : 10,
            "componentType" : 5126,
            "count" : 369,
            "type" : "VEC2"
        },
        {
            "bufferView" : 11,
            "componentType" : 5123,
            "count" : 1524,
            "type" : "SCALAR"
        },
        {
            "bufferView" : 12,
            "componentType" : 5126,
            "count" : 1672,
            "max" : [
                -0.04695047810673714,
                1.2653470039367676,
                -0.27629390358924866
            ],
            "min" : [
                -0.9369035363197327,
                0.5811367034912109,
                -0.891592800617218
            ],
            "type" : "VEC3"
        },
        {
            "bufferView" : 13,
            "componentType" : 5126,
            "count" : 1672,
            "type" : "VEC3"
        },
        {
            "bufferView" : 14,
            "componentType" : 5126,
            "count" : 1672,
            "type" : "VEC2"
        },
        {
            "bufferView" : 15,
            "componentType" : 5123,
            "count" : 3468,
            "type" : "SCALAR"
        },
        {
            "bufferView" : 16,
            "componentType" : 5126,
            "count" : 40,
            "max" : [
                -0.1949252337217331,
                1.0332558155059814,
                -0.33103278279304504
            ],
            "min" : [
                -0.7889288067817688,
                0.39913225173950195,
                -0.8742684125900269
            ],
            "type" : "VEC3"
        },
        {
            "bufferView" : 17,
            "componentType" : 5126,
            "count" : 40,
            "type" : "VEC3"
        },
        {
            "bufferView" : 18,
            "componentType" : 5126,
            "count" : 40,
            "type" : "VEC2"
        },
        {
            "bufferView" : 19,
            "componentType" : 5123,
            "count" : 60,
            "type" : "SCALAR"
        },
        {
            "bufferView" : 20,
            "componentType" : 5126,
            "count" : 520,
            "max" : [
                -0.1729850023984909,
                0.4246685206890106,
                -0.3127237856388092
            ],
            "min" : [
                -0.810869038105011,
                0.006781399250030518,
                -0.8925774097442627
            ],
            "type" : "VEC3"
        },
        {
            "bufferView" : 21,
            "componentType" : 5126,
            "count" : 520,
            "type" : "VEC3"
        },
        {
            "bufferView" : 22,
            "componentType" : 5126,
            "count" : 520,
            "type" : "VEC2"
        },
        {
            "bufferView" : 23,
            "componentType" : 5123,
            "count" : 780,
            "type" : "SCALAR"
        },
        {
            "bufferView" : 24,
            "componentType" : 5126,
            "count" : 40,
            "max" : [
                -0.18668325245380402,
                0.3575323522090912,
                -0.32517585158348083
            ],
            "min" : [
                -0.7971707582473755,
                0.0027190744876861572,
                -0.8801253437995911
            ],
            "type" : "VEC3"
        },
        {
            "bufferView" : 25,
            "componentType" : 5126,
            "count" : 40,
            "type" : "VEC3"
        },
        {
            "bufferView" : 26,
            "componentType" : 5126,
            "count" : 40,
            "type" : "VEC2"
        },
        {
            "bufferView" : 27,
            "componentType" : 5123,
            "count" : 60,
            "type" : "SCALAR"
        }
    ],
    "bufferViews" : [
        {
            "buffer" : 0,
            "byteLength" : 11160,
            "byteOffset" : 0
        },
        {
            "buffer" : 0,
            "byteLength" : 11160,
            "byteOffset" : 11160
        },
        {
            "buffer" : 0,
            "byteLength" : 7440,
            "byteOffset" : 22320
        },
        {
            "buffer" : 0,
            "byteLength" : 3096,
            "byteOffset" : 29760
        },
        {
            "buffer" : 0,
            "byteLength" : 1632,
            "byteOffset" : 32856
        },
        {
            "buffer" : 0,
            "byteLength" : 1632,
            "byteOffset" : 34488
        },
        {
            "buffer" : 0,
            "byteLength" : 1088,
            "byteOffset" : 36120
        },
        {
            "buffer" : 0,
            "byteLength" : 432,
            "byteOffset" : 37208
        },
        {
            "buffer" : 0,
            "byteLength" : 4428,
            "byteOffset" : 37640
        },
        {
            "buffer" : 0,
            "byteLength" : 4428,
            "byteOffset" : 42068
        },
        {
            "buffer" : 0,
            "byteLength" : 2952,
            "byteOffset" : 46496
        },
        {
            "buffer" : 0,
            "byteLength" : 3048,
            "byteOffset" : 49448
        },
        {
            "buffer" : 0,
            "byteLength" : 20064,
            "byteOffset" : 52496
        },
        {
            "buffer" : 0,
            "byteLength" : 20064,
            "byteOffset" : 72560
        },
        {
            "buffer" : 0,
            "byteLength" : 13376,
            "byteOffset" : 92624
        },
        {
            "buffer" : 0,
            "byteLength" : 6936,
            "byteOffset" : 106000
        },
        {
            "buffer" : 0,
            "byteLength" : 480,
            "byteOffset" : 112936
        },
        {
            "buffer" : 0,
            "byteLength" : 480,
            "byteOffset" : 113416
        },
        {
            "buffer" : 0,
            "byteLength" : 320,
            "byteOffset" : 113896
        },
        {
            "buffer" : 0,
            "byteLength" : 120,
            "byteOffset" : 114216
        },
        {
            "buffer" : 0,
            "byteLength" : 6240,
            "byteOffset" : 114336
        },
        {
            "buffer" : 0,
            "byteLength" : 6240,
            "byteOffset" : 120576
        },
        {
            "buffer" : 0,
            "byteLength" : 4160,
            "byteOffset" : 126816
        },
        {
            "buffer" : 0,
            "byteLength" : 1560,
            "byteOffset" : 130976
        },
        {
            "buffer" : 0,
            "byteLength" : 480,
            "byteOffset" : 132536
        },
        {
            "buffer" : 0,
            "byteLength" : 480,
            "byteOffset" : 133016
        },
        {
            "buffer" : 0,
            "byteLength" : 320,
            "byteOffset" : 133496
        },
        {
            "buffer" : 0,
            "byteLength" : 120,
            "byteOffset" : 133816
        }
    ],
    "buffers" : [
        {
            "byteLength" : 133936,
            "uri" : "data:application/octet-stream;base64,"
        }
    ]
}
