{
    "asset" : {
        "generator" : "Khronos glTF Blender I/O v1.7.33",
        "version" : "2.0"
    },
    "scene" : 0,
    "scenes" : [
        {
            "name" : "Scene",
            "nodes" : [
                0
            ]
        }
    ],
    "nodes" : [
        {
            "mesh" : 0,
            "name" : "Farm_FirstAge_Level1_Wheat"
        }
    ],
    "materials" : [
        {
            "doubleSided" : true,
            "name" : "Wheat",
            "pbrMetallicRoughness" : {
                "baseColorFactor" : [
                    0.38437071442604065,
                    0.3004944622516632,
                    0.06506850570440292,
                    1
                ],
                "metallicFactor" : 0,
                "roughnessFactor" : 0.5
            }
        }
    ],
    "meshes" : [
        {
            "name" : "Cube.280",
            "primitives" : [
                {
                    "attributes" : {
                        "POSITION" : 0,
                        "NORMAL" : 1,
                        "TEXCOORD_0" : 2
                    },
                    "indices" : 3,
                    "material" : 0
                }
            ]
        }
    ],
    "accessors" : [
        {
            "bufferView" : 0,
            "componentType" : 5126,
            "count" : 10348,
            "max" : [
                0.7791157960891724,
                0.18579863011837006,
                -0.26841720938682556
            ],
            "min" : [
                -0.8211315870285034,
                0.0001548124710097909,
                -0.6847947239875793
            ],
            "type" : "VEC3"
        },
        {
            "bufferView" : 1,
            "componentType" : 5126,
            "count" : 10348,
            "type" : "VEC3"
        },
        {
            "bufferView" : 2,
            "componentType" : 5126,
            "count" : 10348,
            "type" : "VEC2"
        },
        {
            "bufferView" : 3,
            "componentType" : 5123,
            "count" : 15522,
            "type" : "SCALAR"
        }
    ],
    "bufferViews" : [
        {
            "buffer" : 0,
            "byteLength" : 124176,
            "byteOffset" : 0
        },
        {
            "buffer" : 0,
            "byteLength" : 124176,
            "byteOffset" : 124176
        },
        {
            "buffer" : 0,
            "byteLength" : 82784,
            "byteOffset" : 248352
        },
        {
            "buffer" : 0,
            "byteLength" : 31044,
            "byteOffset" : 331136
        }
    ],
    "buffers" : [
        {
            "byteLength" : 362180,
            "uri" : "data:application/octet-stream;base64,"
        }
    ]
}
