{
    "asset" : {
        "generator" : "Khronos glTF Blender I/O v1.7.33",
        "version" : "2.0"
    },
    "scene" : 0,
    "scenes" : [
        {
            "name" : "Scene",
            "nodes" : [
                0
            ]
        }
    ],
    "nodes" : [
        {
            "mesh" : 0,
            "name" : "Houses_SecondAge_1_Level1"
        }
    ],
    "materials" : [
        {
            "doubleSided" : true,
            "name" : "Main",
            "pbrMetallicRoughness" : {
                "baseColorFactor" : [
                    0.4385380148887634,
                    0.09992149472236633,
                    0.05885644257068634,
                    1
                ],
                "metallicFactor" : 0,
                "roughnessFactor" : 0.5
            }
        },
        {
            "doubleSided" : true,
            "name" : "Walls",
            "pbrMetallicRoughness" : {
                "baseColorFactor" : [
                    0.4352165758609772,
                    0.4385380148887634,
                    0.3826240599155426,
                    1
                ],
                "metallicFactor" : 0,
                "roughnessFactor" : 0.5
            }
        },
        {
            "doubleSided" : true,
            "name" : "Stone",
            "pbrMetallicRoughness" : {
                "baseColorFactor" : [
                    0.24436430633068085,
                    0.24618881940841675,
                    0.21545054018497467,
                    1
                ],
                "metallicFactor" : 0,
                "roughnessFactor" : 0.5
            }
        },
        {
            "doubleSided" : true,
            "name" : "Wood",
            "pbrMetallicRoughness" : {
                "baseColorFactor" : [
                    0.24618732929229736,
                    0.14435896277427673,
                    0.053798429667949677,
                    1
                ],
                "metallicFactor" : 0,
                "roughnessFactor" : 0.5
            }
        },
        {
            "doubleSided" : true,
            "name" : "Wood_Light",
            "pbrMetallicRoughness" : {
                "baseColorFactor" : [
                    0.3757452964782715,
                    0.24318844079971313,
                    0.09746062755584717,
                    1
                ],
                "metallicFactor" : 0,
                "roughnessFactor" : 0.5
            }
        }
    ],
    "meshes" : [
        {
            "name" : "Cube.218",
            "primitives" : [
                {
                    "attributes" : {
                        "POSITION" : 0,
                        "NORMAL" : 1
                    },
                    "indices" : 2,
                    "material" : 0
                },
                {
                    "attributes" : {
                        "POSITION" : 3,
                        "NORMAL" : 4
                    },
                    "indices" : 5,
                    "material" : 1
                },
                {
                    "attributes" : {
                        "POSITION" : 6,
                        "NORMAL" : 7
                    },
                    "indices" : 8,
                    "material" : 2
                },
                {
                    "attributes" : {
                        "POSITION" : 9,
                        "NORMAL" : 10
                    },
                    "indices" : 11,
                    "material" : 3
                },
                {
                    "attributes" : {
                        "POSITION" : 12,
                        "NORMAL" : 13
                    },
                    "indices" : 14,
                    "material" : 4
                }
            ]
        }
    ],
    "accessors" : [
        {
            "bufferView" : 0,
            "componentType" : 5126,
            "count" : 1556,
            "max" : [
                0.3506133556365967,
                0.737246572971344,
                0.16000105440616608
            ],
            "min" : [
                -0.5393396615982056,
                0.2377174347639084,
                -0.4215306043624878
            ],
            "type" : "VEC3"
        },
        {
            "bufferView" : 1,
            "componentType" : 5126,
            "count" : 1556,
            "type" : "VEC3"
        },
        {
            "bufferView" : 2,
            "componentType" : 5123,
            "count" : 3420,
            "type" : "SCALAR"
        },
        {
            "bufferView" : 3,
            "componentType" : 5126,
            "count" : 34,
            "max" : [
                0.20263835787773132,
                0.6898365616798401,
                0.14267663657665253
            ],
            "min" : [
                -0.3913651704788208,
                0.055712975561618805,
                -0.40420615673065186
            ],
            "type" : "VEC3"
        },
        {
            "bufferView" : 4,
            "componentType" : 5126,
            "count" : 34,
            "type" : "VEC3"
        },
        {
            "bufferView" : 5,
            "componentType" : 5123,
            "count" : 60,
            "type" : "SCALAR"
        },
        {
            "bufferView" : 6,
            "componentType" : 5126,
            "count" : 32,
            "max" : [
                0.2245785892009735,
                0.08124923706054688,
                0.16098563373088837
            ],
            "min" : [
                -0.413305401802063,
                0.001531012705527246,
                -0.4225151538848877
            ],
            "type" : "VEC3"
        },
        {
            "bufferView" : 7,
            "componentType" : 5126,
            "count" : 32,
            "type" : "VEC3"
        },
        {
            "bufferView" : 8,
            "componentType" : 5123,
            "count" : 60,
            "type" : "SCALAR"
        },
        {
            "bufferView" : 9,
            "componentType" : 5126,
            "count" : 1056,
            "max" : [
                0.3402913212776184,
                0.7660770416259766,
                0.3212253153324127
            ],
            "min" : [
                -0.5349326729774475,
                -0.006128877401351929,
                -0.5432384014129639
            ],
            "type" : "VEC3"
        },
        {
            "bufferView" : 10,
            "componentType" : 5126,
            "count" : 1056,
            "type" : "VEC3"
        },
        {
            "bufferView" : 11,
            "componentType" : 5123,
            "count" : 1944,
            "type" : "SCALAR"
        },
        {
            "bufferView" : 12,
            "componentType" : 5126,
            "count" : 1000,
            "max" : [
                -0.011017344892024994,
                0.2691098749637604,
                0.31323879957199097
            ],
            "min" : [
                -0.5245647430419922,
                -0.00347118079662323,
                -0.43002140522003174
            ],
            "type" : "VEC3"
        },
        {
            "bufferView" : 13,
            "componentType" : 5126,
            "count" : 1000,
            "type" : "VEC3"
        },
        {
            "bufferView" : 14,
            "componentType" : 5123,
            "count" : 1524,
            "type" : "SCALAR"
        }
    ],
    "bufferViews" : [
        {
            "buffer" : 0,
            "byteLength" : 18672,
            "byteOffset" : 0
        },
        {
            "buffer" : 0,
            "byteLength" : 18672,
            "byteOffset" : 18672
        },
        {
            "buffer" : 0,
            "byteLength" : 6840,
            "byteOffset" : 37344
        },
        {
            "buffer" : 0,
            "byteLength" : 408,
            "byteOffset" : 44184
        },
        {
            "buffer" : 0,
            "byteLength" : 408,
            "byteOffset" : 44592
        },
        {
            "buffer" : 0,
            "byteLength" : 120,
            "byteOffset" : 45000
        },
        {
            "buffer" : 0,
            "byteLength" : 384,
            "byteOffset" : 45120
        },
        {
            "buffer" : 0,
            "byteLength" : 384,
            "byteOffset" : 45504
        },
        {
            "buffer" : 0,
            "byteLength" : 120,
            "byteOffset" : 45888
        },
        {
            "buffer" : 0,
            "byteLength" : 12672,
            "byteOffset" : 46008
        },
        {
            "buffer" : 0,
            "byteLength" : 12672,
            "byteOffset" : 58680
        },
        {
            "buffer" : 0,
            "byteLength" : 3888,
            "byteOffset" : 71352
        },
        {
            "buffer" : 0,
            "byteLength" : 12000,
            "byteOffset" : 75240
        },
        {
            "buffer" : 0,
            "byteLength" : 12000,
            "byteOffset" : 87240
        },
        {
            "buffer" : 0,
            "byteLength" : 3048,
            "byteOffset" : 99240
        }
    ],
    "buffers" : [
        {
            "byteLength" : 102288,
            "uri" : "data:application/octet-stream;base64,"
        }
    ]
}
