{
    "asset" : {
        "generator" : "Khronos glTF Blender I/O v1.7.33",
        "version" : "2.0"
    },
    "scene" : 0,
    "scenes" : [
        {
            "name" : "Scene",
            "nodes" : [
                0
            ]
        }
    ],
    "nodes" : [
        {
            "mesh" : 0,
            "name" : "Houses_SecondAge_3_Level3"
        }
    ],
    "materials" : [
        {
            "doubleSided" : true,
            "name" : "Main",
            "pbrMetallicRoughness" : {
                "baseColorFactor" : [
                    0.4385380148887634,
                    0.09992149472236633,
                    0.05885644257068634,
                    1
                ],
                "metallicFactor" : 0,
                "roughnessFactor" : 0.5
            }
        },
        {
            "doubleSided" : true,
            "name" : "Walls",
            "pbrMetallicRoughness" : {
                "baseColorFactor" : [
                    0.4352165758609772,
                    0.4385380148887634,
                    0.3826240599155426,
                    1
                ],
                "metallicFactor" : 0,
                "roughnessFactor" : 0.5
            }
        },
        {
            "doubleSided" : true,
            "name" : "Stone",
            "pbrMetallicRoughness" : {
                "baseColorFactor" : [
                    0.24436430633068085,
                    0.24618881940841675,
                    0.21545054018497467,
                    1
                ],
                "metallicFactor" : 0,
                "roughnessFactor" : 0.5
            }
        },
        {
            "doubleSided" : true,
            "name" : "Wood",
            "pbrMetallicRoughness" : {
                "baseColorFactor" : [
                    0.24618732929229736,
                    0.14435896277427673,
                    0.053798429667949677,
                    1
                ],
                "metallicFactor" : 0,
                "roughnessFactor" : 0.5
            }
        },
        {
            "doubleSided" : true,
            "name" : "Wood_Light",
            "pbrMetallicRoughness" : {
                "baseColorFactor" : [
                    0.3757452964782715,
                    0.24318844079971313,
                    0.09746062755584717,
                    1
                ],
                "metallicFactor" : 0,
                "roughnessFactor" : 0.5
            }
        }
    ],
    "meshes" : [
        {
            "name" : "Cube.000",
            "primitives" : [
                {
                    "attributes" : {
                        "POSITION" : 0,
                        "NORMAL" : 1
                    },
                    "indices" : 2,
                    "material" : 0
                },
                {
                    "attributes" : {
                        "POSITION" : 3,
                        "NORMAL" : 4
                    },
                    "indices" : 5,
                    "material" : 1
                },
                {
                    "attributes" : {
                        "POSITION" : 6,
                        "NORMAL" : 7
                    },
                    "indices" : 8,
                    "material" : 2
                },
                {
                    "attributes" : {
                        "POSITION" : 9,
                        "NORMAL" : 10
                    },
                    "indices" : 11,
                    "material" : 3
                },
                {
                    "attributes" : {
                        "POSITION" : 12,
                        "NORMAL" : 13
                    },
                    "indices" : 14,
                    "material" : 4
                }
            ]
        }
    ],
    "accessors" : [
        {
            "bufferView" : 0,
            "componentType" : 5126,
            "count" : 2956,
            "max" : [
                0.58956378698349,
                1.0638375282287598,
                0.6092996597290039
            ],
            "min" : [
                -0.6821943521499634,
                0.3674655258655548,
                -0.7669227123260498
            ],
            "type" : "VEC3"
        },
        {
            "bufferView" : 1,
            "componentType" : 5126,
            "count" : 2956,
            "type" : "VEC3"
        },
        {
            "bufferView" : 2,
            "componentType" : 5123,
            "count" : 6120,
            "type" : "SCALAR"
        },
        {
            "bufferView" : 3,
            "componentType" : 5126,
            "count" : 120,
            "max" : [
                0.5722394585609436,
                0.975381076335907,
                0.591975212097168
            ],
            "min" : [
                -0.6646186113357544,
                0.055712975561618805,
                -0.752834677696228
            ],
            "type" : "VEC3"
        },
        {
            "bufferView" : 4,
            "componentType" : 5126,
            "count" : 120,
            "type" : "VEC3"
        },
        {
            "bufferView" : 5,
            "componentType" : 5123,
            "count" : 192,
            "type" : "SCALAR"
        },
        {
            "bufferView" : 6,
            "componentType" : 5126,
            "count" : 118,
            "max" : [
                0.5905484557151794,
                0.08124924451112747,
                0.6102842092514038
            ],
            "min" : [
                -0.6865588426589966,
                0.0013642609119415283,
                -0.7747749090194702
            ],
            "type" : "VEC3"
        },
        {
            "bufferView" : 7,
            "componentType" : 5126,
            "count" : 118,
            "type" : "VEC3"
        },
        {
            "bufferView" : 8,
            "componentType" : 5123,
            "count" : 180,
            "type" : "SCALAR"
        },
        {
            "bufferView" : 9,
            "componentType" : 5126,
            "count" : 2172,
            "max" : [
                0.6472979784011841,
                1.0112614631652832,
                0.6670337915420532
            ],
            "min" : [
                -0.7058696150779724,
                0.0017029941082000732,
                -0.7940857410430908
            ],
            "type" : "VEC3"
        },
        {
            "bufferView" : 10,
            "componentType" : 5126,
            "count" : 2172,
            "type" : "VEC3"
        },
        {
            "bufferView" : 11,
            "componentType" : 5123,
            "count" : 3396,
            "type" : "SCALAR"
        },
        {
            "bufferView" : 12,
            "componentType" : 5126,
            "count" : 358,
            "max" : [
                0.5980546474456787,
                0.8865100741386414,
                0.6177904605865479
            ],
            "min" : [
                -0.450962632894516,
                0.0004618043312802911,
                -0.736376166343689
            ],
            "type" : "VEC3"
        },
        {
            "bufferView" : 13,
            "componentType" : 5126,
            "count" : 358,
            "type" : "VEC3"
        },
        {
            "bufferView" : 14,
            "componentType" : 5123,
            "count" : 588,
            "type" : "SCALAR"
        }
    ],
    "bufferViews" : [
        {
            "buffer" : 0,
            "byteLength" : 35472,
            "byteOffset" : 0
        },
        {
            "buffer" : 0,
            "byteLength" : 35472,
            "byteOffset" : 35472
        },
        {
            "buffer" : 0,
            "byteLength" : 12240,
            "byteOffset" : 70944
        },
        {
            "buffer" : 0,
            "byteLength" : 1440,
            "byteOffset" : 83184
        },
        {
            "buffer" : 0,
            "byteLength" : 1440,
            "byteOffset" : 84624
        },
        {
            "buffer" : 0,
            "byteLength" : 384,
            "byteOffset" : 86064
        },
        {
            "buffer" : 0,
            "byteLength" : 1416,
            "byteOffset" : 86448
        },
        {
            "buffer" : 0,
            "byteLength" : 1416,
            "byteOffset" : 87864
        },
        {
            "buffer" : 0,
            "byteLength" : 360,
            "byteOffset" : 89280
        },
        {
            "buffer" : 0,
            "byteLength" : 26064,
            "byteOffset" : 89640
        },
        {
            "buffer" : 0,
            "byteLength" : 26064,
            "byteOffset" : 115704
        },
        {
            "buffer" : 0,
            "byteLength" : 6792,
            "byteOffset" : 141768
        },
        {
            "buffer" : 0,
            "byteLength" : 4296,
            "byteOffset" : 148560
        },
        {
            "buffer" : 0,
            "byteLength" : 4296,
            "byteOffset" : 152856
        },
        {
            "buffer" : 0,
            "byteLength" : 1176,
            "byteOffset" : 157152
        }
    ],
    "buffers" : [
        {
            "byteLength" : 158328,
            "uri" : "data:application/octet-stream;base64,"
        }
    ]
}
