{
    "asset" : {
        "generator" : "Khronos glTF Blender I/O v1.7.33",
        "version" : "2.0"
    },
    "scene" : 0,
    "scenes" : [
        {
            "name" : "Scene",
            "nodes" : [
                0
            ]
        }
    ],
    "nodes" : [
        {
            "mesh" : 0,
            "name" : "Houses_SecondAge_1_Level2"
        }
    ],
    "materials" : [
        {
            "doubleSided" : true,
            "name" : "Main",
            "pbrMetallicRoughness" : {
                "baseColorFactor" : [
                    0.4385380148887634,
                    0.09992149472236633,
                    0.05885644257068634,
                    1
                ],
                "metallicFactor" : 0,
                "roughnessFactor" : 0.5
            }
        },
        {
            "doubleSided" : true,
            "name" : "Walls",
            "pbrMetallicRoughness" : {
                "baseColorFactor" : [
                    0.4352165758609772,
                    0.4385380148887634,
                    0.3826240599155426,
                    1
                ],
                "metallicFactor" : 0,
                "roughnessFactor" : 0.5
            }
        },
        {
            "doubleSided" : true,
            "name" : "Stone",
            "pbrMetallicRoughness" : {
                "baseColorFactor" : [
                    0.24436430633068085,
                    0.24618881940841675,
                    0.21545054018497467,
                    1
                ],
                "metallicFactor" : 0,
                "roughnessFactor" : 0.5
            }
        },
        {
            "doubleSided" : true,
            "name" : "Wood",
            "pbrMetallicRoughness" : {
                "baseColorFactor" : [
                    0.24618732929229736,
                    0.14435896277427673,
                    0.053798429667949677,
                    1
                ],
                "metallicFactor" : 0,
                "roughnessFactor" : 0.5
            }
        },
        {
            "doubleSided" : true,
            "name" : "Wood_Light",
            "pbrMetallicRoughness" : {
                "baseColorFactor" : [
                    0.3757452964782715,
                    0.24318844079971313,
                    0.09746062755584717,
                    1
                ],
                "metallicFactor" : 0,
                "roughnessFactor" : 0.5
            }
        }
    ],
    "meshes" : [
        {
            "name" : "Cube.004",
            "primitives" : [
                {
                    "attributes" : {
                        "POSITION" : 0,
                        "NORMAL" : 1
                    },
                    "indices" : 2,
                    "material" : 0
                },
                {
                    "attributes" : {
                        "POSITION" : 3,
                        "NORMAL" : 4
                    },
                    "indices" : 5,
                    "material" : 1
                },
                {
                    "attributes" : {
                        "POSITION" : 6,
                        "NORMAL" : 7
                    },
                    "indices" : 8,
                    "material" : 2
                },
                {
                    "attributes" : {
                        "POSITION" : 9,
                        "NORMAL" : 10
                    },
                    "indices" : 11,
                    "material" : 3
                },
                {
                    "attributes" : {
                        "POSITION" : 12,
                        "NORMAL" : 13
                    },
                    "indices" : 14,
                    "material" : 4
                }
            ]
        }
    ],
    "accessors" : [
        {
            "bufferView" : 0,
            "componentType" : 5126,
            "count" : 2724,
            "max" : [
                0.3506133556365967,
                0.9219276905059814,
                0.20465169847011566
            ],
            "min" : [
                -0.5393396615982056,
                0.2377174347639084,
                -0.7713912725448608
            ],
            "type" : "VEC3"
        },
        {
            "bufferView" : 1,
            "componentType" : 5126,
            "count" : 2724,
            "type" : "VEC3"
        },
        {
            "bufferView" : 2,
            "componentType" : 5123,
            "count" : 5988,
            "type" : "SCALAR"
        },
        {
            "bufferView" : 3,
            "componentType" : 5126,
            "count" : 34,
            "max" : [
                0.20263835787773132,
                0.6898365616798401,
                0.14267663657665253
            ],
            "min" : [
                -0.3913651704788208,
                0.055712975561618805,
                -0.7540668249130249
            ],
            "type" : "VEC3"
        },
        {
            "bufferView" : 4,
            "componentType" : 5126,
            "count" : 34,
            "type" : "VEC3"
        },
        {
            "bufferView" : 5,
            "componentType" : 5123,
            "count" : 60,
            "type" : "SCALAR"
        },
        {
            "bufferView" : 6,
            "componentType" : 5126,
            "count" : 32,
            "max" : [
                0.2245785892009735,
                0.08124923706054688,
                0.16098563373088837
            ],
            "min" : [
                -0.413305401802063,
                0.001531012705527246,
                -0.7723758220672607
            ],
            "type" : "VEC3"
        },
        {
            "bufferView" : 7,
            "componentType" : 5126,
            "count" : 32,
            "type" : "VEC3"
        },
        {
            "bufferView" : 8,
            "componentType" : 5123,
            "count" : 60,
            "type" : "SCALAR"
        },
        {
            "bufferView" : 9,
            "componentType" : 5126,
            "count" : 1344,
            "max" : [
                0.5686675310134888,
                0.945972204208374,
                0.2793198227882385
            ],
            "min" : [
                -0.5290176868438721,
                -0.006128876470029354,
                -0.8930990695953369
            ],
            "type" : "VEC3"
        },
        {
            "bufferView" : 10,
            "componentType" : 5126,
            "count" : 1344,
            "type" : "VEC3"
        },
        {
            "bufferView" : 11,
            "componentType" : 5123,
            "count" : 2448,
            "type" : "SCALAR"
        },
        {
            "bufferView" : 12,
            "componentType" : 5126,
            "count" : 1288,
            "max" : [
                0.5564558506011963,
                0.2691098749637604,
                0.175032377243042
            ],
            "min" : [
                -0.17770898342132568,
                -0.003471183590590954,
                -0.7798820734024048
            ],
            "type" : "VEC3"
        },
        {
            "bufferView" : 13,
            "componentType" : 5126,
            "count" : 1288,
            "type" : "VEC3"
        },
        {
            "bufferView" : 14,
            "componentType" : 5123,
            "count" : 1956,
            "type" : "SCALAR"
        }
    ],
    "bufferViews" : [
        {
            "buffer" : 0,
            "byteLength" : 32688,
            "byteOffset" : 0
        },
        {
            "buffer" : 0,
            "byteLength" : 32688,
            "byteOffset" : 32688
        },
        {
            "buffer" : 0,
            "byteLength" : 11976,
            "byteOffset" : 65376
        },
        {
            "buffer" : 0,
            "byteLength" : 408,
            "byteOffset" : 77352
        },
        {
            "buffer" : 0,
            "byteLength" : 408,
            "byteOffset" : 77760
        },
        {
            "buffer" : 0,
            "byteLength" : 120,
            "byteOffset" : 78168
        },
        {
            "buffer" : 0,
            "byteLength" : 384,
            "byteOffset" : 78288
        },
        {
            "buffer" : 0,
            "byteLength" : 384,
            "byteOffset" : 78672
        },
        {
            "buffer" : 0,
            "byteLength" : 120,
            "byteOffset" : 79056
        },
        {
            "buffer" : 0,
            "byteLength" : 16128,
            "byteOffset" : 79176
        },
        {
            "buffer" : 0,
            "byteLength" : 16128,
            "byteOffset" : 95304
        },
        {
            "buffer" : 0,
            "byteLength" : 4896,
            "byteOffset" : 111432
        },
        {
            "buffer" : 0,
            "byteLength" : 15456,
            "byteOffset" : 116328
        },
        {
            "buffer" : 0,
            "byteLength" : 15456,
            "byteOffset" : 131784
        },
        {
            "buffer" : 0,
            "byteLength" : 3912,
            "byteOffset" : 147240
        }
    ],
    "buffers" : [
        {
            "byteLength" : 151152,
            "uri" : "data:application/octet-stream;base64,"
        }
    ]
}
