{
    "asset" : {
        "generator" : "Khronos glTF Blender I/O v1.7.33",
        "version" : "2.0"
    },
    "scene" : 0,
    "scenes" : [
        {
            "name" : "Scene",
            "nodes" : [
                0
            ]
        }
    ],
    "nodes" : [
        {
            "mesh" : 0,
            "name" : "Houses_SecondAge_2_Level1"
        }
    ],
    "materials" : [
        {
            "doubleSided" : true,
            "name" : "Main",
            "pbrMetallicRoughness" : {
                "baseColorFactor" : [
                    0.4385380148887634,
                    0.09992149472236633,
                    0.05885644257068634,
                    1
                ],
                "metallicFactor" : 0,
                "roughnessFactor" : 0.5
            }
        },
        {
            "doubleSided" : true,
            "name" : "Wood",
            "pbrMetallicRoughness" : {
                "baseColorFactor" : [
                    0.24618732929229736,
                    0.14435896277427673,
                    0.053798429667949677,
                    1
                ],
                "metallicFactor" : 0,
                "roughnessFactor" : 0.5
            }
        },
        {
            "doubleSided" : true,
            "name" : "Wood_Light",
            "pbrMetallicRoughness" : {
                "baseColorFactor" : [
                    0.3757452964782715,
                    0.24318844079971313,
                    0.09746062755584717,
                    1
                ],
                "metallicFactor" : 0,
                "roughnessFactor" : 0.5
            }
        },
        {
            "doubleSided" : true,
            "name" : "Walls",
            "pbrMetallicRoughness" : {
                "baseColorFactor" : [
                    0.4352165758609772,
                    0.4385380148887634,
                    0.3826240599155426,
                    1
                ],
                "metallicFactor" : 0,
                "roughnessFactor" : 0.5
            }
        },
        {
            "doubleSided" : true,
            "name" : "Stone",
            "pbrMetallicRoughness" : {
                "baseColorFactor" : [
                    0.24436430633068085,
                    0.24618881940841675,
                    0.21545054018497467,
                    1
                ],
                "metallicFactor" : 0,
                "roughnessFactor" : 0.5
            }
        }
    ],
    "meshes" : [
        {
            "name" : "Cube.007",
            "primitives" : [
                {
                    "attributes" : {
                        "POSITION" : 0,
                        "NORMAL" : 1
                    },
                    "indices" : 2,
                    "material" : 0
                },
                {
                    "attributes" : {
                        "POSITION" : 3,
                        "NORMAL" : 4
                    },
                    "indices" : 5,
                    "material" : 1
                },
                {
                    "attributes" : {
                        "POSITION" : 6,
                        "NORMAL" : 7
                    },
                    "indices" : 8,
                    "material" : 2
                },
                {
                    "attributes" : {
                        "POSITION" : 9,
                        "NORMAL" : 10
                    },
                    "indices" : 11,
                    "material" : 3
                },
                {
                    "attributes" : {
                        "POSITION" : 12,
                        "NORMAL" : 13
                    },
                    "indices" : 14,
                    "material" : 4
                }
            ]
        }
    ],
    "accessors" : [
        {
            "bufferView" : 0,
            "componentType" : 5126,
            "count" : 1350,
            "max" : [
                -0.09210500121116638,
                0.9219276905059814,
                0.16569626331329346
            ],
            "min" : [
                -0.9449765682220459,
                0.2377174347639084,
                -0.4636372923851013
            ],
            "type" : "VEC3"
        },
        {
            "bufferView" : 1,
            "componentType" : 5126,
            "count" : 1350,
            "type" : "VEC3"
        },
        {
            "bufferView" : 2,
            "componentType" : 5123,
            "count" : 2796,
            "type" : "SCALAR"
        },
        {
            "bufferView" : 3,
            "componentType" : 5126,
            "count" : 994,
            "max" : [
                -0.05753016471862793,
                0.945972204208374,
                0.28740394115448
            ],
            "min" : [
                -0.9346545934677124,
                0.001981117995455861,
                -0.5238403677940369
            ],
            "type" : "VEC3"
        },
        {
            "bufferView" : 4,
            "componentType" : 5126,
            "count" : 994,
            "type" : "VEC3"
        },
        {
            "bufferView" : 5,
            "componentType" : 5123,
            "count" : 1500,
            "type" : "SCALAR"
        },
        {
            "bufferView" : 6,
            "componentType" : 5126,
            "count" : 148,
            "max" : [
                -0.4166540801525116,
                0.26910990476608276,
                0.17418700456619263
            ],
            "min" : [
                -0.583345890045166,
                0.0004618043312802911,
                -0.41955292224884033
            ],
            "type" : "VEC3"
        },
        {
            "bufferView" : 7,
            "componentType" : 5126,
            "count" : 148,
            "type" : "VEC3"
        },
        {
            "bufferView" : 8,
            "componentType" : 5123,
            "count" : 228,
            "type" : "SCALAR"
        },
        {
            "bufferView" : 9,
            "componentType" : 5126,
            "count" : 40,
            "max" : [
                -0.20299813151359558,
                0.6898365616798401,
                0.14837181568145752
            ],
            "min" : [
                -0.7970018982887268,
                0.055712975561618805,
                -0.38719725608825684
            ],
            "type" : "VEC3"
        },
        {
            "bufferView" : 10,
            "componentType" : 5126,
            "count" : 40,
            "type" : "VEC3"
        },
        {
            "bufferView" : 11,
            "componentType" : 5123,
            "count" : 60,
            "type" : "SCALAR"
        },
        {
            "bufferView" : 12,
            "componentType" : 5126,
            "count" : 40,
            "max" : [
                -0.181057870388031,
                0.08124923706054688,
                0.16668081283569336
            ],
            "min" : [
                -0.8189421892166138,
                0.001531012705527246,
                -0.4055062532424927
            ],
            "type" : "VEC3"
        },
        {
            "bufferView" : 13,
            "componentType" : 5126,
            "count" : 40,
            "type" : "VEC3"
        },
        {
            "bufferView" : 14,
            "componentType" : 5123,
            "count" : 60,
            "type" : "SCALAR"
        }
    ],
    "bufferViews" : [
        {
            "buffer" : 0,
            "byteLength" : 16200,
            "byteOffset" : 0
        },
        {
            "buffer" : 0,
            "byteLength" : 16200,
            "byteOffset" : 16200
        },
        {
            "buffer" : 0,
            "byteLength" : 5592,
            "byteOffset" : 32400
        },
        {
            "buffer" : 0,
            "byteLength" : 11928,
            "byteOffset" : 37992
        },
        {
            "buffer" : 0,
            "byteLength" : 11928,
            "byteOffset" : 49920
        },
        {
            "buffer" : 0,
            "byteLength" : 3000,
            "byteOffset" : 61848
        },
        {
            "buffer" : 0,
            "byteLength" : 1776,
            "byteOffset" : 64848
        },
        {
            "buffer" : 0,
            "byteLength" : 1776,
            "byteOffset" : 66624
        },
        {
            "buffer" : 0,
            "byteLength" : 456,
            "byteOffset" : 68400
        },
        {
            "buffer" : 0,
            "byteLength" : 480,
            "byteOffset" : 68856
        },
        {
            "buffer" : 0,
            "byteLength" : 480,
            "byteOffset" : 69336
        },
        {
            "buffer" : 0,
            "byteLength" : 120,
            "byteOffset" : 69816
        },
        {
            "buffer" : 0,
            "byteLength" : 480,
            "byteOffset" : 69936
        },
        {
            "buffer" : 0,
            "byteLength" : 480,
            "byteOffset" : 70416
        },
        {
            "buffer" : 0,
            "byteLength" : 120,
            "byteOffset" : 70896
        }
    ],
    "buffers" : [
        {
            "byteLength" : 71016,
            "uri" : "data:application/octet-stream;base64,"
        }
    ]
}
