{
    "asset" : {
        "generator" : "Khronos glTF Blender I/O v1.7.33",
        "version" : "2.0"
    },
    "scene" : 0,
    "scenes" : [
        {
            "name" : "Scene",
            "nodes" : [
                0
            ]
        }
    ],
    "nodes" : [
        {
            "mesh" : 0,
            "name" : "Houses_SecondAge_1_Level3"
        }
    ],
    "materials" : [
        {
            "doubleSided" : true,
            "name" : "Main",
            "pbrMetallicRoughness" : {
                "baseColorFactor" : [
                    0.4385380148887634,
                    0.09992149472236633,
                    0.05885644257068634,
                    1
                ],
                "metallicFactor" : 0,
                "roughnessFactor" : 0.5
            }
        },
        {
            "doubleSided" : true,
            "name" : "Walls",
            "pbrMetallicRoughness" : {
                "baseColorFactor" : [
                    0.4352165758609772,
                    0.4385380148887634,
                    0.3826240599155426,
                    1
                ],
                "metallicFactor" : 0,
                "roughnessFactor" : 0.5
            }
        },
        {
            "doubleSided" : true,
            "name" : "Stone",
            "pbrMetallicRoughness" : {
                "baseColorFactor" : [
                    0.24436430633068085,
                    0.24618881940841675,
                    0.21545054018497467,
                    1
                ],
                "metallicFactor" : 0,
                "roughnessFactor" : 0.5
            }
        },
        {
            "doubleSided" : true,
            "name" : "Wood",
            "pbrMetallicRoughness" : {
                "baseColorFactor" : [
                    0.24618732929229736,
                    0.14435896277427673,
                    0.053798429667949677,
                    1
                ],
                "metallicFactor" : 0,
                "roughnessFactor" : 0.5
            }
        },
        {
            "doubleSided" : true,
            "name" : "Wood_Light",
            "pbrMetallicRoughness" : {
                "baseColorFactor" : [
                    0.3757452964782715,
                    0.24318844079971313,
                    0.09746062755584717,
                    1
                ],
                "metallicFactor" : 0,
                "roughnessFactor" : 0.5
            }
        },
        {
            "doubleSided" : true,
            "name" : "Stone_Light",
            "pbrMetallicRoughness" : {
                "baseColorFactor" : [
                    0.454056978225708,
                    0.4575270116329193,
                    0.3991142511367798,
                    1
                ],
                "metallicFactor" : 0,
                "roughnessFactor" : 0.5
            }
        }
    ],
    "meshes" : [
        {
            "name" : "Cube.055",
            "primitives" : [
                {
                    "attributes" : {
                        "POSITION" : 0,
                        "NORMAL" : 1,
                        "TEXCOORD_0" : 2
                    },
                    "indices" : 3,
                    "material" : 0
                },
                {
                    "attributes" : {
                        "POSITION" : 4,
                        "NORMAL" : 5,
                        "TEXCOORD_0" : 6
                    },
                    "indices" : 7,
                    "material" : 1
                },
                {
                    "attributes" : {
                        "POSITION" : 8,
                        "NORMAL" : 9,
                        "TEXCOORD_0" : 10
                    },
                    "indices" : 11,
                    "material" : 2
                },
                {
                    "attributes" : {
                        "POSITION" : 12,
                        "NORMAL" : 13,
                        "TEXCOORD_0" : 14
                    },
                    "indices" : 15,
                    "material" : 3
                },
                {
                    "attributes" : {
                        "POSITION" : 16,
                        "NORMAL" : 17,
                        "TEXCOORD_0" : 18
                    },
                    "indices" : 19,
                    "material" : 4
                },
                {
                    "attributes" : {
                        "POSITION" : 20,
                        "NORMAL" : 21,
                        "TEXCOORD_0" : 22
                    },
                    "indices" : 23,
                    "material" : 5
                }
            ]
        }
    ],
    "accessors" : [
        {
            "bufferView" : 0,
            "componentType" : 5126,
            "count" : 2752,
            "max" : [
                0.3506133556365967,
                1.2026517391204834,
                0.1974155455827713
            ],
            "min" : [
                -0.5393396615982056,
                0.5184414982795715,
                -0.8309038877487183
            ],
            "type" : "VEC3"
        },
        {
            "bufferView" : 1,
            "componentType" : 5126,
            "count" : 2752,
            "type" : "VEC3"
        },
        {
            "bufferView" : 2,
            "componentType" : 5126,
            "count" : 2752,
            "type" : "VEC2"
        },
        {
            "bufferView" : 3,
            "componentType" : 5123,
            "count" : 6036,
            "type" : "SCALAR"
        },
        {
            "bufferView" : 4,
            "componentType" : 5126,
            "count" : 34,
            "max" : [
                0.20263835787773132,
                0.9705606698989868,
                0.14267663657665253
            ],
            "min" : [
                -0.3913651704788208,
                0.33643704652786255,
                -0.7540668249130249
            ],
            "type" : "VEC3"
        },
        {
            "bufferView" : 5,
            "componentType" : 5126,
            "count" : 34,
            "type" : "VEC3"
        },
        {
            "bufferView" : 6,
            "componentType" : 5126,
            "count" : 34,
            "type" : "VEC2"
        },
        {
            "bufferView" : 7,
            "componentType" : 5123,
            "count" : 60,
            "type" : "SCALAR"
        },
        {
            "bufferView" : 8,
            "componentType" : 5126,
            "count" : 32,
            "max" : [
                0.2245785892009735,
                0.34181082248687744,
                0.16098563373088837
            ],
            "min" : [
                -0.413305401802063,
                0.001531012705527246,
                -0.7723758220672607
            ],
            "type" : "VEC3"
        },
        {
            "bufferView" : 9,
            "componentType" : 5126,
            "count" : 32,
            "type" : "VEC3"
        },
        {
            "bufferView" : 10,
            "componentType" : 5126,
            "count" : 32,
            "type" : "VEC2"
        },
        {
            "bufferView" : 11,
            "componentType" : 5123,
            "count" : 60,
            "type" : "SCALAR"
        },
        {
            "bufferView" : 12,
            "componentType" : 5126,
            "count" : 616,
            "max" : [
                0.3402913212776184,
                1.226696252822876,
                0.2793198227882385
            ],
            "min" : [
                -0.5290176868438721,
                0.001981117995455861,
                -0.8930990695953369
            ],
            "type" : "VEC3"
        },
        {
            "bufferView" : 13,
            "componentType" : 5126,
            "count" : 616,
            "type" : "VEC3"
        },
        {
            "bufferView" : 14,
            "componentType" : 5126,
            "count" : 616,
            "type" : "VEC2"
        },
        {
            "bufferView" : 15,
            "componentType" : 5123,
            "count" : 1104,
            "type" : "SCALAR"
        },
        {
            "bufferView" : 16,
            "componentType" : 5126,
            "count" : 104,
            "max" : [
                -0.011017344892024994,
                0.2691098749637604,
                0.175032377243042
            ],
            "min" : [
                -0.1777089536190033,
                0.00046180441859178245,
                0.13579657673835754
            ],
            "type" : "VEC3"
        },
        {
            "bufferView" : 17,
            "componentType" : 5126,
            "count" : 104,
            "type" : "VEC3"
        },
        {
            "bufferView" : 18,
            "componentType" : 5126,
            "count" : 104,
            "type" : "VEC2"
        },
        {
            "bufferView" : 19,
            "componentType" : 5123,
            "count" : 168,
            "type" : "SCALAR"
        },
        {
            "bufferView" : 20,
            "componentType" : 5126,
            "count" : 480,
            "max" : [
                0.23227915167808533,
                0.3444858193397522,
                0.1643451750278473
            ],
            "min" : [
                -0.4218046963214874,
                0.006781414151191711,
                -0.7759737372398376
            ],
            "type" : "VEC3"
        },
        {
            "bufferView" : 21,
            "componentType" : 5126,
            "count" : 480,
            "type" : "VEC3"
        },
        {
            "bufferView" : 22,
            "componentType" : 5126,
            "count" : 480,
            "type" : "VEC2"
        },
        {
            "bufferView" : 23,
            "componentType" : 5123,
            "count" : 720,
            "type" : "SCALAR"
        }
    ],
    "bufferViews" : [
        {
            "buffer" : 0,
            "byteLength" : 33024,
            "byteOffset" : 0
        },
        {
            "buffer" : 0,
            "byteLength" : 33024,
            "byteOffset" : 33024
        },
        {
            "buffer" : 0,
            "byteLength" : 22016,
            "byteOffset" : 66048
        },
        {
            "buffer" : 0,
            "byteLength" : 12072,
            "byteOffset" : 88064
        },
        {
            "buffer" : 0,
            "byteLength" : 408,
            "byteOffset" : 100136
        },
        {
            "buffer" : 0,
            "byteLength" : 408,
            "byteOffset" : 100544
        },
        {
            "buffer" : 0,
            "byteLength" : 272,
            "byteOffset" : 100952
        },
        {
            "buffer" : 0,
            "byteLength" : 120,
            "byteOffset" : 101224
        },
        {
            "buffer" : 0,
            "byteLength" : 384,
            "byteOffset" : 101344
        },
        {
            "buffer" : 0,
            "byteLength" : 384,
            "byteOffset" : 101728
        },
        {
            "buffer" : 0,
            "byteLength" : 256,
            "byteOffset" : 102112
        },
        {
            "buffer" : 0,
            "byteLength" : 120,
            "byteOffset" : 102368
        },
        {
            "buffer" : 0,
            "byteLength" : 7392,
            "byteOffset" : 102488
        },
        {
            "buffer" : 0,
            "byteLength" : 7392,
            "byteOffset" : 109880
        },
        {
            "buffer" : 0,
            "byteLength" : 4928,
            "byteOffset" : 117272
        },
        {
            "buffer" : 0,
            "byteLength" : 2208,
            "byteOffset" : 122200
        },
        {
            "buffer" : 0,
            "byteLength" : 1248,
            "byteOffset" : 124408
        },
        {
            "buffer" : 0,
            "byteLength" : 1248,
            "byteOffset" : 125656
        },
        {
            "buffer" : 0,
            "byteLength" : 832,
            "byteOffset" : 126904
        },
        {
            "buffer" : 0,
            "byteLength" : 336,
            "byteOffset" : 127736
        },
        {
            "buffer" : 0,
            "byteLength" : 5760,
            "byteOffset" : 128072
        },
        {
            "buffer" : 0,
            "byteLength" : 5760,
            "byteOffset" : 133832
        },
        {
            "buffer" : 0,
            "byteLength" : 3840,
            "byteOffset" : 139592
        },
        {
            "buffer" : 0,
            "byteLength" : 1440,
            "byteOffset" : 143432
        }
    ],
    "buffers" : [
        {
            "byteLength" : 144872,
            "uri" : "data:application/octet-stream;base64,"
        }
    ]
}
