{
    "asset" : {
        "generator" : "Khronos glTF Blender I/O v1.7.33",
        "version" : "2.0"
    },
    "scene" : 0,
    "scenes" : [
        {
            "name" : "Scene",
            "nodes" : [
                0
            ]
        }
    ],
    "nodes" : [
        {
            "mesh" : 0,
            "name" : "Houses_SecondAge_3_Level2"
        }
    ],
    "materials" : [
        {
            "doubleSided" : true,
            "name" : "Main",
            "pbrMetallicRoughness" : {
                "baseColorFactor" : [
                    0.4385380148887634,
                    0.09992149472236633,
                    0.05885644257068634,
                    1
                ],
                "metallicFactor" : 0,
                "roughnessFactor" : 0.5
            }
        },
        {
            "doubleSided" : true,
            "name" : "Walls",
            "pbrMetallicRoughness" : {
                "baseColorFactor" : [
                    0.4352165758609772,
                    0.4385380148887634,
                    0.3826240599155426,
                    1
                ],
                "metallicFactor" : 0,
                "roughnessFactor" : 0.5
            }
        },
        {
            "doubleSided" : true,
            "name" : "Stone",
            "pbrMetallicRoughness" : {
                "baseColorFactor" : [
                    0.24436430633068085,
                    0.24618881940841675,
                    0.21545054018497467,
                    1
                ],
                "metallicFactor" : 0,
                "roughnessFactor" : 0.5
            }
        },
        {
            "doubleSided" : true,
            "name" : "Wood",
            "pbrMetallicRoughness" : {
                "baseColorFactor" : [
                    0.24618732929229736,
                    0.14435896277427673,
                    0.053798429667949677,
                    1
                ],
                "metallicFactor" : 0,
                "roughnessFactor" : 0.5
            }
        },
        {
            "doubleSided" : true,
            "name" : "Wood_Light",
            "pbrMetallicRoughness" : {
                "baseColorFactor" : [
                    0.3757452964782715,
                    0.24318844079971313,
                    0.09746062755584717,
                    1
                ],
                "metallicFactor" : 0,
                "roughnessFactor" : 0.5
            }
        }
    ],
    "meshes" : [
        {
            "name" : "Cube.057",
            "primitives" : [
                {
                    "attributes" : {
                        "POSITION" : 0,
                        "NORMAL" : 1
                    },
                    "indices" : 2,
                    "material" : 0
                },
                {
                    "attributes" : {
                        "POSITION" : 3,
                        "NORMAL" : 4
                    },
                    "indices" : 5,
                    "material" : 1
                },
                {
                    "attributes" : {
                        "POSITION" : 6,
                        "NORMAL" : 7
                    },
                    "indices" : 8,
                    "material" : 2
                },
                {
                    "attributes" : {
                        "POSITION" : 9,
                        "NORMAL" : 10
                    },
                    "indices" : 11,
                    "material" : 3
                },
                {
                    "attributes" : {
                        "POSITION" : 12,
                        "NORMAL" : 13
                    },
                    "indices" : 14,
                    "material" : 4
                }
            ]
        }
    ],
    "accessors" : [
        {
            "bufferView" : 0,
            "componentType" : 5126,
            "count" : 2280,
            "max" : [
                0.58956378698349,
                0.5913044214248657,
                0.6092996597290039
            ],
            "min" : [
                -0.6821943521499634,
                0.4879992604255676,
                -0.7669227123260498
            ],
            "type" : "VEC3"
        },
        {
            "bufferView" : 1,
            "componentType" : 5126,
            "count" : 2280,
            "type" : "VEC3"
        },
        {
            "bufferView" : 2,
            "componentType" : 5123,
            "count" : 4740,
            "type" : "SCALAR"
        },
        {
            "bufferView" : 3,
            "componentType" : 5126,
            "count" : 62,
            "max" : [
                0.5722394585609436,
                0.5028481483459473,
                0.591975212097168
            ],
            "min" : [
                -0.6646186113357544,
                0.055712975561618805,
                -0.752834677696228
            ],
            "type" : "VEC3"
        },
        {
            "bufferView" : 4,
            "componentType" : 5126,
            "count" : 62,
            "type" : "VEC3"
        },
        {
            "bufferView" : 5,
            "componentType" : 5123,
            "count" : 96,
            "type" : "SCALAR"
        },
        {
            "bufferView" : 6,
            "componentType" : 5126,
            "count" : 78,
            "max" : [
                0.5905484557151794,
                0.08124924451112747,
                0.6102842092514038
            ],
            "min" : [
                -0.6865588426589966,
                0.001531012705527246,
                -0.7747749090194702
            ],
            "type" : "VEC3"
        },
        {
            "bufferView" : 7,
            "componentType" : 5126,
            "count" : 78,
            "type" : "VEC3"
        },
        {
            "bufferView" : 8,
            "componentType" : 5123,
            "count" : 120,
            "type" : "SCALAR"
        },
        {
            "bufferView" : 9,
            "componentType" : 5126,
            "count" : 1172,
            "max" : [
                0.6472979784011841,
                0.5387285351753235,
                0.6670337915420532
            ],
            "min" : [
                -0.7058696150779724,
                0.001981117995455861,
                -0.7940857410430908
            ],
            "type" : "VEC3"
        },
        {
            "bufferView" : 10,
            "componentType" : 5126,
            "count" : 1172,
            "type" : "VEC3"
        },
        {
            "bufferView" : 11,
            "componentType" : 5123,
            "count" : 1800,
            "type" : "SCALAR"
        },
        {
            "bufferView" : 12,
            "componentType" : 5126,
            "count" : 278,
            "max" : [
                0.5980546474456787,
                0.2691098749637604,
                0.6177904605865479
            ],
            "min" : [
                -0.450962632894516,
                0.0004618043312802911,
                -0.539178729057312
            ],
            "type" : "VEC3"
        },
        {
            "bufferView" : 13,
            "componentType" : 5126,
            "count" : 278,
            "type" : "VEC3"
        },
        {
            "bufferView" : 14,
            "componentType" : 5123,
            "count" : 456,
            "type" : "SCALAR"
        }
    ],
    "bufferViews" : [
        {
            "buffer" : 0,
            "byteLength" : 27360,
            "byteOffset" : 0
        },
        {
            "buffer" : 0,
            "byteLength" : 27360,
            "byteOffset" : 27360
        },
        {
            "buffer" : 0,
            "byteLength" : 9480,
            "byteOffset" : 54720
        },
        {
            "buffer" : 0,
            "byteLength" : 744,
            "byteOffset" : 64200
        },
        {
            "buffer" : 0,
            "byteLength" : 744,
            "byteOffset" : 64944
        },
        {
            "buffer" : 0,
            "byteLength" : 192,
            "byteOffset" : 65688
        },
        {
            "buffer" : 0,
            "byteLength" : 936,
            "byteOffset" : 65880
        },
        {
            "buffer" : 0,
            "byteLength" : 936,
            "byteOffset" : 66816
        },
        {
            "buffer" : 0,
            "byteLength" : 240,
            "byteOffset" : 67752
        },
        {
            "buffer" : 0,
            "byteLength" : 14064,
            "byteOffset" : 67992
        },
        {
            "buffer" : 0,
            "byteLength" : 14064,
            "byteOffset" : 82056
        },
        {
            "buffer" : 0,
            "byteLength" : 3600,
            "byteOffset" : 96120
        },
        {
            "buffer" : 0,
            "byteLength" : 3336,
            "byteOffset" : 99720
        },
        {
            "buffer" : 0,
            "byteLength" : 3336,
            "byteOffset" : 103056
        },
        {
            "buffer" : 0,
            "byteLength" : 912,
            "byteOffset" : 106392
        }
    ],
    "buffers" : [
        {
            "byteLength" : 107304,
            "uri" : "data:application/octet-stream;base64,"
        }
    ]
}
