{
    "asset" : {
        "generator" : "Khronos glTF Blender I/O v1.7.33",
        "version" : "2.0"
    },
    "scene" : 0,
    "scenes" : [
        {
            "name" : "Scene",
            "nodes" : [
                0
            ]
        }
    ],
    "nodes" : [
        {
            "mesh" : 0,
            "name" : "Houses_SecondAge_2_Level2"
        }
    ],
    "materials" : [
        {
            "doubleSided" : true,
            "name" : "Main",
            "pbrMetallicRoughness" : {
                "baseColorFactor" : [
                    0.4385380148887634,
                    0.09992149472236633,
                    0.05885644257068634,
                    1
                ],
                "metallicFactor" : 0,
                "roughnessFactor" : 0.5
            }
        },
        {
            "doubleSided" : true,
            "name" : "Walls",
            "pbrMetallicRoughness" : {
                "baseColorFactor" : [
                    0.4352165758609772,
                    0.4385380148887634,
                    0.3826240599155426,
                    1
                ],
                "metallicFactor" : 0,
                "roughnessFactor" : 0.5
            }
        },
        {
            "doubleSided" : true,
            "name" : "Stone",
            "pbrMetallicRoughness" : {
                "baseColorFactor" : [
                    0.24436430633068085,
                    0.24618881940841675,
                    0.21545054018497467,
                    1
                ],
                "metallicFactor" : 0,
                "roughnessFactor" : 0.5
            }
        },
        {
            "doubleSided" : true,
            "name" : "Wood",
            "pbrMetallicRoughness" : {
                "baseColorFactor" : [
                    0.24618732929229736,
                    0.14435896277427673,
                    0.053798429667949677,
                    1
                ],
                "metallicFactor" : 0,
                "roughnessFactor" : 0.5
            }
        },
        {
            "doubleSided" : true,
            "name" : "Wood_Light",
            "pbrMetallicRoughness" : {
                "baseColorFactor" : [
                    0.3757452964782715,
                    0.24318844079971313,
                    0.09746062755584717,
                    1
                ],
                "metallicFactor" : 0,
                "roughnessFactor" : 0.5
            }
        }
    ],
    "meshes" : [
        {
            "name" : "Cube.017",
            "primitives" : [
                {
                    "attributes" : {
                        "POSITION" : 0,
                        "NORMAL" : 1
                    },
                    "indices" : 2,
                    "material" : 0
                },
                {
                    "attributes" : {
                        "POSITION" : 3,
                        "NORMAL" : 4
                    },
                    "indices" : 5,
                    "material" : 1
                },
                {
                    "attributes" : {
                        "POSITION" : 6,
                        "NORMAL" : 7
                    },
                    "indices" : 8,
                    "material" : 2
                },
                {
                    "attributes" : {
                        "POSITION" : 9,
                        "NORMAL" : 10
                    },
                    "indices" : 11,
                    "material" : 3
                },
                {
                    "attributes" : {
                        "POSITION" : 12,
                        "NORMAL" : 13
                    },
                    "indices" : 14,
                    "material" : 4
                }
            ]
        }
    ],
    "accessors" : [
        {
            "bufferView" : 0,
            "componentType" : 5126,
            "count" : 4378,
            "max" : [
                0.5426530838012695,
                0.9219276905059814,
                0.16569626331329346
            ],
            "min" : [
                -0.9449765682220459,
                0.2377174347639084,
                -0.8248118758201599
            ],
            "type" : "VEC3"
        },
        {
            "bufferView" : 1,
            "componentType" : 5126,
            "count" : 4378,
            "type" : "VEC3"
        },
        {
            "bufferView" : 2,
            "componentType" : 5123,
            "count" : 9120,
            "type" : "SCALAR"
        },
        {
            "bufferView" : 3,
            "componentType" : 5126,
            "count" : 72,
            "max" : [
                0.46489065885543823,
                0.6898366212844849,
                0.14837181568145752
            ],
            "min" : [
                -0.7970018982887268,
                0.055712975561618805,
                -0.7483718395233154
            ],
            "type" : "VEC3"
        },
        {
            "bufferView" : 4,
            "componentType" : 5126,
            "count" : 72,
            "type" : "VEC3"
        },
        {
            "bufferView" : 5,
            "componentType" : 5123,
            "count" : 108,
            "type" : "SCALAR"
        },
        {
            "bufferView" : 6,
            "componentType" : 5126,
            "count" : 80,
            "max" : [
                0.4831996560096741,
                0.08124928176403046,
                0.16668081283569336
            ],
            "min" : [
                -0.8189421892166138,
                0.001531012705527246,
                -0.7666808366775513
            ],
            "type" : "VEC3"
        },
        {
            "bufferView" : 7,
            "componentType" : 5126,
            "count" : 80,
            "type" : "VEC3"
        },
        {
            "bufferView" : 8,
            "componentType" : 5123,
            "count" : 120,
            "type" : "SCALAR"
        },
        {
            "bufferView" : 9,
            "componentType" : 5126,
            "count" : 1504,
            "max" : [
                0.6015336513519287,
                0.945972204208374,
                0.28740394115448
            ],
            "min" : [
                -0.9346545934677124,
                0.001981117995455861,
                -0.8850149512290955
            ],
            "type" : "VEC3"
        },
        {
            "bufferView" : 10,
            "componentType" : 5126,
            "count" : 1504,
            "type" : "VEC3"
        },
        {
            "bufferView" : 11,
            "componentType" : 5123,
            "count" : 2292,
            "type" : "SCALAR"
        },
        {
            "bufferView" : 12,
            "componentType" : 5126,
            "count" : 252,
            "max" : [
                0.4972462058067322,
                0.26910990476608276,
                0.17418700456619263
            ],
            "min" : [
                -0.583345890045166,
                0.0004618043312802911,
                -0.7807275056838989
            ],
            "type" : "VEC3"
        },
        {
            "bufferView" : 13,
            "componentType" : 5126,
            "count" : 252,
            "type" : "VEC3"
        },
        {
            "bufferView" : 14,
            "componentType" : 5123,
            "count" : 396,
            "type" : "SCALAR"
        }
    ],
    "bufferViews" : [
        {
            "buffer" : 0,
            "byteLength" : 52536,
            "byteOffset" : 0
        },
        {
            "buffer" : 0,
            "byteLength" : 52536,
            "byteOffset" : 52536
        },
        {
            "buffer" : 0,
            "byteLength" : 18240,
            "byteOffset" : 105072
        },
        {
            "buffer" : 0,
            "byteLength" : 864,
            "byteOffset" : 123312
        },
        {
            "buffer" : 0,
            "byteLength" : 864,
            "byteOffset" : 124176
        },
        {
            "buffer" : 0,
            "byteLength" : 216,
            "byteOffset" : 125040
        },
        {
            "buffer" : 0,
            "byteLength" : 960,
            "byteOffset" : 125256
        },
        {
            "buffer" : 0,
            "byteLength" : 960,
            "byteOffset" : 126216
        },
        {
            "buffer" : 0,
            "byteLength" : 240,
            "byteOffset" : 127176
        },
        {
            "buffer" : 0,
            "byteLength" : 18048,
            "byteOffset" : 127416
        },
        {
            "buffer" : 0,
            "byteLength" : 18048,
            "byteOffset" : 145464
        },
        {
            "buffer" : 0,
            "byteLength" : 4584,
            "byteOffset" : 163512
        },
        {
            "buffer" : 0,
            "byteLength" : 3024,
            "byteOffset" : 168096
        },
        {
            "buffer" : 0,
            "byteLength" : 3024,
            "byteOffset" : 171120
        },
        {
            "buffer" : 0,
            "byteLength" : 792,
            "byteOffset" : 174144
        }
    ],
    "buffers" : [
        {
            "byteLength" : 174936,
            "uri" : "data:application/octet-stream;base64,"
        }
    ]
}
