{
    "asset" : {
        "generator" : "Khronos glTF Blender I/O v1.7.33",
        "version" : "2.0"
    },
    "scene" : 0,
    "scenes" : [
        {
            "name" : "Scene",
            "nodes" : [
                0
            ]
        }
    ],
    "nodes" : [
        {
            "mesh" : 0,
            "name" : "Houses_SecondAge_3_Level1"
        }
    ],
    "materials" : [
        {
            "doubleSided" : true,
            "name" : "Main",
            "pbrMetallicRoughness" : {
                "baseColorFactor" : [
                    0.4385380148887634,
                    0.09992149472236633,
                    0.05885644257068634,
                    1
                ],
                "metallicFactor" : 0,
                "roughnessFactor" : 0.5
            }
        },
        {
            "doubleSided" : true,
            "name" : "Walls",
            "pbrMetallicRoughness" : {
                "baseColorFactor" : [
                    0.4352165758609772,
                    0.4385380148887634,
                    0.3826240599155426,
                    1
                ],
                "metallicFactor" : 0,
                "roughnessFactor" : 0.5
            }
        },
        {
            "doubleSided" : true,
            "name" : "Stone",
            "pbrMetallicRoughness" : {
                "baseColorFactor" : [
                    0.24436430633068085,
                    0.24618881940841675,
                    0.21545054018497467,
                    1
                ],
                "metallicFactor" : 0,
                "roughnessFactor" : 0.5
            }
        },
        {
            "doubleSided" : true,
            "name" : "Wood",
            "pbrMetallicRoughness" : {
                "baseColorFactor" : [
                    0.24618732929229736,
                    0.14435896277427673,
                    0.053798429667949677,
                    1
                ],
                "metallicFactor" : 0,
                "roughnessFactor" : 0.5
            }
        },
        {
            "doubleSided" : true,
            "name" : "Wood_Light",
            "pbrMetallicRoughness" : {
                "baseColorFactor" : [
                    0.3757452964782715,
                    0.24318844079971313,
                    0.09746062755584717,
                    1
                ],
                "metallicFactor" : 0,
                "roughnessFactor" : 0.5
            }
        }
    ],
    "meshes" : [
        {
            "name" : "Cube.005",
            "primitives" : [
                {
                    "attributes" : {
                        "POSITION" : 0,
                        "NORMAL" : 1
                    },
                    "indices" : 2,
                    "material" : 0
                },
                {
                    "attributes" : {
                        "POSITION" : 3,
                        "NORMAL" : 4
                    },
                    "indices" : 5,
                    "material" : 1
                },
                {
                    "attributes" : {
                        "POSITION" : 6,
                        "NORMAL" : 7
                    },
                    "indices" : 8,
                    "material" : 2
                },
                {
                    "attributes" : {
                        "POSITION" : 9,
                        "NORMAL" : 10
                    },
                    "indices" : 11,
                    "material" : 3
                },
                {
                    "attributes" : {
                        "POSITION" : 12,
                        "NORMAL" : 13
                    },
                    "indices" : 14,
                    "material" : 4
                }
            ]
        }
    ],
    "accessors" : [
        {
            "bufferView" : 0,
            "componentType" : 5126,
            "count" : 840,
            "max" : [
                0.5893573760986328,
                0.5913044214248657,
                -0.14241904020309448
            ],
            "min" : [
                0.02832462452352047,
                0.4879992604255676,
                -0.7680863738059998
            ],
            "type" : "VEC3"
        },
        {
            "bufferView" : 1,
            "componentType" : 5126,
            "count" : 840,
            "type" : "VEC3"
        },
        {
            "bufferView" : 2,
            "componentType" : 5123,
            "count" : 1740,
            "type" : "SCALAR"
        },
        {
            "bufferView" : 3,
            "componentType" : 5126,
            "count" : 30,
            "max" : [
                0.5720329284667969,
                0.5028481483459473,
                -0.15999481081962585
            ],
            "min" : [
                0.04564901441335678,
                0.055712997913360596,
                -0.753998339176178
            ],
            "type" : "VEC3"
        },
        {
            "bufferView" : 4,
            "componentType" : 5126,
            "count" : 30,
            "type" : "VEC3"
        },
        {
            "bufferView" : 5,
            "componentType" : 5123,
            "count" : 48,
            "type" : "SCALAR"
        },
        {
            "bufferView" : 6,
            "componentType" : 5126,
            "count" : 40,
            "max" : [
                0.5903419256210327,
                0.08124926686286926,
                -0.13805457949638367
            ],
            "min" : [
                0.027340015396475792,
                0.0015310348244383931,
                -0.7759385704994202
            ],
            "type" : "VEC3"
        },
        {
            "bufferView" : 7,
            "componentType" : 5126,
            "count" : 40,
            "type" : "VEC3"
        },
        {
            "bufferView" : 8,
            "componentType" : 5123,
            "count" : 60,
            "type" : "SCALAR"
        },
        {
            "bufferView" : 9,
            "componentType" : 5126,
            "count" : 522,
            "max" : [
                0.6470915079116821,
                0.5387285351753235,
                -0.11874380707740784
            ],
            "min" : [
                -0.029409507289528847,
                0.0019811391830444336,
                -0.7952494025230408
            ],
            "type" : "VEC3"
        },
        {
            "bufferView" : 10,
            "componentType" : 5126,
            "count" : 522,
            "type" : "VEC3"
        },
        {
            "bufferView" : 11,
            "componentType" : 5123,
            "count" : 816,
            "type" : "SCALAR"
        },
        {
            "bufferView" : 12,
            "componentType" : 5126,
            "count" : 136,
            "max" : [
                0.5978481769561768,
                0.26910990476608276,
                -0.37365078926086426
            ],
            "min" : [
                0.01329328678548336,
                0.00046184667735360563,
                -0.540342390537262
            ],
            "type" : "VEC3"
        },
        {
            "bufferView" : 13,
            "componentType" : 5126,
            "count" : 136,
            "type" : "VEC3"
        },
        {
            "bufferView" : 14,
            "componentType" : 5123,
            "count" : 228,
            "type" : "SCALAR"
        }
    ],
    "bufferViews" : [
        {
            "buffer" : 0,
            "byteLength" : 10080,
            "byteOffset" : 0
        },
        {
            "buffer" : 0,
            "byteLength" : 10080,
            "byteOffset" : 10080
        },
        {
            "buffer" : 0,
            "byteLength" : 3480,
            "byteOffset" : 20160
        },
        {
            "buffer" : 0,
            "byteLength" : 360,
            "byteOffset" : 23640
        },
        {
            "buffer" : 0,
            "byteLength" : 360,
            "byteOffset" : 24000
        },
        {
            "buffer" : 0,
            "byteLength" : 96,
            "byteOffset" : 24360
        },
        {
            "buffer" : 0,
            "byteLength" : 480,
            "byteOffset" : 24456
        },
        {
            "buffer" : 0,
            "byteLength" : 480,
            "byteOffset" : 24936
        },
        {
            "buffer" : 0,
            "byteLength" : 120,
            "byteOffset" : 25416
        },
        {
            "buffer" : 0,
            "byteLength" : 6264,
            "byteOffset" : 25536
        },
        {
            "buffer" : 0,
            "byteLength" : 6264,
            "byteOffset" : 31800
        },
        {
            "buffer" : 0,
            "byteLength" : 1632,
            "byteOffset" : 38064
        },
        {
            "buffer" : 0,
            "byteLength" : 1632,
            "byteOffset" : 39696
        },
        {
            "buffer" : 0,
            "byteLength" : 1632,
            "byteOffset" : 41328
        },
        {
            "buffer" : 0,
            "byteLength" : 456,
            "byteOffset" : 42960
        }
    ],
    "buffers" : [
        {
            "byteLength" : 43416,
            "uri" : "data:application/octet-stream;base64,"
        }
    ]
}
