{
    "asset" : {
        "generator" : "Khronos glTF Blender I/O v1.7.33",
        "version" : "2.0"
    },
    "scene" : 0,
    "scenes" : [
        {
            "name" : "Scene",
            "nodes" : [
                0
            ]
        }
    ],
    "nodes" : [
        {
            "mesh" : 0,
            "name" : "Houses_FirstAge_1_Level3"
        }
    ],
    "materials" : [
        {
            "doubleSided" : true,
            "name" : "Wood",
            "pbrMetallicRoughness" : {
                "baseColorFactor" : [
                    0.24618732929229736,
                    0.14435896277427673,
                    0.053798429667949677,
                    1
                ],
                "metallicFactor" : 0,
                "roughnessFactor" : 0.5
            }
        },
        {
            "doubleSided" : true,
            "name" : "Stone",
            "pbrMetallicRoughness" : {
                "baseColorFactor" : [
                    0.24436430633068085,
                    0.24618881940841675,
                    0.21545054018497467,
                    1
                ],
                "metallicFactor" : 0,
                "roughnessFactor" : 0.5
            }
        }
    ],
    "meshes" : [
        {
            "name" : "Cube.233",
            "primitives" : [
                {
                    "attributes" : {
                        "POSITION" : 0,
                        "NORMAL" : 1
                    },
                    "indices" : 2,
                    "material" : 0
                },
                {
                    "attributes" : {
                        "POSITION" : 3,
                        "NORMAL" : 4
                    },
                    "indices" : 5,
                    "material" : 1
                }
            ]
        }
    ],
    "accessors" : [
        {
            "bufferView" : 0,
            "componentType" : 5126,
            "count" : 2004,
            "max" : [
                0.43465450406074524,
                0.7660770416259766,
                0.5874039530754089
            ],
            "min" : [
                -0.43465450406074524,
                0.04751364514231682,
                -0.5850149393081665
            ],
            "type" : "VEC3"
        },
        {
            "bufferView" : 1,
            "componentType" : 5126,
            "count" : 2004,
            "type" : "VEC3"
        },
        {
            "bufferView" : 2,
            "componentType" : 5123,
            "count" : 3024,
            "type" : "SCALAR"
        },
        {
            "bufferView" : 3,
            "componentType" : 5126,
            "count" : 34,
            "max" : [
                0.31894201040267944,
                0.08124923706054688,
                0.46668073534965515
            ],
            "min" : [
                -0.31894201040267944,
                0.001531012705527246,
                -0.46668073534965515
            ],
            "type" : "VEC3"
        },
        {
            "bufferView" : 4,
            "componentType" : 5126,
            "count" : 34,
            "type" : "VEC3"
        },
        {
            "bufferView" : 5,
            "componentType" : 5123,
            "count" : 60,
            "type" : "SCALAR"
        }
    ],
    "bufferViews" : [
        {
            "buffer" : 0,
            "byteLength" : 24048,
            "byteOffset" : 0
        },
        {
            "buffer" : 0,
            "byteLength" : 24048,
            "byteOffset" : 24048
        },
        {
            "buffer" : 0,
            "byteLength" : 6048,
            "byteOffset" : 48096
        },
        {
            "buffer" : 0,
            "byteLength" : 408,
            "byteOffset" : 54144
        },
        {
            "buffer" : 0,
            "byteLength" : 408,
            "byteOffset" : 54552
        },
        {
            "buffer" : 0,
            "byteLength" : 120,
            "byteOffset" : 54960
        }
    ],
    "buffers" : [
        {
            "byteLength" : 55080,
            "uri" : "data:application/octet-stream;base64,"
        }
    ]
}
