{
    "asset" : {
        "generator" : "Khronos glTF Blender I/O v1.7.33",
        "version" : "2.0"
    },
    "scene" : 0,
    "scenes" : [
        {
            "name" : "Scene",
            "nodes" : [
                0
            ]
        }
    ],
    "nodes" : [
        {
            "mesh" : 0,
            "name" : "Market_SecondAge_Level1"
        }
    ],
    "materials" : [
        {
            "doubleSided" : true,
            "name" : "Wood_Light",
            "pbrMetallicRoughness" : {
                "baseColorFactor" : [
                    0.3757452964782715,
                    0.24318844079971313,
                    0.09746062755584717,
                    1
                ],
                "metallicFactor" : 0,
                "roughnessFactor" : 0.5
            }
        },
        {
            "doubleSided" : true,
            "name" : "Wood",
            "pbrMetallicRoughness" : {
                "baseColorFactor" : [
                    0.24618732929229736,
                    0.14435896277427673,
                    0.053798429667949677,
                    1
                ],
                "metallicFactor" : 0,
                "roughnessFactor" : 0.5
            }
        },
        {
            "doubleSided" : true,
            "name" : "Metal_Light",
            "pbrMetallicRoughness" : {
                "baseColorFactor" : [
                    0.19017364084720612,
                    0.19017364084720612,
                    0.19017364084720612,
                    1
                ],
                "metallicFactor" : 0,
                "roughnessFactor" : 0.5
            }
        },
        {
            "doubleSided" : true,
            "name" : "Green",
            "pbrMetallicRoughness" : {
                "baseColorFactor" : [
                    0.09404914081096649,
                    0.1788560301065445,
                    0.012008205987513065,
                    1
                ],
                "metallicFactor" : 0,
                "roughnessFactor" : 0.5
            }
        },
        {
            "doubleSided" : true,
            "name" : "Stone",
            "pbrMetallicRoughness" : {
                "baseColorFactor" : [
                    0.24436430633068085,
                    0.24618881940841675,
                    0.21545054018497467,
                    1
                ],
                "metallicFactor" : 0,
                "roughnessFactor" : 0.5
            }
        },
        {
            "doubleSided" : true,
            "name" : "Gold",
            "pbrMetallicRoughness" : {
                "baseColorFactor" : [
                    0.3843711018562317,
                    0.22474361956119537,
                    0.05112964287400246,
                    1
                ],
                "metallicFactor" : 0,
                "roughnessFactor" : 0.5
            }
        },
        {
            "doubleSided" : true,
            "name" : "Yellow",
            "pbrMetallicRoughness" : {
                "baseColorFactor" : [
                    0.38437071442604065,
                    0.3622293174266815,
                    0.011554597876966,
                    1
                ],
                "metallicFactor" : 0,
                "roughnessFactor" : 0.5
            }
        },
        {
            "doubleSided" : true,
            "name" : "Red",
            "pbrMetallicRoughness" : {
                "baseColorFactor" : [
                    0.28100141882896423,
                    0.005420661997050047,
                    0.0022358763962984085,
                    1
                ],
                "metallicFactor" : 0,
                "roughnessFactor" : 0.5
            }
        }
    ],
    "meshes" : [
        {
            "name" : "Cube.012",
            "primitives" : [
                {
                    "attributes" : {
                        "POSITION" : 0,
                        "NORMAL" : 1,
                        "TEXCOORD_0" : 2
                    },
                    "indices" : 3,
                    "material" : 0
                },
                {
                    "attributes" : {
                        "POSITION" : 4,
                        "NORMAL" : 5,
                        "TEXCOORD_0" : 6
                    },
                    "indices" : 7,
                    "material" : 1
                },
                {
                    "attributes" : {
                        "POSITION" : 8,
                        "NORMAL" : 9,
                        "TEXCOORD_0" : 10
                    },
                    "indices" : 11,
                    "material" : 2
                },
                {
                    "attributes" : {
                        "POSITION" : 12,
                        "NORMAL" : 13,
                        "TEXCOORD_0" : 14
                    },
                    "indices" : 15,
                    "material" : 3
                },
                {
                    "attributes" : {
                        "POSITION" : 16,
                        "NORMAL" : 17,
                        "TEXCOORD_0" : 18
                    },
                    "indices" : 19,
                    "material" : 4
                },
                {
                    "attributes" : {
                        "POSITION" : 20,
                        "NORMAL" : 21,
                        "TEXCOORD_0" : 22
                    },
                    "indices" : 23,
                    "material" : 5
                },
                {
                    "attributes" : {
                        "POSITION" : 24,
                        "NORMAL" : 25,
                        "TEXCOORD_0" : 26
                    },
                    "indices" : 27,
                    "material" : 6
                },
                {
                    "attributes" : {
                        "POSITION" : 28,
                        "NORMAL" : 29,
                        "TEXCOORD_0" : 30
                    },
                    "indices" : 31,
                    "material" : 7
                }
            ]
        }
    ],
    "accessors" : [
        {
            "bufferView" : 0,
            "componentType" : 5126,
            "count" : 2928,
            "max" : [
                0.8731313943862915,
                0.2469431310892105,
                0.8059719800949097
            ],
            "min" : [
                -0.9049144983291626,
                -0.0034713598433882,
                -0.28211668133735657
            ],
            "type" : "VEC3"
        },
        {
            "bufferView" : 1,
            "componentType" : 5126,
            "count" : 2928,
            "type" : "VEC3"
        },
        {
            "bufferView" : 2,
            "componentType" : 5126,
            "count" : 2928,
            "type" : "VEC2"
        },
        {
            "bufferView" : 3,
            "componentType" : 5123,
            "count" : 4392,
            "type" : "SCALAR"
        },
        {
            "bufferView" : 4,
            "componentType" : 5126,
            "count" : 3440,
            "max" : [
                0.9171371459960938,
                0.5333572626113892,
                0.9000170826911926
            ],
            "min" : [
                -0.9989594221115112,
                -0.006129056680947542,
                -0.3319380283355713
            ],
            "type" : "VEC3"
        },
        {
            "bufferView" : 5,
            "componentType" : 5126,
            "count" : 3440,
            "type" : "VEC3"
        },
        {
            "bufferView" : 6,
            "componentType" : 5126,
            "count" : 3440,
            "type" : "VEC2"
        },
        {
            "bufferView" : 7,
            "componentType" : 5123,
            "count" : 5256,
            "type" : "SCALAR"
        },
        {
            "bufferView" : 8,
            "componentType" : 5126,
            "count" : 576,
            "max" : [
                0.8047678470611572,
                0.1398792564868927,
                0.434027761220932
            ],
            "min" : [
                -0.3807007670402527,
                -0.0024692118167877197,
                0.20210739970207214
            ],
            "type" : "VEC3"
        },
        {
            "bufferView" : 9,
            "componentType" : 5126,
            "count" : 576,
            "type" : "VEC3"
        },
        {
            "bufferView" : 10,
            "componentType" : 5126,
            "count" : 576,
            "type" : "VEC2"
        },
        {
            "bufferView" : 11,
            "componentType" : 5123,
            "count" : 1056,
            "type" : "SCALAR"
        },
        {
            "bufferView" : 12,
            "componentType" : 5126,
            "count" : 1256,
            "max" : [
                0.8912544250488281,
                0.5859331488609314,
                0.8728539347648621
            ],
            "min" : [
                -0.6619346141815186,
                0.161454439163208,
                -0.14187897741794586
            ],
            "type" : "VEC3"
        },
        {
            "bufferView" : 13,
            "componentType" : 5126,
            "count" : 1256,
            "type" : "VEC3"
        },
        {
            "bufferView" : 14,
            "componentType" : 5126,
            "count" : 1256,
            "type" : "VEC2"
        },
        {
            "bufferView" : 15,
            "componentType" : 5123,
            "count" : 1884,
            "type" : "SCALAR"
        },
        {
            "bufferView" : 16,
            "componentType" : 5126,
            "count" : 80,
            "max" : [
                0.892238974571228,
                0.05444285273551941,
                0.8807061314582825
            ],
            "min" : [
                -0.9796485900878906,
                -0.0038402825593948364,
                -0.3070398271083832
            ],
            "type" : "VEC3"
        },
        {
            "bufferView" : 17,
            "componentType" : 5126,
            "count" : 80,
            "type" : "VEC3"
        },
        {
            "bufferView" : 18,
            "componentType" : 5126,
            "count" : 80,
            "type" : "VEC2"
        },
        {
            "bufferView" : 19,
            "componentType" : 5123,
            "count" : 120,
            "type" : "SCALAR"
        },
        {
            "bufferView" : 20,
            "componentType" : 5126,
            "count" : 936,
            "max" : [
                -0.43894556164741516,
                0.5859331488609314,
                0.2906438708305359
            ],
            "min" : [
                -0.9717963933944702,
                0.4826279580593109,
                -0.3060551583766937
            ],
            "type" : "VEC3"
        },
        {
            "bufferView" : 21,
            "componentType" : 5126,
            "count" : 936,
            "type" : "VEC3"
        },
        {
            "bufferView" : 22,
            "componentType" : 5126,
            "count" : 936,
            "type" : "VEC2"
        },
        {
            "bufferView" : 23,
            "componentType" : 5123,
            "count" : 1404,
            "type" : "SCALAR"
        },
        {
            "bufferView" : 24,
            "componentType" : 5126,
            "count" : 240,
            "max" : [
                0.5997744798660278,
                0.19556432962417603,
                0.5233078002929688
            ],
            "min" : [
                -0.6619346141815186,
                0.161454439163208,
                -0.26519694924354553
            ],
            "type" : "VEC3"
        },
        {
            "bufferView" : 25,
            "componentType" : 5126,
            "count" : 240,
            "type" : "VEC3"
        },
        {
            "bufferView" : 26,
            "componentType" : 5126,
            "count" : 240,
            "type" : "VEC2"
        },
        {
            "bufferView" : 27,
            "componentType" : 5123,
            "count" : 360,
            "type" : "SCALAR"
        },
        {
            "bufferView" : 28,
            "componentType" : 5126,
            "count" : 80,
            "max" : [
                -0.5176841616630554,
                0.19556432962417603,
                0.2556900382041931
            ],
            "min" : [
                -0.6619346141815186,
                0.161454439163208,
                0.12849807739257812
            ],
            "type" : "VEC3"
        },
        {
            "bufferView" : 29,
            "componentType" : 5126,
            "count" : 80,
            "type" : "VEC3"
        },
        {
            "bufferView" : 30,
            "componentType" : 5126,
            "count" : 80,
            "type" : "VEC2"
        },
        {
            "bufferView" : 31,
            "componentType" : 5123,
            "count" : 120,
            "type" : "SCALAR"
        }
    ],
    "bufferViews" : [
        {
            "buffer" : 0,
            "byteLength" : 35136,
            "byteOffset" : 0
        },
        {
            "buffer" : 0,
            "byteLength" : 35136,
            "byteOffset" : 35136
        },
        {
            "buffer" : 0,
            "byteLength" : 23424,
            "byteOffset" : 70272
        },
        {
            "buffer" : 0,
            "byteLength" : 8784,
            "byteOffset" : 93696
        },
        {
            "buffer" : 0,
            "byteLength" : 41280,
            "byteOffset" : 102480
        },
        {
            "buffer" : 0,
            "byteLength" : 41280,
            "byteOffset" : 143760
        },
        {
            "buffer" : 0,
            "byteLength" : 27520,
            "byteOffset" : 185040
        },
        {
            "buffer" : 0,
            "byteLength" : 10512,
            "byteOffset" : 212560
        },
        {
            "buffer" : 0,
            "byteLength" : 6912,
            "byteOffset" : 223072
        },
        {
            "buffer" : 0,
            "byteLength" : 6912,
            "byteOffset" : 229984
        },
        {
            "buffer" : 0,
            "byteLength" : 4608,
            "byteOffset" : 236896
        },
        {
            "buffer" : 0,
            "byteLength" : 2112,
            "byteOffset" : 241504
        },
        {
            "buffer" : 0,
            "byteLength" : 15072,
            "byteOffset" : 243616
        },
        {
            "buffer" : 0,
            "byteLength" : 15072,
            "byteOffset" : 258688
        },
        {
            "buffer" : 0,
            "byteLength" : 10048,
            "byteOffset" : 273760
        },
        {
            "buffer" : 0,
            "byteLength" : 3768,
            "byteOffset" : 283808
        },
        {
            "buffer" : 0,
            "byteLength" : 960,
            "byteOffset" : 287576
        },
        {
            "buffer" : 0,
            "byteLength" : 960,
            "byteOffset" : 288536
        },
        {
            "buffer" : 0,
            "byteLength" : 640,
            "byteOffset" : 289496
        },
        {
            "buffer" : 0,
            "byteLength" : 240,
            "byteOffset" : 290136
        },
        {
            "buffer" : 0,
            "byteLength" : 11232,
            "byteOffset" : 290376
        },
        {
            "buffer" : 0,
            "byteLength" : 11232,
            "byteOffset" : 301608
        },
        {
            "buffer" : 0,
            "byteLength" : 7488,
            "byteOffset" : 312840
        },
        {
            "buffer" : 0,
            "byteLength" : 2808,
            "byteOffset" : 320328
        },
        {
            "buffer" : 0,
            "byteLength" : 2880,
            "byteOffset" : 323136
        },
        {
            "buffer" : 0,
            "byteLength" : 2880,
            "byteOffset" : 326016
        },
        {
            "buffer" : 0,
            "byteLength" : 1920,
            "byteOffset" : 328896
        },
        {
            "buffer" : 0,
            "byteLength" : 720,
            "byteOffset" : 330816
        },
        {
            "buffer" : 0,
            "byteLength" : 960,
            "byteOffset" : 331536
        },
        {
            "buffer" : 0,
            "byteLength" : 960,
            "byteOffset" : 332496
        },
        {
            "buffer" : 0,
            "byteLength" : 640,
            "byteOffset" : 333456
        },
        {
            "buffer" : 0,
            "byteLength" : 240,
            "byteOffset" : 334096
        }
    ],
    "buffers" : [
        {
            "byteLength" : 334336,
            "uri" : "data:application/octet-stream;base64,"
        }
    ]
}
