{
    "asset" : {
        "generator" : "Khronos glTF Blender I/O v1.7.33",
        "version" : "2.0"
    },
    "scene" : 0,
    "scenes" : [
        {
            "name" : "Scene",
            "nodes" : [
                0
            ]
        }
    ],
    "nodes" : [
        {
            "mesh" : 0,
            "name" : "Market_FirstAge_Level1"
        }
    ],
    "materials" : [
        {
            "doubleSided" : true,
            "name" : "Green",
            "pbrMetallicRoughness" : {
                "baseColorFactor" : [
                    0.09404914081096649,
                    0.1788560301065445,
                    0.012008205987513065,
                    1
                ],
                "metallicFactor" : 0,
                "roughnessFactor" : 0.5
            }
        },
        {
            "doubleSided" : true,
            "name" : "Yellow",
            "pbrMetallicRoughness" : {
                "baseColorFactor" : [
                    0.38437071442604065,
                    0.3622293174266815,
                    0.011554597876966,
                    1
                ],
                "metallicFactor" : 0,
                "roughnessFactor" : 0.5
            }
        },
        {
            "doubleSided" : true,
            "name" : "Red",
            "pbrMetallicRoughness" : {
                "baseColorFactor" : [
                    0.28100141882896423,
                    0.005420661997050047,
                    0.0022358763962984085,
                    1
                ],
                "metallicFactor" : 0,
                "roughnessFactor" : 0.5
            }
        },
        {
            "doubleSided" : true,
            "name" : "Wood",
            "pbrMetallicRoughness" : {
                "baseColorFactor" : [
                    0.24618732929229736,
                    0.14435896277427673,
                    0.053798429667949677,
                    1
                ],
                "metallicFactor" : 0,
                "roughnessFactor" : 0.5
            }
        },
        {
            "doubleSided" : true,
            "name" : "Wood_Light",
            "pbrMetallicRoughness" : {
                "baseColorFactor" : [
                    0.3757452964782715,
                    0.24318844079971313,
                    0.09746062755584717,
                    1
                ],
                "metallicFactor" : 0,
                "roughnessFactor" : 0.5
            }
        }
    ],
    "meshes" : [
        {
            "name" : "Cube.226",
            "primitives" : [
                {
                    "attributes" : {
                        "POSITION" : 0,
                        "NORMAL" : 1
                    },
                    "indices" : 2,
                    "material" : 0
                },
                {
                    "attributes" : {
                        "POSITION" : 3,
                        "NORMAL" : 4
                    },
                    "indices" : 5,
                    "material" : 1
                },
                {
                    "attributes" : {
                        "POSITION" : 6,
                        "NORMAL" : 7
                    },
                    "indices" : 8,
                    "material" : 2
                },
                {
                    "attributes" : {
                        "POSITION" : 9,
                        "NORMAL" : 10
                    },
                    "indices" : 11,
                    "material" : 3
                },
                {
                    "attributes" : {
                        "POSITION" : 12,
                        "NORMAL" : 13
                    },
                    "indices" : 14,
                    "material" : 4
                }
            ]
        }
    ],
    "accessors" : [
        {
            "bufferView" : 0,
            "componentType" : 5126,
            "count" : 528,
            "max" : [
                0.49131685495376587,
                0.5453803539276123,
                0.5489316582679749
            ],
            "min" : [
                -0.7721114158630371,
                0.15468455851078033,
                -0.5441946983337402
            ],
            "type" : "VEC3"
        },
        {
            "bufferView" : 1,
            "componentType" : 5126,
            "count" : 528,
            "type" : "VEC3"
        },
        {
            "bufferView" : 2,
            "componentType" : 5123,
            "count" : 792,
            "type" : "SCALAR"
        },
        {
            "bufferView" : 3,
            "componentType" : 5126,
            "count" : 320,
            "max" : [
                0.6259241700172424,
                0.1919591873884201,
                0.5558425784111023
            ],
            "min" : [
                -0.7549211978912354,
                0.15468455851078033,
                -0.433027446269989
            ],
            "type" : "VEC3"
        },
        {
            "bufferView" : 4,
            "componentType" : 5126,
            "count" : 320,
            "type" : "VEC3"
        },
        {
            "bufferView" : 5,
            "componentType" : 5123,
            "count" : 480,
            "type" : "SCALAR"
        },
        {
            "bufferView" : 6,
            "componentType" : 5126,
            "count" : 528,
            "max" : [
                0.6487279534339905,
                0.5453803539276123,
                0.6740425825119019
            ],
            "min" : [
                -0.3247627317905426,
                0.15468455851078033,
                -0.43561360239982605
            ],
            "type" : "VEC3"
        },
        {
            "bufferView" : 7,
            "componentType" : 5126,
            "count" : 528,
            "type" : "VEC3"
        },
        {
            "bufferView" : 8,
            "componentType" : 5123,
            "count" : 792,
            "type" : "SCALAR"
        },
        {
            "bufferView" : 9,
            "componentType" : 5126,
            "count" : 992,
            "max" : [
                0.6444875597953796,
                0.5299541354179382,
                0.6681271195411682
            ],
            "min" : [
                -0.968026340007782,
                -0.006128872279077768,
                -0.533588171005249
            ],
            "type" : "VEC3"
        },
        {
            "bufferView" : 10,
            "componentType" : 5126,
            "count" : 992,
            "type" : "VEC3"
        },
        {
            "bufferView" : 11,
            "componentType" : 5123,
            "count" : 4368,
            "type" : "SCALAR"
        },
        {
            "bufferView" : 12,
            "componentType" : 5126,
            "count" : 2352,
            "max" : [
                0.6531898379325867,
                0.24694330990314484,
                0.6734969019889832
            ],
            "min" : [
                -0.9637126922607422,
                -0.003471184754744172,
                -0.5435121059417725
            ],
            "type" : "VEC3"
        },
        {
            "bufferView" : 13,
            "componentType" : 5126,
            "count" : 2352,
            "type" : "VEC3"
        },
        {
            "bufferView" : 14,
            "componentType" : 5123,
            "count" : 5256,
            "type" : "SCALAR"
        }
    ],
    "bufferViews" : [
        {
            "buffer" : 0,
            "byteLength" : 6336,
            "byteOffset" : 0
        },
        {
            "buffer" : 0,
            "byteLength" : 6336,
            "byteOffset" : 6336
        },
        {
            "buffer" : 0,
            "byteLength" : 1584,
            "byteOffset" : 12672
        },
        {
            "buffer" : 0,
            "byteLength" : 3840,
            "byteOffset" : 14256
        },
        {
            "buffer" : 0,
            "byteLength" : 3840,
            "byteOffset" : 18096
        },
        {
            "buffer" : 0,
            "byteLength" : 960,
            "byteOffset" : 21936
        },
        {
            "buffer" : 0,
            "byteLength" : 6336,
            "byteOffset" : 22896
        },
        {
            "buffer" : 0,
            "byteLength" : 6336,
            "byteOffset" : 29232
        },
        {
            "buffer" : 0,
            "byteLength" : 1584,
            "byteOffset" : 35568
        },
        {
            "buffer" : 0,
            "byteLength" : 11904,
            "byteOffset" : 37152
        },
        {
            "buffer" : 0,
            "byteLength" : 11904,
            "byteOffset" : 49056
        },
        {
            "buffer" : 0,
            "byteLength" : 8736,
            "byteOffset" : 60960
        },
        {
            "buffer" : 0,
            "byteLength" : 28224,
            "byteOffset" : 69696
        },
        {
            "buffer" : 0,
            "byteLength" : 28224,
            "byteOffset" : 97920
        },
        {
            "buffer" : 0,
            "byteLength" : 10512,
            "byteOffset" : 126144
        }
    ],
    "buffers" : [
        {
            "byteLength" : 136656,
            "uri" : "data:application/octet-stream;base64,"
        }
    ]
}
