{
    "asset" : {
        "generator" : "Khronos glTF Blender I/O v1.7.33",
        "version" : "2.0"
    },
    "scene" : 0,
    "scenes" : [
        {
            "name" : "Scene",
            "nodes" : [
                0
            ]
        }
    ],
    "nodes" : [
        {
            "mesh" : 0,
            "name" : "Market_FirstAge_Level3"
        }
    ],
    "materials" : [
        {
            "doubleSided" : true,
            "name" : "Green",
            "pbrMetallicRoughness" : {
                "baseColorFactor" : [
                    0.09404914081096649,
                    0.1788560301065445,
                    0.012008205987513065,
                    1
                ],
                "metallicFactor" : 0,
                "roughnessFactor" : 0.5
            }
        },
        {
            "doubleSided" : true,
            "name" : "Yellow",
            "pbrMetallicRoughness" : {
                "baseColorFactor" : [
                    0.38437071442604065,
                    0.3622293174266815,
                    0.011554597876966,
                    1
                ],
                "metallicFactor" : 0,
                "roughnessFactor" : 0.5
            }
        },
        {
            "doubleSided" : true,
            "name" : "Red",
            "pbrMetallicRoughness" : {
                "baseColorFactor" : [
                    0.28100141882896423,
                    0.005420661997050047,
                    0.0022358763962984085,
                    1
                ],
                "metallicFactor" : 0,
                "roughnessFactor" : 0.5
            }
        },
        {
            "doubleSided" : true,
            "name" : "Wood",
            "pbrMetallicRoughness" : {
                "baseColorFactor" : [
                    0.24618732929229736,
                    0.14435896277427673,
                    0.053798429667949677,
                    1
                ],
                "metallicFactor" : 0,
                "roughnessFactor" : 0.5
            }
        },
        {
            "doubleSided" : true,
            "name" : "Wood_Light",
            "pbrMetallicRoughness" : {
                "baseColorFactor" : [
                    0.3757452964782715,
                    0.24318844079971313,
                    0.09746062755584717,
                    1
                ],
                "metallicFactor" : 0,
                "roughnessFactor" : 0.5
            }
        },
        {
            "doubleSided" : true,
            "name" : "Gold",
            "pbrMetallicRoughness" : {
                "baseColorFactor" : [
                    0.3843711018562317,
                    0.22474361956119537,
                    0.05112964287400246,
                    1
                ],
                "metallicFactor" : 0,
                "roughnessFactor" : 0.5
            }
        },
        {
            "doubleSided" : true,
            "name" : "White",
            "pbrMetallicRoughness" : {
                "baseColorFactor" : [
                    0.4868917763233185,
                    0.4868917763233185,
                    0.4868917763233185,
                    1
                ],
                "metallicFactor" : 0,
                "roughnessFactor" : 0.5
            }
        }
    ],
    "meshes" : [
        {
            "name" : "Cube.227",
            "primitives" : [
                {
                    "attributes" : {
                        "POSITION" : 0,
                        "NORMAL" : 1
                    },
                    "indices" : 2,
                    "material" : 0
                },
                {
                    "attributes" : {
                        "POSITION" : 3,
                        "NORMAL" : 4
                    },
                    "indices" : 5,
                    "material" : 1
                },
                {
                    "attributes" : {
                        "POSITION" : 6,
                        "NORMAL" : 7
                    },
                    "indices" : 8,
                    "material" : 2
                },
                {
                    "attributes" : {
                        "POSITION" : 9,
                        "NORMAL" : 10
                    },
                    "indices" : 11,
                    "material" : 3
                },
                {
                    "attributes" : {
                        "POSITION" : 12,
                        "NORMAL" : 13
                    },
                    "indices" : 14,
                    "material" : 4
                },
                {
                    "attributes" : {
                        "POSITION" : 15,
                        "NORMAL" : 16
                    },
                    "indices" : 17,
                    "material" : 5
                },
                {
                    "attributes" : {
                        "POSITION" : 18,
                        "NORMAL" : 19
                    },
                    "indices" : 20,
                    "material" : 6
                }
            ]
        }
    ],
    "accessors" : [
        {
            "bufferView" : 0,
            "componentType" : 5126,
            "count" : 1648,
            "max" : [
                0.8101128339767456,
                0.5453803539276123,
                0.9473870992660522
            ],
            "min" : [
                -0.9573695063591003,
                0.15468455851078033,
                -0.987655520439148
            ],
            "type" : "VEC3"
        },
        {
            "bufferView" : 1,
            "componentType" : 5126,
            "count" : 1648,
            "type" : "VEC3"
        },
        {
            "bufferView" : 2,
            "componentType" : 5123,
            "count" : 2472,
            "type" : "SCALAR"
        },
        {
            "bufferView" : 3,
            "componentType" : 5126,
            "count" : 960,
            "max" : [
                0.8119930624961853,
                0.1919591873884201,
                0.947387158870697
            ],
            "min" : [
                -0.9501581788063049,
                0.15468455851078033,
                -0.9934114217758179
            ],
            "type" : "VEC3"
        },
        {
            "bufferView" : 4,
            "componentType" : 5126,
            "count" : 960,
            "type" : "VEC3"
        },
        {
            "bufferView" : 5,
            "componentType" : 5123,
            "count" : 1440,
            "type" : "SCALAR"
        },
        {
            "bufferView" : 6,
            "componentType" : 5126,
            "count" : 1408,
            "max" : [
                0.8139317631721497,
                0.5453803539276123,
                0.9677261114120483
            ],
            "min" : [
                -0.9591267108917236,
                0.15468455851078033,
                -1.0807743072509766
            ],
            "type" : "VEC3"
        },
        {
            "bufferView" : 7,
            "componentType" : 5126,
            "count" : 1408,
            "type" : "VEC3"
        },
        {
            "bufferView" : 8,
            "componentType" : 5123,
            "count" : 2112,
            "type" : "SCALAR"
        },
        {
            "bufferView" : 9,
            "componentType" : 5126,
            "count" : 4208,
            "max" : [
                0.9115657806396484,
                0.5299541354179382,
                1.0013539791107178
            ],
            "min" : [
                -0.9603816270828247,
                -0.007197747938334942,
                -1.0563945770263672
            ],
            "type" : "VEC3"
        },
        {
            "bufferView" : 10,
            "componentType" : 5126,
            "count" : 4208,
            "type" : "VEC3"
        },
        {
            "bufferView" : 11,
            "componentType" : 5123,
            "count" : 6312,
            "type" : "SCALAR"
        },
        {
            "bufferView" : 12,
            "componentType" : 5126,
            "count" : 4180,
            "max" : [
                0.9214471578598022,
                0.24694330990314484,
                0.9785900712013245
            ],
            "min" : [
                -0.9686476588249207,
                -0.003949685022234917,
                -1.0340993404388428
            ],
            "type" : "VEC3"
        },
        {
            "bufferView" : 13,
            "componentType" : 5126,
            "count" : 4180,
            "type" : "VEC3"
        },
        {
            "bufferView" : 14,
            "componentType" : 5123,
            "count" : 6270,
            "type" : "SCALAR"
        },
        {
            "bufferView" : 15,
            "componentType" : 5126,
            "count" : 736,
            "max" : [
                0.9221492409706116,
                0.5453803539276123,
                1.027639627456665
            ],
            "min" : [
                -0.964144766330719,
                0.29948145151138306,
                -0.5504361391067505
            ],
            "type" : "VEC3"
        },
        {
            "bufferView" : 16,
            "componentType" : 5126,
            "count" : 736,
            "type" : "VEC3"
        },
        {
            "bufferView" : 17,
            "componentType" : 5123,
            "count" : 1104,
            "type" : "SCALAR"
        },
        {
            "bufferView" : 18,
            "componentType" : 5126,
            "count" : 832,
            "max" : [
                0.6057940125465393,
                0.5340284109115601,
                0.9801952242851257
            ],
            "min" : [
                -0.964144766330719,
                0.3539913296699524,
                -1.0355253219604492
            ],
            "type" : "VEC3"
        },
        {
            "bufferView" : 19,
            "componentType" : 5126,
            "count" : 832,
            "type" : "VEC3"
        },
        {
            "bufferView" : 20,
            "componentType" : 5123,
            "count" : 1248,
            "type" : "SCALAR"
        }
    ],
    "bufferViews" : [
        {
            "buffer" : 0,
            "byteLength" : 19776,
            "byteOffset" : 0
        },
        {
            "buffer" : 0,
            "byteLength" : 19776,
            "byteOffset" : 19776
        },
        {
            "buffer" : 0,
            "byteLength" : 4944,
            "byteOffset" : 39552
        },
        {
            "buffer" : 0,
            "byteLength" : 11520,
            "byteOffset" : 44496
        },
        {
            "buffer" : 0,
            "byteLength" : 11520,
            "byteOffset" : 56016
        },
        {
            "buffer" : 0,
            "byteLength" : 2880,
            "byteOffset" : 67536
        },
        {
            "buffer" : 0,
            "byteLength" : 16896,
            "byteOffset" : 70416
        },
        {
            "buffer" : 0,
            "byteLength" : 16896,
            "byteOffset" : 87312
        },
        {
            "buffer" : 0,
            "byteLength" : 4224,
            "byteOffset" : 104208
        },
        {
            "buffer" : 0,
            "byteLength" : 50496,
            "byteOffset" : 108432
        },
        {
            "buffer" : 0,
            "byteLength" : 50496,
            "byteOffset" : 158928
        },
        {
            "buffer" : 0,
            "byteLength" : 12624,
            "byteOffset" : 209424
        },
        {
            "buffer" : 0,
            "byteLength" : 50160,
            "byteOffset" : 222048
        },
        {
            "buffer" : 0,
            "byteLength" : 50160,
            "byteOffset" : 272208
        },
        {
            "buffer" : 0,
            "byteLength" : 12540,
            "byteOffset" : 322368
        },
        {
            "buffer" : 0,
            "byteLength" : 8832,
            "byteOffset" : 334908
        },
        {
            "buffer" : 0,
            "byteLength" : 8832,
            "byteOffset" : 343740
        },
        {
            "buffer" : 0,
            "byteLength" : 2208,
            "byteOffset" : 352572
        },
        {
            "buffer" : 0,
            "byteLength" : 9984,
            "byteOffset" : 354780
        },
        {
            "buffer" : 0,
            "byteLength" : 9984,
            "byteOffset" : 364764
        },
        {
            "buffer" : 0,
            "byteLength" : 2496,
            "byteOffset" : 374748
        }
    ],
    "buffers" : [
        {
            "byteLength" : 377244,
            "uri" : "data:application/octet-stream;base64,"
        }
    ]
}
