{
    "asset" : {
        "generator" : "Khronos glTF Blender I/O v1.7.33",
        "version" : "2.0"
    },
    "scene" : 0,
    "scenes" : [
        {
            "name" : "Scene",
            "nodes" : [
                0
            ]
        }
    ],
    "nodes" : [
        {
            "mesh" : 0,
            "name" : "Market_FirstAge_Level2"
        }
    ],
    "materials" : [
        {
            "doubleSided" : true,
            "name" : "Green",
            "pbrMetallicRoughness" : {
                "baseColorFactor" : [
                    0.09404914081096649,
                    0.1788560301065445,
                    0.012008205987513065,
                    1
                ],
                "metallicFactor" : 0,
                "roughnessFactor" : 0.5
            }
        },
        {
            "doubleSided" : true,
            "name" : "Yellow",
            "pbrMetallicRoughness" : {
                "baseColorFactor" : [
                    0.38437071442604065,
                    0.3622293174266815,
                    0.011554597876966,
                    1
                ],
                "metallicFactor" : 0,
                "roughnessFactor" : 0.5
            }
        },
        {
            "doubleSided" : true,
            "name" : "Red",
            "pbrMetallicRoughness" : {
                "baseColorFactor" : [
                    0.28100141882896423,
                    0.005420661997050047,
                    0.0022358763962984085,
                    1
                ],
                "metallicFactor" : 0,
                "roughnessFactor" : 0.5
            }
        },
        {
            "doubleSided" : true,
            "name" : "Wood",
            "pbrMetallicRoughness" : {
                "baseColorFactor" : [
                    0.24618732929229736,
                    0.14435896277427673,
                    0.053798429667949677,
                    1
                ],
                "metallicFactor" : 0,
                "roughnessFactor" : 0.5
            }
        },
        {
            "doubleSided" : true,
            "name" : "Wood_Light",
            "pbrMetallicRoughness" : {
                "baseColorFactor" : [
                    0.3757452964782715,
                    0.24318844079971313,
                    0.09746062755584717,
                    1
                ],
                "metallicFactor" : 0,
                "roughnessFactor" : 0.5
            }
        },
        {
            "doubleSided" : true,
            "name" : "Gold",
            "pbrMetallicRoughness" : {
                "baseColorFactor" : [
                    0.3843711018562317,
                    0.22474361956119537,
                    0.05112964287400246,
                    1
                ],
                "metallicFactor" : 0,
                "roughnessFactor" : 0.5
            }
        },
        {
            "doubleSided" : true,
            "name" : "White",
            "pbrMetallicRoughness" : {
                "baseColorFactor" : [
                    0.4868917763233185,
                    0.4868917763233185,
                    0.4868917763233185,
                    1
                ],
                "metallicFactor" : 0,
                "roughnessFactor" : 0.5
            }
        }
    ],
    "meshes" : [
        {
            "name" : "Cube.024",
            "primitives" : [
                {
                    "attributes" : {
                        "POSITION" : 0,
                        "NORMAL" : 1
                    },
                    "indices" : 2,
                    "material" : 0
                },
                {
                    "attributes" : {
                        "POSITION" : 3,
                        "NORMAL" : 4
                    },
                    "indices" : 5,
                    "material" : 1
                },
                {
                    "attributes" : {
                        "POSITION" : 6,
                        "NORMAL" : 7
                    },
                    "indices" : 8,
                    "material" : 2
                },
                {
                    "attributes" : {
                        "POSITION" : 9,
                        "NORMAL" : 10
                    },
                    "indices" : 11,
                    "material" : 3
                },
                {
                    "attributes" : {
                        "POSITION" : 12,
                        "NORMAL" : 13
                    },
                    "indices" : 14,
                    "material" : 4
                },
                {
                    "attributes" : {
                        "POSITION" : 15,
                        "NORMAL" : 16
                    },
                    "indices" : 17,
                    "material" : 5
                },
                {
                    "attributes" : {
                        "POSITION" : 18,
                        "NORMAL" : 19
                    },
                    "indices" : 20,
                    "material" : 6
                }
            ]
        }
    ],
    "accessors" : [
        {
            "bufferView" : 0,
            "componentType" : 5126,
            "count" : 928,
            "max" : [
                0.8536520004272461,
                0.5453803539276123,
                0.7567749619483948
            ],
            "min" : [
                -0.854981541633606,
                0.15468455851078033,
                -0.9250519275665283
            ],
            "type" : "VEC3"
        },
        {
            "bufferView" : 1,
            "componentType" : 5126,
            "count" : 928,
            "type" : "VEC3"
        },
        {
            "bufferView" : 2,
            "componentType" : 5123,
            "count" : 1392,
            "type" : "SCALAR"
        },
        {
            "bufferView" : 3,
            "componentType" : 5126,
            "count" : 800,
            "max" : [
                0.8758082985877991,
                0.1919591873884201,
                0.33815839886665344
            ],
            "min" : [
                -0.854981541633606,
                0.15468455851078033,
                -0.7981066703796387
            ],
            "type" : "VEC3"
        },
        {
            "bufferView" : 4,
            "componentType" : 5126,
            "count" : 800,
            "type" : "VEC3"
        },
        {
            "bufferView" : 5,
            "componentType" : 5123,
            "count" : 1200,
            "type" : "SCALAR"
        },
        {
            "bufferView" : 6,
            "componentType" : 5126,
            "count" : 1328,
            "max" : [
                0.9629939198493958,
                0.5453803539276123,
                0.8633766174316406
            ],
            "min" : [
                -0.854981541633606,
                0.15468455851078033,
                -0.9923772215843201
            ],
            "type" : "VEC3"
        },
        {
            "bufferView" : 7,
            "componentType" : 5126,
            "count" : 1328,
            "type" : "VEC3"
        },
        {
            "bufferView" : 8,
            "componentType" : 5123,
            "count" : 1992,
            "type" : "SCALAR"
        },
        {
            "bufferView" : 9,
            "componentType" : 5126,
            "count" : 1648,
            "max" : [
                0.9644075632095337,
                0.5299541354179382,
                0.8743047714233398
            ],
            "min" : [
                -0.9089484810829163,
                -0.007197746075689793,
                -0.9715383648872375
            ],
            "type" : "VEC3"
        },
        {
            "bufferView" : 10,
            "componentType" : 5126,
            "count" : 1648,
            "type" : "VEC3"
        },
        {
            "bufferView" : 11,
            "componentType" : 5123,
            "count" : 5832,
            "type" : "SCALAR"
        },
        {
            "bufferView" : 12,
            "componentType" : 5126,
            "count" : 2800,
            "max" : [
                0.9594570398330688,
                0.24694330990314484,
                0.8639664053916931
            ],
            "min" : [
                -0.889011800289154,
                -0.00394968269392848,
                -0.9655564427375793
            ],
            "type" : "VEC3"
        },
        {
            "bufferView" : 13,
            "componentType" : 5126,
            "count" : 2800,
            "type" : "VEC3"
        },
        {
            "bufferView" : 14,
            "componentType" : 5123,
            "count" : 6216,
            "type" : "SCALAR"
        },
        {
            "bufferView" : 15,
            "componentType" : 5126,
            "count" : 366,
            "max" : [
                -0.2993035912513733,
                0.5453803539276123,
                0.5045039653778076
            ],
            "min" : [
                -0.935234010219574,
                0.29948145151138306,
                -0.09505131840705872
            ],
            "type" : "VEC3"
        },
        {
            "bufferView" : 16,
            "componentType" : 5126,
            "count" : 366,
            "type" : "VEC3"
        },
        {
            "bufferView" : 17,
            "componentType" : 5123,
            "count" : 552,
            "type" : "SCALAR"
        },
        {
            "bufferView" : 18,
            "componentType" : 5126,
            "count" : 672,
            "max" : [
                0.9284018278121948,
                0.5340284109115601,
                0.8175208568572998
            ],
            "min" : [
                -0.8877896070480347,
                0.3539913296699524,
                -0.9631525874137878
            ],
            "type" : "VEC3"
        },
        {
            "bufferView" : 19,
            "componentType" : 5126,
            "count" : 672,
            "type" : "VEC3"
        },
        {
            "bufferView" : 20,
            "componentType" : 5123,
            "count" : 1008,
            "type" : "SCALAR"
        }
    ],
    "bufferViews" : [
        {
            "buffer" : 0,
            "byteLength" : 11136,
            "byteOffset" : 0
        },
        {
            "buffer" : 0,
            "byteLength" : 11136,
            "byteOffset" : 11136
        },
        {
            "buffer" : 0,
            "byteLength" : 2784,
            "byteOffset" : 22272
        },
        {
            "buffer" : 0,
            "byteLength" : 9600,
            "byteOffset" : 25056
        },
        {
            "buffer" : 0,
            "byteLength" : 9600,
            "byteOffset" : 34656
        },
        {
            "buffer" : 0,
            "byteLength" : 2400,
            "byteOffset" : 44256
        },
        {
            "buffer" : 0,
            "byteLength" : 15936,
            "byteOffset" : 46656
        },
        {
            "buffer" : 0,
            "byteLength" : 15936,
            "byteOffset" : 62592
        },
        {
            "buffer" : 0,
            "byteLength" : 3984,
            "byteOffset" : 78528
        },
        {
            "buffer" : 0,
            "byteLength" : 19776,
            "byteOffset" : 82512
        },
        {
            "buffer" : 0,
            "byteLength" : 19776,
            "byteOffset" : 102288
        },
        {
            "buffer" : 0,
            "byteLength" : 11664,
            "byteOffset" : 122064
        },
        {
            "buffer" : 0,
            "byteLength" : 33600,
            "byteOffset" : 133728
        },
        {
            "buffer" : 0,
            "byteLength" : 33600,
            "byteOffset" : 167328
        },
        {
            "buffer" : 0,
            "byteLength" : 12432,
            "byteOffset" : 200928
        },
        {
            "buffer" : 0,
            "byteLength" : 4392,
            "byteOffset" : 213360
        },
        {
            "buffer" : 0,
            "byteLength" : 4392,
            "byteOffset" : 217752
        },
        {
            "buffer" : 0,
            "byteLength" : 1104,
            "byteOffset" : 222144
        },
        {
            "buffer" : 0,
            "byteLength" : 8064,
            "byteOffset" : 223248
        },
        {
            "buffer" : 0,
            "byteLength" : 8064,
            "byteOffset" : 231312
        },
        {
            "buffer" : 0,
            "byteLength" : 2016,
            "byteOffset" : 239376
        }
    ],
    "buffers" : [
        {
            "byteLength" : 241392,
            "uri" : "data:application/octet-stream;base64,"
        }
    ]
}
