{
    "asset" : {
        "generator" : "Khronos glTF Blender I/O v1.7.33",
        "version" : "2.0"
    },
    "scene" : 0,
    "scenes" : [
        {
            "name" : "Scene",
            "nodes" : [
                0
            ]
        }
    ],
    "nodes" : [
        {
            "mesh" : 0,
            "name" : "Market_SecondAge_Level3"
        }
    ],
    "materials" : [
        {
            "doubleSided" : true,
            "name" : "Wood_Light",
            "pbrMetallicRoughness" : {
                "baseColorFactor" : [
                    0.3757452964782715,
                    0.24318844079971313,
                    0.09746062755584717,
                    1
                ],
                "metallicFactor" : 0,
                "roughnessFactor" : 0.5
            }
        },
        {
            "doubleSided" : true,
            "name" : "Wood",
            "pbrMetallicRoughness" : {
                "baseColorFactor" : [
                    0.24618732929229736,
                    0.14435896277427673,
                    0.053798429667949677,
                    1
                ],
                "metallicFactor" : 0,
                "roughnessFactor" : 0.5
            }
        },
        {
            "doubleSided" : true,
            "name" : "Gold",
            "pbrMetallicRoughness" : {
                "baseColorFactor" : [
                    0.3843711018562317,
                    0.22474361956119537,
                    0.05112964287400246,
                    1
                ],
                "metallicFactor" : 0,
                "roughnessFactor" : 0.5
            }
        },
        {
            "doubleSided" : true,
            "name" : "Stone",
            "pbrMetallicRoughness" : {
                "baseColorFactor" : [
                    0.24436430633068085,
                    0.24618881940841675,
                    0.21545054018497467,
                    1
                ],
                "metallicFactor" : 0,
                "roughnessFactor" : 0.5
            }
        },
        {
            "doubleSided" : true,
            "name" : "Metal_Light",
            "pbrMetallicRoughness" : {
                "baseColorFactor" : [
                    0.19017364084720612,
                    0.19017364084720612,
                    0.19017364084720612,
                    1
                ],
                "metallicFactor" : 0,
                "roughnessFactor" : 0.5
            }
        },
        {
            "doubleSided" : true,
            "name" : "Green",
            "pbrMetallicRoughness" : {
                "baseColorFactor" : [
                    0.09404914081096649,
                    0.1788560301065445,
                    0.012008205987513065,
                    1
                ],
                "metallicFactor" : 0,
                "roughnessFactor" : 0.5
            }
        },
        {
            "doubleSided" : true,
            "name" : "Yellow",
            "pbrMetallicRoughness" : {
                "baseColorFactor" : [
                    0.38437071442604065,
                    0.3622293174266815,
                    0.011554597876966,
                    1
                ],
                "metallicFactor" : 0,
                "roughnessFactor" : 0.5
            }
        },
        {
            "doubleSided" : true,
            "name" : "Red",
            "pbrMetallicRoughness" : {
                "baseColorFactor" : [
                    0.28100141882896423,
                    0.005420661997050047,
                    0.0022358763962984085,
                    1
                ],
                "metallicFactor" : 0,
                "roughnessFactor" : 0.5
            }
        }
    ],
    "meshes" : [
        {
            "name" : "Cube.015",
            "primitives" : [
                {
                    "attributes" : {
                        "POSITION" : 0,
                        "NORMAL" : 1,
                        "TEXCOORD_0" : 2
                    },
                    "indices" : 3,
                    "material" : 0
                },
                {
                    "attributes" : {
                        "POSITION" : 4,
                        "NORMAL" : 5,
                        "TEXCOORD_0" : 6
                    },
                    "indices" : 7,
                    "material" : 1
                },
                {
                    "attributes" : {
                        "POSITION" : 8,
                        "NORMAL" : 9,
                        "TEXCOORD_0" : 10
                    },
                    "indices" : 11,
                    "material" : 2
                },
                {
                    "attributes" : {
                        "POSITION" : 12,
                        "NORMAL" : 13,
                        "TEXCOORD_0" : 14
                    },
                    "indices" : 15,
                    "material" : 3
                },
                {
                    "attributes" : {
                        "POSITION" : 16,
                        "NORMAL" : 17,
                        "TEXCOORD_0" : 18
                    },
                    "indices" : 19,
                    "material" : 4
                },
                {
                    "attributes" : {
                        "POSITION" : 20,
                        "NORMAL" : 21,
                        "TEXCOORD_0" : 22
                    },
                    "indices" : 23,
                    "material" : 5
                },
                {
                    "attributes" : {
                        "POSITION" : 24,
                        "NORMAL" : 25,
                        "TEXCOORD_0" : 26
                    },
                    "indices" : 27,
                    "material" : 6
                },
                {
                    "attributes" : {
                        "POSITION" : 28,
                        "NORMAL" : 29,
                        "TEXCOORD_0" : 30
                    },
                    "indices" : 31,
                    "material" : 7
                }
            ]
        }
    ],
    "accessors" : [
        {
            "bufferView" : 0,
            "componentType" : 5126,
            "count" : 8214,
            "max" : [
                0.8731313943862915,
                0.26637929677963257,
                0.9087896943092346
            ],
            "min" : [
                -0.9535082578659058,
                -0.003471359610557556,
                -0.9395351409912109
            ],
            "type" : "VEC3"
        },
        {
            "bufferView" : 1,
            "componentType" : 5126,
            "count" : 8214,
            "type" : "VEC3"
        },
        {
            "bufferView" : 2,
            "componentType" : 5126,
            "count" : 8214,
            "type" : "VEC2"
        },
        {
            "bufferView" : 3,
            "componentType" : 5123,
            "count" : 12324,
            "type" : "SCALAR"
        },
        {
            "bufferView" : 4,
            "componentType" : 5126,
            "count" : 9096,
            "max" : [
                0.9171371459960938,
                0.5333572626113892,
                1.0028345584869385
            ],
            "min" : [
                -1.015828251838684,
                -0.06658732891082764,
                -0.9826270937919617
            ],
            "type" : "VEC3"
        },
        {
            "bufferView" : 5,
            "componentType" : 5126,
            "count" : 9096,
            "type" : "VEC3"
        },
        {
            "bufferView" : 6,
            "componentType" : 5126,
            "count" : 9096,
            "type" : "VEC2"
        },
        {
            "bufferView" : 7,
            "componentType" : 5123,
            "count" : 13872,
            "type" : "SCALAR"
        },
        {
            "bufferView" : 8,
            "componentType" : 5126,
            "count" : 2582,
            "max" : [
                0.848544716835022,
                0.5859331488609314,
                0.9756715893745422
            ],
            "min" : [
                -0.9899454712867737,
                0.4826279282569885,
                -0.7869901061058044
            ],
            "type" : "VEC3"
        },
        {
            "bufferView" : 9,
            "componentType" : 5126,
            "count" : 2582,
            "type" : "VEC3"
        },
        {
            "bufferView" : 10,
            "componentType" : 5126,
            "count" : 2582,
            "type" : "VEC2"
        },
        {
            "bufferView" : 11,
            "componentType" : 5123,
            "count" : 3876,
            "type" : "SCALAR"
        },
        {
            "bufferView" : 12,
            "componentType" : 5126,
            "count" : 200,
            "max" : [
                0.892238974571228,
                0.054442886263132095,
                0.9835237860679626
            ],
            "min" : [
                -0.9909301400184631,
                -0.0038402825593948364,
                -0.9633162617683411
            ],
            "type" : "VEC3"
        },
        {
            "bufferView" : 13,
            "componentType" : 5126,
            "count" : 200,
            "type" : "VEC3"
        },
        {
            "bufferView" : 14,
            "componentType" : 5126,
            "count" : 200,
            "type" : "VEC2"
        },
        {
            "bufferView" : 15,
            "componentType" : 5123,
            "count" : 300,
            "type" : "SCALAR"
        },
        {
            "bufferView" : 16,
            "componentType" : 5126,
            "count" : 1152,
            "max" : [
                0.564316987991333,
                0.142246276140213,
                0.42442792654037476
            ],
            "min" : [
                -0.7319808006286621,
                -0.07117423415184021,
                -0.9408508539199829
            ],
            "type" : "VEC3"
        },
        {
            "bufferView" : 17,
            "componentType" : 5126,
            "count" : 1152,
            "type" : "VEC3"
        },
        {
            "bufferView" : 18,
            "componentType" : 5126,
            "count" : 1152,
            "type" : "VEC2"
        },
        {
            "bufferView" : 19,
            "componentType" : 5123,
            "count" : 2112,
            "type" : "SCALAR"
        },
        {
            "bufferView" : 20,
            "componentType" : 5126,
            "count" : 3064,
            "max" : [
                0.8912544250488281,
                0.5859331488609314,
                0.9658039212226868
            ],
            "min" : [
                -0.9431526064872742,
                0.154684379696846,
                -0.7823306322097778
            ],
            "type" : "VEC3"
        },
        {
            "bufferView" : 21,
            "componentType" : 5126,
            "count" : 3064,
            "type" : "VEC3"
        },
        {
            "bufferView" : 22,
            "componentType" : 5126,
            "count" : 3064,
            "type" : "VEC2"
        },
        {
            "bufferView" : 23,
            "componentType" : 5123,
            "count" : 4596,
            "type" : "SCALAR"
        },
        {
            "bufferView" : 24,
            "componentType" : 5126,
            "count" : 1200,
            "max" : [
                0.6474262475967407,
                0.19871576130390167,
                0.7745531797409058
            ],
            "min" : [
                -0.7826598882675171,
                0.154684379696846,
                -0.7823306918144226
            ],
            "type" : "VEC3"
        },
        {
            "bufferView" : 25,
            "componentType" : 5126,
            "count" : 1200,
            "type" : "VEC3"
        },
        {
            "bufferView" : 26,
            "componentType" : 5126,
            "count" : 1200,
            "type" : "VEC2"
        },
        {
            "bufferView" : 27,
            "componentType" : 5123,
            "count" : 1800,
            "type" : "SCALAR"
        },
        {
            "bufferView" : 28,
            "componentType" : 5126,
            "count" : 2408,
            "max" : [
                0.6474262475967407,
                0.5859331488609314,
                0.7745531797409058
            ],
            "min" : [
                -0.9693973064422607,
                0.154684379696846,
                -0.9554640650749207
            ],
            "type" : "VEC3"
        },
        {
            "bufferView" : 29,
            "componentType" : 5126,
            "count" : 2408,
            "type" : "VEC3"
        },
        {
            "bufferView" : 30,
            "componentType" : 5126,
            "count" : 2408,
            "type" : "VEC2"
        },
        {
            "bufferView" : 31,
            "componentType" : 5123,
            "count" : 3612,
            "type" : "SCALAR"
        }
    ],
    "bufferViews" : [
        {
            "buffer" : 0,
            "byteLength" : 98568,
            "byteOffset" : 0
        },
        {
            "buffer" : 0,
            "byteLength" : 98568,
            "byteOffset" : 98568
        },
        {
            "buffer" : 0,
            "byteLength" : 65712,
            "byteOffset" : 197136
        },
        {
            "buffer" : 0,
            "byteLength" : 24648,
            "byteOffset" : 262848
        },
        {
            "buffer" : 0,
            "byteLength" : 109152,
            "byteOffset" : 287496
        },
        {
            "buffer" : 0,
            "byteLength" : 109152,
            "byteOffset" : 396648
        },
        {
            "buffer" : 0,
            "byteLength" : 72768,
            "byteOffset" : 505800
        },
        {
            "buffer" : 0,
            "byteLength" : 27744,
            "byteOffset" : 578568
        },
        {
            "buffer" : 0,
            "byteLength" : 30984,
            "byteOffset" : 606312
        },
        {
            "buffer" : 0,
            "byteLength" : 30984,
            "byteOffset" : 637296
        },
        {
            "buffer" : 0,
            "byteLength" : 20656,
            "byteOffset" : 668280
        },
        {
            "buffer" : 0,
            "byteLength" : 7752,
            "byteOffset" : 688936
        },
        {
            "buffer" : 0,
            "byteLength" : 2400,
            "byteOffset" : 696688
        },
        {
            "buffer" : 0,
            "byteLength" : 2400,
            "byteOffset" : 699088
        },
        {
            "buffer" : 0,
            "byteLength" : 1600,
            "byteOffset" : 701488
        },
        {
            "buffer" : 0,
            "byteLength" : 600,
            "byteOffset" : 703088
        },
        {
            "buffer" : 0,
            "byteLength" : 13824,
            "byteOffset" : 703688
        },
        {
            "buffer" : 0,
            "byteLength" : 13824,
            "byteOffset" : 717512
        },
        {
            "buffer" : 0,
            "byteLength" : 9216,
            "byteOffset" : 731336
        },
        {
            "buffer" : 0,
            "byteLength" : 4224,
            "byteOffset" : 740552
        },
        {
            "buffer" : 0,
            "byteLength" : 36768,
            "byteOffset" : 744776
        },
        {
            "buffer" : 0,
            "byteLength" : 36768,
            "byteOffset" : 781544
        },
        {
            "buffer" : 0,
            "byteLength" : 24512,
            "byteOffset" : 818312
        },
        {
            "buffer" : 0,
            "byteLength" : 9192,
            "byteOffset" : 842824
        },
        {
            "buffer" : 0,
            "byteLength" : 14400,
            "byteOffset" : 852016
        },
        {
            "buffer" : 0,
            "byteLength" : 14400,
            "byteOffset" : 866416
        },
        {
            "buffer" : 0,
            "byteLength" : 9600,
            "byteOffset" : 880816
        },
        {
            "buffer" : 0,
            "byteLength" : 3600,
            "byteOffset" : 890416
        },
        {
            "buffer" : 0,
            "byteLength" : 28896,
            "byteOffset" : 894016
        },
        {
            "buffer" : 0,
            "byteLength" : 28896,
            "byteOffset" : 922912
        },
        {
            "buffer" : 0,
            "byteLength" : 19264,
            "byteOffset" : 951808
        },
        {
            "buffer" : 0,
            "byteLength" : 7224,
            "byteOffset" : 971072
        }
    ],
    "buffers" : [
        {
            "byteLength" : 978296,
            "uri" : "data:application/octet-stream;base64,"
        }
    ]
}
