{
    "asset" : {
        "generator" : "Khronos glTF Blender I/O v1.7.33",
        "version" : "2.0"
    },
    "scene" : 0,
    "scenes" : [
        {
            "name" : "Scene",
            "nodes" : [
                0
            ]
        }
    ],
    "nodes" : [
        {
            "mesh" : 0,
            "name" : "Market_SecondAge_Level2"
        }
    ],
    "materials" : [
        {
            "doubleSided" : true,
            "name" : "Wood_Light",
            "pbrMetallicRoughness" : {
                "baseColorFactor" : [
                    0.3757452964782715,
                    0.24318844079971313,
                    0.09746062755584717,
                    1
                ],
                "metallicFactor" : 0,
                "roughnessFactor" : 0.5
            }
        },
        {
            "doubleSided" : true,
            "name" : "Wood",
            "pbrMetallicRoughness" : {
                "baseColorFactor" : [
                    0.24618732929229736,
                    0.14435896277427673,
                    0.053798429667949677,
                    1
                ],
                "metallicFactor" : 0,
                "roughnessFactor" : 0.5
            }
        },
        {
            "doubleSided" : true,
            "name" : "Metal_Light",
            "pbrMetallicRoughness" : {
                "baseColorFactor" : [
                    0.19017364084720612,
                    0.19017364084720612,
                    0.19017364084720612,
                    1
                ],
                "metallicFactor" : 0,
                "roughnessFactor" : 0.5
            }
        },
        {
            "doubleSided" : true,
            "name" : "Green",
            "pbrMetallicRoughness" : {
                "baseColorFactor" : [
                    0.09404914081096649,
                    0.1788560301065445,
                    0.012008205987513065,
                    1
                ],
                "metallicFactor" : 0,
                "roughnessFactor" : 0.5
            }
        },
        {
            "doubleSided" : true,
            "name" : "Stone",
            "pbrMetallicRoughness" : {
                "baseColorFactor" : [
                    0.24436430633068085,
                    0.24618881940841675,
                    0.21545054018497467,
                    1
                ],
                "metallicFactor" : 0,
                "roughnessFactor" : 0.5
            }
        },
        {
            "doubleSided" : true,
            "name" : "Yellow",
            "pbrMetallicRoughness" : {
                "baseColorFactor" : [
                    0.38437071442604065,
                    0.3622293174266815,
                    0.011554597876966,
                    1
                ],
                "metallicFactor" : 0,
                "roughnessFactor" : 0.5
            }
        },
        {
            "doubleSided" : true,
            "name" : "Red",
            "pbrMetallicRoughness" : {
                "baseColorFactor" : [
                    0.28100141882896423,
                    0.005420661997050047,
                    0.0022358763962984085,
                    1
                ],
                "metallicFactor" : 0,
                "roughnessFactor" : 0.5
            }
        },
        {
            "doubleSided" : true,
            "name" : "Gold",
            "pbrMetallicRoughness" : {
                "baseColorFactor" : [
                    0.3843711018562317,
                    0.22474361956119537,
                    0.05112964287400246,
                    1
                ],
                "metallicFactor" : 0,
                "roughnessFactor" : 0.5
            }
        }
    ],
    "meshes" : [
        {
            "name" : "Cube.148",
            "primitives" : [
                {
                    "attributes" : {
                        "POSITION" : 0,
                        "NORMAL" : 1,
                        "TEXCOORD_0" : 2
                    },
                    "indices" : 3,
                    "material" : 0
                },
                {
                    "attributes" : {
                        "POSITION" : 4,
                        "NORMAL" : 5,
                        "TEXCOORD_0" : 6
                    },
                    "indices" : 7,
                    "material" : 1
                },
                {
                    "attributes" : {
                        "POSITION" : 8,
                        "NORMAL" : 9,
                        "TEXCOORD_0" : 10
                    },
                    "indices" : 11,
                    "material" : 2
                },
                {
                    "attributes" : {
                        "POSITION" : 12,
                        "NORMAL" : 13,
                        "TEXCOORD_0" : 14
                    },
                    "indices" : 15,
                    "material" : 3
                },
                {
                    "attributes" : {
                        "POSITION" : 16,
                        "NORMAL" : 17,
                        "TEXCOORD_0" : 18
                    },
                    "indices" : 19,
                    "material" : 4
                },
                {
                    "attributes" : {
                        "POSITION" : 20,
                        "NORMAL" : 21,
                        "TEXCOORD_0" : 22
                    },
                    "indices" : 23,
                    "material" : 5
                },
                {
                    "attributes" : {
                        "POSITION" : 24,
                        "NORMAL" : 25,
                        "TEXCOORD_0" : 26
                    },
                    "indices" : 27,
                    "material" : 6
                },
                {
                    "attributes" : {
                        "POSITION" : 28,
                        "NORMAL" : 29,
                        "TEXCOORD_0" : 30
                    },
                    "indices" : 31,
                    "material" : 7
                }
            ]
        }
    ],
    "accessors" : [
        {
            "bufferView" : 0,
            "componentType" : 5126,
            "count" : 4710,
            "max" : [
                0.8731313943862915,
                0.26637929677963257,
                1.0238174200057983
            ],
            "min" : [
                -0.9535082578659058,
                -0.003471359610557556,
                -0.8885821104049683
            ],
            "type" : "VEC3"
        },
        {
            "bufferView" : 1,
            "componentType" : 5126,
            "count" : 4710,
            "type" : "VEC3"
        },
        {
            "bufferView" : 2,
            "componentType" : 5126,
            "count" : 4710,
            "type" : "VEC2"
        },
        {
            "bufferView" : 3,
            "componentType" : 5123,
            "count" : 7068,
            "type" : "SCALAR"
        },
        {
            "bufferView" : 4,
            "componentType" : 5126,
            "count" : 5680,
            "max" : [
                0.9171371459960938,
                0.5333572626113892,
                1.030411720275879
            ],
            "min" : [
                -0.9989594221115112,
                -0.06658732891082764,
                -0.9826270937919617
            ],
            "type" : "VEC3"
        },
        {
            "bufferView" : 5,
            "componentType" : 5126,
            "count" : 5680,
            "type" : "VEC3"
        },
        {
            "bufferView" : 6,
            "componentType" : 5126,
            "count" : 5680,
            "type" : "VEC2"
        },
        {
            "bufferView" : 7,
            "componentType" : 5123,
            "count" : 8688,
            "type" : "SCALAR"
        },
        {
            "bufferView" : 8,
            "componentType" : 5126,
            "count" : 1152,
            "max" : [
                0.8555997014045715,
                0.1414947211742401,
                1.0314252376556396
            ],
            "min" : [
                -0.7706471681594849,
                -0.07117423415184021,
                -0.9372574090957642
            ],
            "type" : "VEC3"
        },
        {
            "bufferView" : 9,
            "componentType" : 5126,
            "count" : 1152,
            "type" : "VEC3"
        },
        {
            "bufferView" : 10,
            "componentType" : 5126,
            "count" : 1152,
            "type" : "VEC2"
        },
        {
            "bufferView" : 11,
            "componentType" : 5123,
            "count" : 2112,
            "type" : "SCALAR"
        },
        {
            "bufferView" : 12,
            "componentType" : 5126,
            "count" : 1336,
            "max" : [
                0.8912544250488281,
                0.5859331488609314,
                0.8728539347648621
            ],
            "min" : [
                -0.6619346141815186,
                0.1614411324262619,
                -0.7823306322097778
            ],
            "type" : "VEC3"
        },
        {
            "bufferView" : 13,
            "componentType" : 5126,
            "count" : 1336,
            "type" : "VEC3"
        },
        {
            "bufferView" : 14,
            "componentType" : 5126,
            "count" : 1336,
            "type" : "VEC2"
        },
        {
            "bufferView" : 15,
            "componentType" : 5123,
            "count" : 2004,
            "type" : "SCALAR"
        },
        {
            "bufferView" : 16,
            "componentType" : 5126,
            "count" : 120,
            "max" : [
                0.892238974571228,
                0.05444285273551941,
                0.8807061314582825
            ],
            "min" : [
                -0.9796485900878906,
                -0.0038402825593948364,
                -0.9633162617683411
            ],
            "type" : "VEC3"
        },
        {
            "bufferView" : 17,
            "componentType" : 5126,
            "count" : 120,
            "type" : "VEC3"
        },
        {
            "bufferView" : 18,
            "componentType" : 5126,
            "count" : 120,
            "type" : "VEC2"
        },
        {
            "bufferView" : 19,
            "componentType" : 5123,
            "count" : 180,
            "type" : "SCALAR"
        },
        {
            "bufferView" : 20,
            "componentType" : 5126,
            "count" : 560,
            "max" : [
                0.5997744798660278,
                0.19871576130390167,
                0.5233078002929688
            ],
            "min" : [
                -0.7826598882675171,
                0.1614411324262619,
                -0.7823306918144226
            ],
            "type" : "VEC3"
        },
        {
            "bufferView" : 21,
            "componentType" : 5126,
            "count" : 560,
            "type" : "VEC3"
        },
        {
            "bufferView" : 22,
            "componentType" : 5126,
            "count" : 560,
            "type" : "VEC2"
        },
        {
            "bufferView" : 23,
            "componentType" : 5123,
            "count" : 840,
            "type" : "SCALAR"
        },
        {
            "bufferView" : 24,
            "componentType" : 5126,
            "count" : 1928,
            "max" : [
                -0.038004931062459946,
                0.5859331488609314,
                0.2556900382041931
            ],
            "min" : [
                -0.9693973064422607,
                0.1614411324262619,
                -0.9554640650749207
            ],
            "type" : "VEC3"
        },
        {
            "bufferView" : 25,
            "componentType" : 5126,
            "count" : 1928,
            "type" : "VEC3"
        },
        {
            "bufferView" : 26,
            "componentType" : 5126,
            "count" : 1928,
            "type" : "VEC2"
        },
        {
            "bufferView" : 27,
            "componentType" : 5123,
            "count" : 2892,
            "type" : "SCALAR"
        },
        {
            "bufferView" : 28,
            "componentType" : 5126,
            "count" : 936,
            "max" : [
                -0.43894556164741516,
                0.5859331488609314,
                0.2906438708305359
            ],
            "min" : [
                -0.9717963933944702,
                0.4826279580593109,
                -0.3060551583766937
            ],
            "type" : "VEC3"
        },
        {
            "bufferView" : 29,
            "componentType" : 5126,
            "count" : 936,
            "type" : "VEC3"
        },
        {
            "bufferView" : 30,
            "componentType" : 5126,
            "count" : 936,
            "type" : "VEC2"
        },
        {
            "bufferView" : 31,
            "componentType" : 5123,
            "count" : 1404,
            "type" : "SCALAR"
        }
    ],
    "bufferViews" : [
        {
            "buffer" : 0,
            "byteLength" : 56520,
            "byteOffset" : 0
        },
        {
            "buffer" : 0,
            "byteLength" : 56520,
            "byteOffset" : 56520
        },
        {
            "buffer" : 0,
            "byteLength" : 37680,
            "byteOffset" : 113040
        },
        {
            "buffer" : 0,
            "byteLength" : 14136,
            "byteOffset" : 150720
        },
        {
            "buffer" : 0,
            "byteLength" : 68160,
            "byteOffset" : 164856
        },
        {
            "buffer" : 0,
            "byteLength" : 68160,
            "byteOffset" : 233016
        },
        {
            "buffer" : 0,
            "byteLength" : 45440,
            "byteOffset" : 301176
        },
        {
            "buffer" : 0,
            "byteLength" : 17376,
            "byteOffset" : 346616
        },
        {
            "buffer" : 0,
            "byteLength" : 13824,
            "byteOffset" : 363992
        },
        {
            "buffer" : 0,
            "byteLength" : 13824,
            "byteOffset" : 377816
        },
        {
            "buffer" : 0,
            "byteLength" : 9216,
            "byteOffset" : 391640
        },
        {
            "buffer" : 0,
            "byteLength" : 4224,
            "byteOffset" : 400856
        },
        {
            "buffer" : 0,
            "byteLength" : 16032,
            "byteOffset" : 405080
        },
        {
            "buffer" : 0,
            "byteLength" : 16032,
            "byteOffset" : 421112
        },
        {
            "buffer" : 0,
            "byteLength" : 10688,
            "byteOffset" : 437144
        },
        {
            "buffer" : 0,
            "byteLength" : 4008,
            "byteOffset" : 447832
        },
        {
            "buffer" : 0,
            "byteLength" : 1440,
            "byteOffset" : 451840
        },
        {
            "buffer" : 0,
            "byteLength" : 1440,
            "byteOffset" : 453280
        },
        {
            "buffer" : 0,
            "byteLength" : 960,
            "byteOffset" : 454720
        },
        {
            "buffer" : 0,
            "byteLength" : 360,
            "byteOffset" : 455680
        },
        {
            "buffer" : 0,
            "byteLength" : 6720,
            "byteOffset" : 456040
        },
        {
            "buffer" : 0,
            "byteLength" : 6720,
            "byteOffset" : 462760
        },
        {
            "buffer" : 0,
            "byteLength" : 4480,
            "byteOffset" : 469480
        },
        {
            "buffer" : 0,
            "byteLength" : 1680,
            "byteOffset" : 473960
        },
        {
            "buffer" : 0,
            "byteLength" : 23136,
            "byteOffset" : 475640
        },
        {
            "buffer" : 0,
            "byteLength" : 23136,
            "byteOffset" : 498776
        },
        {
            "buffer" : 0,
            "byteLength" : 15424,
            "byteOffset" : 521912
        },
        {
            "buffer" : 0,
            "byteLength" : 5784,
            "byteOffset" : 537336
        },
        {
            "buffer" : 0,
            "byteLength" : 11232,
            "byteOffset" : 543120
        },
        {
            "buffer" : 0,
            "byteLength" : 11232,
            "byteOffset" : 554352
        },
        {
            "buffer" : 0,
            "byteLength" : 7488,
            "byteOffset" : 565584
        },
        {
            "buffer" : 0,
            "byteLength" : 2808,
            "byteOffset" : 573072
        }
    ],
    "buffers" : [
        {
            "byteLength" : 575880,
            "uri" : "data:application/octet-stream;base64,"
        }
    ]
}
