{
    "asset" : {
        "generator" : "Khronos glTF Blender I/O v1.7.33",
        "version" : "2.0"
    },
    "scene" : 0,
    "scenes" : [
        {
            "name" : "Scene",
            "nodes" : [
                0
            ]
        }
    ],
    "nodes" : [
        {
            "mesh" : 0,
            "name" : "Mountain_Group_2"
        }
    ],
    "materials" : [
        {
            "doubleSided" : true,
            "name" : "Stone",
            "pbrMetallicRoughness" : {
                "baseColorFactor" : [
                    0.24436430633068085,
                    0.24618881940841675,
                    0.21545054018497467,
                    1
                ],
                "metallicFactor" : 0,
                "roughnessFactor" : 0.5
            }
        },
        {
            "doubleSided" : true,
            "name" : "Snow",
            "pbrMetallicRoughness" : {
                "baseColorFactor" : [
                    0.43521323800086975,
                    0.43853476643562317,
                    0.3826213777065277,
                    1
                ],
                "metallicFactor" : 0,
                "roughnessFactor" : 0.5
            }
        },
        {
            "doubleSided" : true,
            "name" : "Dirt",
            "pbrMetallicRoughness" : {
                "baseColorFactor" : [
                    0.09462355077266693,
                    0.07399486005306244,
                    0.028943030163645744,
                    1
                ],
                "metallicFactor" : 0,
                "roughnessFactor" : 0.5
            }
        }
    ],
    "meshes" : [
        {
            "name" : "Cube.044",
            "primitives" : [
                {
                    "attributes" : {
                        "POSITION" : 0,
                        "NORMAL" : 1
                    },
                    "indices" : 2,
                    "material" : 0
                },
                {
                    "attributes" : {
                        "POSITION" : 3,
                        "NORMAL" : 4
                    },
                    "indices" : 5,
                    "material" : 1
                },
                {
                    "attributes" : {
                        "POSITION" : 6,
                        "NORMAL" : 7
                    },
                    "indices" : 8,
                    "material" : 2
                }
            ]
        }
    ],
    "accessors" : [
        {
            "bufferView" : 0,
            "componentType" : 5126,
            "count" : 1470,
            "max" : [
                1.6652189493179321,
                2.086186170578003,
                1.3458926677703857
            ],
            "min" : [
                -1.8571510314941406,
                -0.028951937332749367,
                -0.7479251623153687
            ],
            "type" : "VEC3"
        },
        {
            "bufferView" : 1,
            "componentType" : 5126,
            "count" : 1470,
            "type" : "VEC3"
        },
        {
            "bufferView" : 2,
            "componentType" : 5123,
            "count" : 1494,
            "type" : "SCALAR"
        },
        {
            "bufferView" : 3,
            "componentType" : 5126,
            "count" : 319,
            "max" : [
                0.24420322477817535,
                2.4064955711364746,
                0.8452023267745972
            ],
            "min" : [
                -1.3085893392562866,
                0.9823570251464844,
                -0.17844928801059723
            ],
            "type" : "VEC3"
        },
        {
            "bufferView" : 4,
            "componentType" : 5126,
            "count" : 319,
            "type" : "VEC3"
        },
        {
            "bufferView" : 5,
            "componentType" : 5123,
            "count" : 327,
            "type" : "SCALAR"
        },
        {
            "bufferView" : 6,
            "componentType" : 5126,
            "count" : 308,
            "max" : [
                1.706925630569458,
                0.30770042538642883,
                1.6326916217803955
            ],
            "min" : [
                -1.8684537410736084,
                -0.03832146152853966,
                -0.8302385807037354
            ],
            "type" : "VEC3"
        },
        {
            "bufferView" : 7,
            "componentType" : 5126,
            "count" : 308,
            "type" : "VEC3"
        },
        {
            "bufferView" : 8,
            "componentType" : 5123,
            "count" : 330,
            "type" : "SCALAR"
        }
    ],
    "bufferViews" : [
        {
            "buffer" : 0,
            "byteLength" : 17640,
            "byteOffset" : 0
        },
        {
            "buffer" : 0,
            "byteLength" : 17640,
            "byteOffset" : 17640
        },
        {
            "buffer" : 0,
            "byteLength" : 2988,
            "byteOffset" : 35280
        },
        {
            "buffer" : 0,
            "byteLength" : 3828,
            "byteOffset" : 38268
        },
        {
            "buffer" : 0,
            "byteLength" : 3828,
            "byteOffset" : 42096
        },
        {
            "buffer" : 0,
            "byteLength" : 654,
            "byteOffset" : 45924
        },
        {
            "buffer" : 0,
            "byteLength" : 3696,
            "byteOffset" : 46580
        },
        {
            "buffer" : 0,
            "byteLength" : 3696,
            "byteOffset" : 50276
        },
        {
            "buffer" : 0,
            "byteLength" : 660,
            "byteOffset" : 53972
        }
    ],
    "buffers" : [
        {
            "byteLength" : 54632,
            "uri" : "data:application/octet-stream;base64,"
        }
    ]
}
