{
    "asset" : {
        "generator" : "Khronos glTF Blender I/O v1.7.33",
        "version" : "2.0"
    },
    "scene" : 0,
    "scenes" : [
        {
            "name" : "Scene",
            "nodes" : [
                0
            ]
        }
    ],
    "nodes" : [
        {
            "mesh" : 0,
            "name" : "Mountain_Group_1"
        }
    ],
    "materials" : [
        {
            "doubleSided" : true,
            "name" : "Stone",
            "pbrMetallicRoughness" : {
                "baseColorFactor" : [
                    0.24436430633068085,
                    0.24618881940841675,
                    0.21545054018497467,
                    1
                ],
                "metallicFactor" : 0,
                "roughnessFactor" : 0.5
            }
        },
        {
            "doubleSided" : true,
            "name" : "Snow",
            "pbrMetallicRoughness" : {
                "baseColorFactor" : [
                    0.43521323800086975,
                    0.43853476643562317,
                    0.3826213777065277,
                    1
                ],
                "metallicFactor" : 0,
                "roughnessFactor" : 0.5
            }
        },
        {
            "doubleSided" : true,
            "name" : "Dirt",
            "pbrMetallicRoughness" : {
                "baseColorFactor" : [
                    0.09462355077266693,
                    0.07399486005306244,
                    0.028943030163645744,
                    1
                ],
                "metallicFactor" : 0,
                "roughnessFactor" : 0.5
            }
        }
    ],
    "meshes" : [
        {
            "name" : "Cube.039",
            "primitives" : [
                {
                    "attributes" : {
                        "POSITION" : 0,
                        "NORMAL" : 1
                    },
                    "indices" : 2,
                    "material" : 0
                },
                {
                    "attributes" : {
                        "POSITION" : 3,
                        "NORMAL" : 4
                    },
                    "indices" : 5,
                    "material" : 1
                },
                {
                    "attributes" : {
                        "POSITION" : 6,
                        "NORMAL" : 7
                    },
                    "indices" : 8,
                    "material" : 2
                }
            ]
        }
    ],
    "accessors" : [
        {
            "bufferView" : 0,
            "componentType" : 5126,
            "count" : 3862,
            "max" : [
                2.1389572620391846,
                2.0506181716918945,
                1.5542011260986328
            ],
            "min" : [
                -2.3874361515045166,
                -0.0385645255446434,
                -2.0098695755004883
            ],
            "type" : "VEC3"
        },
        {
            "bufferView" : 1,
            "componentType" : 5126,
            "count" : 3862,
            "type" : "VEC3"
        },
        {
            "bufferView" : 2,
            "componentType" : 5123,
            "count" : 4002,
            "type" : "SCALAR"
        },
        {
            "bufferView" : 3,
            "componentType" : 5126,
            "count" : 958,
            "max" : [
                1.154964566230774,
                2.408458948135376,
                1.0582841634750366
            ],
            "min" : [
                -1.709071159362793,
                0.8931499719619751,
                -1.6626330614089966
            ],
            "type" : "VEC3"
        },
        {
            "bufferView" : 4,
            "componentType" : 5126,
            "count" : 958,
            "type" : "VEC3"
        },
        {
            "bufferView" : 5,
            "componentType" : 5123,
            "count" : 1002,
            "type" : "SCALAR"
        },
        {
            "bufferView" : 6,
            "componentType" : 5126,
            "count" : 954,
            "max" : [
                2.140108823776245,
                0.5829616785049438,
                1.7168220281600952
            ],
            "min" : [
                -2.451241970062256,
                -0.07902485877275467,
                -2.126802682876587
            ],
            "type" : "VEC3"
        },
        {
            "bufferView" : 7,
            "componentType" : 5126,
            "count" : 954,
            "type" : "VEC3"
        },
        {
            "bufferView" : 8,
            "componentType" : 5123,
            "count" : 1020,
            "type" : "SCALAR"
        }
    ],
    "bufferViews" : [
        {
            "buffer" : 0,
            "byteLength" : 46344,
            "byteOffset" : 0
        },
        {
            "buffer" : 0,
            "byteLength" : 46344,
            "byteOffset" : 46344
        },
        {
            "buffer" : 0,
            "byteLength" : 8004,
            "byteOffset" : 92688
        },
        {
            "buffer" : 0,
            "byteLength" : 11496,
            "byteOffset" : 100692
        },
        {
            "buffer" : 0,
            "byteLength" : 11496,
            "byteOffset" : 112188
        },
        {
            "buffer" : 0,
            "byteLength" : 2004,
            "byteOffset" : 123684
        },
        {
            "buffer" : 0,
            "byteLength" : 11448,
            "byteOffset" : 125688
        },
        {
            "buffer" : 0,
            "byteLength" : 11448,
            "byteOffset" : 137136
        },
        {
            "buffer" : 0,
            "byteLength" : 2040,
            "byteOffset" : 148584
        }
    ],
    "buffers" : [
        {
            "byteLength" : 150624,
            "uri" : "data:application/octet-stream;base64,"
        }
    ]
}
