{
    "asset" : {
        "generator" : "Khronos glTF Blender I/O v1.7.33",
        "version" : "2.0"
    },
    "scene" : 0,
    "scenes" : [
        {
            "name" : "Scene",
            "nodes" : [
                0
            ]
        }
    ],
    "nodes" : [
        {
            "mesh" : 0,
            "name" : "Port_SecondAge_Level3"
        }
    ],
    "materials" : [
        {
            "doubleSided" : true,
            "name" : "Wood_Light",
            "pbrMetallicRoughness" : {
                "baseColorFactor" : [
                    0.3757452964782715,
                    0.24318844079971313,
                    0.09746062755584717,
                    1
                ],
                "metallicFactor" : 0,
                "roughnessFactor" : 0.5
            }
        },
        {
            "doubleSided" : true,
            "name" : "Wood",
            "pbrMetallicRoughness" : {
                "baseColorFactor" : [
                    0.24618732929229736,
                    0.14435896277427673,
                    0.053798429667949677,
                    1
                ],
                "metallicFactor" : 0,
                "roughnessFactor" : 0.5
            }
        },
        {
            "doubleSided" : true,
            "name" : "Main",
            "pbrMetallicRoughness" : {
                "baseColorFactor" : [
                    0.4385380148887634,
                    0.09992149472236633,
                    0.05885644257068634,
                    1
                ],
                "metallicFactor" : 0,
                "roughnessFactor" : 0.5
            }
        },
        {
            "doubleSided" : true,
            "name" : "Metal_Light",
            "pbrMetallicRoughness" : {
                "baseColorFactor" : [
                    0.19017364084720612,
                    0.19017364084720612,
                    0.19017364084720612,
                    1
                ],
                "metallicFactor" : 0,
                "roughnessFactor" : 0.5
            }
        },
        {
            "doubleSided" : true,
            "name" : "White",
            "pbrMetallicRoughness" : {
                "baseColorFactor" : [
                    0.4868917763233185,
                    0.4868917763233185,
                    0.4868917763233185,
                    1
                ],
                "metallicFactor" : 0,
                "roughnessFactor" : 0.5
            }
        },
        {
            "doubleSided" : true,
            "name" : "Fabric",
            "pbrMetallicRoughness" : {
                "baseColorFactor" : [
                    0.4575270116329193,
                    0.30435046553611755,
                    0.09043647348880768,
                    1
                ],
                "metallicFactor" : 0,
                "roughnessFactor" : 0.5
            }
        },
        {
            "doubleSided" : true,
            "name" : "Walls",
            "pbrMetallicRoughness" : {
                "baseColorFactor" : [
                    0.4352165758609772,
                    0.4385380148887634,
                    0.3826240599155426,
                    1
                ],
                "metallicFactor" : 0,
                "roughnessFactor" : 0.5
            }
        },
        {
            "doubleSided" : true,
            "name" : "Stone",
            "pbrMetallicRoughness" : {
                "baseColorFactor" : [
                    0.24436430633068085,
                    0.24618881940841675,
                    0.21545054018497467,
                    1
                ],
                "metallicFactor" : 0,
                "roughnessFactor" : 0.5
            }
        },
        {
            "doubleSided" : true,
            "name" : "Stone_Light",
            "pbrMetallicRoughness" : {
                "baseColorFactor" : [
                    0.454056978225708,
                    0.4575270116329193,
                    0.3991142511367798,
                    1
                ],
                "metallicFactor" : 0,
                "roughnessFactor" : 0.5
            }
        }
    ],
    "meshes" : [
        {
            "name" : "Cube.308",
            "primitives" : [
                {
                    "attributes" : {
                        "POSITION" : 0,
                        "NORMAL" : 1,
                        "TEXCOORD_0" : 2
                    },
                    "indices" : 3,
                    "material" : 0
                },
                {
                    "attributes" : {
                        "POSITION" : 4,
                        "NORMAL" : 5,
                        "TEXCOORD_0" : 6
                    },
                    "indices" : 7,
                    "material" : 1
                },
                {
                    "attributes" : {
                        "POSITION" : 8,
                        "NORMAL" : 9,
                        "TEXCOORD_0" : 10
                    },
                    "indices" : 11,
                    "material" : 2
                },
                {
                    "attributes" : {
                        "POSITION" : 12,
                        "NORMAL" : 13,
                        "TEXCOORD_0" : 14
                    },
                    "indices" : 15,
                    "material" : 3
                },
                {
                    "attributes" : {
                        "POSITION" : 16,
                        "NORMAL" : 17,
                        "TEXCOORD_0" : 18
                    },
                    "indices" : 19,
                    "material" : 4
                },
                {
                    "attributes" : {
                        "POSITION" : 20,
                        "NORMAL" : 21,
                        "TEXCOORD_0" : 22
                    },
                    "indices" : 23,
                    "material" : 5
                },
                {
                    "attributes" : {
                        "POSITION" : 24,
                        "NORMAL" : 25,
                        "TEXCOORD_0" : 26
                    },
                    "indices" : 27,
                    "material" : 6
                },
                {
                    "attributes" : {
                        "POSITION" : 28,
                        "NORMAL" : 29,
                        "TEXCOORD_0" : 30
                    },
                    "indices" : 31,
                    "material" : 7
                },
                {
                    "attributes" : {
                        "POSITION" : 32,
                        "NORMAL" : 33,
                        "TEXCOORD_0" : 34
                    },
                    "indices" : 35,
                    "material" : 8
                }
            ]
        }
    ],
    "accessors" : [
        {
            "bufferView" : 0,
            "componentType" : 5126,
            "count" : 1368,
            "max" : [
                1.1700295209884644,
                1.1645127534866333,
                1.8277292251586914
            ],
            "min" : [
                -1.4937525987625122,
                -0.025795653462409973,
                -1.0498027801513672
            ],
            "type" : "VEC3"
        },
        {
            "bufferView" : 1,
            "componentType" : 5126,
            "count" : 1368,
            "type" : "VEC3"
        },
        {
            "bufferView" : 2,
            "componentType" : 5126,
            "count" : 1368,
            "type" : "VEC2"
        },
        {
            "bufferView" : 3,
            "componentType" : 5123,
            "count" : 2052,
            "type" : "SCALAR"
        },
        {
            "bufferView" : 4,
            "componentType" : 5126,
            "count" : 4746,
            "max" : [
                1.1700295209884644,
                1.2069995403289795,
                1.8277292251586914
            ],
            "min" : [
                -1.4937525987625122,
                -0.4190332591533661,
                -1.0498027801513672
            ],
            "type" : "VEC3"
        },
        {
            "bufferView" : 5,
            "componentType" : 5126,
            "count" : 4746,
            "type" : "VEC3"
        },
        {
            "bufferView" : 6,
            "componentType" : 5126,
            "count" : 4746,
            "type" : "VEC2"
        },
        {
            "bufferView" : 7,
            "componentType" : 5123,
            "count" : 8214,
            "type" : "SCALAR"
        },
        {
            "bufferView" : 8,
            "componentType" : 5126,
            "count" : 2952,
            "max" : [
                1.1079847812652588,
                0.8317888379096985,
                -0.030497293919324875
            ],
            "min" : [
                0.09212431311607361,
                0.38801902532577515,
                -0.9618896842002869
            ],
            "type" : "VEC3"
        },
        {
            "bufferView" : 9,
            "componentType" : 5126,
            "count" : 2952,
            "type" : "VEC3"
        },
        {
            "bufferView" : 10,
            "componentType" : 5126,
            "count" : 2952,
            "type" : "VEC2"
        },
        {
            "bufferView" : 11,
            "componentType" : 5123,
            "count" : 6156,
            "type" : "SCALAR"
        },
        {
            "bufferView" : 12,
            "componentType" : 5126,
            "count" : 1440,
            "max" : [
                1.1099164485931396,
                0.5690511465072632,
                0.23287969827651978
            ],
            "min" : [
                -0.05543327331542969,
                0.01037319004535675,
                -0.9270582795143127
            ],
            "type" : "VEC3"
        },
        {
            "bufferView" : 13,
            "componentType" : 5126,
            "count" : 1440,
            "type" : "VEC3"
        },
        {
            "bufferView" : 14,
            "componentType" : 5126,
            "count" : 1440,
            "type" : "VEC2"
        },
        {
            "bufferView" : 15,
            "componentType" : 5123,
            "count" : 2640,
            "type" : "SCALAR"
        },
        {
            "bufferView" : 16,
            "componentType" : 5126,
            "count" : 1036,
            "max" : [
                1.1459827423095703,
                0.11391110718250275,
                1.6740696430206299
            ],
            "min" : [
                -1.4303690195083618,
                0.06073551997542381,
                -1.0409679412841797
            ],
            "type" : "VEC3"
        },
        {
            "bufferView" : 17,
            "componentType" : 5126,
            "count" : 1036,
            "type" : "VEC3"
        },
        {
            "bufferView" : 18,
            "componentType" : 5126,
            "count" : 1036,
            "type" : "VEC2"
        },
        {
            "bufferView" : 19,
            "componentType" : 5123,
            "count" : 1728,
            "type" : "SCALAR"
        },
        {
            "bufferView" : 20,
            "componentType" : 5126,
            "count" : 1920,
            "max" : [
                0.6236990094184875,
                0.48640716075897217,
                -0.24106478691101074
            ],
            "min" : [
                0.1642770767211914,
                0.422656774520874,
                -0.5161883234977722
            ],
            "type" : "VEC3"
        },
        {
            "bufferView" : 21,
            "componentType" : 5126,
            "count" : 1920,
            "type" : "VEC3"
        },
        {
            "bufferView" : 22,
            "componentType" : 5126,
            "count" : 1920,
            "type" : "VEC2"
        },
        {
            "bufferView" : 23,
            "componentType" : 5123,
            "count" : 2880,
            "type" : "SCALAR"
        },
        {
            "bufferView" : 24,
            "componentType" : 5126,
            "count" : 32,
            "max" : [
                1.0931634902954102,
                0.4028679132461548,
                -0.04782162234187126
            ],
            "min" : [
                0.08696673810482025,
                0.055712975561618805,
                -0.9445652961730957
            ],
            "type" : "VEC3"
        },
        {
            "bufferView" : 25,
            "componentType" : 5126,
            "count" : 32,
            "type" : "VEC3"
        },
        {
            "bufferView" : 26,
            "componentType" : 5126,
            "count" : 32,
            "type" : "VEC2"
        },
        {
            "bufferView" : 27,
            "componentType" : 5123,
            "count" : 48,
            "type" : "SCALAR"
        },
        {
            "bufferView" : 28,
            "componentType" : 5126,
            "count" : 40,
            "max" : [
                1.1151037216186523,
                0.3284040093421936,
                -0.029512625187635422
            ],
            "min" : [
                0.06502650678157806,
                0.001531012705527246,
                -0.9628742933273315
            ],
            "type" : "VEC3"
        },
        {
            "bufferView" : 29,
            "componentType" : 5126,
            "count" : 40,
            "type" : "VEC3"
        },
        {
            "bufferView" : 30,
            "componentType" : 5126,
            "count" : 40,
            "type" : "VEC2"
        },
        {
            "bufferView" : 31,
            "componentType" : 5123,
            "count" : 60,
            "type" : "SCALAR"
        },
        {
            "bufferView" : 32,
            "componentType" : 5126,
            "count" : 1272,
            "max" : [
                1.1210144758224487,
                0.33720844984054565,
                -0.0230210330337286
            ],
            "min" : [
                0.056595515459775925,
                -0.0004960009828209877,
                -0.9703316688537598
            ],
            "type" : "VEC3"
        },
        {
            "bufferView" : 33,
            "componentType" : 5126,
            "count" : 1272,
            "type" : "VEC3"
        },
        {
            "bufferView" : 34,
            "componentType" : 5126,
            "count" : 1272,
            "type" : "VEC2"
        },
        {
            "bufferView" : 35,
            "componentType" : 5123,
            "count" : 1908,
            "type" : "SCALAR"
        }
    ],
    "bufferViews" : [
        {
            "buffer" : 0,
            "byteLength" : 16416,
            "byteOffset" : 0
        },
        {
            "buffer" : 0,
            "byteLength" : 16416,
            "byteOffset" : 16416
        },
        {
            "buffer" : 0,
            "byteLength" : 10944,
            "byteOffset" : 32832
        },
        {
            "buffer" : 0,
            "byteLength" : 4104,
            "byteOffset" : 43776
        },
        {
            "buffer" : 0,
            "byteLength" : 56952,
            "byteOffset" : 47880
        },
        {
            "buffer" : 0,
            "byteLength" : 56952,
            "byteOffset" : 104832
        },
        {
            "buffer" : 0,
            "byteLength" : 37968,
            "byteOffset" : 161784
        },
        {
            "buffer" : 0,
            "byteLength" : 16428,
            "byteOffset" : 199752
        },
        {
            "buffer" : 0,
            "byteLength" : 35424,
            "byteOffset" : 216180
        },
        {
            "buffer" : 0,
            "byteLength" : 35424,
            "byteOffset" : 251604
        },
        {
            "buffer" : 0,
            "byteLength" : 23616,
            "byteOffset" : 287028
        },
        {
            "buffer" : 0,
            "byteLength" : 12312,
            "byteOffset" : 310644
        },
        {
            "buffer" : 0,
            "byteLength" : 17280,
            "byteOffset" : 322956
        },
        {
            "buffer" : 0,
            "byteLength" : 17280,
            "byteOffset" : 340236
        },
        {
            "buffer" : 0,
            "byteLength" : 11520,
            "byteOffset" : 357516
        },
        {
            "buffer" : 0,
            "byteLength" : 5280,
            "byteOffset" : 369036
        },
        {
            "buffer" : 0,
            "byteLength" : 12432,
            "byteOffset" : 374316
        },
        {
            "buffer" : 0,
            "byteLength" : 12432,
            "byteOffset" : 386748
        },
        {
            "buffer" : 0,
            "byteLength" : 8288,
            "byteOffset" : 399180
        },
        {
            "buffer" : 0,
            "byteLength" : 3456,
            "byteOffset" : 407468
        },
        {
            "buffer" : 0,
            "byteLength" : 23040,
            "byteOffset" : 410924
        },
        {
            "buffer" : 0,
            "byteLength" : 23040,
            "byteOffset" : 433964
        },
        {
            "buffer" : 0,
            "byteLength" : 15360,
            "byteOffset" : 457004
        },
        {
            "buffer" : 0,
            "byteLength" : 5760,
            "byteOffset" : 472364
        },
        {
            "buffer" : 0,
            "byteLength" : 384,
            "byteOffset" : 478124
        },
        {
            "buffer" : 0,
            "byteLength" : 384,
            "byteOffset" : 478508
        },
        {
            "buffer" : 0,
            "byteLength" : 256,
            "byteOffset" : 478892
        },
        {
            "buffer" : 0,
            "byteLength" : 96,
            "byteOffset" : 479148
        },
        {
            "buffer" : 0,
            "byteLength" : 480,
            "byteOffset" : 479244
        },
        {
            "buffer" : 0,
            "byteLength" : 480,
            "byteOffset" : 479724
        },
        {
            "buffer" : 0,
            "byteLength" : 320,
            "byteOffset" : 480204
        },
        {
            "buffer" : 0,
            "byteLength" : 120,
            "byteOffset" : 480524
        },
        {
            "buffer" : 0,
            "byteLength" : 15264,
            "byteOffset" : 480644
        },
        {
            "buffer" : 0,
            "byteLength" : 15264,
            "byteOffset" : 495908
        },
        {
            "buffer" : 0,
            "byteLength" : 10176,
            "byteOffset" : 511172
        },
        {
            "buffer" : 0,
            "byteLength" : 3816,
            "byteOffset" : 521348
        }
    ],
    "buffers" : [
        {
            "byteLength" : 525164,
            "uri" : "data:application/octet-stream;base64,"
        }
    ]
}
