{
    "asset" : {
        "generator" : "Khronos glTF Blender I/O v1.7.33",
        "version" : "2.0"
    },
    "scene" : 0,
    "scenes" : [
        {
            "name" : "Scene",
            "nodes" : [
                0
            ]
        }
    ],
    "nodes" : [
        {
            "mesh" : 0,
            "name" : "Port_FirstAge_Level3"
        }
    ],
    "materials" : [
        {
            "doubleSided" : true,
            "name" : "Wood",
            "pbrMetallicRoughness" : {
                "baseColorFactor" : [
                    0.24618732929229736,
                    0.14435896277427673,
                    0.053798429667949677,
                    1
                ],
                "metallicFactor" : 0,
                "roughnessFactor" : 0.5
            }
        },
        {
            "doubleSided" : true,
            "name" : "Wood_Light",
            "pbrMetallicRoughness" : {
                "baseColorFactor" : [
                    0.3757452964782715,
                    0.24318844079971313,
                    0.09746062755584717,
                    1
                ],
                "metallicFactor" : 0,
                "roughnessFactor" : 0.5
            }
        },
        {
            "doubleSided" : true,
            "name" : "Metal_Light",
            "pbrMetallicRoughness" : {
                "baseColorFactor" : [
                    0.19017364084720612,
                    0.19017364084720612,
                    0.19017364084720612,
                    1
                ],
                "metallicFactor" : 0,
                "roughnessFactor" : 0.5
            }
        },
        {
            "doubleSided" : true,
            "name" : "Fabric",
            "pbrMetallicRoughness" : {
                "baseColorFactor" : [
                    0.4575270116329193,
                    0.30435046553611755,
                    0.09043647348880768,
                    1
                ],
                "metallicFactor" : 0,
                "roughnessFactor" : 0.5
            }
        }
    ],
    "meshes" : [
        {
            "name" : "Cube.302",
            "primitives" : [
                {
                    "attributes" : {
                        "POSITION" : 0,
                        "NORMAL" : 1,
                        "TEXCOORD_0" : 2
                    },
                    "indices" : 3,
                    "material" : 0
                },
                {
                    "attributes" : {
                        "POSITION" : 4,
                        "NORMAL" : 5,
                        "TEXCOORD_0" : 6
                    },
                    "indices" : 7,
                    "material" : 1
                },
                {
                    "attributes" : {
                        "POSITION" : 8,
                        "NORMAL" : 9,
                        "TEXCOORD_0" : 10
                    },
                    "indices" : 11,
                    "material" : 2
                },
                {
                    "attributes" : {
                        "POSITION" : 12,
                        "NORMAL" : 13,
                        "TEXCOORD_0" : 14
                    },
                    "indices" : 15,
                    "material" : 3
                }
            ]
        }
    ],
    "accessors" : [
        {
            "bufferView" : 0,
            "componentType" : 5126,
            "count" : 2796,
            "max" : [
                1.1700295209884644,
                0.5716527700424194,
                0.9306192994117737
            ],
            "min" : [
                -0.6739717125892639,
                -0.4190332591533661,
                -1.0508723258972168
            ],
            "type" : "VEC3"
        },
        {
            "bufferView" : 1,
            "componentType" : 5126,
            "count" : 2796,
            "type" : "VEC3"
        },
        {
            "bufferView" : 2,
            "componentType" : 5126,
            "count" : 2796,
            "type" : "VEC2"
        },
        {
            "bufferView" : 3,
            "componentType" : 5123,
            "count" : 5118,
            "type" : "SCALAR"
        },
        {
            "bufferView" : 4,
            "componentType" : 5126,
            "count" : 988,
            "max" : [
                1.1700295209884644,
                0.5716527700424194,
                0.9306192994117737
            ],
            "min" : [
                -0.6739717125892639,
                -0.02579565718770027,
                -1.0508723258972168
            ],
            "type" : "VEC3"
        },
        {
            "bufferView" : 5,
            "componentType" : 5126,
            "count" : 988,
            "type" : "VEC3"
        },
        {
            "bufferView" : 6,
            "componentType" : 5126,
            "count" : 988,
            "type" : "VEC2"
        },
        {
            "bufferView" : 7,
            "componentType" : 5123,
            "count" : 1482,
            "type" : "SCALAR"
        },
        {
            "bufferView" : 8,
            "componentType" : 5126,
            "count" : 288,
            "max" : [
                1.0908280611038208,
                0.15272164344787598,
                -0.8438799977302551
            ],
            "min" : [
                0.9893692135810852,
                0.01037319004535675,
                -0.9453386664390564
            ],
            "type" : "VEC3"
        },
        {
            "bufferView" : 9,
            "componentType" : 5126,
            "count" : 288,
            "type" : "VEC3"
        },
        {
            "bufferView" : 10,
            "componentType" : 5126,
            "count" : 288,
            "type" : "VEC2"
        },
        {
            "bufferView" : 11,
            "componentType" : 5123,
            "count" : 528,
            "type" : "SCALAR"
        },
        {
            "bufferView" : 12,
            "componentType" : 5126,
            "count" : 1956,
            "max" : [
                1.1471021175384521,
                0.49674052000045776,
                0.7980117201805115
            ],
            "min" : [
                -0.07982081174850464,
                0.009657006710767746,
                -1.0375655889511108
            ],
            "type" : "VEC3"
        },
        {
            "bufferView" : 13,
            "componentType" : 5126,
            "count" : 1956,
            "type" : "VEC3"
        },
        {
            "bufferView" : 14,
            "componentType" : 5126,
            "count" : 1956,
            "type" : "VEC2"
        },
        {
            "bufferView" : 15,
            "componentType" : 5123,
            "count" : 2928,
            "type" : "SCALAR"
        }
    ],
    "bufferViews" : [
        {
            "buffer" : 0,
            "byteLength" : 33552,
            "byteOffset" : 0
        },
        {
            "buffer" : 0,
            "byteLength" : 33552,
            "byteOffset" : 33552
        },
        {
            "buffer" : 0,
            "byteLength" : 22368,
            "byteOffset" : 67104
        },
        {
            "buffer" : 0,
            "byteLength" : 10236,
            "byteOffset" : 89472
        },
        {
            "buffer" : 0,
            "byteLength" : 11856,
            "byteOffset" : 99708
        },
        {
            "buffer" : 0,
            "byteLength" : 11856,
            "byteOffset" : 111564
        },
        {
            "buffer" : 0,
            "byteLength" : 7904,
            "byteOffset" : 123420
        },
        {
            "buffer" : 0,
            "byteLength" : 2964,
            "byteOffset" : 131324
        },
        {
            "buffer" : 0,
            "byteLength" : 3456,
            "byteOffset" : 134288
        },
        {
            "buffer" : 0,
            "byteLength" : 3456,
            "byteOffset" : 137744
        },
        {
            "buffer" : 0,
            "byteLength" : 2304,
            "byteOffset" : 141200
        },
        {
            "buffer" : 0,
            "byteLength" : 1056,
            "byteOffset" : 143504
        },
        {
            "buffer" : 0,
            "byteLength" : 23472,
            "byteOffset" : 144560
        },
        {
            "buffer" : 0,
            "byteLength" : 23472,
            "byteOffset" : 168032
        },
        {
            "buffer" : 0,
            "byteLength" : 15648,
            "byteOffset" : 191504
        },
        {
            "buffer" : 0,
            "byteLength" : 5856,
            "byteOffset" : 207152
        }
    ],
    "buffers" : [
        {
            "byteLength" : 213008,
            "uri" : "data:application/octet-stream;base64,"
        }
    ]
}
