{
    "asset" : {
        "generator" : "Khronos glTF Blender I/O v1.7.33",
        "version" : "2.0"
    },
    "scene" : 0,
    "scenes" : [
        {
            "name" : "Scene",
            "nodes" : [
                0
            ]
        }
    ],
    "nodes" : [
        {
            "mesh" : 0,
            "name" : "Port_FirstAge_Level2"
        }
    ],
    "materials" : [
        {
            "doubleSided" : true,
            "name" : "Wood_Light",
            "pbrMetallicRoughness" : {
                "baseColorFactor" : [
                    0.3757452964782715,
                    0.24318844079971313,
                    0.09746062755584717,
                    1
                ],
                "metallicFactor" : 0,
                "roughnessFactor" : 0.5
            }
        },
        {
            "doubleSided" : true,
            "name" : "Wood",
            "pbrMetallicRoughness" : {
                "baseColorFactor" : [
                    0.24618732929229736,
                    0.14435896277427673,
                    0.053798429667949677,
                    1
                ],
                "metallicFactor" : 0,
                "roughnessFactor" : 0.5
            }
        },
        {
            "doubleSided" : true,
            "name" : "Fabric",
            "pbrMetallicRoughness" : {
                "baseColorFactor" : [
                    0.4575270116329193,
                    0.30435046553611755,
                    0.09043647348880768,
                    1
                ],
                "metallicFactor" : 0,
                "roughnessFactor" : 0.5
            }
        },
        {
            "doubleSided" : true,
            "name" : "Metal_Light",
            "pbrMetallicRoughness" : {
                "baseColorFactor" : [
                    0.19017364084720612,
                    0.19017364084720612,
                    0.19017364084720612,
                    1
                ],
                "metallicFactor" : 0,
                "roughnessFactor" : 0.5
            }
        }
    ],
    "meshes" : [
        {
            "name" : "Cube.300",
            "primitives" : [
                {
                    "attributes" : {
                        "POSITION" : 0,
                        "NORMAL" : 1,
                        "TEXCOORD_0" : 2
                    },
                    "indices" : 3,
                    "material" : 0
                },
                {
                    "attributes" : {
                        "POSITION" : 4,
                        "NORMAL" : 5,
                        "TEXCOORD_0" : 6
                    },
                    "indices" : 7,
                    "material" : 1
                },
                {
                    "attributes" : {
                        "POSITION" : 8,
                        "NORMAL" : 9,
                        "TEXCOORD_0" : 10
                    },
                    "indices" : 11,
                    "material" : 2
                },
                {
                    "attributes" : {
                        "POSITION" : 12,
                        "NORMAL" : 13,
                        "TEXCOORD_0" : 14
                    },
                    "indices" : 15,
                    "material" : 3
                }
            ]
        }
    ],
    "accessors" : [
        {
            "bufferView" : 0,
            "componentType" : 5126,
            "count" : 2040,
            "max" : [
                1.1700295209884644,
                0.5355402231216431,
                0.9306192994117737
            ],
            "min" : [
                -0.672306478023529,
                -0.02579565718770027,
                -1.0508723258972168
            ],
            "type" : "VEC3"
        },
        {
            "bufferView" : 1,
            "componentType" : 5126,
            "count" : 2040,
            "type" : "VEC3"
        },
        {
            "bufferView" : 2,
            "componentType" : 5126,
            "count" : 2040,
            "type" : "VEC2"
        },
        {
            "bufferView" : 3,
            "componentType" : 5123,
            "count" : 3252,
            "type" : "SCALAR"
        },
        {
            "bufferView" : 4,
            "componentType" : 5126,
            "count" : 3544,
            "max" : [
                1.1700295209884644,
                0.5367264747619629,
                0.9306192994117737
            ],
            "min" : [
                -0.6738666892051697,
                -0.4190332591533661,
                -1.0508723258972168
            ],
            "type" : "VEC3"
        },
        {
            "bufferView" : 5,
            "componentType" : 5126,
            "count" : 3544,
            "type" : "VEC3"
        },
        {
            "bufferView" : 6,
            "componentType" : 5126,
            "count" : 3544,
            "type" : "VEC2"
        },
        {
            "bufferView" : 7,
            "componentType" : 5123,
            "count" : 6240,
            "type" : "SCALAR"
        },
        {
            "bufferView" : 8,
            "componentType" : 5126,
            "count" : 1588,
            "max" : [
                1.1471021175384521,
                0.5521527528762817,
                0.7980117201805115
            ],
            "min" : [
                -0.07982081174850464,
                0.00965700764209032,
                -1.0375655889511108
            ],
            "type" : "VEC3"
        },
        {
            "bufferView" : 9,
            "componentType" : 5126,
            "count" : 1588,
            "type" : "VEC3"
        },
        {
            "bufferView" : 10,
            "componentType" : 5126,
            "count" : 1588,
            "type" : "VEC2"
        },
        {
            "bufferView" : 11,
            "componentType" : 5123,
            "count" : 2424,
            "type" : "SCALAR"
        },
        {
            "bufferView" : 12,
            "componentType" : 5126,
            "count" : 1152,
            "max" : [
                1.0181339979171753,
                0.15272164344787598,
                -0.32279953360557556
            ],
            "min" : [
                0.23101752996444702,
                0.010373192839324474,
                -0.9925675988197327
            ],
            "type" : "VEC3"
        },
        {
            "bufferView" : 13,
            "componentType" : 5126,
            "count" : 1152,
            "type" : "VEC3"
        },
        {
            "bufferView" : 14,
            "componentType" : 5126,
            "count" : 1152,
            "type" : "VEC2"
        },
        {
            "bufferView" : 15,
            "componentType" : 5123,
            "count" : 2112,
            "type" : "SCALAR"
        }
    ],
    "bufferViews" : [
        {
            "buffer" : 0,
            "byteLength" : 24480,
            "byteOffset" : 0
        },
        {
            "buffer" : 0,
            "byteLength" : 24480,
            "byteOffset" : 24480
        },
        {
            "buffer" : 0,
            "byteLength" : 16320,
            "byteOffset" : 48960
        },
        {
            "buffer" : 0,
            "byteLength" : 6504,
            "byteOffset" : 65280
        },
        {
            "buffer" : 0,
            "byteLength" : 42528,
            "byteOffset" : 71784
        },
        {
            "buffer" : 0,
            "byteLength" : 42528,
            "byteOffset" : 114312
        },
        {
            "buffer" : 0,
            "byteLength" : 28352,
            "byteOffset" : 156840
        },
        {
            "buffer" : 0,
            "byteLength" : 12480,
            "byteOffset" : 185192
        },
        {
            "buffer" : 0,
            "byteLength" : 19056,
            "byteOffset" : 197672
        },
        {
            "buffer" : 0,
            "byteLength" : 19056,
            "byteOffset" : 216728
        },
        {
            "buffer" : 0,
            "byteLength" : 12704,
            "byteOffset" : 235784
        },
        {
            "buffer" : 0,
            "byteLength" : 4848,
            "byteOffset" : 248488
        },
        {
            "buffer" : 0,
            "byteLength" : 13824,
            "byteOffset" : 253336
        },
        {
            "buffer" : 0,
            "byteLength" : 13824,
            "byteOffset" : 267160
        },
        {
            "buffer" : 0,
            "byteLength" : 9216,
            "byteOffset" : 280984
        },
        {
            "buffer" : 0,
            "byteLength" : 4224,
            "byteOffset" : 290200
        }
    ],
    "buffers" : [
        {
            "byteLength" : 294424,
            "uri" : "data:application/octet-stream;base64,"
        }
    ]
}
