{
    "asset" : {
        "generator" : "Khronos glTF Blender I/O v1.7.33",
        "version" : "2.0"
    },
    "scene" : 0,
    "scenes" : [
        {
            "name" : "Scene",
            "nodes" : [
                0
            ]
        }
    ],
    "nodes" : [
        {
            "mesh" : 0,
            "name" : "Port_FirstAge_Level1"
        }
    ],
    "materials" : [
        {
            "doubleSided" : true,
            "name" : "Wood_Light",
            "pbrMetallicRoughness" : {
                "baseColorFactor" : [
                    0.3757452964782715,
                    0.24318844079971313,
                    0.09746062755584717,
                    1
                ],
                "metallicFactor" : 0,
                "roughnessFactor" : 0.5
            }
        },
        {
            "doubleSided" : true,
            "name" : "Wood",
            "pbrMetallicRoughness" : {
                "baseColorFactor" : [
                    0.24618732929229736,
                    0.14435896277427673,
                    0.053798429667949677,
                    1
                ],
                "metallicFactor" : 0,
                "roughnessFactor" : 0.5
            }
        },
        {
            "doubleSided" : true,
            "name" : "Fabric",
            "pbrMetallicRoughness" : {
                "baseColorFactor" : [
                    0.4575270116329193,
                    0.30435046553611755,
                    0.09043647348880768,
                    1
                ],
                "metallicFactor" : 0,
                "roughnessFactor" : 0.5
            }
        },
        {
            "doubleSided" : true,
            "name" : "Metal_Light",
            "pbrMetallicRoughness" : {
                "baseColorFactor" : [
                    0.19017364084720612,
                    0.19017364084720612,
                    0.19017364084720612,
                    1
                ],
                "metallicFactor" : 0,
                "roughnessFactor" : 0.5
            }
        }
    ],
    "meshes" : [
        {
            "name" : "Cube.101",
            "primitives" : [
                {
                    "attributes" : {
                        "POSITION" : 0,
                        "NORMAL" : 1,
                        "TEXCOORD_0" : 2
                    },
                    "indices" : 3,
                    "material" : 0
                },
                {
                    "attributes" : {
                        "POSITION" : 4,
                        "NORMAL" : 5,
                        "TEXCOORD_0" : 6
                    },
                    "indices" : 7,
                    "material" : 1
                },
                {
                    "attributes" : {
                        "POSITION" : 8,
                        "NORMAL" : 9,
                        "TEXCOORD_0" : 10
                    },
                    "indices" : 11,
                    "material" : 2
                },
                {
                    "attributes" : {
                        "POSITION" : 12,
                        "NORMAL" : 13,
                        "TEXCOORD_0" : 14
                    },
                    "indices" : 15,
                    "material" : 3
                }
            ]
        }
    ],
    "accessors" : [
        {
            "bufferView" : 0,
            "componentType" : 5126,
            "count" : 1656,
            "max" : [
                1.1688660383224487,
                0.5355402231216431,
                -0.326647013425827
            ],
            "min" : [
                -0.13904154300689697,
                -0.025795653462409973,
                -1.0508723258972168
            ],
            "type" : "VEC3"
        },
        {
            "bufferView" : 1,
            "componentType" : 5126,
            "count" : 1656,
            "type" : "VEC3"
        },
        {
            "bufferView" : 2,
            "componentType" : 5126,
            "count" : 1656,
            "type" : "VEC2"
        },
        {
            "bufferView" : 3,
            "componentType" : 5123,
            "count" : 2640,
            "type" : "SCALAR"
        },
        {
            "bufferView" : 4,
            "componentType" : 5126,
            "count" : 2144,
            "max" : [
                1.1688660383224487,
                0.5367264747619629,
                -0.326647013425827
            ],
            "min" : [
                -0.13904154300689697,
                -0.4190332591533661,
                -1.0508723258972168
            ],
            "type" : "VEC3"
        },
        {
            "bufferView" : 5,
            "componentType" : 5126,
            "count" : 2144,
            "type" : "VEC3"
        },
        {
            "bufferView" : 6,
            "componentType" : 5126,
            "count" : 2144,
            "type" : "VEC2"
        },
        {
            "bufferView" : 7,
            "componentType" : 5123,
            "count" : 3732,
            "type" : "SCALAR"
        },
        {
            "bufferView" : 8,
            "componentType" : 5126,
            "count" : 1386,
            "max" : [
                1.1143248081207275,
                0.5521527528762817,
                -0.6249408721923828
            ],
            "min" : [
                0.47839438915252686,
                0.00965700764209032,
                -0.999777615070343
            ],
            "type" : "VEC3"
        },
        {
            "bufferView" : 9,
            "componentType" : 5126,
            "count" : 1386,
            "type" : "VEC3"
        },
        {
            "bufferView" : 10,
            "componentType" : 5126,
            "count" : 1386,
            "type" : "VEC2"
        },
        {
            "bufferView" : 11,
            "componentType" : 5123,
            "count" : 2136,
            "type" : "SCALAR"
        },
        {
            "bufferView" : 12,
            "componentType" : 5126,
            "count" : 864,
            "max" : [
                1.0181339979171753,
                0.15272164344787598,
                -0.7696186304092407
            ],
            "min" : [
                -0.10483676195144653,
                0.01037319004535675,
                -0.9865084886550903
            ],
            "type" : "VEC3"
        },
        {
            "bufferView" : 13,
            "componentType" : 5126,
            "count" : 864,
            "type" : "VEC3"
        },
        {
            "bufferView" : 14,
            "componentType" : 5126,
            "count" : 864,
            "type" : "VEC2"
        },
        {
            "bufferView" : 15,
            "componentType" : 5123,
            "count" : 1584,
            "type" : "SCALAR"
        }
    ],
    "bufferViews" : [
        {
            "buffer" : 0,
            "byteLength" : 19872,
            "byteOffset" : 0
        },
        {
            "buffer" : 0,
            "byteLength" : 19872,
            "byteOffset" : 19872
        },
        {
            "buffer" : 0,
            "byteLength" : 13248,
            "byteOffset" : 39744
        },
        {
            "buffer" : 0,
            "byteLength" : 5280,
            "byteOffset" : 52992
        },
        {
            "buffer" : 0,
            "byteLength" : 25728,
            "byteOffset" : 58272
        },
        {
            "buffer" : 0,
            "byteLength" : 25728,
            "byteOffset" : 84000
        },
        {
            "buffer" : 0,
            "byteLength" : 17152,
            "byteOffset" : 109728
        },
        {
            "buffer" : 0,
            "byteLength" : 7464,
            "byteOffset" : 126880
        },
        {
            "buffer" : 0,
            "byteLength" : 16632,
            "byteOffset" : 134344
        },
        {
            "buffer" : 0,
            "byteLength" : 16632,
            "byteOffset" : 150976
        },
        {
            "buffer" : 0,
            "byteLength" : 11088,
            "byteOffset" : 167608
        },
        {
            "buffer" : 0,
            "byteLength" : 4272,
            "byteOffset" : 178696
        },
        {
            "buffer" : 0,
            "byteLength" : 10368,
            "byteOffset" : 182968
        },
        {
            "buffer" : 0,
            "byteLength" : 10368,
            "byteOffset" : 193336
        },
        {
            "buffer" : 0,
            "byteLength" : 6912,
            "byteOffset" : 203704
        },
        {
            "buffer" : 0,
            "byteLength" : 3168,
            "byteOffset" : 210616
        }
    ],
    "buffers" : [
        {
            "byteLength" : 213784,
            "uri" : "data:application/octet-stream;base64,"
        }
    ]
}
