{
    "asset" : {
        "generator" : "Khronos glTF Blender I/O v1.7.33",
        "version" : "2.0"
    },
    "scene" : 0,
    "scenes" : [
        {
            "name" : "Scene",
            "nodes" : [
                0
            ]
        }
    ],
    "nodes" : [
        {
            "mesh" : 0,
            "name" : "Port_SecondAge_Level1"
        }
    ],
    "materials" : [
        {
            "doubleSided" : true,
            "name" : "Wood_Light",
            "pbrMetallicRoughness" : {
                "baseColorFactor" : [
                    0.3757452964782715,
                    0.24318844079971313,
                    0.09746062755584717,
                    1
                ],
                "metallicFactor" : 0,
                "roughnessFactor" : 0.5
            }
        },
        {
            "doubleSided" : true,
            "name" : "Wood",
            "pbrMetallicRoughness" : {
                "baseColorFactor" : [
                    0.24618732929229736,
                    0.14435896277427673,
                    0.053798429667949677,
                    1
                ],
                "metallicFactor" : 0,
                "roughnessFactor" : 0.5
            }
        },
        {
            "doubleSided" : true,
            "name" : "Main",
            "pbrMetallicRoughness" : {
                "baseColorFactor" : [
                    0.4385380148887634,
                    0.09992149472236633,
                    0.05885644257068634,
                    1
                ],
                "metallicFactor" : 0,
                "roughnessFactor" : 0.5
            }
        },
        {
            "doubleSided" : true,
            "name" : "Metal_Light",
            "pbrMetallicRoughness" : {
                "baseColorFactor" : [
                    0.19017364084720612,
                    0.19017364084720612,
                    0.19017364084720612,
                    1
                ],
                "metallicFactor" : 0,
                "roughnessFactor" : 0.5
            }
        },
        {
            "doubleSided" : true,
            "name" : "White",
            "pbrMetallicRoughness" : {
                "baseColorFactor" : [
                    0.4868917763233185,
                    0.4868917763233185,
                    0.4868917763233185,
                    1
                ],
                "metallicFactor" : 0,
                "roughnessFactor" : 0.5
            }
        },
        {
            "doubleSided" : true,
            "name" : "Fabric",
            "pbrMetallicRoughness" : {
                "baseColorFactor" : [
                    0.4575270116329193,
                    0.30435046553611755,
                    0.09043647348880768,
                    1
                ],
                "metallicFactor" : 0,
                "roughnessFactor" : 0.5
            }
        }
    ],
    "meshes" : [
        {
            "name" : "Cube.306",
            "primitives" : [
                {
                    "attributes" : {
                        "POSITION" : 0,
                        "NORMAL" : 1,
                        "TEXCOORD_0" : 2
                    },
                    "indices" : 3,
                    "material" : 0
                },
                {
                    "attributes" : {
                        "POSITION" : 4,
                        "NORMAL" : 5,
                        "TEXCOORD_0" : 6
                    },
                    "indices" : 7,
                    "material" : 1
                },
                {
                    "attributes" : {
                        "POSITION" : 8,
                        "NORMAL" : 9,
                        "TEXCOORD_0" : 10
                    },
                    "indices" : 11,
                    "material" : 2
                },
                {
                    "attributes" : {
                        "POSITION" : 12,
                        "NORMAL" : 13,
                        "TEXCOORD_0" : 14
                    },
                    "indices" : 15,
                    "material" : 3
                },
                {
                    "attributes" : {
                        "POSITION" : 16,
                        "NORMAL" : 17,
                        "TEXCOORD_0" : 18
                    },
                    "indices" : 19,
                    "material" : 4
                },
                {
                    "attributes" : {
                        "POSITION" : 20,
                        "NORMAL" : 21,
                        "TEXCOORD_0" : 22
                    },
                    "indices" : 23,
                    "material" : 5
                }
            ]
        }
    ],
    "accessors" : [
        {
            "bufferView" : 0,
            "componentType" : 5126,
            "count" : 1136,
            "max" : [
                1.1700295209884644,
                0.23263689875602722,
                1.8277292251586914
            ],
            "min" : [
                -0.581927478313446,
                -0.025795653462409973,
                -1.0498027801513672
            ],
            "type" : "VEC3"
        },
        {
            "bufferView" : 1,
            "componentType" : 5126,
            "count" : 1136,
            "type" : "VEC3"
        },
        {
            "bufferView" : 2,
            "componentType" : 5126,
            "count" : 1136,
            "type" : "VEC2"
        },
        {
            "bufferView" : 3,
            "componentType" : 5123,
            "count" : 1704,
            "type" : "SCALAR"
        },
        {
            "bufferView" : 4,
            "componentType" : 5126,
            "count" : 3690,
            "max" : [
                1.1700295209884644,
                1.0101104974746704,
                1.8277292251586914
            ],
            "min" : [
                -0.581927478313446,
                -0.4190332591533661,
                -1.0498027801513672
            ],
            "type" : "VEC3"
        },
        {
            "bufferView" : 5,
            "componentType" : 5126,
            "count" : 3690,
            "type" : "VEC3"
        },
        {
            "bufferView" : 6,
            "componentType" : 5126,
            "count" : 3690,
            "type" : "VEC2"
        },
        {
            "bufferView" : 7,
            "componentType" : 5123,
            "count" : 6492,
            "type" : "SCALAR"
        },
        {
            "bufferView" : 8,
            "componentType" : 5126,
            "count" : 2600,
            "max" : [
                1.1338554620742798,
                0.5378953218460083,
                -0.24597036838531494
            ],
            "min" : [
                -0.13376224040985107,
                0.29780909419059753,
                -1.0004056692123413
            ],
            "type" : "VEC3"
        },
        {
            "bufferView" : 9,
            "componentType" : 5126,
            "count" : 2600,
            "type" : "VEC3"
        },
        {
            "bufferView" : 10,
            "componentType" : 5126,
            "count" : 2600,
            "type" : "VEC2"
        },
        {
            "bufferView" : 11,
            "componentType" : 5123,
            "count" : 5412,
            "type" : "SCALAR"
        },
        {
            "bufferView" : 12,
            "componentType" : 5126,
            "count" : 1152,
            "max" : [
                1.0181339979171753,
                0.15272164344787598,
                -0.5862247943878174
            ],
            "min" : [
                -0.08137565851211548,
                0.01037319004535675,
                -0.9536031484603882
            ],
            "type" : "VEC3"
        },
        {
            "bufferView" : 13,
            "componentType" : 5126,
            "count" : 1152,
            "type" : "VEC3"
        },
        {
            "bufferView" : 14,
            "componentType" : 5126,
            "count" : 1152,
            "type" : "VEC2"
        },
        {
            "bufferView" : 15,
            "componentType" : 5123,
            "count" : 2112,
            "type" : "SCALAR"
        },
        {
            "bufferView" : 16,
            "componentType" : 5126,
            "count" : 814,
            "max" : [
                1.1459827423095703,
                0.11391110718250275,
                1.6740696430206299
            ],
            "min" : [
                -0.5434399247169495,
                0.06073552742600441,
                -1.0409679412841797
            ],
            "type" : "VEC3"
        },
        {
            "bufferView" : 17,
            "componentType" : 5126,
            "count" : 814,
            "type" : "VEC3"
        },
        {
            "bufferView" : 18,
            "componentType" : 5126,
            "count" : 814,
            "type" : "VEC2"
        },
        {
            "bufferView" : 19,
            "componentType" : 5123,
            "count" : 1344,
            "type" : "SCALAR"
        },
        {
            "bufferView" : 20,
            "componentType" : 5126,
            "count" : 1970,
            "max" : [
                0.6137097477912903,
                0.9818575382232666,
                -0.24106484651565552
            ],
            "min" : [
                -0.5521577000617981,
                0.009657006710767746,
                -0.9998849630355835
            ],
            "type" : "VEC3"
        },
        {
            "bufferView" : 21,
            "componentType" : 5126,
            "count" : 1970,
            "type" : "VEC3"
        },
        {
            "bufferView" : 22,
            "componentType" : 5126,
            "count" : 1970,
            "type" : "VEC2"
        },
        {
            "bufferView" : 23,
            "componentType" : 5123,
            "count" : 2952,
            "type" : "SCALAR"
        }
    ],
    "bufferViews" : [
        {
            "buffer" : 0,
            "byteLength" : 13632,
            "byteOffset" : 0
        },
        {
            "buffer" : 0,
            "byteLength" : 13632,
            "byteOffset" : 13632
        },
        {
            "buffer" : 0,
            "byteLength" : 9088,
            "byteOffset" : 27264
        },
        {
            "buffer" : 0,
            "byteLength" : 3408,
            "byteOffset" : 36352
        },
        {
            "buffer" : 0,
            "byteLength" : 44280,
            "byteOffset" : 39760
        },
        {
            "buffer" : 0,
            "byteLength" : 44280,
            "byteOffset" : 84040
        },
        {
            "buffer" : 0,
            "byteLength" : 29520,
            "byteOffset" : 128320
        },
        {
            "buffer" : 0,
            "byteLength" : 12984,
            "byteOffset" : 157840
        },
        {
            "buffer" : 0,
            "byteLength" : 31200,
            "byteOffset" : 170824
        },
        {
            "buffer" : 0,
            "byteLength" : 31200,
            "byteOffset" : 202024
        },
        {
            "buffer" : 0,
            "byteLength" : 20800,
            "byteOffset" : 233224
        },
        {
            "buffer" : 0,
            "byteLength" : 10824,
            "byteOffset" : 254024
        },
        {
            "buffer" : 0,
            "byteLength" : 13824,
            "byteOffset" : 264848
        },
        {
            "buffer" : 0,
            "byteLength" : 13824,
            "byteOffset" : 278672
        },
        {
            "buffer" : 0,
            "byteLength" : 9216,
            "byteOffset" : 292496
        },
        {
            "buffer" : 0,
            "byteLength" : 4224,
            "byteOffset" : 301712
        },
        {
            "buffer" : 0,
            "byteLength" : 9768,
            "byteOffset" : 305936
        },
        {
            "buffer" : 0,
            "byteLength" : 9768,
            "byteOffset" : 315704
        },
        {
            "buffer" : 0,
            "byteLength" : 6512,
            "byteOffset" : 325472
        },
        {
            "buffer" : 0,
            "byteLength" : 2688,
            "byteOffset" : 331984
        },
        {
            "buffer" : 0,
            "byteLength" : 23640,
            "byteOffset" : 334672
        },
        {
            "buffer" : 0,
            "byteLength" : 23640,
            "byteOffset" : 358312
        },
        {
            "buffer" : 0,
            "byteLength" : 15760,
            "byteOffset" : 381952
        },
        {
            "buffer" : 0,
            "byteLength" : 5904,
            "byteOffset" : 397712
        }
    ],
    "buffers" : [
        {
            "byteLength" : 403616,
            "uri" : "data:application/octet-stream;base64,"
        }
    ]
}
