{
    "asset" : {
        "generator" : "Khronos glTF Blender I/O v1.7.33",
        "version" : "2.0"
    },
    "scene" : 0,
    "scenes" : [
        {
            "name" : "Scene",
            "nodes" : [
                0
            ]
        }
    ],
    "nodes" : [
        {
            "mesh" : 0,
            "name" : "Resource_Gold_2"
        }
    ],
    "materials" : [
        {
            "doubleSided" : true,
            "name" : "Stone",
            "pbrMetallicRoughness" : {
                "baseColorFactor" : [
                    0.24436430633068085,
                    0.24618881940841675,
                    0.21545054018497467,
                    1
                ],
                "metallicFactor" : 0,
                "roughnessFactor" : 0.5
            }
        },
        {
            "doubleSided" : true,
            "name" : "Gold",
            "pbrMetallicRoughness" : {
                "baseColorFactor" : [
                    0.3843711018562317,
                    0.22474361956119537,
                    0.05112964287400246,
                    1
                ],
                "metallicFactor" : 0,
                "roughnessFactor" : 0.5
            }
        }
    ],
    "meshes" : [
        {
            "name" : "Cube.059",
            "primitives" : [
                {
                    "attributes" : {
                        "POSITION" : 0,
                        "NORMAL" : 1,
                        "TEXCOORD_0" : 2
                    },
                    "indices" : 3,
                    "material" : 0
                },
                {
                    "attributes" : {
                        "POSITION" : 4,
                        "NORMAL" : 5,
                        "TEXCOORD_0" : 6
                    },
                    "indices" : 7,
                    "material" : 1
                }
            ]
        }
    ],
    "accessors" : [
        {
            "bufferView" : 0,
            "componentType" : 5126,
            "count" : 1087,
            "max" : [
                0.3760450482368469,
                0.29342472553253174,
                0.32539138197898865
            ],
            "min" : [
                -0.3221803903579712,
                -0.0071547022089362144,
                -0.3839246332645416
            ],
            "type" : "VEC3"
        },
        {
            "bufferView" : 1,
            "componentType" : 5126,
            "count" : 1087,
            "type" : "VEC3"
        },
        {
            "bufferView" : 2,
            "componentType" : 5126,
            "count" : 1087,
            "type" : "VEC2"
        },
        {
            "bufferView" : 3,
            "componentType" : 5123,
            "count" : 2628,
            "type" : "SCALAR"
        },
        {
            "bufferView" : 4,
            "componentType" : 5126,
            "count" : 220,
            "max" : [
                0.2979031801223755,
                0.27787747979164124,
                0.3312029242515564
            ],
            "min" : [
                -0.10829945653676987,
                -0.001322108437307179,
                -0.18498164415359497
            ],
            "type" : "VEC3"
        },
        {
            "bufferView" : 5,
            "componentType" : 5126,
            "count" : 220,
            "type" : "VEC3"
        },
        {
            "bufferView" : 6,
            "componentType" : 5126,
            "count" : 220,
            "type" : "VEC2"
        },
        {
            "bufferView" : 7,
            "componentType" : 5123,
            "count" : 420,
            "type" : "SCALAR"
        }
    ],
    "bufferViews" : [
        {
            "buffer" : 0,
            "byteLength" : 13044,
            "byteOffset" : 0
        },
        {
            "buffer" : 0,
            "byteLength" : 13044,
            "byteOffset" : 13044
        },
        {
            "buffer" : 0,
            "byteLength" : 8696,
            "byteOffset" : 26088
        },
        {
            "buffer" : 0,
            "byteLength" : 5256,
            "byteOffset" : 34784
        },
        {
            "buffer" : 0,
            "byteLength" : 2640,
            "byteOffset" : 40040
        },
        {
            "buffer" : 0,
            "byteLength" : 2640,
            "byteOffset" : 42680
        },
        {
            "buffer" : 0,
            "byteLength" : 1760,
            "byteOffset" : 45320
        },
        {
            "buffer" : 0,
            "byteLength" : 840,
            "byteOffset" : 47080
        }
    ],
    "buffers" : [
        {
            "byteLength" : 47920,
            "uri" : "data:application/octet-stream;base64,"
        }
    ]
}
