{
    "asset" : {
        "generator" : "Khronos glTF Blender I/O v1.7.33",
        "version" : "2.0"
    },
    "scene" : 0,
    "scenes" : [
        {
            "name" : "Scene",
            "nodes" : [
                0
            ]
        }
    ],
    "nodes" : [
        {
            "mesh" : 0,
            "name" : "Rock_Group"
        }
    ],
    "materials" : [
        {
            "doubleSided" : true,
            "name" : "Stone",
            "pbrMetallicRoughness" : {
                "baseColorFactor" : [
                    0.24436430633068085,
                    0.24618881940841675,
                    0.21545054018497467,
                    1
                ],
                "metallicFactor" : 0,
                "roughnessFactor" : 0.5
            }
        }
    ],
    "meshes" : [
        {
            "name" : "Cube.184",
            "primitives" : [
                {
                    "attributes" : {
                        "POSITION" : 0,
                        "NORMAL" : 1,
                        "TEXCOORD_0" : 2
                    },
                    "indices" : 3,
                    "material" : 0
                }
            ]
        }
    ],
    "accessors" : [
        {
            "bufferView" : 0,
            "componentType" : 5126,
            "count" : 1054,
            "max" : [
                0.7757806181907654,
                0.10334862768650055,
                0.35031574964523315
            ],
            "min" : [
                -0.5257179737091064,
                -0.01645488478243351,
                -1.1953935623168945
            ],
            "type" : "VEC3"
        },
        {
            "bufferView" : 1,
            "componentType" : 5126,
            "count" : 1054,
            "type" : "VEC3"
        },
        {
            "bufferView" : 2,
            "componentType" : 5126,
            "count" : 1054,
            "type" : "VEC2"
        },
        {
            "bufferView" : 3,
            "componentType" : 5123,
            "count" : 2604,
            "type" : "SCALAR"
        }
    ],
    "bufferViews" : [
        {
            "buffer" : 0,
            "byteLength" : 12648,
            "byteOffset" : 0
        },
        {
            "buffer" : 0,
            "byteLength" : 12648,
            "byteOffset" : 12648
        },
        {
            "buffer" : 0,
            "byteLength" : 8432,
            "byteOffset" : 25296
        },
        {
            "buffer" : 0,
            "byteLength" : 5208,
            "byteOffset" : 33728
        }
    ],
    "buffers" : [
        {
            "byteLength" : 38936,
            "uri" : "data:application/octet-stream;base64,"
        }
    ]
}
