{
    "asset" : {
        "generator" : "Khronos glTF Blender I/O v1.7.33",
        "version" : "2.0"
    },
    "scene" : 0,
    "scenes" : [
        {
            "name" : "Scene",
            "nodes" : [
                0
            ]
        }
    ],
    "nodes" : [
        {
            "mesh" : 0,
            "name" : "Storage_SecondAge_Level3"
        }
    ],
    "materials" : [
        {
            "doubleSided" : true,
            "name" : "Wood",
            "pbrMetallicRoughness" : {
                "baseColorFactor" : [
                    0.24618732929229736,
                    0.14435896277427673,
                    0.053798429667949677,
                    1
                ],
                "metallicFactor" : 0,
                "roughnessFactor" : 0.5
            }
        },
        {
            "doubleSided" : true,
            "name" : "Wood_Light",
            "pbrMetallicRoughness" : {
                "baseColorFactor" : [
                    0.3757452964782715,
                    0.24318844079971313,
                    0.09746062755584717,
                    1
                ],
                "metallicFactor" : 0,
                "roughnessFactor" : 0.5
            }
        },
        {
            "doubleSided" : true,
            "name" : "Main",
            "pbrMetallicRoughness" : {
                "baseColorFactor" : [
                    0.4385380148887634,
                    0.09992149472236633,
                    0.05885644257068634,
                    1
                ],
                "metallicFactor" : 0,
                "roughnessFactor" : 0.5
            }
        },
        {
            "doubleSided" : true,
            "name" : "Walls",
            "pbrMetallicRoughness" : {
                "baseColorFactor" : [
                    0.4352165758609772,
                    0.4385380148887634,
                    0.3826240599155426,
                    1
                ],
                "metallicFactor" : 0,
                "roughnessFactor" : 0.5
            }
        },
        {
            "doubleSided" : true,
            "name" : "Stone",
            "pbrMetallicRoughness" : {
                "baseColorFactor" : [
                    0.24436430633068085,
                    0.24618881940841675,
                    0.21545054018497467,
                    1
                ],
                "metallicFactor" : 0,
                "roughnessFactor" : 0.5
            }
        },
        {
            "doubleSided" : true,
            "name" : "Stone_Light",
            "pbrMetallicRoughness" : {
                "baseColorFactor" : [
                    0.454056978225708,
                    0.4575270116329193,
                    0.3991142511367798,
                    1
                ],
                "metallicFactor" : 0,
                "roughnessFactor" : 0.5
            }
        },
        {
            "doubleSided" : true,
            "name" : "Metal_Light",
            "pbrMetallicRoughness" : {
                "baseColorFactor" : [
                    0.19017364084720612,
                    0.19017364084720612,
                    0.19017364084720612,
                    1
                ],
                "metallicFactor" : 0,
                "roughnessFactor" : 0.5
            }
        }
    ],
    "meshes" : [
        {
            "name" : "Cube.186",
            "primitives" : [
                {
                    "attributes" : {
                        "POSITION" : 0,
                        "NORMAL" : 1,
                        "TEXCOORD_0" : 2
                    },
                    "indices" : 3,
                    "material" : 0
                },
                {
                    "attributes" : {
                        "POSITION" : 4,
                        "NORMAL" : 5,
                        "TEXCOORD_0" : 6
                    },
                    "indices" : 7,
                    "material" : 1
                },
                {
                    "attributes" : {
                        "POSITION" : 8,
                        "NORMAL" : 9,
                        "TEXCOORD_0" : 10
                    },
                    "indices" : 11,
                    "material" : 2
                },
                {
                    "attributes" : {
                        "POSITION" : 12,
                        "NORMAL" : 13,
                        "TEXCOORD_0" : 14
                    },
                    "indices" : 15,
                    "material" : 3
                },
                {
                    "attributes" : {
                        "POSITION" : 16,
                        "NORMAL" : 17,
                        "TEXCOORD_0" : 18
                    },
                    "indices" : 19,
                    "material" : 4
                },
                {
                    "attributes" : {
                        "POSITION" : 20,
                        "NORMAL" : 21,
                        "TEXCOORD_0" : 22
                    },
                    "indices" : 23,
                    "material" : 5
                },
                {
                    "attributes" : {
                        "POSITION" : 24,
                        "NORMAL" : 25,
                        "TEXCOORD_0" : 26
                    },
                    "indices" : 27,
                    "material" : 6
                }
            ]
        }
    ],
    "accessors" : [
        {
            "bufferView" : 0,
            "componentType" : 5126,
            "count" : 4480,
            "max" : [
                1.135722279548645,
                0.8281575441360474,
                0.9727925062179565
            ],
            "min" : [
                -0.6733258962631226,
                -0.018318109214305878,
                -0.46170902252197266
            ],
            "type" : "VEC3"
        },
        {
            "bufferView" : 1,
            "componentType" : 5126,
            "count" : 4480,
            "type" : "VEC3"
        },
        {
            "bufferView" : 2,
            "componentType" : 5126,
            "count" : 4480,
            "type" : "VEC2"
        },
        {
            "bufferView" : 3,
            "componentType" : 5123,
            "count" : 7872,
            "type" : "SCALAR"
        },
        {
            "bufferView" : 4,
            "componentType" : 5126,
            "count" : 4106,
            "max" : [
                1.0864789485931396,
                0.39884403347969055,
                0.9396494626998901
            ],
            "min" : [
                -0.6667451858520508,
                -0.006009429693222046,
                -0.4488208293914795
            ],
            "type" : "VEC3"
        },
        {
            "bufferView" : 5,
            "componentType" : 5126,
            "count" : 4106,
            "type" : "VEC3"
        },
        {
            "bufferView" : 6,
            "componentType" : 5126,
            "count" : 4106,
            "type" : "VEC2"
        },
        {
            "bufferView" : 7,
            "componentType" : 5123,
            "count" : 6180,
            "type" : "SCALAR"
        },
        {
            "bufferView" : 8,
            "componentType" : 5126,
            "count" : 3796,
            "max" : [
                1.0779880285263062,
                0.8807334303855896,
                0.9495009779930115
            ],
            "min" : [
                -0.49668067693710327,
                0.32374992966651917,
                -0.43582627177238464
            ],
            "type" : "VEC3"
        },
        {
            "bufferView" : 9,
            "componentType" : 5126,
            "count" : 3796,
            "type" : "VEC3"
        },
        {
            "bufferView" : 10,
            "componentType" : 5126,
            "count" : 3796,
            "type" : "VEC2"
        },
        {
            "bufferView" : 11,
            "componentType" : 5123,
            "count" : 7908,
            "type" : "SCALAR"
        },
        {
            "bufferView" : 12,
            "componentType" : 5126,
            "count" : 60,
            "max" : [
                1.0606637001037598,
                0.7922771573066711,
                0.47824180126190186
            ],
            "min" : [
                -0.5018382668495178,
                0.055712975561618805,
                -0.4185018539428711
            ],
            "type" : "VEC3"
        },
        {
            "bufferView" : 13,
            "componentType" : 5126,
            "count" : 60,
            "type" : "VEC3"
        },
        {
            "bufferView" : 14,
            "componentType" : 5126,
            "count" : 60,
            "type" : "VEC2"
        },
        {
            "bufferView" : 15,
            "componentType" : 5123,
            "count" : 96,
            "type" : "SCALAR"
        },
        {
            "bufferView" : 16,
            "componentType" : 5126,
            "count" : 80,
            "max" : [
                1.0789726972579956,
                0.3284040093421936,
                0.4965507984161377
            ],
            "min" : [
                -0.52377849817276,
                0.001531012705527246,
                -0.43681085109710693
            ],
            "type" : "VEC3"
        },
        {
            "bufferView" : 17,
            "componentType" : 5126,
            "count" : 80,
            "type" : "VEC3"
        },
        {
            "bufferView" : 18,
            "componentType" : 5126,
            "count" : 80,
            "type" : "VEC2"
        },
        {
            "bufferView" : 19,
            "componentType" : 5123,
            "count" : 120,
            "type" : "SCALAR"
        },
        {
            "bufferView" : 20,
            "componentType" : 5126,
            "count" : 1272,
            "max" : [
                0.5322095155715942,
                0.33720844984054565,
                0.5030423998832703
            ],
            "min" : [
                -0.5322094559669495,
                -0.0004960009828209877,
                -0.44426825642585754
            ],
            "type" : "VEC3"
        },
        {
            "bufferView" : 21,
            "componentType" : 5126,
            "count" : 1272,
            "type" : "VEC3"
        },
        {
            "bufferView" : 22,
            "componentType" : 5126,
            "count" : 1272,
            "type" : "VEC2"
        },
        {
            "bufferView" : 23,
            "componentType" : 5123,
            "count" : 1908,
            "type" : "SCALAR"
        },
        {
            "bufferView" : 24,
            "componentType" : 5126,
            "count" : 864,
            "max" : [
                0.4584769904613495,
                0.14044010639190674,
                0.760949432849884
            ],
            "min" : [
                -0.6761693954467773,
                -0.0019083516672253609,
                0.26571592688560486
            ],
            "type" : "VEC3"
        },
        {
            "bufferView" : 25,
            "componentType" : 5126,
            "count" : 864,
            "type" : "VEC3"
        },
        {
            "bufferView" : 26,
            "componentType" : 5126,
            "count" : 864,
            "type" : "VEC2"
        },
        {
            "bufferView" : 27,
            "componentType" : 5123,
            "count" : 1584,
            "type" : "SCALAR"
        }
    ],
    "bufferViews" : [
        {
            "buffer" : 0,
            "byteLength" : 53760,
            "byteOffset" : 0
        },
        {
            "buffer" : 0,
            "byteLength" : 53760,
            "byteOffset" : 53760
        },
        {
            "buffer" : 0,
            "byteLength" : 35840,
            "byteOffset" : 107520
        },
        {
            "buffer" : 0,
            "byteLength" : 15744,
            "byteOffset" : 143360
        },
        {
            "buffer" : 0,
            "byteLength" : 49272,
            "byteOffset" : 159104
        },
        {
            "buffer" : 0,
            "byteLength" : 49272,
            "byteOffset" : 208376
        },
        {
            "buffer" : 0,
            "byteLength" : 32848,
            "byteOffset" : 257648
        },
        {
            "buffer" : 0,
            "byteLength" : 12360,
            "byteOffset" : 290496
        },
        {
            "buffer" : 0,
            "byteLength" : 45552,
            "byteOffset" : 302856
        },
        {
            "buffer" : 0,
            "byteLength" : 45552,
            "byteOffset" : 348408
        },
        {
            "buffer" : 0,
            "byteLength" : 30368,
            "byteOffset" : 393960
        },
        {
            "buffer" : 0,
            "byteLength" : 15816,
            "byteOffset" : 424328
        },
        {
            "buffer" : 0,
            "byteLength" : 720,
            "byteOffset" : 440144
        },
        {
            "buffer" : 0,
            "byteLength" : 720,
            "byteOffset" : 440864
        },
        {
            "buffer" : 0,
            "byteLength" : 480,
            "byteOffset" : 441584
        },
        {
            "buffer" : 0,
            "byteLength" : 192,
            "byteOffset" : 442064
        },
        {
            "buffer" : 0,
            "byteLength" : 960,
            "byteOffset" : 442256
        },
        {
            "buffer" : 0,
            "byteLength" : 960,
            "byteOffset" : 443216
        },
        {
            "buffer" : 0,
            "byteLength" : 640,
            "byteOffset" : 444176
        },
        {
            "buffer" : 0,
            "byteLength" : 240,
            "byteOffset" : 444816
        },
        {
            "buffer" : 0,
            "byteLength" : 15264,
            "byteOffset" : 445056
        },
        {
            "buffer" : 0,
            "byteLength" : 15264,
            "byteOffset" : 460320
        },
        {
            "buffer" : 0,
            "byteLength" : 10176,
            "byteOffset" : 475584
        },
        {
            "buffer" : 0,
            "byteLength" : 3816,
            "byteOffset" : 485760
        },
        {
            "buffer" : 0,
            "byteLength" : 10368,
            "byteOffset" : 489576
        },
        {
            "buffer" : 0,
            "byteLength" : 10368,
            "byteOffset" : 499944
        },
        {
            "buffer" : 0,
            "byteLength" : 6912,
            "byteOffset" : 510312
        },
        {
            "buffer" : 0,
            "byteLength" : 3168,
            "byteOffset" : 517224
        }
    ],
    "buffers" : [
        {
            "byteLength" : 520392,
            "uri" : "data:application/octet-stream;base64,"
        }
    ]
}
