{
    "asset" : {
        "generator" : "Khronos glTF Blender I/O v1.7.33",
        "version" : "2.0"
    },
    "scene" : 0,
    "scenes" : [
        {
            "name" : "Scene",
            "nodes" : [
                0
            ]
        }
    ],
    "nodes" : [
        {
            "mesh" : 0,
            "name" : "Storage_SecondAge_Level1"
        }
    ],
    "materials" : [
        {
            "doubleSided" : true,
            "name" : "Wood",
            "pbrMetallicRoughness" : {
                "baseColorFactor" : [
                    0.24618732929229736,
                    0.14435896277427673,
                    0.053798429667949677,
                    1
                ],
                "metallicFactor" : 0,
                "roughnessFactor" : 0.5
            }
        },
        {
            "doubleSided" : true,
            "name" : "Wood_Light",
            "pbrMetallicRoughness" : {
                "baseColorFactor" : [
                    0.3757452964782715,
                    0.24318844079971313,
                    0.09746062755584717,
                    1
                ],
                "metallicFactor" : 0,
                "roughnessFactor" : 0.5
            }
        },
        {
            "doubleSided" : true,
            "name" : "Main",
            "pbrMetallicRoughness" : {
                "baseColorFactor" : [
                    0.4385380148887634,
                    0.09992149472236633,
                    0.05885644257068634,
                    1
                ],
                "metallicFactor" : 0,
                "roughnessFactor" : 0.5
            }
        },
        {
            "doubleSided" : true,
            "name" : "Walls",
            "pbrMetallicRoughness" : {
                "baseColorFactor" : [
                    0.4352165758609772,
                    0.4385380148887634,
                    0.3826240599155426,
                    1
                ],
                "metallicFactor" : 0,
                "roughnessFactor" : 0.5
            }
        },
        {
            "doubleSided" : true,
            "name" : "Stone",
            "pbrMetallicRoughness" : {
                "baseColorFactor" : [
                    0.24436430633068085,
                    0.24618881940841675,
                    0.21545054018497467,
                    1
                ],
                "metallicFactor" : 0,
                "roughnessFactor" : 0.5
            }
        },
        {
            "doubleSided" : true,
            "name" : "Stone_Light",
            "pbrMetallicRoughness" : {
                "baseColorFactor" : [
                    0.454056978225708,
                    0.4575270116329193,
                    0.3991142511367798,
                    1
                ],
                "metallicFactor" : 0,
                "roughnessFactor" : 0.5
            }
        },
        {
            "doubleSided" : true,
            "name" : "Metal_Light",
            "pbrMetallicRoughness" : {
                "baseColorFactor" : [
                    0.19017364084720612,
                    0.19017364084720612,
                    0.19017364084720612,
                    1
                ],
                "metallicFactor" : 0,
                "roughnessFactor" : 0.5
            }
        }
    ],
    "meshes" : [
        {
            "name" : "Cube.210",
            "primitives" : [
                {
                    "attributes" : {
                        "POSITION" : 0,
                        "NORMAL" : 1,
                        "TEXCOORD_0" : 2
                    },
                    "indices" : 3,
                    "material" : 0
                },
                {
                    "attributes" : {
                        "POSITION" : 4,
                        "NORMAL" : 5,
                        "TEXCOORD_0" : 6
                    },
                    "indices" : 7,
                    "material" : 1
                },
                {
                    "attributes" : {
                        "POSITION" : 8,
                        "NORMAL" : 9,
                        "TEXCOORD_0" : 10
                    },
                    "indices" : 11,
                    "material" : 2
                },
                {
                    "attributes" : {
                        "POSITION" : 12,
                        "NORMAL" : 13,
                        "TEXCOORD_0" : 14
                    },
                    "indices" : 15,
                    "material" : 3
                },
                {
                    "attributes" : {
                        "POSITION" : 16,
                        "NORMAL" : 17,
                        "TEXCOORD_0" : 18
                    },
                    "indices" : 19,
                    "material" : 4
                },
                {
                    "attributes" : {
                        "POSITION" : 20,
                        "NORMAL" : 21,
                        "TEXCOORD_0" : 22
                    },
                    "indices" : 23,
                    "material" : 5
                },
                {
                    "attributes" : {
                        "POSITION" : 24,
                        "NORMAL" : 25,
                        "TEXCOORD_0" : 26
                    },
                    "indices" : 27,
                    "material" : 6
                }
            ]
        }
    ],
    "accessors" : [
        {
            "bufferView" : 0,
            "componentType" : 5126,
            "count" : 4538,
            "max" : [
                0.8713168501853943,
                0.438748300075531,
                0.6989686489105225
            ],
            "min" : [
                -0.8461711406707764,
                -0.010260224342346191,
                -0.6778475046157837
            ],
            "type" : "VEC3"
        },
        {
            "bufferView" : 1,
            "componentType" : 5126,
            "count" : 4538,
            "type" : "VEC3"
        },
        {
            "bufferView" : 2,
            "componentType" : 5126,
            "count" : 4538,
            "type" : "VEC2"
        },
        {
            "bufferView" : 3,
            "componentType" : 5123,
            "count" : 8088,
            "type" : "SCALAR"
        },
        {
            "bufferView" : 4,
            "componentType" : 5126,
            "count" : 4640,
            "max" : [
                0.6957972645759583,
                0.3155289590358734,
                0.6673909425735474
            ],
            "min" : [
                -0.8050224781036377,
                -0.006009429693222046,
                -0.6678321957588196
            ],
            "type" : "VEC3"
        },
        {
            "bufferView" : 5,
            "componentType" : 5126,
            "count" : 4640,
            "type" : "VEC3"
        },
        {
            "bufferView" : 6,
            "componentType" : 5126,
            "count" : 4640,
            "type" : "VEC2"
        },
        {
            "bufferView" : 7,
            "componentType" : 5123,
            "count" : 6972,
            "type" : "SCALAR"
        },
        {
            "bufferView" : 8,
            "componentType" : 5126,
            "count" : 2280,
            "max" : [
                0.5191798210144043,
                0.49132418632507324,
                0.49556612968444824
            ],
            "min" : [
                -0.49668067693710327,
                0.38801902532577515,
                -0.43582627177238464
            ],
            "type" : "VEC3"
        },
        {
            "bufferView" : 9,
            "componentType" : 5126,
            "count" : 2280,
            "type" : "VEC3"
        },
        {
            "bufferView" : 10,
            "componentType" : 5126,
            "count" : 2280,
            "type" : "VEC2"
        },
        {
            "bufferView" : 11,
            "componentType" : 5123,
            "count" : 4764,
            "type" : "SCALAR"
        },
        {
            "bufferView" : 12,
            "componentType" : 5126,
            "count" : 32,
            "max" : [
                0.5043584704399109,
                0.4028679132461548,
                0.47824180126190186
            ],
            "min" : [
                -0.5018382668495178,
                0.055712975561618805,
                -0.4185018539428711
            ],
            "type" : "VEC3"
        },
        {
            "bufferView" : 13,
            "componentType" : 5126,
            "count" : 32,
            "type" : "VEC3"
        },
        {
            "bufferView" : 14,
            "componentType" : 5126,
            "count" : 32,
            "type" : "VEC2"
        },
        {
            "bufferView" : 15,
            "componentType" : 5123,
            "count" : 48,
            "type" : "SCALAR"
        },
        {
            "bufferView" : 16,
            "componentType" : 5126,
            "count" : 40,
            "max" : [
                0.5262987017631531,
                0.3284040093421936,
                0.4965507984161377
            ],
            "min" : [
                -0.52377849817276,
                0.001531012705527246,
                -0.43681085109710693
            ],
            "type" : "VEC3"
        },
        {
            "bufferView" : 17,
            "componentType" : 5126,
            "count" : 40,
            "type" : "VEC3"
        },
        {
            "bufferView" : 18,
            "componentType" : 5126,
            "count" : 40,
            "type" : "VEC2"
        },
        {
            "bufferView" : 19,
            "componentType" : 5123,
            "count" : 60,
            "type" : "SCALAR"
        },
        {
            "bufferView" : 20,
            "componentType" : 5126,
            "count" : 1272,
            "max" : [
                0.5322095155715942,
                0.33720844984054565,
                0.5030423998832703
            ],
            "min" : [
                -0.5322094559669495,
                -0.0004960009828209877,
                -0.44426825642585754
            ],
            "type" : "VEC3"
        },
        {
            "bufferView" : 21,
            "componentType" : 5126,
            "count" : 1272,
            "type" : "VEC3"
        },
        {
            "bufferView" : 22,
            "componentType" : 5126,
            "count" : 1272,
            "type" : "VEC2"
        },
        {
            "bufferView" : 23,
            "componentType" : 5123,
            "count" : 1908,
            "type" : "SCALAR"
        },
        {
            "bufferView" : 24,
            "componentType" : 5126,
            "count" : 1440,
            "max" : [
                0.8741443157196045,
                0.14044010639190674,
                0.7018060684204102
            ],
            "min" : [
                -0.8489922881126404,
                -0.0019083480583503842,
                -0.1765013039112091
            ],
            "type" : "VEC3"
        },
        {
            "bufferView" : 25,
            "componentType" : 5126,
            "count" : 1440,
            "type" : "VEC3"
        },
        {
            "bufferView" : 26,
            "componentType" : 5126,
            "count" : 1440,
            "type" : "VEC2"
        },
        {
            "bufferView" : 27,
            "componentType" : 5123,
            "count" : 2640,
            "type" : "SCALAR"
        }
    ],
    "bufferViews" : [
        {
            "buffer" : 0,
            "byteLength" : 54456,
            "byteOffset" : 0
        },
        {
            "buffer" : 0,
            "byteLength" : 54456,
            "byteOffset" : 54456
        },
        {
            "buffer" : 0,
            "byteLength" : 36304,
            "byteOffset" : 108912
        },
        {
            "buffer" : 0,
            "byteLength" : 16176,
            "byteOffset" : 145216
        },
        {
            "buffer" : 0,
            "byteLength" : 55680,
            "byteOffset" : 161392
        },
        {
            "buffer" : 0,
            "byteLength" : 55680,
            "byteOffset" : 217072
        },
        {
            "buffer" : 0,
            "byteLength" : 37120,
            "byteOffset" : 272752
        },
        {
            "buffer" : 0,
            "byteLength" : 13944,
            "byteOffset" : 309872
        },
        {
            "buffer" : 0,
            "byteLength" : 27360,
            "byteOffset" : 323816
        },
        {
            "buffer" : 0,
            "byteLength" : 27360,
            "byteOffset" : 351176
        },
        {
            "buffer" : 0,
            "byteLength" : 18240,
            "byteOffset" : 378536
        },
        {
            "buffer" : 0,
            "byteLength" : 9528,
            "byteOffset" : 396776
        },
        {
            "buffer" : 0,
            "byteLength" : 384,
            "byteOffset" : 406304
        },
        {
            "buffer" : 0,
            "byteLength" : 384,
            "byteOffset" : 406688
        },
        {
            "buffer" : 0,
            "byteLength" : 256,
            "byteOffset" : 407072
        },
        {
            "buffer" : 0,
            "byteLength" : 96,
            "byteOffset" : 407328
        },
        {
            "buffer" : 0,
            "byteLength" : 480,
            "byteOffset" : 407424
        },
        {
            "buffer" : 0,
            "byteLength" : 480,
            "byteOffset" : 407904
        },
        {
            "buffer" : 0,
            "byteLength" : 320,
            "byteOffset" : 408384
        },
        {
            "buffer" : 0,
            "byteLength" : 120,
            "byteOffset" : 408704
        },
        {
            "buffer" : 0,
            "byteLength" : 15264,
            "byteOffset" : 408824
        },
        {
            "buffer" : 0,
            "byteLength" : 15264,
            "byteOffset" : 424088
        },
        {
            "buffer" : 0,
            "byteLength" : 10176,
            "byteOffset" : 439352
        },
        {
            "buffer" : 0,
            "byteLength" : 3816,
            "byteOffset" : 449528
        },
        {
            "buffer" : 0,
            "byteLength" : 17280,
            "byteOffset" : 453344
        },
        {
            "buffer" : 0,
            "byteLength" : 17280,
            "byteOffset" : 470624
        },
        {
            "buffer" : 0,
            "byteLength" : 11520,
            "byteOffset" : 487904
        },
        {
            "buffer" : 0,
            "byteLength" : 5280,
            "byteOffset" : 499424
        }
    ],
    "buffers" : [
        {
            "byteLength" : 504704,
            "uri" : "data:application/octet-stream;base64,"
        }
    ]
}
