{
    "asset" : {
        "generator" : "Khronos glTF Blender I/O v1.7.33",
        "version" : "2.0"
    },
    "scene" : 0,
    "scenes" : [
        {
            "name" : "Scene",
            "nodes" : [
                0
            ]
        }
    ],
    "nodes" : [
        {
            "mesh" : 0,
            "name" : "Storage_FirstAge_Level1"
        }
    ],
    "materials" : [
        {
            "doubleSided" : true,
            "name" : "Wood",
            "pbrMetallicRoughness" : {
                "baseColorFactor" : [
                    0.24618732929229736,
                    0.14435896277427673,
                    0.053798429667949677,
                    1
                ],
                "metallicFactor" : 0,
                "roughnessFactor" : 0.5
            }
        },
        {
            "doubleSided" : true,
            "name" : "Wood_Light",
            "pbrMetallicRoughness" : {
                "baseColorFactor" : [
                    0.3757452964782715,
                    0.24318844079971313,
                    0.09746062755584717,
                    1
                ],
                "metallicFactor" : 0,
                "roughnessFactor" : 0.5
            }
        }
    ],
    "meshes" : [
        {
            "name" : "Cube.022",
            "primitives" : [
                {
                    "attributes" : {
                        "POSITION" : 0,
                        "NORMAL" : 1
                    },
                    "indices" : 2,
                    "material" : 0
                },
                {
                    "attributes" : {
                        "POSITION" : 3,
                        "NORMAL" : 4
                    },
                    "indices" : 5,
                    "material" : 1
                }
            ]
        }
    ],
    "accessors" : [
        {
            "bufferView" : 0,
            "componentType" : 5126,
            "count" : 2688,
            "max" : [
                0.7052686810493469,
                0.7572647333145142,
                0.8372294902801514
            ],
            "min" : [
                -0.7052686810493469,
                -0.004024721682071686,
                -0.6288502216339111
            ],
            "type" : "VEC3"
        },
        {
            "bufferView" : 1,
            "componentType" : 5126,
            "count" : 2688,
            "type" : "VEC3"
        },
        {
            "bufferView" : 2,
            "componentType" : 5123,
            "count" : 5100,
            "type" : "SCALAR"
        },
        {
            "bufferView" : 3,
            "componentType" : 5126,
            "count" : 4516,
            "max" : [
                0.7052686810493469,
                0.7572647333145142,
                0.8372294902801514
            ],
            "min" : [
                -0.7052686810493469,
                -0.004024721682071686,
                -0.6288502216339111
            ],
            "type" : "VEC3"
        },
        {
            "bufferView" : 4,
            "componentType" : 5126,
            "count" : 4516,
            "type" : "VEC3"
        },
        {
            "bufferView" : 5,
            "componentType" : 5123,
            "count" : 7164,
            "type" : "SCALAR"
        }
    ],
    "bufferViews" : [
        {
            "buffer" : 0,
            "byteLength" : 32256,
            "byteOffset" : 0
        },
        {
            "buffer" : 0,
            "byteLength" : 32256,
            "byteOffset" : 32256
        },
        {
            "buffer" : 0,
            "byteLength" : 10200,
            "byteOffset" : 64512
        },
        {
            "buffer" : 0,
            "byteLength" : 54192,
            "byteOffset" : 74712
        },
        {
            "buffer" : 0,
            "byteLength" : 54192,
            "byteOffset" : 128904
        },
        {
            "buffer" : 0,
            "byteLength" : 14328,
            "byteOffset" : 183096
        }
    ],
    "buffers" : [
        {
            "byteLength" : 197424,
            "uri" : "data:application/octet-stream;base64,"
        }
    ]
}
