{
    "asset" : {
        "generator" : "Khronos glTF Blender I/O v1.7.33",
        "version" : "2.0"
    },
    "scene" : 0,
    "scenes" : [
        {
            "name" : "Scene",
            "nodes" : [
                0
            ]
        }
    ],
    "nodes" : [
        {
            "mesh" : 0,
            "name" : "Storage_SecondAge_Level2"
        }
    ],
    "materials" : [
        {
            "doubleSided" : true,
            "name" : "Wood",
            "pbrMetallicRoughness" : {
                "baseColorFactor" : [
                    0.24618732929229736,
                    0.14435896277427673,
                    0.053798429667949677,
                    1
                ],
                "metallicFactor" : 0,
                "roughnessFactor" : 0.5
            }
        },
        {
            "doubleSided" : true,
            "name" : "Wood_Light",
            "pbrMetallicRoughness" : {
                "baseColorFactor" : [
                    0.3757452964782715,
                    0.24318844079971313,
                    0.09746062755584717,
                    1
                ],
                "metallicFactor" : 0,
                "roughnessFactor" : 0.5
            }
        },
        {
            "doubleSided" : true,
            "name" : "Main",
            "pbrMetallicRoughness" : {
                "baseColorFactor" : [
                    0.4385380148887634,
                    0.09992149472236633,
                    0.05885644257068634,
                    1
                ],
                "metallicFactor" : 0,
                "roughnessFactor" : 0.5
            }
        },
        {
            "doubleSided" : true,
            "name" : "Walls",
            "pbrMetallicRoughness" : {
                "baseColorFactor" : [
                    0.4352165758609772,
                    0.4385380148887634,
                    0.3826240599155426,
                    1
                ],
                "metallicFactor" : 0,
                "roughnessFactor" : 0.5
            }
        },
        {
            "doubleSided" : true,
            "name" : "Stone",
            "pbrMetallicRoughness" : {
                "baseColorFactor" : [
                    0.24436430633068085,
                    0.24618881940841675,
                    0.21545054018497467,
                    1
                ],
                "metallicFactor" : 0,
                "roughnessFactor" : 0.5
            }
        },
        {
            "doubleSided" : true,
            "name" : "Stone_Light",
            "pbrMetallicRoughness" : {
                "baseColorFactor" : [
                    0.454056978225708,
                    0.4575270116329193,
                    0.3991142511367798,
                    1
                ],
                "metallicFactor" : 0,
                "roughnessFactor" : 0.5
            }
        },
        {
            "doubleSided" : true,
            "name" : "Metal_Light",
            "pbrMetallicRoughness" : {
                "baseColorFactor" : [
                    0.19017364084720612,
                    0.19017364084720612,
                    0.19017364084720612,
                    1
                ],
                "metallicFactor" : 0,
                "roughnessFactor" : 0.5
            }
        }
    ],
    "meshes" : [
        {
            "name" : "Cube.211",
            "primitives" : [
                {
                    "attributes" : {
                        "POSITION" : 0,
                        "NORMAL" : 1,
                        "TEXCOORD_0" : 2
                    },
                    "indices" : 3,
                    "material" : 0
                },
                {
                    "attributes" : {
                        "POSITION" : 4,
                        "NORMAL" : 5,
                        "TEXCOORD_0" : 6
                    },
                    "indices" : 7,
                    "material" : 1
                },
                {
                    "attributes" : {
                        "POSITION" : 8,
                        "NORMAL" : 9,
                        "TEXCOORD_0" : 10
                    },
                    "indices" : 11,
                    "material" : 2
                },
                {
                    "attributes" : {
                        "POSITION" : 12,
                        "NORMAL" : 13,
                        "TEXCOORD_0" : 14
                    },
                    "indices" : 15,
                    "material" : 3
                },
                {
                    "attributes" : {
                        "POSITION" : 16,
                        "NORMAL" : 17,
                        "TEXCOORD_0" : 18
                    },
                    "indices" : 19,
                    "material" : 4
                },
                {
                    "attributes" : {
                        "POSITION" : 20,
                        "NORMAL" : 21,
                        "TEXCOORD_0" : 22
                    },
                    "indices" : 23,
                    "material" : 5
                },
                {
                    "attributes" : {
                        "POSITION" : 24,
                        "NORMAL" : 25,
                        "TEXCOORD_0" : 26
                    },
                    "indices" : 27,
                    "material" : 6
                }
            ]
        }
    ],
    "accessors" : [
        {
            "bufferView" : 0,
            "componentType" : 5126,
            "count" : 5020,
            "max" : [
                0.8747086524963379,
                0.8281575441360474,
                0.6714590191841125
            ],
            "min" : [
                -0.7746578454971313,
                -0.010260224342346191,
                -0.5776911973953247
            ],
            "type" : "VEC3"
        },
        {
            "bufferView" : 1,
            "componentType" : 5126,
            "count" : 5020,
            "type" : "VEC3"
        },
        {
            "bufferView" : 2,
            "componentType" : 5126,
            "count" : 5020,
            "type" : "VEC2"
        },
        {
            "bufferView" : 3,
            "componentType" : 5123,
            "count" : 8976,
            "type" : "SCALAR"
        },
        {
            "bufferView" : 4,
            "componentType" : 5126,
            "count" : 5216,
            "max" : [
                0.8636171221733093,
                0.3155289590358734,
                0.6615689396858215
            ],
            "min" : [
                -0.7544349431991577,
                -0.006009431555867195,
                -0.5709468126296997
            ],
            "type" : "VEC3"
        },
        {
            "bufferView" : 5,
            "componentType" : 5126,
            "count" : 5216,
            "type" : "VEC3"
        },
        {
            "bufferView" : 6,
            "componentType" : 5126,
            "count" : 5216,
            "type" : "VEC2"
        },
        {
            "bufferView" : 7,
            "componentType" : 5123,
            "count" : 7836,
            "type" : "SCALAR"
        },
        {
            "bufferView" : 8,
            "componentType" : 5126,
            "count" : 2280,
            "max" : [
                0.5191798210144043,
                0.8807334303855896,
                0.49556612968444824
            ],
            "min" : [
                -0.49668067693710327,
                0.7774282693862915,
                -0.43582627177238464
            ],
            "type" : "VEC3"
        },
        {
            "bufferView" : 9,
            "componentType" : 5126,
            "count" : 2280,
            "type" : "VEC3"
        },
        {
            "bufferView" : 10,
            "componentType" : 5126,
            "count" : 2280,
            "type" : "VEC2"
        },
        {
            "bufferView" : 11,
            "componentType" : 5123,
            "count" : 4764,
            "type" : "SCALAR"
        },
        {
            "bufferView" : 12,
            "componentType" : 5126,
            "count" : 32,
            "max" : [
                0.5043584704399109,
                0.7922771573066711,
                0.47824180126190186
            ],
            "min" : [
                -0.5018382668495178,
                0.055712975561618805,
                -0.4185018539428711
            ],
            "type" : "VEC3"
        },
        {
            "bufferView" : 13,
            "componentType" : 5126,
            "count" : 32,
            "type" : "VEC3"
        },
        {
            "bufferView" : 14,
            "componentType" : 5126,
            "count" : 32,
            "type" : "VEC2"
        },
        {
            "bufferView" : 15,
            "componentType" : 5123,
            "count" : 48,
            "type" : "SCALAR"
        },
        {
            "bufferView" : 16,
            "componentType" : 5126,
            "count" : 40,
            "max" : [
                0.5262987017631531,
                0.3284040093421936,
                0.4965507984161377
            ],
            "min" : [
                -0.52377849817276,
                0.001531012705527246,
                -0.43681085109710693
            ],
            "type" : "VEC3"
        },
        {
            "bufferView" : 17,
            "componentType" : 5126,
            "count" : 40,
            "type" : "VEC3"
        },
        {
            "bufferView" : 18,
            "componentType" : 5126,
            "count" : 40,
            "type" : "VEC2"
        },
        {
            "bufferView" : 19,
            "componentType" : 5123,
            "count" : 60,
            "type" : "SCALAR"
        },
        {
            "bufferView" : 20,
            "componentType" : 5126,
            "count" : 1272,
            "max" : [
                0.5322095155715942,
                0.33720844984054565,
                0.5030423998832703
            ],
            "min" : [
                -0.5322094559669495,
                -0.0004960009828209877,
                -0.44426825642585754
            ],
            "type" : "VEC3"
        },
        {
            "bufferView" : 21,
            "componentType" : 5126,
            "count" : 1272,
            "type" : "VEC3"
        },
        {
            "bufferView" : 22,
            "componentType" : 5126,
            "count" : 1272,
            "type" : "VEC2"
        },
        {
            "bufferView" : 23,
            "componentType" : 5123,
            "count" : 1908,
            "type" : "SCALAR"
        },
        {
            "bufferView" : 24,
            "componentType" : 5126,
            "count" : 1440,
            "max" : [
                0.7025926113128662,
                0.14044010639190674,
                0.6374951004981995
            ],
            "min" : [
                -0.6822496056556702,
                -0.0019083470106124878,
                -0.5805347561836243
            ],
            "type" : "VEC3"
        },
        {
            "bufferView" : 25,
            "componentType" : 5126,
            "count" : 1440,
            "type" : "VEC3"
        },
        {
            "bufferView" : 26,
            "componentType" : 5126,
            "count" : 1440,
            "type" : "VEC2"
        },
        {
            "bufferView" : 27,
            "componentType" : 5123,
            "count" : 2640,
            "type" : "SCALAR"
        }
    ],
    "bufferViews" : [
        {
            "buffer" : 0,
            "byteLength" : 60240,
            "byteOffset" : 0
        },
        {
            "buffer" : 0,
            "byteLength" : 60240,
            "byteOffset" : 60240
        },
        {
            "buffer" : 0,
            "byteLength" : 40160,
            "byteOffset" : 120480
        },
        {
            "buffer" : 0,
            "byteLength" : 17952,
            "byteOffset" : 160640
        },
        {
            "buffer" : 0,
            "byteLength" : 62592,
            "byteOffset" : 178592
        },
        {
            "buffer" : 0,
            "byteLength" : 62592,
            "byteOffset" : 241184
        },
        {
            "buffer" : 0,
            "byteLength" : 41728,
            "byteOffset" : 303776
        },
        {
            "buffer" : 0,
            "byteLength" : 15672,
            "byteOffset" : 345504
        },
        {
            "buffer" : 0,
            "byteLength" : 27360,
            "byteOffset" : 361176
        },
        {
            "buffer" : 0,
            "byteLength" : 27360,
            "byteOffset" : 388536
        },
        {
            "buffer" : 0,
            "byteLength" : 18240,
            "byteOffset" : 415896
        },
        {
            "buffer" : 0,
            "byteLength" : 9528,
            "byteOffset" : 434136
        },
        {
            "buffer" : 0,
            "byteLength" : 384,
            "byteOffset" : 443664
        },
        {
            "buffer" : 0,
            "byteLength" : 384,
            "byteOffset" : 444048
        },
        {
            "buffer" : 0,
            "byteLength" : 256,
            "byteOffset" : 444432
        },
        {
            "buffer" : 0,
            "byteLength" : 96,
            "byteOffset" : 444688
        },
        {
            "buffer" : 0,
            "byteLength" : 480,
            "byteOffset" : 444784
        },
        {
            "buffer" : 0,
            "byteLength" : 480,
            "byteOffset" : 445264
        },
        {
            "buffer" : 0,
            "byteLength" : 320,
            "byteOffset" : 445744
        },
        {
            "buffer" : 0,
            "byteLength" : 120,
            "byteOffset" : 446064
        },
        {
            "buffer" : 0,
            "byteLength" : 15264,
            "byteOffset" : 446184
        },
        {
            "buffer" : 0,
            "byteLength" : 15264,
            "byteOffset" : 461448
        },
        {
            "buffer" : 0,
            "byteLength" : 10176,
            "byteOffset" : 476712
        },
        {
            "buffer" : 0,
            "byteLength" : 3816,
            "byteOffset" : 486888
        },
        {
            "buffer" : 0,
            "byteLength" : 17280,
            "byteOffset" : 490704
        },
        {
            "buffer" : 0,
            "byteLength" : 17280,
            "byteOffset" : 507984
        },
        {
            "buffer" : 0,
            "byteLength" : 11520,
            "byteOffset" : 525264
        },
        {
            "buffer" : 0,
            "byteLength" : 5280,
            "byteOffset" : 536784
        }
    ],
    "buffers" : [
        {
            "byteLength" : 542064,
            "uri" : "data:application/octet-stream;base64,"
        }
    ]
}
