{
    "asset" : {
        "generator" : "Khronos glTF Blender I/O v1.7.33",
        "version" : "2.0"
    },
    "scene" : 0,
    "scenes" : [
        {
            "name" : "Scene",
            "nodes" : [
                0
            ]
        }
    ],
    "nodes" : [
        {
            "mesh" : 0,
            "name" : "Storage_FirstAge_Leve3"
        }
    ],
    "materials" : [
        {
            "doubleSided" : true,
            "name" : "Wood",
            "pbrMetallicRoughness" : {
                "baseColorFactor" : [
                    0.24618732929229736,
                    0.14435896277427673,
                    0.053798429667949677,
                    1
                ],
                "metallicFactor" : 0,
                "roughnessFactor" : 0.5
            }
        },
        {
            "doubleSided" : true,
            "name" : "Wood_Light",
            "pbrMetallicRoughness" : {
                "baseColorFactor" : [
                    0.3757452964782715,
                    0.24318844079971313,
                    0.09746062755584717,
                    1
                ],
                "metallicFactor" : 0,
                "roughnessFactor" : 0.5
            }
        }
    ],
    "meshes" : [
        {
            "name" : "Cube.215",
            "primitives" : [
                {
                    "attributes" : {
                        "POSITION" : 0,
                        "NORMAL" : 1
                    },
                    "indices" : 2,
                    "material" : 0
                },
                {
                    "attributes" : {
                        "POSITION" : 3,
                        "NORMAL" : 4
                    },
                    "indices" : 5,
                    "material" : 1
                }
            ]
        }
    ],
    "accessors" : [
        {
            "bufferView" : 0,
            "componentType" : 5126,
            "count" : 4986,
            "max" : [
                0.7919510006904602,
                0.7589912414550781,
                0.8372294902801514
            ],
            "min" : [
                -1.00079345703125,
                -0.0022982805967330933,
                -0.7779223918914795
            ],
            "type" : "VEC3"
        },
        {
            "bufferView" : 1,
            "componentType" : 5126,
            "count" : 4986,
            "type" : "VEC3"
        },
        {
            "bufferView" : 2,
            "componentType" : 5123,
            "count" : 9768,
            "type" : "SCALAR"
        },
        {
            "bufferView" : 3,
            "componentType" : 5126,
            "count" : 7944,
            "max" : [
                0.7876771688461304,
                0.7256425619125366,
                0.8372294902801514
            ],
            "min" : [
                -0.9901093244552612,
                -0.0022982805967330933,
                -0.7742085456848145
            ],
            "type" : "VEC3"
        },
        {
            "bufferView" : 4,
            "componentType" : 5126,
            "count" : 7944,
            "type" : "VEC3"
        },
        {
            "bufferView" : 5,
            "componentType" : 5123,
            "count" : 12696,
            "type" : "SCALAR"
        }
    ],
    "bufferViews" : [
        {
            "buffer" : 0,
            "byteLength" : 59832,
            "byteOffset" : 0
        },
        {
            "buffer" : 0,
            "byteLength" : 59832,
            "byteOffset" : 59832
        },
        {
            "buffer" : 0,
            "byteLength" : 19536,
            "byteOffset" : 119664
        },
        {
            "buffer" : 0,
            "byteLength" : 95328,
            "byteOffset" : 139200
        },
        {
            "buffer" : 0,
            "byteLength" : 95328,
            "byteOffset" : 234528
        },
        {
            "buffer" : 0,
            "byteLength" : 25392,
            "byteOffset" : 329856
        }
    ],
    "buffers" : [
        {
            "byteLength" : 355248,
            "uri" : "data:application/octet-stream;base64,"
        }
    ]
}
