{
    "asset" : {
        "generator" : "Khronos glTF Blender I/O v1.7.33",
        "version" : "2.0"
    },
    "scene" : 0,
    "scenes" : [
        {
            "name" : "Scene",
            "nodes" : [
                0
            ]
        }
    ],
    "nodes" : [
        {
            "mesh" : 0,
            "name" : "Temple_SecondAge_Level1"
        }
    ],
    "materials" : [
        {
            "doubleSided" : true,
            "name" : "Stone",
            "pbrMetallicRoughness" : {
                "baseColorFactor" : [
                    0.24436430633068085,
                    0.24618881940841675,
                    0.21545054018497467,
                    1
                ],
                "metallicFactor" : 0,
                "roughnessFactor" : 0.5
            }
        },
        {
            "doubleSided" : true,
            "name" : "Walls",
            "pbrMetallicRoughness" : {
                "baseColorFactor" : [
                    0.4352165758609772,
                    0.4385380148887634,
                    0.3826240599155426,
                    1
                ],
                "metallicFactor" : 0,
                "roughnessFactor" : 0.5
            }
        },
        {
            "doubleSided" : true,
            "name" : "Main",
            "pbrMetallicRoughness" : {
                "baseColorFactor" : [
                    0.4385380148887634,
                    0.09992149472236633,
                    0.05885644257068634,
                    1
                ],
                "metallicFactor" : 0,
                "roughnessFactor" : 0.5
            }
        }
    ],
    "meshes" : [
        {
            "name" : "Cube.221",
            "primitives" : [
                {
                    "attributes" : {
                        "POSITION" : 0,
                        "NORMAL" : 1
                    },
                    "indices" : 2,
                    "material" : 0
                },
                {
                    "attributes" : {
                        "POSITION" : 3,
                        "NORMAL" : 4
                    },
                    "indices" : 5,
                    "material" : 1
                },
                {
                    "attributes" : {
                        "POSITION" : 6,
                        "NORMAL" : 7
                    },
                    "indices" : 8,
                    "material" : 2
                }
            ]
        }
    ],
    "accessors" : [
        {
            "bufferView" : 0,
            "componentType" : 5126,
            "count" : 256,
            "max" : [
                0.8725646734237671,
                1.0945782661437988,
                1.095648169517517
            ],
            "min" : [
                -0.8725646734237671,
                -0.001792582799680531,
                -0.8725646734237671
            ],
            "type" : "VEC3"
        },
        {
            "bufferView" : 1,
            "componentType" : 5126,
            "count" : 256,
            "type" : "VEC3"
        },
        {
            "bufferView" : 2,
            "componentType" : 5123,
            "count" : 414,
            "type" : "SCALAR"
        },
        {
            "bufferView" : 3,
            "componentType" : 5126,
            "count" : 331,
            "max" : [
                0.7257147431373596,
                1.728775978088379,
                0.7257147431373596
            ],
            "min" : [
                -0.7257147431373596,
                0.08795395493507385,
                -0.7257147431373596
            ],
            "type" : "VEC3"
        },
        {
            "bufferView" : 4,
            "componentType" : 5126,
            "count" : 331,
            "type" : "VEC3"
        },
        {
            "bufferView" : 5,
            "componentType" : 5123,
            "count" : 537,
            "type" : "SCALAR"
        },
        {
            "bufferView" : 6,
            "componentType" : 5126,
            "count" : 256,
            "max" : [
                0.258819043636322,
                2.795407772064209,
                0.608137845993042
            ],
            "min" : [
                -0.258819043636322,
                1.009505271911621,
                -0.258819043636322
            ],
            "type" : "VEC3"
        },
        {
            "bufferView" : 7,
            "componentType" : 5126,
            "count" : 256,
            "type" : "VEC3"
        },
        {
            "bufferView" : 8,
            "componentType" : 5123,
            "count" : 378,
            "type" : "SCALAR"
        }
    ],
    "bufferViews" : [
        {
            "buffer" : 0,
            "byteLength" : 3072,
            "byteOffset" : 0
        },
        {
            "buffer" : 0,
            "byteLength" : 3072,
            "byteOffset" : 3072
        },
        {
            "buffer" : 0,
            "byteLength" : 828,
            "byteOffset" : 6144
        },
        {
            "buffer" : 0,
            "byteLength" : 3972,
            "byteOffset" : 6972
        },
        {
            "buffer" : 0,
            "byteLength" : 3972,
            "byteOffset" : 10944
        },
        {
            "buffer" : 0,
            "byteLength" : 1074,
            "byteOffset" : 14916
        },
        {
            "buffer" : 0,
            "byteLength" : 3072,
            "byteOffset" : 15992
        },
        {
            "buffer" : 0,
            "byteLength" : 3072,
            "byteOffset" : 19064
        },
        {
            "buffer" : 0,
            "byteLength" : 756,
            "byteOffset" : 22136
        }
    ],
    "buffers" : [
        {
            "byteLength" : 22892,
            "uri" : "data:application/octet-stream;base64,"
        }
    ]
}
