{
    "asset" : {
        "generator" : "Khronos glTF Blender I/O v1.7.33",
        "version" : "2.0"
    },
    "scene" : 0,
    "scenes" : [
        {
            "name" : "Scene",
            "nodes" : [
                0
            ]
        }
    ],
    "nodes" : [
        {
            "mesh" : 0,
            "name" : "Temple_FirstAge_Level3"
        }
    ],
    "materials" : [
        {
            "doubleSided" : true,
            "name" : "Wood",
            "pbrMetallicRoughness" : {
                "baseColorFactor" : [
                    0.24618732929229736,
                    0.14435896277427673,
                    0.053798429667949677,
                    1
                ],
                "metallicFactor" : 0,
                "roughnessFactor" : 0.5
            }
        },
        {
            "doubleSided" : true,
            "name" : "Wood_Light",
            "pbrMetallicRoughness" : {
                "baseColorFactor" : [
                    0.3757452964782715,
                    0.24318844079971313,
                    0.09746062755584717,
                    1
                ],
                "metallicFactor" : 0,
                "roughnessFactor" : 0.5
            }
        },
        {
            "doubleSided" : true,
            "name" : "Main",
            "pbrMetallicRoughness" : {
                "baseColorFactor" : [
                    0.4385380148887634,
                    0.09992149472236633,
                    0.05885644257068634,
                    1
                ],
                "metallicFactor" : 0,
                "roughnessFactor" : 0.5
            }
        }
    ],
    "meshes" : [
        {
            "name" : "Cube.255",
            "primitives" : [
                {
                    "attributes" : {
                        "POSITION" : 0,
                        "NORMAL" : 1,
                        "TEXCOORD_0" : 2
                    },
                    "indices" : 3,
                    "material" : 0
                },
                {
                    "attributes" : {
                        "POSITION" : 4,
                        "NORMAL" : 5,
                        "TEXCOORD_0" : 6
                    },
                    "indices" : 7,
                    "material" : 1
                },
                {
                    "attributes" : {
                        "POSITION" : 8,
                        "NORMAL" : 9,
                        "TEXCOORD_0" : 10
                    },
                    "indices" : 11,
                    "material" : 2
                }
            ]
        }
    ],
    "accessors" : [
        {
            "bufferView" : 0,
            "componentType" : 5126,
            "count" : 16970,
            "max" : [
                0.9051523208618164,
                3.078014373779297,
                0.9051523208618164
            ],
            "min" : [
                -0.9051523208618164,
                -0.0005225736531428993,
                -0.9051523208618164
            ],
            "type" : "VEC3"
        },
        {
            "bufferView" : 1,
            "componentType" : 5126,
            "count" : 16970,
            "type" : "VEC3"
        },
        {
            "bufferView" : 2,
            "componentType" : 5126,
            "count" : 16970,
            "type" : "VEC2"
        },
        {
            "bufferView" : 3,
            "componentType" : 5123,
            "count" : 32268,
            "type" : "SCALAR"
        },
        {
            "bufferView" : 4,
            "componentType" : 5126,
            "count" : 572,
            "max" : [
                0.8830083608627319,
                2.927588939666748,
                0.8830083608627319
            ],
            "min" : [
                -0.8830083608627319,
                1.1422882080078125,
                -0.8830083608627319
            ],
            "type" : "VEC3"
        },
        {
            "bufferView" : 5,
            "componentType" : 5126,
            "count" : 572,
            "type" : "VEC3"
        },
        {
            "bufferView" : 6,
            "componentType" : 5126,
            "count" : 572,
            "type" : "VEC2"
        },
        {
            "bufferView" : 7,
            "componentType" : 5123,
            "count" : 864,
            "type" : "SCALAR"
        },
        {
            "bufferView" : 8,
            "componentType" : 5126,
            "count" : 64,
            "max" : [
                0.8765699863433838,
                2.108307123184204,
                0.8765699863433838
            ],
            "min" : [
                -0.8765699863433838,
                0.4172462821006775,
                -0.8765699863433838
            ],
            "type" : "VEC3"
        },
        {
            "bufferView" : 9,
            "componentType" : 5126,
            "count" : 64,
            "type" : "VEC3"
        },
        {
            "bufferView" : 10,
            "componentType" : 5126,
            "count" : 64,
            "type" : "VEC2"
        },
        {
            "bufferView" : 11,
            "componentType" : 5123,
            "count" : 96,
            "type" : "SCALAR"
        }
    ],
    "bufferViews" : [
        {
            "buffer" : 0,
            "byteLength" : 203640,
            "byteOffset" : 0
        },
        {
            "buffer" : 0,
            "byteLength" : 203640,
            "byteOffset" : 203640
        },
        {
            "buffer" : 0,
            "byteLength" : 135760,
            "byteOffset" : 407280
        },
        {
            "buffer" : 0,
            "byteLength" : 64536,
            "byteOffset" : 543040
        },
        {
            "buffer" : 0,
            "byteLength" : 6864,
            "byteOffset" : 607576
        },
        {
            "buffer" : 0,
            "byteLength" : 6864,
            "byteOffset" : 614440
        },
        {
            "buffer" : 0,
            "byteLength" : 4576,
            "byteOffset" : 621304
        },
        {
            "buffer" : 0,
            "byteLength" : 1728,
            "byteOffset" : 625880
        },
        {
            "buffer" : 0,
            "byteLength" : 768,
            "byteOffset" : 627608
        },
        {
            "buffer" : 0,
            "byteLength" : 768,
            "byteOffset" : 628376
        },
        {
            "buffer" : 0,
            "byteLength" : 512,
            "byteOffset" : 629144
        },
        {
            "buffer" : 0,
            "byteLength" : 192,
            "byteOffset" : 629656
        }
    ],
    "buffers" : [
        {
            "byteLength" : 629848,
            "uri" : "data:application/octet-stream;base64,"
        }
    ]
}
