{
    "asset" : {
        "generator" : "Khronos glTF Blender I/O v1.7.33",
        "version" : "2.0"
    },
    "scene" : 0,
    "scenes" : [
        {
            "name" : "Scene",
            "nodes" : [
                0
            ]
        }
    ],
    "nodes" : [
        {
            "mesh" : 0,
            "name" : "Temple_SecondAge_Level3"
        }
    ],
    "materials" : [
        {
            "doubleSided" : true,
            "name" : "Walls",
            "pbrMetallicRoughness" : {
                "baseColorFactor" : [
                    0.4352165758609772,
                    0.4385380148887634,
                    0.3826240599155426,
                    1
                ],
                "metallicFactor" : 0,
                "roughnessFactor" : 0.5
            }
        },
        {
            "doubleSided" : true,
            "name" : "Main",
            "pbrMetallicRoughness" : {
                "baseColorFactor" : [
                    0.4385380148887634,
                    0.09992149472236633,
                    0.05885644257068634,
                    1
                ],
                "metallicFactor" : 0,
                "roughnessFactor" : 0.5
            }
        },
        {
            "doubleSided" : true,
            "name" : "Stone",
            "pbrMetallicRoughness" : {
                "baseColorFactor" : [
                    0.24436430633068085,
                    0.24618881940841675,
                    0.21545054018497467,
                    1
                ],
                "metallicFactor" : 0,
                "roughnessFactor" : 0.5
            }
        }
    ],
    "meshes" : [
        {
            "name" : "Cube.223",
            "primitives" : [
                {
                    "attributes" : {
                        "POSITION" : 0,
                        "NORMAL" : 1
                    },
                    "indices" : 2,
                    "material" : 0
                },
                {
                    "attributes" : {
                        "POSITION" : 3,
                        "NORMAL" : 4
                    },
                    "indices" : 5,
                    "material" : 1
                },
                {
                    "attributes" : {
                        "POSITION" : 6,
                        "NORMAL" : 7
                    },
                    "indices" : 8,
                    "material" : 2
                }
            ]
        }
    ],
    "accessors" : [
        {
            "bufferView" : 0,
            "componentType" : 5126,
            "count" : 3772,
            "max" : [
                0.8743959665298462,
                2.8729169368743896,
                0.8588302135467529
            ],
            "min" : [
                -0.8743959665298462,
                -0.0019909143447875977,
                -0.8588302135467529
            ],
            "type" : "VEC3"
        },
        {
            "bufferView" : 1,
            "componentType" : 5126,
            "count" : 3772,
            "type" : "VEC3"
        },
        {
            "bufferView" : 2,
            "componentType" : 5123,
            "count" : 5790,
            "type" : "SCALAR"
        },
        {
            "bufferView" : 3,
            "componentType" : 5126,
            "count" : 4220,
            "max" : [
                0.8830427527427673,
                4.327067852020264,
                0.8676500916481018
            ],
            "min" : [
                -0.8830427527427673,
                1.6435664892196655,
                -0.8676500916481018
            ],
            "type" : "VEC3"
        },
        {
            "bufferView" : 4,
            "componentType" : 5126,
            "count" : 4220,
            "type" : "VEC3"
        },
        {
            "bufferView" : 5,
            "componentType" : 5123,
            "count" : 6306,
            "type" : "SCALAR"
        },
        {
            "bufferView" : 6,
            "componentType" : 5126,
            "count" : 2692,
            "max" : [
                1.0956482887268066,
                2.7023983001708984,
                1.095648169517517
            ],
            "min" : [
                -1.095648169517517,
                -0.001792582799680531,
                -1.0956482887268066
            ],
            "type" : "VEC3"
        },
        {
            "bufferView" : 7,
            "componentType" : 5126,
            "count" : 2692,
            "type" : "VEC3"
        },
        {
            "bufferView" : 8,
            "componentType" : 5123,
            "count" : 4140,
            "type" : "SCALAR"
        }
    ],
    "bufferViews" : [
        {
            "buffer" : 0,
            "byteLength" : 45264,
            "byteOffset" : 0
        },
        {
            "buffer" : 0,
            "byteLength" : 45264,
            "byteOffset" : 45264
        },
        {
            "buffer" : 0,
            "byteLength" : 11580,
            "byteOffset" : 90528
        },
        {
            "buffer" : 0,
            "byteLength" : 50640,
            "byteOffset" : 102108
        },
        {
            "buffer" : 0,
            "byteLength" : 50640,
            "byteOffset" : 152748
        },
        {
            "buffer" : 0,
            "byteLength" : 12612,
            "byteOffset" : 203388
        },
        {
            "buffer" : 0,
            "byteLength" : 32304,
            "byteOffset" : 216000
        },
        {
            "buffer" : 0,
            "byteLength" : 32304,
            "byteOffset" : 248304
        },
        {
            "buffer" : 0,
            "byteLength" : 8280,
            "byteOffset" : 280608
        }
    ],
    "buffers" : [
        {
            "byteLength" : 288888,
            "uri" : "data:application/octet-stream;base64,"
        }
    ]
}
