{
    "asset" : {
        "generator" : "Khronos glTF Blender I/O v1.7.33",
        "version" : "2.0"
    },
    "scene" : 0,
    "scenes" : [
        {
            "name" : "Scene",
            "nodes" : [
                0
            ]
        }
    ],
    "nodes" : [
        {
            "mesh" : 0,
            "name" : "Temple_FirstAge_Level1"
        }
    ],
    "materials" : [
        {
            "doubleSided" : true,
            "name" : "Wood",
            "pbrMetallicRoughness" : {
                "baseColorFactor" : [
                    0.24618732929229736,
                    0.14435896277427673,
                    0.053798429667949677,
                    1
                ],
                "metallicFactor" : 0,
                "roughnessFactor" : 0.5
            }
        },
        {
            "doubleSided" : true,
            "name" : "Wood_Light",
            "pbrMetallicRoughness" : {
                "baseColorFactor" : [
                    0.3757452964782715,
                    0.24318844079971313,
                    0.09746062755584717,
                    1
                ],
                "metallicFactor" : 0,
                "roughnessFactor" : 0.5
            }
        },
        {
            "doubleSided" : true,
            "name" : "Main",
            "pbrMetallicRoughness" : {
                "baseColorFactor" : [
                    0.4385380148887634,
                    0.09992149472236633,
                    0.05885644257068634,
                    1
                ],
                "metallicFactor" : 0,
                "roughnessFactor" : 0.5
            }
        }
    ],
    "meshes" : [
        {
            "name" : "Cube.140",
            "primitives" : [
                {
                    "attributes" : {
                        "POSITION" : 0,
                        "NORMAL" : 1,
                        "TEXCOORD_0" : 2
                    },
                    "indices" : 3,
                    "material" : 0
                },
                {
                    "attributes" : {
                        "POSITION" : 4,
                        "NORMAL" : 5,
                        "TEXCOORD_0" : 6
                    },
                    "indices" : 7,
                    "material" : 1
                },
                {
                    "attributes" : {
                        "POSITION" : 8,
                        "NORMAL" : 9,
                        "TEXCOORD_0" : 10
                    },
                    "indices" : 11,
                    "material" : 2
                }
            ]
        }
    ],
    "accessors" : [
        {
            "bufferView" : 0,
            "componentType" : 5126,
            "count" : 7360,
            "max" : [
                0.9051523208618164,
                1.812421441078186,
                0.9051523208618164
            ],
            "min" : [
                -0.9051523208618164,
                -0.0005225736531428993,
                -0.9051523208618164
            ],
            "type" : "VEC3"
        },
        {
            "bufferView" : 1,
            "componentType" : 5126,
            "count" : 7360,
            "type" : "VEC3"
        },
        {
            "bufferView" : 2,
            "componentType" : 5126,
            "count" : 7360,
            "type" : "VEC2"
        },
        {
            "bufferView" : 3,
            "componentType" : 5123,
            "count" : 14052,
            "type" : "SCALAR"
        },
        {
            "bufferView" : 4,
            "componentType" : 5126,
            "count" : 252,
            "max" : [
                0.8830083608627319,
                1.5955681800842285,
                0.8830083608627319
            ],
            "min" : [
                -0.8830083608627319,
                1.1422882080078125,
                -0.8830083608627319
            ],
            "type" : "VEC3"
        },
        {
            "bufferView" : 5,
            "componentType" : 5126,
            "count" : 252,
            "type" : "VEC3"
        },
        {
            "bufferView" : 6,
            "componentType" : 5126,
            "count" : 252,
            "type" : "VEC2"
        },
        {
            "bufferView" : 7,
            "componentType" : 5123,
            "count" : 384,
            "type" : "SCALAR"
        },
        {
            "bufferView" : 8,
            "componentType" : 5126,
            "count" : 32,
            "max" : [
                0.8765699863433838,
                1.1481481790542603,
                0.8765699863433838
            ],
            "min" : [
                -0.8765699863433838,
                0.4172462821006775,
                -0.8765699863433838
            ],
            "type" : "VEC3"
        },
        {
            "bufferView" : 9,
            "componentType" : 5126,
            "count" : 32,
            "type" : "VEC3"
        },
        {
            "bufferView" : 10,
            "componentType" : 5126,
            "count" : 32,
            "type" : "VEC2"
        },
        {
            "bufferView" : 11,
            "componentType" : 5123,
            "count" : 48,
            "type" : "SCALAR"
        }
    ],
    "bufferViews" : [
        {
            "buffer" : 0,
            "byteLength" : 88320,
            "byteOffset" : 0
        },
        {
            "buffer" : 0,
            "byteLength" : 88320,
            "byteOffset" : 88320
        },
        {
            "buffer" : 0,
            "byteLength" : 58880,
            "byteOffset" : 176640
        },
        {
            "buffer" : 0,
            "byteLength" : 28104,
            "byteOffset" : 235520
        },
        {
            "buffer" : 0,
            "byteLength" : 3024,
            "byteOffset" : 263624
        },
        {
            "buffer" : 0,
            "byteLength" : 3024,
            "byteOffset" : 266648
        },
        {
            "buffer" : 0,
            "byteLength" : 2016,
            "byteOffset" : 269672
        },
        {
            "buffer" : 0,
            "byteLength" : 768,
            "byteOffset" : 271688
        },
        {
            "buffer" : 0,
            "byteLength" : 384,
            "byteOffset" : 272456
        },
        {
            "buffer" : 0,
            "byteLength" : 384,
            "byteOffset" : 272840
        },
        {
            "buffer" : 0,
            "byteLength" : 256,
            "byteOffset" : 273224
        },
        {
            "buffer" : 0,
            "byteLength" : 96,
            "byteOffset" : 273480
        }
    ],
    "buffers" : [
        {
            "byteLength" : 273576,
            "uri" : "data:application/octet-stream;base64,"
        }
    ]
}
