{
    "asset" : {
        "generator" : "Khronos glTF Blender I/O v1.7.33",
        "version" : "2.0"
    },
    "scene" : 0,
    "scenes" : [
        {
            "name" : "Scene",
            "nodes" : [
                0
            ]
        }
    ],
    "nodes" : [
        {
            "mesh" : 0,
            "name" : "TowerHouse_FirstAge"
        }
    ],
    "materials" : [
        {
            "doubleSided" : true,
            "name" : "Wood",
            "pbrMetallicRoughness" : {
                "baseColorFactor" : [
                    0.24618732929229736,
                    0.14435896277427673,
                    0.053798429667949677,
                    1
                ],
                "metallicFactor" : 0,
                "roughnessFactor" : 0.5
            }
        },
        {
            "doubleSided" : true,
            "name" : "Wood_Light",
            "pbrMetallicRoughness" : {
                "baseColorFactor" : [
                    0.3757452964782715,
                    0.24318844079971313,
                    0.09746062755584717,
                    1
                ],
                "metallicFactor" : 0,
                "roughnessFactor" : 0.5
            }
        },
        {
            "doubleSided" : true,
            "name" : "Stone",
            "pbrMetallicRoughness" : {
                "baseColorFactor" : [
                    0.24436430633068085,
                    0.24618881940841675,
                    0.21545054018497467,
                    1
                ],
                "metallicFactor" : 0,
                "roughnessFactor" : 0.5
            }
        },
        {
            "doubleSided" : true,
            "name" : "Main",
            "pbrMetallicRoughness" : {
                "baseColorFactor" : [
                    0.4385380148887634,
                    0.09992149472236633,
                    0.05885644257068634,
                    1
                ],
                "metallicFactor" : 0,
                "roughnessFactor" : 0.5
            }
        }
    ],
    "meshes" : [
        {
            "name" : "Cube.078",
            "primitives" : [
                {
                    "attributes" : {
                        "POSITION" : 0,
                        "NORMAL" : 1,
                        "TEXCOORD_0" : 2
                    },
                    "indices" : 3,
                    "material" : 0
                },
                {
                    "attributes" : {
                        "POSITION" : 4,
                        "NORMAL" : 5,
                        "TEXCOORD_0" : 6
                    },
                    "indices" : 7,
                    "material" : 1
                },
                {
                    "attributes" : {
                        "POSITION" : 8,
                        "NORMAL" : 9,
                        "TEXCOORD_0" : 10
                    },
                    "indices" : 11,
                    "material" : 2
                },
                {
                    "attributes" : {
                        "POSITION" : 12,
                        "NORMAL" : 13,
                        "TEXCOORD_0" : 14
                    },
                    "indices" : 15,
                    "material" : 3
                }
            ]
        }
    ],
    "accessors" : [
        {
            "bufferView" : 0,
            "componentType" : 5126,
            "count" : 2624,
            "max" : [
                0.6928378343582153,
                1.4726988077163696,
                0.5850149393081665
            ],
            "min" : [
                -0.6928378343582153,
                0.001981117995455861,
                -0.5850149393081665
            ],
            "type" : "VEC3"
        },
        {
            "bufferView" : 1,
            "componentType" : 5126,
            "count" : 2624,
            "type" : "VEC3"
        },
        {
            "bufferView" : 2,
            "componentType" : 5126,
            "count" : 2624,
            "type" : "VEC2"
        },
        {
            "bufferView" : 3,
            "componentType" : 5123,
            "count" : 4572,
            "type" : "SCALAR"
        },
        {
            "bufferView" : 4,
            "componentType" : 5126,
            "count" : 286,
            "max" : [
                0.54524827003479,
                1.348081350326538,
                0.4741869866847992
            ],
            "min" : [
                -0.54524827003479,
                0.0004618043312802911,
                -0.48072749376296997
            ],
            "type" : "VEC3"
        },
        {
            "bufferView" : 5,
            "componentType" : 5126,
            "count" : 286,
            "type" : "VEC3"
        },
        {
            "bufferView" : 6,
            "componentType" : 5126,
            "count" : 286,
            "type" : "VEC2"
        },
        {
            "bufferView" : 7,
            "componentType" : 5123,
            "count" : 468,
            "type" : "SCALAR"
        },
        {
            "bufferView" : 8,
            "componentType" : 5126,
            "count" : 64,
            "max" : [
                0.5671885013580322,
                0.08124923706054688,
                0.46668076515197754
            ],
            "min" : [
                -0.5671885013580322,
                0.0015310125891119242,
                -0.46668076515197754
            ],
            "type" : "VEC3"
        },
        {
            "bufferView" : 9,
            "componentType" : 5126,
            "count" : 64,
            "type" : "VEC3"
        },
        {
            "bufferView" : 10,
            "componentType" : 5126,
            "count" : 64,
            "type" : "VEC2"
        },
        {
            "bufferView" : 11,
            "componentType" : 5123,
            "count" : 108,
            "type" : "SCALAR"
        },
        {
            "bufferView" : 12,
            "componentType" : 5126,
            "count" : 262,
            "max" : [
                0.3209087550640106,
                1.4557801485061646,
                0.5586085915565491
            ],
            "min" : [
                -0.23729604482650757,
                0.8737596869468689,
                -0.5537368655204773
            ],
            "type" : "VEC3"
        },
        {
            "bufferView" : 13,
            "componentType" : 5126,
            "count" : 262,
            "type" : "VEC3"
        },
        {
            "bufferView" : 14,
            "componentType" : 5126,
            "count" : 262,
            "type" : "VEC2"
        },
        {
            "bufferView" : 15,
            "componentType" : 5123,
            "count" : 396,
            "type" : "SCALAR"
        }
    ],
    "bufferViews" : [
        {
            "buffer" : 0,
            "byteLength" : 31488,
            "byteOffset" : 0
        },
        {
            "buffer" : 0,
            "byteLength" : 31488,
            "byteOffset" : 31488
        },
        {
            "buffer" : 0,
            "byteLength" : 20992,
            "byteOffset" : 62976
        },
        {
            "buffer" : 0,
            "byteLength" : 9144,
            "byteOffset" : 83968
        },
        {
            "buffer" : 0,
            "byteLength" : 3432,
            "byteOffset" : 93112
        },
        {
            "buffer" : 0,
            "byteLength" : 3432,
            "byteOffset" : 96544
        },
        {
            "buffer" : 0,
            "byteLength" : 2288,
            "byteOffset" : 99976
        },
        {
            "buffer" : 0,
            "byteLength" : 936,
            "byteOffset" : 102264
        },
        {
            "buffer" : 0,
            "byteLength" : 768,
            "byteOffset" : 103200
        },
        {
            "buffer" : 0,
            "byteLength" : 768,
            "byteOffset" : 103968
        },
        {
            "buffer" : 0,
            "byteLength" : 512,
            "byteOffset" : 104736
        },
        {
            "buffer" : 0,
            "byteLength" : 216,
            "byteOffset" : 105248
        },
        {
            "buffer" : 0,
            "byteLength" : 3144,
            "byteOffset" : 105464
        },
        {
            "buffer" : 0,
            "byteLength" : 3144,
            "byteOffset" : 108608
        },
        {
            "buffer" : 0,
            "byteLength" : 2096,
            "byteOffset" : 111752
        },
        {
            "buffer" : 0,
            "byteLength" : 792,
            "byteOffset" : 113848
        }
    ],
    "buffers" : [
        {
            "byteLength" : 114640,
            "uri" : "data:application/octet-stream;base64,"
        }
    ]
}
