{
    "asset" : {
        "generator" : "Khronos glTF Blender I/O v1.7.33",
        "version" : "2.0"
    },
    "scene" : 0,
    "scenes" : [
        {
            "name" : "Scene",
            "nodes" : [
                0
            ]
        }
    ],
    "nodes" : [
        {
            "mesh" : 0,
            "name" : "TownCenter_FirstAge_Level2"
        }
    ],
    "materials" : [
        {
            "doubleSided" : true,
            "name" : "Wood",
            "pbrMetallicRoughness" : {
                "baseColorFactor" : [
                    0.24618732929229736,
                    0.14435896277427673,
                    0.053798429667949677,
                    1
                ],
                "metallicFactor" : 0,
                "roughnessFactor" : 0.5
            }
        },
        {
            "doubleSided" : true,
            "name" : "Wood_Light",
            "pbrMetallicRoughness" : {
                "baseColorFactor" : [
                    0.3757452964782715,
                    0.24318844079971313,
                    0.09746062755584717,
                    1
                ],
                "metallicFactor" : 0,
                "roughnessFactor" : 0.5
            }
        },
        {
            "doubleSided" : true,
            "name" : "Green",
            "pbrMetallicRoughness" : {
                "baseColorFactor" : [
                    0.09404914081096649,
                    0.1788560301065445,
                    0.012008205987513065,
                    1
                ],
                "metallicFactor" : 0,
                "roughnessFactor" : 0.5
            }
        },
        {
            "doubleSided" : true,
            "name" : "Stone",
            "pbrMetallicRoughness" : {
                "baseColorFactor" : [
                    0.24436430633068085,
                    0.24618881940841675,
                    0.21545054018497467,
                    1
                ],
                "metallicFactor" : 0,
                "roughnessFactor" : 0.5
            }
        }
    ],
    "meshes" : [
        {
            "name" : "Cube.115",
            "primitives" : [
                {
                    "attributes" : {
                        "POSITION" : 0,
                        "NORMAL" : 1,
                        "TEXCOORD_0" : 2
                    },
                    "indices" : 3,
                    "material" : 0
                },
                {
                    "attributes" : {
                        "POSITION" : 4,
                        "NORMAL" : 5,
                        "TEXCOORD_0" : 6
                    },
                    "indices" : 7,
                    "material" : 1
                },
                {
                    "attributes" : {
                        "POSITION" : 8,
                        "NORMAL" : 9,
                        "TEXCOORD_0" : 10
                    },
                    "indices" : 11,
                    "material" : 2
                },
                {
                    "attributes" : {
                        "POSITION" : 12,
                        "NORMAL" : 13,
                        "TEXCOORD_0" : 14
                    },
                    "indices" : 15,
                    "material" : 3
                }
            ]
        }
    ],
    "accessors" : [
        {
            "bufferView" : 0,
            "componentType" : 5126,
            "count" : 2650,
            "max" : [
                0.6242650151252747,
                1.0636212825775146,
                0.614226758480072
            ],
            "min" : [
                -0.6242644786834717,
                -0.024034172296524048,
                -0.614226758480072
            ],
            "type" : "VEC3"
        },
        {
            "bufferView" : 1,
            "componentType" : 5126,
            "count" : 2650,
            "type" : "VEC3"
        },
        {
            "bufferView" : 2,
            "componentType" : 5126,
            "count" : 2650,
            "type" : "VEC2"
        },
        {
            "bufferView" : 3,
            "componentType" : 5123,
            "count" : 6720,
            "type" : "SCALAR"
        },
        {
            "bufferView" : 4,
            "componentType" : 5126,
            "count" : 428,
            "max" : [
                0.6318870186805725,
                0.5171250104904175,
                0.6202993392944336
            ],
            "min" : [
                -0.6318864822387695,
                -0.024034172296524048,
                -0.6202993392944336
            ],
            "type" : "VEC3"
        },
        {
            "bufferView" : 5,
            "componentType" : 5126,
            "count" : 428,
            "type" : "VEC3"
        },
        {
            "bufferView" : 6,
            "componentType" : 5126,
            "count" : 428,
            "type" : "VEC2"
        },
        {
            "bufferView" : 7,
            "componentType" : 5123,
            "count" : 690,
            "type" : "SCALAR"
        },
        {
            "bufferView" : 8,
            "componentType" : 5126,
            "count" : 596,
            "max" : [
                0.6316673159599304,
                0.44539129734039307,
                0.6148588061332703
            ],
            "min" : [
                -0.6316667795181274,
                0.2307659238576889,
                -0.6148588061332703
            ],
            "type" : "VEC3"
        },
        {
            "bufferView" : 9,
            "componentType" : 5126,
            "count" : 596,
            "type" : "VEC3"
        },
        {
            "bufferView" : 10,
            "componentType" : 5126,
            "count" : 596,
            "type" : "VEC2"
        },
        {
            "bufferView" : 11,
            "componentType" : 5123,
            "count" : 1536,
            "type" : "SCALAR"
        },
        {
            "bufferView" : 12,
            "componentType" : 5126,
            "count" : 510,
            "max" : [
                0.5010700821876526,
                0.08660179376602173,
                0.5161587595939636
            ],
            "min" : [
                -0.5465224981307983,
                -0.015857964754104614,
                -0.4750567674636841
            ],
            "type" : "VEC3"
        },
        {
            "bufferView" : 13,
            "componentType" : 5126,
            "count" : 510,
            "type" : "VEC3"
        },
        {
            "bufferView" : 14,
            "componentType" : 5126,
            "count" : 510,
            "type" : "VEC2"
        },
        {
            "bufferView" : 15,
            "componentType" : 5123,
            "count" : 1056,
            "type" : "SCALAR"
        }
    ],
    "bufferViews" : [
        {
            "buffer" : 0,
            "byteLength" : 31800,
            "byteOffset" : 0
        },
        {
            "buffer" : 0,
            "byteLength" : 31800,
            "byteOffset" : 31800
        },
        {
            "buffer" : 0,
            "byteLength" : 21200,
            "byteOffset" : 63600
        },
        {
            "buffer" : 0,
            "byteLength" : 13440,
            "byteOffset" : 84800
        },
        {
            "buffer" : 0,
            "byteLength" : 5136,
            "byteOffset" : 98240
        },
        {
            "buffer" : 0,
            "byteLength" : 5136,
            "byteOffset" : 103376
        },
        {
            "buffer" : 0,
            "byteLength" : 3424,
            "byteOffset" : 108512
        },
        {
            "buffer" : 0,
            "byteLength" : 1380,
            "byteOffset" : 111936
        },
        {
            "buffer" : 0,
            "byteLength" : 7152,
            "byteOffset" : 113316
        },
        {
            "buffer" : 0,
            "byteLength" : 7152,
            "byteOffset" : 120468
        },
        {
            "buffer" : 0,
            "byteLength" : 4768,
            "byteOffset" : 127620
        },
        {
            "buffer" : 0,
            "byteLength" : 3072,
            "byteOffset" : 132388
        },
        {
            "buffer" : 0,
            "byteLength" : 6120,
            "byteOffset" : 135460
        },
        {
            "buffer" : 0,
            "byteLength" : 6120,
            "byteOffset" : 141580
        },
        {
            "buffer" : 0,
            "byteLength" : 4080,
            "byteOffset" : 147700
        },
        {
            "buffer" : 0,
            "byteLength" : 2112,
            "byteOffset" : 151780
        }
    ],
    "buffers" : [
        {
            "byteLength" : 153892,
            "uri" : "data:application/octet-stream;base64,"
        }
    ]
}
