{
    "asset" : {
        "generator" : "Khronos glTF Blender I/O v1.7.33",
        "version" : "2.0"
    },
    "scene" : 0,
    "scenes" : [
        {
            "name" : "Scene",
            "nodes" : [
                0
            ]
        }
    ],
    "nodes" : [
        {
            "mesh" : 0,
            "name" : "TownCenter_FirstAge_Level1"
        }
    ],
    "materials" : [
        {
            "doubleSided" : true,
            "name" : "Wood",
            "pbrMetallicRoughness" : {
                "baseColorFactor" : [
                    0.24618732929229736,
                    0.14435896277427673,
                    0.053798429667949677,
                    1
                ],
                "metallicFactor" : 0,
                "roughnessFactor" : 0.5
            }
        },
        {
            "doubleSided" : true,
            "name" : "Wood_Light",
            "pbrMetallicRoughness" : {
                "baseColorFactor" : [
                    0.3757452964782715,
                    0.24318844079971313,
                    0.09746062755584717,
                    1
                ],
                "metallicFactor" : 0,
                "roughnessFactor" : 0.5
            }
        }
    ],
    "meshes" : [
        {
            "name" : "Cube.276",
            "primitives" : [
                {
                    "attributes" : {
                        "POSITION" : 0,
                        "NORMAL" : 1,
                        "TEXCOORD_0" : 2
                    },
                    "indices" : 3,
                    "material" : 0
                },
                {
                    "attributes" : {
                        "POSITION" : 4,
                        "NORMAL" : 5,
                        "TEXCOORD_0" : 6
                    },
                    "indices" : 7,
                    "material" : 1
                }
            ]
        }
    ],
    "accessors" : [
        {
            "bufferView" : 0,
            "componentType" : 5126,
            "count" : 912,
            "max" : [
                0.6242650151252747,
                0.2793099284172058,
                0.614226758480072
            ],
            "min" : [
                -0.6242644786834717,
                -0.024034172296524048,
                -0.614226758480072
            ],
            "type" : "VEC3"
        },
        {
            "bufferView" : 1,
            "componentType" : 5126,
            "count" : 912,
            "type" : "VEC3"
        },
        {
            "bufferView" : 2,
            "componentType" : 5126,
            "count" : 912,
            "type" : "VEC2"
        },
        {
            "bufferView" : 3,
            "componentType" : 5123,
            "count" : 1680,
            "type" : "SCALAR"
        },
        {
            "bufferView" : 4,
            "componentType" : 5126,
            "count" : 392,
            "max" : [
                0.6318870186805725,
                0.24565726518630981,
                0.6202993392944336
            ],
            "min" : [
                -0.6318864822387695,
                -0.024034172296524048,
                -0.6202993392944336
            ],
            "type" : "VEC3"
        },
        {
            "bufferView" : 5,
            "componentType" : 5126,
            "count" : 392,
            "type" : "VEC3"
        },
        {
            "bufferView" : 6,
            "componentType" : 5126,
            "count" : 392,
            "type" : "VEC2"
        },
        {
            "bufferView" : 7,
            "componentType" : 5123,
            "count" : 636,
            "type" : "SCALAR"
        }
    ],
    "bufferViews" : [
        {
            "buffer" : 0,
            "byteLength" : 10944,
            "byteOffset" : 0
        },
        {
            "buffer" : 0,
            "byteLength" : 10944,
            "byteOffset" : 10944
        },
        {
            "buffer" : 0,
            "byteLength" : 7296,
            "byteOffset" : 21888
        },
        {
            "buffer" : 0,
            "byteLength" : 3360,
            "byteOffset" : 29184
        },
        {
            "buffer" : 0,
            "byteLength" : 4704,
            "byteOffset" : 32544
        },
        {
            "buffer" : 0,
            "byteLength" : 4704,
            "byteOffset" : 37248
        },
        {
            "buffer" : 0,
            "byteLength" : 3136,
            "byteOffset" : 41952
        },
        {
            "buffer" : 0,
            "byteLength" : 1272,
            "byteOffset" : 45088
        }
    ],
    "buffers" : [
        {
            "byteLength" : 46360,
            "uri" : "data:application/octet-stream;base64,"
        }
    ]
}
