{
    "asset" : {
        "generator" : "Khronos glTF Blender I/O v1.7.33",
        "version" : "2.0"
    },
    "scene" : 0,
    "scenes" : [
        {
            "name" : "Scene",
            "nodes" : [
                0
            ]
        }
    ],
    "nodes" : [
        {
            "mesh" : 0,
            "name" : "TownCenter_FirstAge_Level3"
        }
    ],
    "materials" : [
        {
            "doubleSided" : true,
            "name" : "Wood",
            "pbrMetallicRoughness" : {
                "baseColorFactor" : [
                    0.24618732929229736,
                    0.14435896277427673,
                    0.053798429667949677,
                    1
                ],
                "metallicFactor" : 0,
                "roughnessFactor" : 0.5
            }
        },
        {
            "doubleSided" : true,
            "name" : "Wood_Light",
            "pbrMetallicRoughness" : {
                "baseColorFactor" : [
                    0.3757452964782715,
                    0.24318844079971313,
                    0.09746062755584717,
                    1
                ],
                "metallicFactor" : 0,
                "roughnessFactor" : 0.5
            }
        },
        {
            "doubleSided" : true,
            "name" : "Green",
            "pbrMetallicRoughness" : {
                "baseColorFactor" : [
                    0.09404914081096649,
                    0.1788560301065445,
                    0.012008205987513065,
                    1
                ],
                "metallicFactor" : 0,
                "roughnessFactor" : 0.5
            }
        }
    ],
    "meshes" : [
        {
            "name" : "Cube.273",
            "primitives" : [
                {
                    "attributes" : {
                        "POSITION" : 0,
                        "NORMAL" : 1,
                        "TEXCOORD_0" : 2
                    },
                    "indices" : 3,
                    "material" : 0
                },
                {
                    "attributes" : {
                        "POSITION" : 4,
                        "NORMAL" : 5,
                        "TEXCOORD_0" : 6
                    },
                    "indices" : 7,
                    "material" : 1
                },
                {
                    "attributes" : {
                        "POSITION" : 8,
                        "NORMAL" : 9,
                        "TEXCOORD_0" : 10
                    },
                    "indices" : 11,
                    "material" : 2
                }
            ]
        }
    ],
    "accessors" : [
        {
            "bufferView" : 0,
            "componentType" : 5126,
            "count" : 5169,
            "max" : [
                0.6242650151252747,
                1.2136280536651611,
                0.614226758480072
            ],
            "min" : [
                -0.6242644786834717,
                -0.040193960070610046,
                -0.614226758480072
            ],
            "type" : "VEC3"
        },
        {
            "bufferView" : 1,
            "componentType" : 5126,
            "count" : 5169,
            "type" : "VEC3"
        },
        {
            "bufferView" : 2,
            "componentType" : 5126,
            "count" : 5169,
            "type" : "VEC2"
        },
        {
            "bufferView" : 3,
            "componentType" : 5123,
            "count" : 13746,
            "type" : "SCALAR"
        },
        {
            "bufferView" : 4,
            "componentType" : 5126,
            "count" : 596,
            "max" : [
                0.6318870186805725,
                0.5934740304946899,
                0.6202993392944336
            ],
            "min" : [
                -0.6318864822387695,
                -0.040193960070610046,
                -0.6202993392944336
            ],
            "type" : "VEC3"
        },
        {
            "bufferView" : 5,
            "componentType" : 5126,
            "count" : 596,
            "type" : "VEC3"
        },
        {
            "bufferView" : 6,
            "componentType" : 5126,
            "count" : 596,
            "type" : "VEC2"
        },
        {
            "bufferView" : 7,
            "componentType" : 5123,
            "count" : 942,
            "type" : "SCALAR"
        },
        {
            "bufferView" : 8,
            "componentType" : 5126,
            "count" : 596,
            "max" : [
                0.6316673159599304,
                0.44539129734039307,
                0.6148588061332703
            ],
            "min" : [
                -0.6316667795181274,
                0.2307659238576889,
                -0.6148588061332703
            ],
            "type" : "VEC3"
        },
        {
            "bufferView" : 9,
            "componentType" : 5126,
            "count" : 596,
            "type" : "VEC3"
        },
        {
            "bufferView" : 10,
            "componentType" : 5126,
            "count" : 596,
            "type" : "VEC2"
        },
        {
            "bufferView" : 11,
            "componentType" : 5123,
            "count" : 1536,
            "type" : "SCALAR"
        }
    ],
    "bufferViews" : [
        {
            "buffer" : 0,
            "byteLength" : 62028,
            "byteOffset" : 0
        },
        {
            "buffer" : 0,
            "byteLength" : 62028,
            "byteOffset" : 62028
        },
        {
            "buffer" : 0,
            "byteLength" : 41352,
            "byteOffset" : 124056
        },
        {
            "buffer" : 0,
            "byteLength" : 27492,
            "byteOffset" : 165408
        },
        {
            "buffer" : 0,
            "byteLength" : 7152,
            "byteOffset" : 192900
        },
        {
            "buffer" : 0,
            "byteLength" : 7152,
            "byteOffset" : 200052
        },
        {
            "buffer" : 0,
            "byteLength" : 4768,
            "byteOffset" : 207204
        },
        {
            "buffer" : 0,
            "byteLength" : 1884,
            "byteOffset" : 211972
        },
        {
            "buffer" : 0,
            "byteLength" : 7152,
            "byteOffset" : 213856
        },
        {
            "buffer" : 0,
            "byteLength" : 7152,
            "byteOffset" : 221008
        },
        {
            "buffer" : 0,
            "byteLength" : 4768,
            "byteOffset" : 228160
        },
        {
            "buffer" : 0,
            "byteLength" : 3072,
            "byteOffset" : 232928
        }
    ],
    "buffers" : [
        {
            "byteLength" : 236000,
            "uri" : "data:application/octet-stream;base64,"
        }
    ]
}
