{
    "asset" : {
        "generator" : "Khronos glTF Blender I/O v1.7.33",
        "version" : "2.0"
    },
    "scene" : 0,
    "scenes" : [
        {
            "name" : "Scene",
            "nodes" : [
                0
            ]
        }
    ],
    "nodes" : [
        {
            "mesh" : 0,
            "name" : "TownCenter_SecondAge_Level1"
        }
    ],
    "materials" : [
        {
            "doubleSided" : true,
            "name" : "Stone",
            "pbrMetallicRoughness" : {
                "baseColorFactor" : [
                    0.24436430633068085,
                    0.24618881940841675,
                    0.21545054018497467,
                    1
                ],
                "metallicFactor" : 0,
                "roughnessFactor" : 0.5
            }
        },
        {
            "doubleSided" : true,
            "name" : "Water",
            "pbrMetallicRoughness" : {
                "baseColorFactor" : [
                    0.07126493006944656,
                    0.21333862841129303,
                    0.24618874490261078,
                    1
                ],
                "metallicFactor" : 0,
                "roughnessFactor" : 0.5
            }
        }
    ],
    "meshes" : [
        {
            "name" : "Cube.220",
            "primitives" : [
                {
                    "attributes" : {
                        "POSITION" : 0,
                        "NORMAL" : 1,
                        "TEXCOORD_0" : 2
                    },
                    "indices" : 3,
                    "material" : 0
                },
                {
                    "attributes" : {
                        "POSITION" : 4,
                        "NORMAL" : 5,
                        "TEXCOORD_0" : 6
                    },
                    "indices" : 7,
                    "material" : 1
                }
            ]
        }
    ],
    "accessors" : [
        {
            "bufferView" : 0,
            "componentType" : 5126,
            "count" : 4502,
            "max" : [
                0.927966296672821,
                1.2695947885513306,
                0.927966296672821
            ],
            "min" : [
                -0.927966296672821,
                -0.007499798201024532,
                -0.927966296672821
            ],
            "type" : "VEC3"
        },
        {
            "bufferView" : 1,
            "componentType" : 5126,
            "count" : 4502,
            "type" : "VEC3"
        },
        {
            "bufferView" : 2,
            "componentType" : 5126,
            "count" : 4502,
            "type" : "VEC2"
        },
        {
            "bufferView" : 3,
            "componentType" : 5123,
            "count" : 13782,
            "type" : "SCALAR"
        },
        {
            "bufferView" : 4,
            "componentType" : 5126,
            "count" : 12,
            "max" : [
                0.7309689521789551,
                0.056887902319431305,
                0.7309689521789551
            ],
            "min" : [
                -0.7309689521789551,
                0.056887902319431305,
                -0.7309689521789551
            ],
            "type" : "VEC3"
        },
        {
            "bufferView" : 5,
            "componentType" : 5126,
            "count" : 12,
            "type" : "VEC3"
        },
        {
            "bufferView" : 6,
            "componentType" : 5126,
            "count" : 12,
            "type" : "VEC2"
        },
        {
            "bufferView" : 7,
            "componentType" : 5123,
            "count" : 30,
            "type" : "SCALAR"
        }
    ],
    "bufferViews" : [
        {
            "buffer" : 0,
            "byteLength" : 54024,
            "byteOffset" : 0
        },
        {
            "buffer" : 0,
            "byteLength" : 54024,
            "byteOffset" : 54024
        },
        {
            "buffer" : 0,
            "byteLength" : 36016,
            "byteOffset" : 108048
        },
        {
            "buffer" : 0,
            "byteLength" : 27564,
            "byteOffset" : 144064
        },
        {
            "buffer" : 0,
            "byteLength" : 144,
            "byteOffset" : 171628
        },
        {
            "buffer" : 0,
            "byteLength" : 144,
            "byteOffset" : 171772
        },
        {
            "buffer" : 0,
            "byteLength" : 96,
            "byteOffset" : 171916
        },
        {
            "buffer" : 0,
            "byteLength" : 60,
            "byteOffset" : 172012
        }
    ],
    "buffers" : [
        {
            "byteLength" : 172072,
            "uri" : "data:application/octet-stream;base64,"
        }
    ]
}
