{
    "asset" : {
        "generator" : "Khronos glTF Blender I/O v1.7.33",
        "version" : "2.0"
    },
    "scene" : 0,
    "scenes" : [
        {
            "name" : "Scene",
            "nodes" : [
                0
            ]
        }
    ],
    "nodes" : [
        {
            "mesh" : 0,
            "name" : "TownCenter_SecondAge_Level3"
        }
    ],
    "materials" : [
        {
            "doubleSided" : true,
            "name" : "Stone",
            "pbrMetallicRoughness" : {
                "baseColorFactor" : [
                    0.24436430633068085,
                    0.24618881940841675,
                    0.21545054018497467,
                    1
                ],
                "metallicFactor" : 0,
                "roughnessFactor" : 0.5
            }
        },
        {
            "doubleSided" : true,
            "name" : "Green",
            "pbrMetallicRoughness" : {
                "baseColorFactor" : [
                    0.09404914081096649,
                    0.1788560301065445,
                    0.012008205987513065,
                    1
                ],
                "metallicFactor" : 0,
                "roughnessFactor" : 0.5
            }
        },
        {
            "doubleSided" : true,
            "name" : "Water",
            "pbrMetallicRoughness" : {
                "baseColorFactor" : [
                    0.07126493006944656,
                    0.21333862841129303,
                    0.24618874490261078,
                    1
                ],
                "metallicFactor" : 0,
                "roughnessFactor" : 0.5
            }
        }
    ],
    "meshes" : [
        {
            "name" : "Cube.219",
            "primitives" : [
                {
                    "attributes" : {
                        "POSITION" : 0,
                        "NORMAL" : 1,
                        "TEXCOORD_0" : 2
                    },
                    "indices" : 3,
                    "material" : 0
                },
                {
                    "attributes" : {
                        "POSITION" : 4,
                        "NORMAL" : 5,
                        "TEXCOORD_0" : 6
                    },
                    "indices" : 7,
                    "material" : 1
                },
                {
                    "attributes" : {
                        "POSITION" : 8,
                        "NORMAL" : 9,
                        "TEXCOORD_0" : 10
                    },
                    "indices" : 11,
                    "material" : 2
                }
            ]
        }
    ],
    "accessors" : [
        {
            "bufferView" : 0,
            "componentType" : 5126,
            "count" : 9742,
            "max" : [
                0.927966296672821,
                1.2695947885513306,
                0.927966296672821
            ],
            "min" : [
                -0.927966296672821,
                -0.007499798201024532,
                -0.927966296672821
            ],
            "type" : "VEC3"
        },
        {
            "bufferView" : 1,
            "componentType" : 5126,
            "count" : 9742,
            "type" : "VEC3"
        },
        {
            "bufferView" : 2,
            "componentType" : 5126,
            "count" : 9742,
            "type" : "VEC2"
        },
        {
            "bufferView" : 3,
            "componentType" : 5123,
            "count" : 33906,
            "type" : "SCALAR"
        },
        {
            "bufferView" : 4,
            "componentType" : 5126,
            "count" : 356,
            "max" : [
                0.7568305134773254,
                0.671888530254364,
                0.7568305134773254
            ],
            "min" : [
                -0.7568305134773254,
                0.2538297772407532,
                -0.7568305134773254
            ],
            "type" : "VEC3"
        },
        {
            "bufferView" : 5,
            "componentType" : 5126,
            "count" : 356,
            "type" : "VEC3"
        },
        {
            "bufferView" : 6,
            "componentType" : 5126,
            "count" : 356,
            "type" : "VEC2"
        },
        {
            "bufferView" : 7,
            "componentType" : 5123,
            "count" : 1560,
            "type" : "SCALAR"
        },
        {
            "bufferView" : 8,
            "componentType" : 5126,
            "count" : 12,
            "max" : [
                0.7309689521789551,
                0.056887902319431305,
                0.7309689521789551
            ],
            "min" : [
                -0.7309689521789551,
                0.056887902319431305,
                -0.7309689521789551
            ],
            "type" : "VEC3"
        },
        {
            "bufferView" : 9,
            "componentType" : 5126,
            "count" : 12,
            "type" : "VEC3"
        },
        {
            "bufferView" : 10,
            "componentType" : 5126,
            "count" : 12,
            "type" : "VEC2"
        },
        {
            "bufferView" : 11,
            "componentType" : 5123,
            "count" : 30,
            "type" : "SCALAR"
        }
    ],
    "bufferViews" : [
        {
            "buffer" : 0,
            "byteLength" : 116904,
            "byteOffset" : 0
        },
        {
            "buffer" : 0,
            "byteLength" : 116904,
            "byteOffset" : 116904
        },
        {
            "buffer" : 0,
            "byteLength" : 77936,
            "byteOffset" : 233808
        },
        {
            "buffer" : 0,
            "byteLength" : 67812,
            "byteOffset" : 311744
        },
        {
            "buffer" : 0,
            "byteLength" : 4272,
            "byteOffset" : 379556
        },
        {
            "buffer" : 0,
            "byteLength" : 4272,
            "byteOffset" : 383828
        },
        {
            "buffer" : 0,
            "byteLength" : 2848,
            "byteOffset" : 388100
        },
        {
            "buffer" : 0,
            "byteLength" : 3120,
            "byteOffset" : 390948
        },
        {
            "buffer" : 0,
            "byteLength" : 144,
            "byteOffset" : 394068
        },
        {
            "buffer" : 0,
            "byteLength" : 144,
            "byteOffset" : 394212
        },
        {
            "buffer" : 0,
            "byteLength" : 96,
            "byteOffset" : 394356
        },
        {
            "buffer" : 0,
            "byteLength" : 60,
            "byteOffset" : 394452
        }
    ],
    "buffers" : [
        {
            "byteLength" : 394512,
            "uri" : "data:application/octet-stream;base64,"
        }
    ]
}
