{
    "asset" : {
        "generator" : "Khronos glTF Blender I/O v1.7.33",
        "version" : "2.0"
    },
    "scene" : 0,
    "scenes" : [
        {
            "name" : "Scene",
            "nodes" : [
                0
            ]
        }
    ],
    "nodes" : [
        {
            "mesh" : 0,
            "name" : "Wall_FirstAge"
        }
    ],
    "materials" : [
        {
            "doubleSided" : true,
            "name" : "Wood",
            "pbrMetallicRoughness" : {
                "baseColorFactor" : [
                    0.24618732929229736,
                    0.14435896277427673,
                    0.053798429667949677,
                    1
                ],
                "metallicFactor" : 0,
                "roughnessFactor" : 0.5
            }
        },
        {
            "doubleSided" : true,
            "name" : "Wood_Light",
            "pbrMetallicRoughness" : {
                "baseColorFactor" : [
                    0.3757452964782715,
                    0.24318844079971313,
                    0.09746062755584717,
                    1
                ],
                "metallicFactor" : 0,
                "roughnessFactor" : 0.5
            }
        }
    ],
    "meshes" : [
        {
            "name" : "Cube.026",
            "primitives" : [
                {
                    "attributes" : {
                        "POSITION" : 0,
                        "NORMAL" : 1
                    },
                    "indices" : 2,
                    "material" : 0
                },
                {
                    "attributes" : {
                        "POSITION" : 3,
                        "NORMAL" : 4
                    },
                    "indices" : 5,
                    "material" : 1
                }
            ]
        }
    ],
    "accessors" : [
        {
            "bufferView" : 0,
            "componentType" : 5126,
            "count" : 466,
            "max" : [
                0.6759371757507324,
                0.5137686133384705,
                0.03672125190496445
            ],
            "min" : [
                -0.6759371757507324,
                -0.012199196964502335,
                -0.022206543013453484
            ],
            "type" : "VEC3"
        },
        {
            "bufferView" : 1,
            "componentType" : 5126,
            "count" : 466,
            "type" : "VEC3"
        },
        {
            "bufferView" : 2,
            "componentType" : 5123,
            "count" : 1068,
            "type" : "SCALAR"
        },
        {
            "bufferView" : 3,
            "componentType" : 5126,
            "count" : 94,
            "max" : [
                0.6759371757507324,
                0.5137686133384705,
                0.03672125190496445
            ],
            "min" : [
                -0.6759371757507324,
                0.001382877817377448,
                -0.0222065057605505
            ],
            "type" : "VEC3"
        },
        {
            "bufferView" : 4,
            "componentType" : 5126,
            "count" : 94,
            "type" : "VEC3"
        },
        {
            "bufferView" : 5,
            "componentType" : 5123,
            "count" : 144,
            "type" : "SCALAR"
        }
    ],
    "bufferViews" : [
        {
            "buffer" : 0,
            "byteLength" : 5592,
            "byteOffset" : 0
        },
        {
            "buffer" : 0,
            "byteLength" : 5592,
            "byteOffset" : 5592
        },
        {
            "buffer" : 0,
            "byteLength" : 2136,
            "byteOffset" : 11184
        },
        {
            "buffer" : 0,
            "byteLength" : 1128,
            "byteOffset" : 13320
        },
        {
            "buffer" : 0,
            "byteLength" : 1128,
            "byteOffset" : 14448
        },
        {
            "buffer" : 0,
            "byteLength" : 288,
            "byteOffset" : 15576
        }
    ],
    "buffers" : [
        {
            "byteLength" : 15864,
            "uri" : "data:application/octet-stream;base64,"
        }
    ]
}
