{
    "asset" : {
        "generator" : "Khronos glTF Blender I/O v1.7.33",
        "version" : "2.0"
    },
    "scene" : 0,
    "scenes" : [
        {
            "name" : "Scene",
            "nodes" : [
                0
            ]
        }
    ],
    "nodes" : [
        {
            "mesh" : 0,
            "name" : "WallTowers_FirstAge"
        }
    ],
    "materials" : [
        {
            "doubleSided" : true,
            "name" : "Wood",
            "pbrMetallicRoughness" : {
                "baseColorFactor" : [
                    0.24618732929229736,
                    0.14435896277427673,
                    0.053798429667949677,
                    1
                ],
                "metallicFactor" : 0,
                "roughnessFactor" : 0.5
            }
        },
        {
            "doubleSided" : true,
            "name" : "Wood_Light",
            "pbrMetallicRoughness" : {
                "baseColorFactor" : [
                    0.3757452964782715,
                    0.24318844079971313,
                    0.09746062755584717,
                    1
                ],
                "metallicFactor" : 0,
                "roughnessFactor" : 0.5
            }
        }
    ],
    "meshes" : [
        {
            "name" : "Cube.133",
            "primitives" : [
                {
                    "attributes" : {
                        "POSITION" : 0,
                        "NORMAL" : 1
                    },
                    "indices" : 2,
                    "material" : 0
                },
                {
                    "attributes" : {
                        "POSITION" : 3,
                        "NORMAL" : 4
                    },
                    "indices" : 5,
                    "material" : 1
                }
            ]
        }
    ],
    "accessors" : [
        {
            "bufferView" : 0,
            "componentType" : 5126,
            "count" : 1986,
            "max" : [
                0.971057653427124,
                0.6549692749977112,
                0.14459943771362305
            ],
            "min" : [
                -0.971057653427124,
                -0.01753142662346363,
                -0.16889367997646332
            ],
            "type" : "VEC3"
        },
        {
            "bufferView" : 1,
            "componentType" : 5126,
            "count" : 1986,
            "type" : "VEC3"
        },
        {
            "bufferView" : 2,
            "componentType" : 5123,
            "count" : 3948,
            "type" : "SCALAR"
        },
        {
            "bufferView" : 3,
            "componentType" : 5126,
            "count" : 126,
            "max" : [
                0.971057653427124,
                0.6549692749977112,
                0.14459943771362305
            ],
            "min" : [
                -0.971057653427124,
                0.5137686133384705,
                -0.16889363527297974
            ],
            "type" : "VEC3"
        },
        {
            "bufferView" : 4,
            "componentType" : 5126,
            "count" : 126,
            "type" : "VEC3"
        },
        {
            "bufferView" : 5,
            "componentType" : 5123,
            "count" : 192,
            "type" : "SCALAR"
        }
    ],
    "bufferViews" : [
        {
            "buffer" : 0,
            "byteLength" : 23832,
            "byteOffset" : 0
        },
        {
            "buffer" : 0,
            "byteLength" : 23832,
            "byteOffset" : 23832
        },
        {
            "buffer" : 0,
            "byteLength" : 7896,
            "byteOffset" : 47664
        },
        {
            "buffer" : 0,
            "byteLength" : 1512,
            "byteOffset" : 55560
        },
        {
            "buffer" : 0,
            "byteLength" : 1512,
            "byteOffset" : 57072
        },
        {
            "buffer" : 0,
            "byteLength" : 384,
            "byteOffset" : 58584
        }
    ],
    "buffers" : [
        {
            "byteLength" : 58968,
            "uri" : "data:application/octet-stream;base64,"
        }
    ]
}
