{
    "asset" : {
        "generator" : "Khronos glTF Blender I/O v1.7.33",
        "version" : "2.0"
    },
    "scene" : 0,
    "scenes" : [
        {
            "name" : "Scene",
            "nodes" : [
                0
            ]
        }
    ],
    "nodes" : [
        {
            "mesh" : 0,
            "name" : "WallTowers_Door_FirstAge"
        }
    ],
    "materials" : [
        {
            "doubleSided" : true,
            "name" : "Wood",
            "pbrMetallicRoughness" : {
                "baseColorFactor" : [
                    0.24618732929229736,
                    0.14435896277427673,
                    0.053798429667949677,
                    1
                ],
                "metallicFactor" : 0,
                "roughnessFactor" : 0.5
            }
        },
        {
            "doubleSided" : true,
            "name" : "Wood_Light",
            "pbrMetallicRoughness" : {
                "baseColorFactor" : [
                    0.3757452964782715,
                    0.24318844079971313,
                    0.09746062755584717,
                    1
                ],
                "metallicFactor" : 0,
                "roughnessFactor" : 0.5
            }
        }
    ],
    "meshes" : [
        {
            "name" : "Cube.023",
            "primitives" : [
                {
                    "attributes" : {
                        "POSITION" : 0,
                        "NORMAL" : 1,
                        "TEXCOORD_0" : 2
                    },
                    "indices" : 3,
                    "material" : 0
                },
                {
                    "attributes" : {
                        "POSITION" : 4,
                        "NORMAL" : 5,
                        "TEXCOORD_0" : 6
                    },
                    "indices" : 7,
                    "material" : 1
                }
            ]
        }
    ],
    "accessors" : [
        {
            "bufferView" : 0,
            "componentType" : 5126,
            "count" : 2116,
            "max" : [
                0.9710577130317688,
                0.6549692749977112,
                0.14459942281246185
            ],
            "min" : [
                -0.9710577130317688,
                -0.01753142662346363,
                -0.16889365017414093
            ],
            "type" : "VEC3"
        },
        {
            "bufferView" : 1,
            "componentType" : 5126,
            "count" : 2116,
            "type" : "VEC3"
        },
        {
            "bufferView" : 2,
            "componentType" : 5126,
            "count" : 2116,
            "type" : "VEC2"
        },
        {
            "bufferView" : 3,
            "componentType" : 5123,
            "count" : 4068,
            "type" : "SCALAR"
        },
        {
            "bufferView" : 4,
            "componentType" : 5126,
            "count" : 126,
            "max" : [
                0.9710577130317688,
                0.6549692749977112,
                0.14459942281246185
            ],
            "min" : [
                -0.9710577130317688,
                0.5137686133384705,
                -0.16889362037181854
            ],
            "type" : "VEC3"
        },
        {
            "bufferView" : 5,
            "componentType" : 5126,
            "count" : 126,
            "type" : "VEC3"
        },
        {
            "bufferView" : 6,
            "componentType" : 5126,
            "count" : 126,
            "type" : "VEC2"
        },
        {
            "bufferView" : 7,
            "componentType" : 5123,
            "count" : 192,
            "type" : "SCALAR"
        }
    ],
    "bufferViews" : [
        {
            "buffer" : 0,
            "byteLength" : 25392,
            "byteOffset" : 0
        },
        {
            "buffer" : 0,
            "byteLength" : 25392,
            "byteOffset" : 25392
        },
        {
            "buffer" : 0,
            "byteLength" : 16928,
            "byteOffset" : 50784
        },
        {
            "buffer" : 0,
            "byteLength" : 8136,
            "byteOffset" : 67712
        },
        {
            "buffer" : 0,
            "byteLength" : 1512,
            "byteOffset" : 75848
        },
        {
            "buffer" : 0,
            "byteLength" : 1512,
            "byteOffset" : 77360
        },
        {
            "buffer" : 0,
            "byteLength" : 1008,
            "byteOffset" : 78872
        },
        {
            "buffer" : 0,
            "byteLength" : 384,
            "byteOffset" : 79880
        }
    ],
    "buffers" : [
        {
            "byteLength" : 80264,
            "uri" : "data:application/octet-stream;base64,"
        }
    ]
}
