{
    "asset" : {
        "generator" : "Khronos glTF Blender I/O v1.7.33",
        "version" : "2.0"
    },
    "scene" : 0,
    "scenes" : [
        {
            "name" : "Scene",
            "nodes" : [
                0
            ]
        }
    ],
    "nodes" : [
        {
            "mesh" : 0,
            "name" : "WallTowers_DoorClosed_SecondAge"
        }
    ],
    "materials" : [
        {
            "doubleSided" : true,
            "name" : "Metal",
            "pbrMetallicRoughness" : {
                "baseColorFactor" : [
                    0.07657796889543533,
                    0.052302055060863495,
                    0.028064019978046417,
                    1
                ],
                "metallicFactor" : 0,
                "roughnessFactor" : 0.5
            }
        },
        {
            "doubleSided" : true,
            "name" : "Stone_Light",
            "pbrMetallicRoughness" : {
                "baseColorFactor" : [
                    0.454056978225708,
                    0.4575270116329193,
                    0.3991142511367798,
                    1
                ],
                "metallicFactor" : 0,
                "roughnessFactor" : 0.5
            }
        },
        {
            "doubleSided" : true,
            "name" : "Stone",
            "pbrMetallicRoughness" : {
                "baseColorFactor" : [
                    0.24436430633068085,
                    0.24618881940841675,
                    0.21545054018497467,
                    1
                ],
                "metallicFactor" : 0,
                "roughnessFactor" : 0.5
            }
        },
        {
            "doubleSided" : true,
            "name" : "Wood",
            "pbrMetallicRoughness" : {
                "baseColorFactor" : [
                    0.24618732929229736,
                    0.14435896277427673,
                    0.053798429667949677,
                    1
                ],
                "metallicFactor" : 0,
                "roughnessFactor" : 0.5
            }
        },
        {
            "doubleSided" : true,
            "name" : "Main",
            "pbrMetallicRoughness" : {
                "baseColorFactor" : [
                    0.4385380148887634,
                    0.09992149472236633,
                    0.05885644257068634,
                    1
                ],
                "metallicFactor" : 0,
                "roughnessFactor" : 0.5
            }
        }
    ],
    "meshes" : [
        {
            "name" : "Cube.051",
            "primitives" : [
                {
                    "attributes" : {
                        "POSITION" : 0,
                        "NORMAL" : 1,
                        "TEXCOORD_0" : 2
                    },
                    "indices" : 3,
                    "material" : 0
                },
                {
                    "attributes" : {
                        "POSITION" : 4,
                        "NORMAL" : 5,
                        "TEXCOORD_0" : 6
                    },
                    "indices" : 7,
                    "material" : 1
                },
                {
                    "attributes" : {
                        "POSITION" : 8,
                        "NORMAL" : 9,
                        "TEXCOORD_0" : 10
                    },
                    "indices" : 11,
                    "material" : 2
                },
                {
                    "attributes" : {
                        "POSITION" : 12,
                        "NORMAL" : 13,
                        "TEXCOORD_0" : 14
                    },
                    "indices" : 15,
                    "material" : 3
                },
                {
                    "attributes" : {
                        "POSITION" : 16,
                        "NORMAL" : 17,
                        "TEXCOORD_0" : 18
                    },
                    "indices" : 19,
                    "material" : 4
                }
            ]
        }
    ],
    "accessors" : [
        {
            "bufferView" : 0,
            "componentType" : 5126,
            "count" : 288,
            "max" : [
                0.12032376229763031,
                0.2863248884677887,
                0.12349453568458557
            ],
            "min" : [
                -0.12031383812427521,
                -0.0030761107336729765,
                -0.13195082545280457
            ],
            "type" : "VEC3"
        },
        {
            "bufferView" : 1,
            "componentType" : 5126,
            "count" : 288,
            "type" : "VEC3"
        },
        {
            "bufferView" : 2,
            "componentType" : 5126,
            "count" : 288,
            "type" : "VEC2"
        },
        {
            "bufferView" : 3,
            "componentType" : 5123,
            "count" : 432,
            "type" : "SCALAR"
        },
        {
            "bufferView" : 4,
            "componentType" : 5126,
            "count" : 2918,
            "max" : [
                0.9864457249641418,
                0.661060631275177,
                0.1477414220571518
            ],
            "min" : [
                -0.9691306948661804,
                -0.006585291586816311,
                -0.16829676926136017
            ],
            "type" : "VEC3"
        },
        {
            "bufferView" : 5,
            "componentType" : 5126,
            "count" : 2918,
            "type" : "VEC3"
        },
        {
            "bufferView" : 6,
            "componentType" : 5126,
            "count" : 2918,
            "type" : "VEC2"
        },
        {
            "bufferView" : 7,
            "componentType" : 5123,
            "count" : 4380,
            "type" : "SCALAR"
        },
        {
            "bufferView" : 8,
            "componentType" : 5126,
            "count" : 518,
            "max" : [
                0.9958597421646118,
                0.5821095108985901,
                0.15270370244979858
            ],
            "min" : [
                -0.979773998260498,
                -0.006585291586816311,
                -0.18071284890174866
            ],
            "type" : "VEC3"
        },
        {
            "bufferView" : 9,
            "componentType" : 5126,
            "count" : 518,
            "type" : "VEC3"
        },
        {
            "bufferView" : 10,
            "componentType" : 5126,
            "count" : 518,
            "type" : "VEC2"
        },
        {
            "bufferView" : 11,
            "componentType" : 5123,
            "count" : 858,
            "type" : "SCALAR"
        },
        {
            "bufferView" : 12,
            "componentType" : 5126,
            "count" : 280,
            "max" : [
                0.9593657851219177,
                0.728716254234314,
                0.14737890660762787
            ],
            "min" : [
                -0.9424630999565125,
                -0.008439075201749802,
                -0.14737889170646667
            ],
            "type" : "VEC3"
        },
        {
            "bufferView" : 13,
            "componentType" : 5126,
            "count" : 280,
            "type" : "VEC3"
        },
        {
            "bufferView" : 14,
            "componentType" : 5126,
            "count" : 280,
            "type" : "VEC2"
        },
        {
            "bufferView" : 15,
            "componentType" : 5123,
            "count" : 426,
            "type" : "SCALAR"
        },
        {
            "bufferView" : 16,
            "componentType" : 5126,
            "count" : 64,
            "max" : [
                0.9022669792175293,
                0.7076148986816406,
                0.0012116056168451905
            ],
            "min" : [
                -0.8176921606063843,
                0.6653427481651306,
                -0.0012113973498344421
            ],
            "type" : "VEC3"
        },
        {
            "bufferView" : 17,
            "componentType" : 5126,
            "count" : 64,
            "type" : "VEC3"
        },
        {
            "bufferView" : 18,
            "componentType" : 5126,
            "count" : 64,
            "type" : "VEC2"
        },
        {
            "bufferView" : 19,
            "componentType" : 5123,
            "count" : 96,
            "type" : "SCALAR"
        }
    ],
    "bufferViews" : [
        {
            "buffer" : 0,
            "byteLength" : 3456,
            "byteOffset" : 0
        },
        {
            "buffer" : 0,
            "byteLength" : 3456,
            "byteOffset" : 3456
        },
        {
            "buffer" : 0,
            "byteLength" : 2304,
            "byteOffset" : 6912
        },
        {
            "buffer" : 0,
            "byteLength" : 864,
            "byteOffset" : 9216
        },
        {
            "buffer" : 0,
            "byteLength" : 35016,
            "byteOffset" : 10080
        },
        {
            "buffer" : 0,
            "byteLength" : 35016,
            "byteOffset" : 45096
        },
        {
            "buffer" : 0,
            "byteLength" : 23344,
            "byteOffset" : 80112
        },
        {
            "buffer" : 0,
            "byteLength" : 8760,
            "byteOffset" : 103456
        },
        {
            "buffer" : 0,
            "byteLength" : 6216,
            "byteOffset" : 112216
        },
        {
            "buffer" : 0,
            "byteLength" : 6216,
            "byteOffset" : 118432
        },
        {
            "buffer" : 0,
            "byteLength" : 4144,
            "byteOffset" : 124648
        },
        {
            "buffer" : 0,
            "byteLength" : 1716,
            "byteOffset" : 128792
        },
        {
            "buffer" : 0,
            "byteLength" : 3360,
            "byteOffset" : 130508
        },
        {
            "buffer" : 0,
            "byteLength" : 3360,
            "byteOffset" : 133868
        },
        {
            "buffer" : 0,
            "byteLength" : 2240,
            "byteOffset" : 137228
        },
        {
            "buffer" : 0,
            "byteLength" : 852,
            "byteOffset" : 139468
        },
        {
            "buffer" : 0,
            "byteLength" : 768,
            "byteOffset" : 140320
        },
        {
            "buffer" : 0,
            "byteLength" : 768,
            "byteOffset" : 141088
        },
        {
            "buffer" : 0,
            "byteLength" : 512,
            "byteOffset" : 141856
        },
        {
            "buffer" : 0,
            "byteLength" : 192,
            "byteOffset" : 142368
        }
    ],
    "buffers" : [
        {
            "byteLength" : 142560,
            "uri" : "data:application/octet-stream;base64,"
        }
    ]
}
