{
    "asset" : {
        "generator" : "Khronos glTF Blender I/O v1.7.33",
        "version" : "2.0"
    },
    "scene" : 0,
    "scenes" : [
        {
            "name" : "Scene",
            "nodes" : [
                0
            ]
        }
    ],
    "nodes" : [
        {
            "mesh" : 0,
            "name" : "WallTowers_Door_SecondAge"
        }
    ],
    "materials" : [
        {
            "doubleSided" : true,
            "name" : "Stone_Light",
            "pbrMetallicRoughness" : {
                "baseColorFactor" : [
                    0.454056978225708,
                    0.4575270116329193,
                    0.3991142511367798,
                    1
                ],
                "metallicFactor" : 0,
                "roughnessFactor" : 0.5
            }
        },
        {
            "doubleSided" : true,
            "name" : "Stone",
            "pbrMetallicRoughness" : {
                "baseColorFactor" : [
                    0.24436430633068085,
                    0.24618881940841675,
                    0.21545054018497467,
                    1
                ],
                "metallicFactor" : 0,
                "roughnessFactor" : 0.5
            }
        },
        {
            "doubleSided" : true,
            "name" : "Wood",
            "pbrMetallicRoughness" : {
                "baseColorFactor" : [
                    0.24618732929229736,
                    0.14435896277427673,
                    0.053798429667949677,
                    1
                ],
                "metallicFactor" : 0,
                "roughnessFactor" : 0.5
            }
        },
        {
            "doubleSided" : true,
            "name" : "Main",
            "pbrMetallicRoughness" : {
                "baseColorFactor" : [
                    0.4385380148887634,
                    0.09992149472236633,
                    0.05885644257068634,
                    1
                ],
                "metallicFactor" : 0,
                "roughnessFactor" : 0.5
            }
        }
    ],
    "meshes" : [
        {
            "name" : "Cube.054",
            "primitives" : [
                {
                    "attributes" : {
                        "POSITION" : 0,
                        "NORMAL" : 1,
                        "TEXCOORD_0" : 2
                    },
                    "indices" : 3,
                    "material" : 0
                },
                {
                    "attributes" : {
                        "POSITION" : 4,
                        "NORMAL" : 5,
                        "TEXCOORD_0" : 6
                    },
                    "indices" : 7,
                    "material" : 1
                },
                {
                    "attributes" : {
                        "POSITION" : 8,
                        "NORMAL" : 9,
                        "TEXCOORD_0" : 10
                    },
                    "indices" : 11,
                    "material" : 2
                },
                {
                    "attributes" : {
                        "POSITION" : 12,
                        "NORMAL" : 13,
                        "TEXCOORD_0" : 14
                    },
                    "indices" : 15,
                    "material" : 3
                }
            ]
        }
    ],
    "accessors" : [
        {
            "bufferView" : 0,
            "componentType" : 5126,
            "count" : 2888,
            "max" : [
                0.9864457845687866,
                0.661060631275177,
                0.1477414071559906
            ],
            "min" : [
                -0.9691306948661804,
                -0.006585291586816311,
                -0.16829673945903778
            ],
            "type" : "VEC3"
        },
        {
            "bufferView" : 1,
            "componentType" : 5126,
            "count" : 2888,
            "type" : "VEC3"
        },
        {
            "bufferView" : 2,
            "componentType" : 5126,
            "count" : 2888,
            "type" : "VEC2"
        },
        {
            "bufferView" : 3,
            "componentType" : 5123,
            "count" : 4380,
            "type" : "SCALAR"
        },
        {
            "bufferView" : 4,
            "componentType" : 5126,
            "count" : 484,
            "max" : [
                0.9958597421646118,
                0.5821095705032349,
                0.1527036875486374
            ],
            "min" : [
                -0.979773998260498,
                -0.006585291586816311,
                -0.18071283400058746
            ],
            "type" : "VEC3"
        },
        {
            "bufferView" : 5,
            "componentType" : 5126,
            "count" : 484,
            "type" : "VEC3"
        },
        {
            "bufferView" : 6,
            "componentType" : 5126,
            "count" : 484,
            "type" : "VEC2"
        },
        {
            "bufferView" : 7,
            "componentType" : 5123,
            "count" : 858,
            "type" : "SCALAR"
        },
        {
            "bufferView" : 8,
            "componentType" : 5126,
            "count" : 260,
            "max" : [
                0.9593657851219177,
                0.728716254234314,
                0.14737887680530548
            ],
            "min" : [
                -0.9424631595611572,
                -0.008439074270427227,
                -0.14737887680530548
            ],
            "type" : "VEC3"
        },
        {
            "bufferView" : 9,
            "componentType" : 5126,
            "count" : 260,
            "type" : "VEC3"
        },
        {
            "bufferView" : 10,
            "componentType" : 5126,
            "count" : 260,
            "type" : "VEC2"
        },
        {
            "bufferView" : 11,
            "componentType" : 5123,
            "count" : 426,
            "type" : "SCALAR"
        },
        {
            "bufferView" : 12,
            "componentType" : 5126,
            "count" : 64,
            "max" : [
                0.9022670984268188,
                0.7076148986816406,
                0.0012116056168451905
            ],
            "min" : [
                -0.8176920413970947,
                0.6653427481651306,
                -0.0012113973498344421
            ],
            "type" : "VEC3"
        },
        {
            "bufferView" : 13,
            "componentType" : 5126,
            "count" : 64,
            "type" : "VEC3"
        },
        {
            "bufferView" : 14,
            "componentType" : 5126,
            "count" : 64,
            "type" : "VEC2"
        },
        {
            "bufferView" : 15,
            "componentType" : 5123,
            "count" : 96,
            "type" : "SCALAR"
        }
    ],
    "bufferViews" : [
        {
            "buffer" : 0,
            "byteLength" : 34656,
            "byteOffset" : 0
        },
        {
            "buffer" : 0,
            "byteLength" : 34656,
            "byteOffset" : 34656
        },
        {
            "buffer" : 0,
            "byteLength" : 23104,
            "byteOffset" : 69312
        },
        {
            "buffer" : 0,
            "byteLength" : 8760,
            "byteOffset" : 92416
        },
        {
            "buffer" : 0,
            "byteLength" : 5808,
            "byteOffset" : 101176
        },
        {
            "buffer" : 0,
            "byteLength" : 5808,
            "byteOffset" : 106984
        },
        {
            "buffer" : 0,
            "byteLength" : 3872,
            "byteOffset" : 112792
        },
        {
            "buffer" : 0,
            "byteLength" : 1716,
            "byteOffset" : 116664
        },
        {
            "buffer" : 0,
            "byteLength" : 3120,
            "byteOffset" : 118380
        },
        {
            "buffer" : 0,
            "byteLength" : 3120,
            "byteOffset" : 121500
        },
        {
            "buffer" : 0,
            "byteLength" : 2080,
            "byteOffset" : 124620
        },
        {
            "buffer" : 0,
            "byteLength" : 852,
            "byteOffset" : 126700
        },
        {
            "buffer" : 0,
            "byteLength" : 768,
            "byteOffset" : 127552
        },
        {
            "buffer" : 0,
            "byteLength" : 768,
            "byteOffset" : 128320
        },
        {
            "buffer" : 0,
            "byteLength" : 512,
            "byteOffset" : 129088
        },
        {
            "buffer" : 0,
            "byteLength" : 192,
            "byteOffset" : 129600
        }
    ],
    "buffers" : [
        {
            "byteLength" : 129792,
            "uri" : "data:application/octet-stream;base64,"
        }
    ]
}
