{
    "asset" : {
        "generator" : "Khronos glTF Blender I/O v1.7.33",
        "version" : "2.0"
    },
    "scene" : 0,
    "scenes" : [
        {
            "name" : "Scene",
            "nodes" : [
                0
            ]
        }
    ],
    "nodes" : [
        {
            "mesh" : 0,
            "name" : "Wall_SecondAge"
        }
    ],
    "materials" : [
        {
            "doubleSided" : true,
            "name" : "Stone",
            "pbrMetallicRoughness" : {
                "baseColorFactor" : [
                    0.24436430633068085,
                    0.24618881940841675,
                    0.21545054018497467,
                    1
                ],
                "metallicFactor" : 0,
                "roughnessFactor" : 0.5
            }
        },
        {
            "doubleSided" : true,
            "name" : "Stone_Light",
            "pbrMetallicRoughness" : {
                "baseColorFactor" : [
                    0.454056978225708,
                    0.4575270116329193,
                    0.3991142511367798,
                    1
                ],
                "metallicFactor" : 0,
                "roughnessFactor" : 0.5
            }
        },
        {
            "doubleSided" : true,
            "name" : "Wood",
            "pbrMetallicRoughness" : {
                "baseColorFactor" : [
                    0.24618732929229736,
                    0.14435896277427673,
                    0.053798429667949677,
                    1
                ],
                "metallicFactor" : 0,
                "roughnessFactor" : 0.5
            }
        }
    ],
    "meshes" : [
        {
            "name" : "Cube.027",
            "primitives" : [
                {
                    "attributes" : {
                        "POSITION" : 0,
                        "NORMAL" : 1,
                        "TEXCOORD_0" : 2
                    },
                    "indices" : 3,
                    "material" : 0
                },
                {
                    "attributes" : {
                        "POSITION" : 4,
                        "NORMAL" : 5,
                        "TEXCOORD_0" : 6
                    },
                    "indices" : 7,
                    "material" : 1
                },
                {
                    "attributes" : {
                        "POSITION" : 8,
                        "NORMAL" : 9,
                        "TEXCOORD_0" : 10
                    },
                    "indices" : 11,
                    "material" : 2
                }
            ]
        }
    ],
    "accessors" : [
        {
            "bufferView" : 0,
            "componentType" : 5126,
            "count" : 272,
            "max" : [
                0.7594927549362183,
                0.38904058933258057,
                0.09250008314847946
            ],
            "min" : [
                -0.7700498104095459,
                -0.006585251074284315,
                -0.10077625513076782
            ],
            "type" : "VEC3"
        },
        {
            "bufferView" : 1,
            "componentType" : 5126,
            "count" : 272,
            "type" : "VEC3"
        },
        {
            "bufferView" : 2,
            "componentType" : 5126,
            "count" : 272,
            "type" : "VEC2"
        },
        {
            "bufferView" : 3,
            "componentType" : 5123,
            "count" : 432,
            "type" : "SCALAR"
        },
        {
            "bufferView" : 4,
            "componentType" : 5126,
            "count" : 100,
            "max" : [
                0.773879885673523,
                0.43933457136154175,
                0.1240740418434143
            ],
            "min" : [
                -0.7865694165229797,
                -0.006585291586816311,
                -0.12262212485074997
            ],
            "type" : "VEC3"
        },
        {
            "bufferView" : 5,
            "componentType" : 5126,
            "count" : 100,
            "type" : "VEC3"
        },
        {
            "bufferView" : 6,
            "componentType" : 5126,
            "count" : 100,
            "type" : "VEC2"
        },
        {
            "bufferView" : 7,
            "componentType" : 5123,
            "count" : 192,
            "type" : "SCALAR"
        },
        {
            "bufferView" : 8,
            "componentType" : 5126,
            "count" : 14,
            "max" : [
                0.7594927549362183,
                0.4264671206474304,
                0.07406065613031387
            ],
            "min" : [
                -0.7700498104095459,
                0.38904058933258057,
                -0.0859641507267952
            ],
            "type" : "VEC3"
        },
        {
            "bufferView" : 9,
            "componentType" : 5126,
            "count" : 14,
            "type" : "VEC3"
        },
        {
            "bufferView" : 10,
            "componentType" : 5126,
            "count" : 14,
            "type" : "VEC2"
        },
        {
            "bufferView" : 11,
            "componentType" : 5123,
            "count" : 24,
            "type" : "SCALAR"
        }
    ],
    "bufferViews" : [
        {
            "buffer" : 0,
            "byteLength" : 3264,
            "byteOffset" : 0
        },
        {
            "buffer" : 0,
            "byteLength" : 3264,
            "byteOffset" : 3264
        },
        {
            "buffer" : 0,
            "byteLength" : 2176,
            "byteOffset" : 6528
        },
        {
            "buffer" : 0,
            "byteLength" : 864,
            "byteOffset" : 8704
        },
        {
            "buffer" : 0,
            "byteLength" : 1200,
            "byteOffset" : 9568
        },
        {
            "buffer" : 0,
            "byteLength" : 1200,
            "byteOffset" : 10768
        },
        {
            "buffer" : 0,
            "byteLength" : 800,
            "byteOffset" : 11968
        },
        {
            "buffer" : 0,
            "byteLength" : 384,
            "byteOffset" : 12768
        },
        {
            "buffer" : 0,
            "byteLength" : 168,
            "byteOffset" : 13152
        },
        {
            "buffer" : 0,
            "byteLength" : 168,
            "byteOffset" : 13320
        },
        {
            "buffer" : 0,
            "byteLength" : 112,
            "byteOffset" : 13488
        },
        {
            "buffer" : 0,
            "byteLength" : 48,
            "byteOffset" : 13600
        }
    ],
    "buffers" : [
        {
            "byteLength" : 13648,
            "uri" : "data:application/octet-stream;base64,"
        }
    ]
}
