{
    "asset" : {
        "generator" : "Khronos glTF Blender I/O v1.7.33",
        "version" : "2.0"
    },
    "scene" : 0,
    "scenes" : [
        {
            "name" : "Scene",
            "nodes" : [
                0
            ]
        }
    ],
    "nodes" : [
        {
            "mesh" : 0,
            "name" : "WatchTower_SecondAge_Level1"
        }
    ],
    "materials" : [
        {
            "doubleSided" : true,
            "name" : "Stone_Light",
            "pbrMetallicRoughness" : {
                "baseColorFactor" : [
                    0.454056978225708,
                    0.4575270116329193,
                    0.3991142511367798,
                    1
                ],
                "metallicFactor" : 0,
                "roughnessFactor" : 0.5
            }
        },
        {
            "doubleSided" : true,
            "name" : "Main",
            "pbrMetallicRoughness" : {
                "baseColorFactor" : [
                    0.4385380148887634,
                    0.09992149472236633,
                    0.05885644257068634,
                    1
                ],
                "metallicFactor" : 0,
                "roughnessFactor" : 0.5
            }
        },
        {
            "doubleSided" : true,
            "name" : "Stone",
            "pbrMetallicRoughness" : {
                "baseColorFactor" : [
                    0.24436430633068085,
                    0.24618881940841675,
                    0.21545054018497467,
                    1
                ],
                "metallicFactor" : 0,
                "roughnessFactor" : 0.5
            }
        },
        {
            "doubleSided" : true,
            "name" : "Wood_Light",
            "pbrMetallicRoughness" : {
                "baseColorFactor" : [
                    0.3757452964782715,
                    0.24318844079971313,
                    0.09746062755584717,
                    1
                ],
                "metallicFactor" : 0,
                "roughnessFactor" : 0.5
            }
        },
        {
            "doubleSided" : true,
            "name" : "Wood",
            "pbrMetallicRoughness" : {
                "baseColorFactor" : [
                    0.24618732929229736,
                    0.14435896277427673,
                    0.053798429667949677,
                    1
                ],
                "metallicFactor" : 0,
                "roughnessFactor" : 0.5
            }
        }
    ],
    "meshes" : [
        {
            "name" : "Cube.037",
            "primitives" : [
                {
                    "attributes" : {
                        "POSITION" : 0,
                        "NORMAL" : 1,
                        "TEXCOORD_0" : 2
                    },
                    "indices" : 3,
                    "material" : 0
                },
                {
                    "attributes" : {
                        "POSITION" : 4,
                        "NORMAL" : 5,
                        "TEXCOORD_0" : 6
                    },
                    "indices" : 7,
                    "material" : 1
                },
                {
                    "attributes" : {
                        "POSITION" : 8,
                        "NORMAL" : 9,
                        "TEXCOORD_0" : 10
                    },
                    "indices" : 11,
                    "material" : 2
                },
                {
                    "attributes" : {
                        "POSITION" : 12,
                        "NORMAL" : 13,
                        "TEXCOORD_0" : 14
                    },
                    "indices" : 15,
                    "material" : 3
                },
                {
                    "attributes" : {
                        "POSITION" : 16,
                        "NORMAL" : 17,
                        "TEXCOORD_0" : 18
                    },
                    "indices" : 19,
                    "material" : 4
                }
            ]
        }
    ],
    "accessors" : [
        {
            "bufferView" : 0,
            "componentType" : 5126,
            "count" : 2088,
            "max" : [
                0.2507088780403137,
                1.0614187717437744,
                0.32894688844680786
            ],
            "min" : [
                -0.2507088780403137,
                -0.0005254796124063432,
                -0.25070884823799133
            ],
            "type" : "VEC3"
        },
        {
            "bufferView" : 1,
            "componentType" : 5126,
            "count" : 2088,
            "type" : "VEC3"
        },
        {
            "bufferView" : 2,
            "componentType" : 5126,
            "count" : 2088,
            "type" : "VEC2"
        },
        {
            "bufferView" : 3,
            "componentType" : 5123,
            "count" : 3174,
            "type" : "SCALAR"
        },
        {
            "bufferView" : 4,
            "componentType" : 5126,
            "count" : 1016,
            "max" : [
                0.29284411668777466,
                1.1852364540100098,
                0.2892012894153595
            ],
            "min" : [
                -0.2923155426979065,
                1.0435645580291748,
                -0.2938247621059418
            ],
            "type" : "VEC3"
        },
        {
            "bufferView" : 5,
            "componentType" : 5126,
            "count" : 1016,
            "type" : "VEC3"
        },
        {
            "bufferView" : 6,
            "componentType" : 5126,
            "count" : 1016,
            "type" : "VEC2"
        },
        {
            "bufferView" : 7,
            "componentType" : 5123,
            "count" : 2136,
            "type" : "SCALAR"
        },
        {
            "bufferView" : 8,
            "componentType" : 5126,
            "count" : 990,
            "max" : [
                0.44247567653656006,
                1.073237419128418,
                0.4288177490234375
            ],
            "min" : [
                -0.41453179717063904,
                -0.01307134609669447,
                -0.21947358548641205
            ],
            "type" : "VEC3"
        },
        {
            "bufferView" : 9,
            "componentType" : 5126,
            "count" : 990,
            "type" : "VEC3"
        },
        {
            "bufferView" : 10,
            "componentType" : 5126,
            "count" : 990,
            "type" : "VEC2"
        },
        {
            "bufferView" : 11,
            "componentType" : 5123,
            "count" : 2358,
            "type" : "SCALAR"
        },
        {
            "bufferView" : 12,
            "componentType" : 5126,
            "count" : 1152,
            "max" : [
                0.3489195704460144,
                0.229064479470253,
                0.1199759691953659
            ],
            "min" : [
                -0.384059339761734,
                -0.0032198692206293344,
                -0.141679048538208
            ],
            "type" : "VEC3"
        },
        {
            "bufferView" : 13,
            "componentType" : 5126,
            "count" : 1152,
            "type" : "VEC3"
        },
        {
            "bufferView" : 14,
            "componentType" : 5126,
            "count" : 1152,
            "type" : "VEC2"
        },
        {
            "bufferView" : 15,
            "componentType" : 5123,
            "count" : 1728,
            "type" : "SCALAR"
        },
        {
            "bufferView" : 16,
            "componentType" : 5126,
            "count" : 672,
            "max" : [
                0.35467904806137085,
                0.23016150295734406,
                0.12743887305259705
            ],
            "min" : [
                -0.39594247937202454,
                -0.0056851450353860855,
                -0.1519676148891449
            ],
            "type" : "VEC3"
        },
        {
            "bufferView" : 17,
            "componentType" : 5126,
            "count" : 672,
            "type" : "VEC3"
        },
        {
            "bufferView" : 18,
            "componentType" : 5126,
            "count" : 672,
            "type" : "VEC2"
        },
        {
            "bufferView" : 19,
            "componentType" : 5123,
            "count" : 1296,
            "type" : "SCALAR"
        }
    ],
    "bufferViews" : [
        {
            "buffer" : 0,
            "byteLength" : 25056,
            "byteOffset" : 0
        },
        {
            "buffer" : 0,
            "byteLength" : 25056,
            "byteOffset" : 25056
        },
        {
            "buffer" : 0,
            "byteLength" : 16704,
            "byteOffset" : 50112
        },
        {
            "buffer" : 0,
            "byteLength" : 6348,
            "byteOffset" : 66816
        },
        {
            "buffer" : 0,
            "byteLength" : 12192,
            "byteOffset" : 73164
        },
        {
            "buffer" : 0,
            "byteLength" : 12192,
            "byteOffset" : 85356
        },
        {
            "buffer" : 0,
            "byteLength" : 8128,
            "byteOffset" : 97548
        },
        {
            "buffer" : 0,
            "byteLength" : 4272,
            "byteOffset" : 105676
        },
        {
            "buffer" : 0,
            "byteLength" : 11880,
            "byteOffset" : 109948
        },
        {
            "buffer" : 0,
            "byteLength" : 11880,
            "byteOffset" : 121828
        },
        {
            "buffer" : 0,
            "byteLength" : 7920,
            "byteOffset" : 133708
        },
        {
            "buffer" : 0,
            "byteLength" : 4716,
            "byteOffset" : 141628
        },
        {
            "buffer" : 0,
            "byteLength" : 13824,
            "byteOffset" : 146344
        },
        {
            "buffer" : 0,
            "byteLength" : 13824,
            "byteOffset" : 160168
        },
        {
            "buffer" : 0,
            "byteLength" : 9216,
            "byteOffset" : 173992
        },
        {
            "buffer" : 0,
            "byteLength" : 3456,
            "byteOffset" : 183208
        },
        {
            "buffer" : 0,
            "byteLength" : 8064,
            "byteOffset" : 186664
        },
        {
            "buffer" : 0,
            "byteLength" : 8064,
            "byteOffset" : 194728
        },
        {
            "buffer" : 0,
            "byteLength" : 5376,
            "byteOffset" : 202792
        },
        {
            "buffer" : 0,
            "byteLength" : 2592,
            "byteOffset" : 208168
        }
    ],
    "buffers" : [
        {
            "byteLength" : 210760,
            "uri" : "data:application/octet-stream;base64,"
        }
    ]
}
