{
    "asset" : {
        "generator" : "Khronos glTF Blender I/O v1.7.33",
        "version" : "2.0"
    },
    "scene" : 0,
    "scenes" : [
        {
            "name" : "Scene",
            "nodes" : [
                0
            ]
        }
    ],
    "nodes" : [
        {
            "mesh" : 0,
            "name" : "WatchTower_SecondAge_Level3"
        }
    ],
    "materials" : [
        {
            "doubleSided" : true,
            "name" : "Stone_Light",
            "pbrMetallicRoughness" : {
                "baseColorFactor" : [
                    0.454056978225708,
                    0.4575270116329193,
                    0.3991142511367798,
                    1
                ],
                "metallicFactor" : 0,
                "roughnessFactor" : 0.5
            }
        },
        {
            "doubleSided" : true,
            "name" : "Stone",
            "pbrMetallicRoughness" : {
                "baseColorFactor" : [
                    0.24436430633068085,
                    0.24618881940841675,
                    0.21545054018497467,
                    1
                ],
                "metallicFactor" : 0,
                "roughnessFactor" : 0.5
            }
        },
        {
            "doubleSided" : true,
            "name" : "Wood",
            "pbrMetallicRoughness" : {
                "baseColorFactor" : [
                    0.24618732929229736,
                    0.14435896277427673,
                    0.053798429667949677,
                    1
                ],
                "metallicFactor" : 0,
                "roughnessFactor" : 0.5
            }
        },
        {
            "doubleSided" : true,
            "name" : "Main",
            "pbrMetallicRoughness" : {
                "baseColorFactor" : [
                    0.4385380148887634,
                    0.09992149472236633,
                    0.05885644257068634,
                    1
                ],
                "metallicFactor" : 0,
                "roughnessFactor" : 0.5
            }
        },
        {
            "doubleSided" : true,
            "name" : "Green",
            "pbrMetallicRoughness" : {
                "baseColorFactor" : [
                    0.09404914081096649,
                    0.1788560301065445,
                    0.012008205987513065,
                    1
                ],
                "metallicFactor" : 0,
                "roughnessFactor" : 0.5
            }
        }
    ],
    "meshes" : [
        {
            "name" : "Cube.032",
            "primitives" : [
                {
                    "attributes" : {
                        "POSITION" : 0,
                        "NORMAL" : 1,
                        "TEXCOORD_0" : 2
                    },
                    "indices" : 3,
                    "material" : 0
                },
                {
                    "attributes" : {
                        "POSITION" : 4,
                        "NORMAL" : 5,
                        "TEXCOORD_0" : 6
                    },
                    "indices" : 7,
                    "material" : 1
                },
                {
                    "attributes" : {
                        "POSITION" : 8,
                        "NORMAL" : 9,
                        "TEXCOORD_0" : 10
                    },
                    "indices" : 11,
                    "material" : 2
                },
                {
                    "attributes" : {
                        "POSITION" : 12,
                        "NORMAL" : 13,
                        "TEXCOORD_0" : 14
                    },
                    "indices" : 15,
                    "material" : 3
                },
                {
                    "attributes" : {
                        "POSITION" : 16,
                        "NORMAL" : 17,
                        "TEXCOORD_0" : 18
                    },
                    "indices" : 19,
                    "material" : 4
                }
            ]
        }
    ],
    "accessors" : [
        {
            "bufferView" : 0,
            "componentType" : 5126,
            "count" : 3136,
            "max" : [
                0.41198068857192993,
                1.342894434928894,
                0.48607566952705383
            ],
            "min" : [
                -0.40127259492874146,
                -0.006997745484113693,
                -0.40596988797187805
            ],
            "type" : "VEC3"
        },
        {
            "bufferView" : 1,
            "componentType" : 5126,
            "count" : 3136,
            "type" : "VEC3"
        },
        {
            "bufferView" : 2,
            "componentType" : 5126,
            "count" : 3136,
            "type" : "VEC2"
        },
        {
            "bufferView" : 3,
            "componentType" : 5123,
            "count" : 4728,
            "type" : "SCALAR"
        },
        {
            "bufferView" : 4,
            "componentType" : 5126,
            "count" : 798,
            "max" : [
                0.3603402376174927,
                1.2646993398666382,
                0.46740400791168213
            ],
            "min" : [
                -0.3423043191432953,
                -0.000559002161026001,
                -0.3538733422756195
            ],
            "type" : "VEC3"
        },
        {
            "bufferView" : 5,
            "componentType" : 5126,
            "count" : 798,
            "type" : "VEC3"
        },
        {
            "bufferView" : 6,
            "componentType" : 5126,
            "count" : 798,
            "type" : "VEC2"
        },
        {
            "bufferView" : 7,
            "componentType" : 5123,
            "count" : 2040,
            "type" : "SCALAR"
        },
        {
            "bufferView" : 8,
            "componentType" : 5126,
            "count" : 144,
            "max" : [
                0.3514191508293152,
                1.4442721605300903,
                0.20324644446372986
            ],
            "min" : [
                -0.3457862138748169,
                1.1838160753250122,
                -0.19496294856071472
            ],
            "type" : "VEC3"
        },
        {
            "bufferView" : 9,
            "componentType" : 5126,
            "count" : 144,
            "type" : "VEC3"
        },
        {
            "bufferView" : 10,
            "componentType" : 5126,
            "count" : 144,
            "type" : "VEC2"
        },
        {
            "bufferView" : 11,
            "componentType" : 5123,
            "count" : 216,
            "type" : "SCALAR"
        },
        {
            "bufferView" : 12,
            "componentType" : 5126,
            "count" : 198,
            "max" : [
                0.3420666754245758,
                1.430397868156433,
                0.19822201132774353
            ],
            "min" : [
                -0.3364337682723999,
                0.9098620414733887,
                -0.19274863600730896
            ],
            "type" : "VEC3"
        },
        {
            "bufferView" : 13,
            "componentType" : 5126,
            "count" : 198,
            "type" : "VEC3"
        },
        {
            "bufferView" : 14,
            "componentType" : 5126,
            "count" : 198,
            "type" : "VEC2"
        },
        {
            "bufferView" : 15,
            "componentType" : 5123,
            "count" : 312,
            "type" : "SCALAR"
        },
        {
            "bufferView" : 16,
            "componentType" : 5126,
            "count" : 894,
            "max" : [
                0.4119718670845032,
                0.36610251665115356,
                0.3897136449813843
            ],
            "min" : [
                -0.3961847126483917,
                0.12254646420478821,
                -0.40350010991096497
            ],
            "type" : "VEC3"
        },
        {
            "bufferView" : 17,
            "componentType" : 5126,
            "count" : 894,
            "type" : "VEC3"
        },
        {
            "bufferView" : 18,
            "componentType" : 5126,
            "count" : 894,
            "type" : "VEC2"
        },
        {
            "bufferView" : 19,
            "componentType" : 5123,
            "count" : 2304,
            "type" : "SCALAR"
        }
    ],
    "bufferViews" : [
        {
            "buffer" : 0,
            "byteLength" : 37632,
            "byteOffset" : 0
        },
        {
            "buffer" : 0,
            "byteLength" : 37632,
            "byteOffset" : 37632
        },
        {
            "buffer" : 0,
            "byteLength" : 25088,
            "byteOffset" : 75264
        },
        {
            "buffer" : 0,
            "byteLength" : 9456,
            "byteOffset" : 100352
        },
        {
            "buffer" : 0,
            "byteLength" : 9576,
            "byteOffset" : 109808
        },
        {
            "buffer" : 0,
            "byteLength" : 9576,
            "byteOffset" : 119384
        },
        {
            "buffer" : 0,
            "byteLength" : 6384,
            "byteOffset" : 128960
        },
        {
            "buffer" : 0,
            "byteLength" : 4080,
            "byteOffset" : 135344
        },
        {
            "buffer" : 0,
            "byteLength" : 1728,
            "byteOffset" : 139424
        },
        {
            "buffer" : 0,
            "byteLength" : 1728,
            "byteOffset" : 141152
        },
        {
            "buffer" : 0,
            "byteLength" : 1152,
            "byteOffset" : 142880
        },
        {
            "buffer" : 0,
            "byteLength" : 432,
            "byteOffset" : 144032
        },
        {
            "buffer" : 0,
            "byteLength" : 2376,
            "byteOffset" : 144464
        },
        {
            "buffer" : 0,
            "byteLength" : 2376,
            "byteOffset" : 146840
        },
        {
            "buffer" : 0,
            "byteLength" : 1584,
            "byteOffset" : 149216
        },
        {
            "buffer" : 0,
            "byteLength" : 624,
            "byteOffset" : 150800
        },
        {
            "buffer" : 0,
            "byteLength" : 10728,
            "byteOffset" : 151424
        },
        {
            "buffer" : 0,
            "byteLength" : 10728,
            "byteOffset" : 162152
        },
        {
            "buffer" : 0,
            "byteLength" : 7152,
            "byteOffset" : 172880
        },
        {
            "buffer" : 0,
            "byteLength" : 4608,
            "byteOffset" : 180032
        }
    ],
    "buffers" : [
        {
            "byteLength" : 184640,
            "uri" : "data:application/octet-stream;base64,"
        }
    ]
}
