{
    "asset" : {
        "generator" : "Khronos glTF Blender I/O v1.7.33",
        "version" : "2.0"
    },
    "scene" : 0,
    "scenes" : [
        {
            "name" : "Scene",
            "nodes" : [
                0
            ]
        }
    ],
    "nodes" : [
        {
            "mesh" : 0,
            "name" : "WatchTower_SecondAge_Level2"
        }
    ],
    "materials" : [
        {
            "doubleSided" : true,
            "name" : "Stone_Light",
            "pbrMetallicRoughness" : {
                "baseColorFactor" : [
                    0.454056978225708,
                    0.4575270116329193,
                    0.3991142511367798,
                    1
                ],
                "metallicFactor" : 0,
                "roughnessFactor" : 0.5
            }
        },
        {
            "doubleSided" : true,
            "name" : "Stone",
            "pbrMetallicRoughness" : {
                "baseColorFactor" : [
                    0.24436430633068085,
                    0.24618881940841675,
                    0.21545054018497467,
                    1
                ],
                "metallicFactor" : 0,
                "roughnessFactor" : 0.5
            }
        },
        {
            "doubleSided" : true,
            "name" : "Wood",
            "pbrMetallicRoughness" : {
                "baseColorFactor" : [
                    0.24618732929229736,
                    0.14435896277427673,
                    0.053798429667949677,
                    1
                ],
                "metallicFactor" : 0,
                "roughnessFactor" : 0.5
            }
        },
        {
            "doubleSided" : true,
            "name" : "Main",
            "pbrMetallicRoughness" : {
                "baseColorFactor" : [
                    0.4385380148887634,
                    0.09992149472236633,
                    0.05885644257068634,
                    1
                ],
                "metallicFactor" : 0,
                "roughnessFactor" : 0.5
            }
        },
        {
            "doubleSided" : true,
            "name" : "Wood_Light",
            "pbrMetallicRoughness" : {
                "baseColorFactor" : [
                    0.3757452964782715,
                    0.24318844079971313,
                    0.09746062755584717,
                    1
                ],
                "metallicFactor" : 0,
                "roughnessFactor" : 0.5
            }
        }
    ],
    "meshes" : [
        {
            "name" : "Cube.060",
            "primitives" : [
                {
                    "attributes" : {
                        "POSITION" : 0,
                        "NORMAL" : 1,
                        "TEXCOORD_0" : 2
                    },
                    "indices" : 3,
                    "material" : 0
                },
                {
                    "attributes" : {
                        "POSITION" : 4,
                        "NORMAL" : 5,
                        "TEXCOORD_0" : 6
                    },
                    "indices" : 7,
                    "material" : 1
                },
                {
                    "attributes" : {
                        "POSITION" : 8,
                        "NORMAL" : 9,
                        "TEXCOORD_0" : 10
                    },
                    "indices" : 11,
                    "material" : 2
                },
                {
                    "attributes" : {
                        "POSITION" : 12,
                        "NORMAL" : 13,
                        "TEXCOORD_0" : 14
                    },
                    "indices" : 15,
                    "material" : 3
                },
                {
                    "attributes" : {
                        "POSITION" : 16,
                        "NORMAL" : 17,
                        "TEXCOORD_0" : 18
                    },
                    "indices" : 19,
                    "material" : 4
                }
            ]
        }
    ],
    "accessors" : [
        {
            "bufferView" : 0,
            "componentType" : 5126,
            "count" : 2656,
            "max" : [
                0.2324727475643158,
                1.344008207321167,
                0.33243969082832336
            ],
            "min" : [
                -0.22834885120391846,
                -0.0005254796124063432,
                -0.22694507241249084
            ],
            "type" : "VEC3"
        },
        {
            "bufferView" : 1,
            "componentType" : 5126,
            "count" : 2656,
            "type" : "VEC3"
        },
        {
            "bufferView" : 2,
            "componentType" : 5126,
            "count" : 2656,
            "type" : "VEC2"
        },
        {
            "bufferView" : 3,
            "componentType" : 5123,
            "count" : 4008,
            "type" : "SCALAR"
        },
        {
            "bufferView" : 4,
            "componentType" : 5126,
            "count" : 1013,
            "max" : [
                0.3555492162704468,
                1.2658131122589111,
                0.38691800832748413
            ],
            "min" : [
                -0.4441295862197876,
                -0.013071339577436447,
                -0.21598082780838013
            ],
            "type" : "VEC3"
        },
        {
            "bufferView" : 5,
            "componentType" : 5126,
            "count" : 1013,
            "type" : "VEC3"
        },
        {
            "bufferView" : 6,
            "componentType" : 5126,
            "count" : 1013,
            "type" : "VEC2"
        },
        {
            "bufferView" : 7,
            "componentType" : 5123,
            "count" : 2424,
            "type" : "SCALAR"
        },
        {
            "bufferView" : 8,
            "componentType" : 5126,
            "count" : 720,
            "max" : [
                0.3942885398864746,
                1.2032291889190674,
                0.20324644446372986
            ],
            "min" : [
                -0.35633301734924316,
                -0.005685143172740936,
                -0.21552619338035583
            ],
            "type" : "VEC3"
        },
        {
            "bufferView" : 9,
            "componentType" : 5126,
            "count" : 720,
            "type" : "VEC3"
        },
        {
            "bufferView" : 10,
            "componentType" : 5126,
            "count" : 720,
            "type" : "VEC2"
        },
        {
            "bufferView" : 11,
            "componentType" : 5123,
            "count" : 1368,
            "type" : "SCALAR"
        },
        {
            "bufferView" : 12,
            "componentType" : 5126,
            "count" : 74,
            "max" : [
                0.3420666754245758,
                1.187598466873169,
                0.19822201132774353
            ],
            "min" : [
                -0.3364337682723999,
                0.9098620414733887,
                0.19465479254722595
            ],
            "type" : "VEC3"
        },
        {
            "bufferView" : 13,
            "componentType" : 5126,
            "count" : 74,
            "type" : "VEC3"
        },
        {
            "bufferView" : 14,
            "componentType" : 5126,
            "count" : 74,
            "type" : "VEC2"
        },
        {
            "bufferView" : 15,
            "componentType" : 5123,
            "count" : 120,
            "type" : "SCALAR"
        },
        {
            "bufferView" : 16,
            "componentType" : 5126,
            "count" : 1152,
            "max" : [
                0.3824054002761841,
                0.22906449437141418,
                0.05641739070415497
            ],
            "min" : [
                -0.3505735397338867,
                -0.0032198727130889893,
                -0.20523762702941895
            ],
            "type" : "VEC3"
        },
        {
            "bufferView" : 17,
            "componentType" : 5126,
            "count" : 1152,
            "type" : "VEC3"
        },
        {
            "bufferView" : 18,
            "componentType" : 5126,
            "count" : 1152,
            "type" : "VEC2"
        },
        {
            "bufferView" : 19,
            "componentType" : 5123,
            "count" : 1728,
            "type" : "SCALAR"
        }
    ],
    "bufferViews" : [
        {
            "buffer" : 0,
            "byteLength" : 31872,
            "byteOffset" : 0
        },
        {
            "buffer" : 0,
            "byteLength" : 31872,
            "byteOffset" : 31872
        },
        {
            "buffer" : 0,
            "byteLength" : 21248,
            "byteOffset" : 63744
        },
        {
            "buffer" : 0,
            "byteLength" : 8016,
            "byteOffset" : 84992
        },
        {
            "buffer" : 0,
            "byteLength" : 12156,
            "byteOffset" : 93008
        },
        {
            "buffer" : 0,
            "byteLength" : 12156,
            "byteOffset" : 105164
        },
        {
            "buffer" : 0,
            "byteLength" : 8104,
            "byteOffset" : 117320
        },
        {
            "buffer" : 0,
            "byteLength" : 4848,
            "byteOffset" : 125424
        },
        {
            "buffer" : 0,
            "byteLength" : 8640,
            "byteOffset" : 130272
        },
        {
            "buffer" : 0,
            "byteLength" : 8640,
            "byteOffset" : 138912
        },
        {
            "buffer" : 0,
            "byteLength" : 5760,
            "byteOffset" : 147552
        },
        {
            "buffer" : 0,
            "byteLength" : 2736,
            "byteOffset" : 153312
        },
        {
            "buffer" : 0,
            "byteLength" : 888,
            "byteOffset" : 156048
        },
        {
            "buffer" : 0,
            "byteLength" : 888,
            "byteOffset" : 156936
        },
        {
            "buffer" : 0,
            "byteLength" : 592,
            "byteOffset" : 157824
        },
        {
            "buffer" : 0,
            "byteLength" : 240,
            "byteOffset" : 158416
        },
        {
            "buffer" : 0,
            "byteLength" : 13824,
            "byteOffset" : 158656
        },
        {
            "buffer" : 0,
            "byteLength" : 13824,
            "byteOffset" : 172480
        },
        {
            "buffer" : 0,
            "byteLength" : 9216,
            "byteOffset" : 186304
        },
        {
            "buffer" : 0,
            "byteLength" : 3456,
            "byteOffset" : 195520
        }
    ],
    "buffers" : [
        {
            "byteLength" : 198976,
            "uri" : "data:application/octet-stream;base64,"
        }
    ]
}
