{
    "asset" : {
        "generator" : "Khronos glTF Blender I/O v1.7.33",
        "version" : "2.0"
    },
    "scene" : 0,
    "scenes" : [
        {
            "name" : "Scene",
            "nodes" : [
                0
            ]
        }
    ],
    "nodes" : [
        {
            "mesh" : 0,
            "name" : "WatchTower_FirstAge_Level3"
        }
    ],
    "materials" : [
        {
            "doubleSided" : true,
            "name" : "Wood",
            "pbrMetallicRoughness" : {
                "baseColorFactor" : [
                    0.24618732929229736,
                    0.14435896277427673,
                    0.053798429667949677,
                    1
                ],
                "metallicFactor" : 0,
                "roughnessFactor" : 0.5
            }
        },
        {
            "doubleSided" : true,
            "name" : "Wood_Light",
            "pbrMetallicRoughness" : {
                "baseColorFactor" : [
                    0.3757452964782715,
                    0.24318844079971313,
                    0.09746062755584717,
                    1
                ],
                "metallicFactor" : 0,
                "roughnessFactor" : 0.5
            }
        },
        {
            "doubleSided" : true,
            "name" : "Main",
            "pbrMetallicRoughness" : {
                "baseColorFactor" : [
                    0.4385380148887634,
                    0.09992149472236633,
                    0.05885644257068634,
                    1
                ],
                "metallicFactor" : 0,
                "roughnessFactor" : 0.5
            }
        }
    ],
    "meshes" : [
        {
            "name" : "Cube.031",
            "primitives" : [
                {
                    "attributes" : {
                        "POSITION" : 0,
                        "NORMAL" : 1,
                        "TEXCOORD_0" : 2
                    },
                    "indices" : 3,
                    "material" : 0
                },
                {
                    "attributes" : {
                        "POSITION" : 4,
                        "NORMAL" : 5,
                        "TEXCOORD_0" : 6
                    },
                    "indices" : 7,
                    "material" : 1
                },
                {
                    "attributes" : {
                        "POSITION" : 8,
                        "NORMAL" : 9,
                        "TEXCOORD_0" : 10
                    },
                    "indices" : 11,
                    "material" : 2
                }
            ]
        }
    ],
    "accessors" : [
        {
            "bufferView" : 0,
            "componentType" : 5126,
            "count" : 2180,
            "max" : [
                0.3631051480770111,
                1.6358022689819336,
                0.3289889395236969
            ],
            "min" : [
                -0.34923115372657776,
                -8.69346983289887e-10,
                -0.35052332282066345
            ],
            "type" : "VEC3"
        },
        {
            "bufferView" : 1,
            "componentType" : 5126,
            "count" : 2180,
            "type" : "VEC3"
        },
        {
            "bufferView" : 2,
            "componentType" : 5126,
            "count" : 2180,
            "type" : "VEC2"
        },
        {
            "bufferView" : 3,
            "componentType" : 5123,
            "count" : 3276,
            "type" : "SCALAR"
        },
        {
            "bufferView" : 4,
            "componentType" : 5126,
            "count" : 328,
            "max" : [
                0.3631051480770111,
                1.4913945198059082,
                0.3289889395236969
            ],
            "min" : [
                -0.34923115372657776,
                0.6684157848358154,
                -0.35052332282066345
            ],
            "type" : "VEC3"
        },
        {
            "bufferView" : 5,
            "componentType" : 5126,
            "count" : 328,
            "type" : "VEC3"
        },
        {
            "bufferView" : 6,
            "componentType" : 5126,
            "count" : 328,
            "type" : "VEC2"
        },
        {
            "bufferView" : 7,
            "componentType" : 5123,
            "count" : 492,
            "type" : "SCALAR"
        },
        {
            "bufferView" : 8,
            "componentType" : 5126,
            "count" : 134,
            "max" : [
                0.24701273441314697,
                1.6152350902557373,
                0.31597256660461426
            ],
            "min" : [
                -0.19667966663837433,
                1.1635621786117554,
                -0.19942252337932587
            ],
            "type" : "VEC3"
        },
        {
            "bufferView" : 9,
            "componentType" : 5126,
            "count" : 134,
            "type" : "VEC3"
        },
        {
            "bufferView" : 10,
            "componentType" : 5126,
            "count" : 134,
            "type" : "VEC2"
        },
        {
            "bufferView" : 11,
            "componentType" : 5123,
            "count" : 204,
            "type" : "SCALAR"
        }
    ],
    "bufferViews" : [
        {
            "buffer" : 0,
            "byteLength" : 26160,
            "byteOffset" : 0
        },
        {
            "buffer" : 0,
            "byteLength" : 26160,
            "byteOffset" : 26160
        },
        {
            "buffer" : 0,
            "byteLength" : 17440,
            "byteOffset" : 52320
        },
        {
            "buffer" : 0,
            "byteLength" : 6552,
            "byteOffset" : 69760
        },
        {
            "buffer" : 0,
            "byteLength" : 3936,
            "byteOffset" : 76312
        },
        {
            "buffer" : 0,
            "byteLength" : 3936,
            "byteOffset" : 80248
        },
        {
            "buffer" : 0,
            "byteLength" : 2624,
            "byteOffset" : 84184
        },
        {
            "buffer" : 0,
            "byteLength" : 984,
            "byteOffset" : 86808
        },
        {
            "buffer" : 0,
            "byteLength" : 1608,
            "byteOffset" : 87792
        },
        {
            "buffer" : 0,
            "byteLength" : 1608,
            "byteOffset" : 89400
        },
        {
            "buffer" : 0,
            "byteLength" : 1072,
            "byteOffset" : 91008
        },
        {
            "buffer" : 0,
            "byteLength" : 408,
            "byteOffset" : 92080
        }
    ],
    "buffers" : [
        {
            "byteLength" : 92488,
            "uri" : "data:application/octet-stream;base64,"
        }
    ]
}
