{
    "asset" : {
        "generator" : "Khronos glTF Blender I/O v1.7.33",
        "version" : "2.0"
    },
    "scene" : 0,
    "scenes" : [
        {
            "name" : "Scene",
            "nodes" : [
                0
            ]
        }
    ],
    "nodes" : [
        {
            "mesh" : 0,
            "name" : "WatchTower_FirstAge_Level2"
        }
    ],
    "materials" : [
        {
            "doubleSided" : true,
            "name" : "Wood",
            "pbrMetallicRoughness" : {
                "baseColorFactor" : [
                    0.24618732929229736,
                    0.14435896277427673,
                    0.053798429667949677,
                    1
                ],
                "metallicFactor" : 0,
                "roughnessFactor" : 0.5
            }
        },
        {
            "doubleSided" : true,
            "name" : "Wood_Light",
            "pbrMetallicRoughness" : {
                "baseColorFactor" : [
                    0.3757452964782715,
                    0.24318844079971313,
                    0.09746062755584717,
                    1
                ],
                "metallicFactor" : 0,
                "roughnessFactor" : 0.5
            }
        },
        {
            "doubleSided" : true,
            "name" : "Main",
            "pbrMetallicRoughness" : {
                "baseColorFactor" : [
                    0.4385380148887634,
                    0.09992149472236633,
                    0.05885644257068634,
                    1
                ],
                "metallicFactor" : 0,
                "roughnessFactor" : 0.5
            }
        }
    ],
    "meshes" : [
        {
            "name" : "Cube.021",
            "primitives" : [
                {
                    "attributes" : {
                        "POSITION" : 0,
                        "NORMAL" : 1,
                        "TEXCOORD_0" : 2
                    },
                    "indices" : 3,
                    "material" : 0
                },
                {
                    "attributes" : {
                        "POSITION" : 4,
                        "NORMAL" : 5,
                        "TEXCOORD_0" : 6
                    },
                    "indices" : 7,
                    "material" : 1
                },
                {
                    "attributes" : {
                        "POSITION" : 8,
                        "NORMAL" : 9,
                        "TEXCOORD_0" : 10
                    },
                    "indices" : 11,
                    "material" : 2
                }
            ]
        }
    ],
    "accessors" : [
        {
            "bufferView" : 0,
            "componentType" : 5126,
            "count" : 1172,
            "max" : [
                0.23673367500305176,
                1.4625476598739624,
                0.282317191362381
            ],
            "min" : [
                -0.23627309501171112,
                -8.69346983289887e-10,
                -0.23700730502605438
            ],
            "type" : "VEC3"
        },
        {
            "bufferView" : 1,
            "componentType" : 5126,
            "count" : 1172,
            "type" : "VEC3"
        },
        {
            "bufferView" : 2,
            "componentType" : 5126,
            "count" : 1172,
            "type" : "VEC2"
        },
        {
            "bufferView" : 3,
            "componentType" : 5123,
            "count" : 1764,
            "type" : "SCALAR"
        },
        {
            "bufferView" : 4,
            "componentType" : 5126,
            "count" : 88,
            "max" : [
                0.23673367500305176,
                1.311056137084961,
                0.2323600798845291
            ],
            "min" : [
                -0.23627309501171112,
                1.0936810970306396,
                -0.23700730502605438
            ],
            "type" : "VEC3"
        },
        {
            "bufferView" : 5,
            "componentType" : 5126,
            "count" : 88,
            "type" : "VEC3"
        },
        {
            "bufferView" : 6,
            "componentType" : 5126,
            "count" : 88,
            "type" : "VEC2"
        },
        {
            "bufferView" : 7,
            "componentType" : 5123,
            "count" : 132,
            "type" : "SCALAR"
        },
        {
            "bufferView" : 8,
            "componentType" : 5126,
            "count" : 134,
            "max" : [
                0.2687259316444397,
                1.4419804811477661,
                0.22914984822273254
            ],
            "min" : [
                -0.19667966663837433,
                0.8137937784194946,
                -0.19942252337932587
            ],
            "type" : "VEC3"
        },
        {
            "bufferView" : 9,
            "componentType" : 5126,
            "count" : 134,
            "type" : "VEC3"
        },
        {
            "bufferView" : 10,
            "componentType" : 5126,
            "count" : 134,
            "type" : "VEC2"
        },
        {
            "bufferView" : 11,
            "componentType" : 5123,
            "count" : 204,
            "type" : "SCALAR"
        }
    ],
    "bufferViews" : [
        {
            "buffer" : 0,
            "byteLength" : 14064,
            "byteOffset" : 0
        },
        {
            "buffer" : 0,
            "byteLength" : 14064,
            "byteOffset" : 14064
        },
        {
            "buffer" : 0,
            "byteLength" : 9376,
            "byteOffset" : 28128
        },
        {
            "buffer" : 0,
            "byteLength" : 3528,
            "byteOffset" : 37504
        },
        {
            "buffer" : 0,
            "byteLength" : 1056,
            "byteOffset" : 41032
        },
        {
            "buffer" : 0,
            "byteLength" : 1056,
            "byteOffset" : 42088
        },
        {
            "buffer" : 0,
            "byteLength" : 704,
            "byteOffset" : 43144
        },
        {
            "buffer" : 0,
            "byteLength" : 264,
            "byteOffset" : 43848
        },
        {
            "buffer" : 0,
            "byteLength" : 1608,
            "byteOffset" : 44112
        },
        {
            "buffer" : 0,
            "byteLength" : 1608,
            "byteOffset" : 45720
        },
        {
            "buffer" : 0,
            "byteLength" : 1072,
            "byteOffset" : 47328
        },
        {
            "buffer" : 0,
            "byteLength" : 408,
            "byteOffset" : 48400
        }
    ],
    "buffers" : [
        {
            "byteLength" : 48808,
            "uri" : "data:application/octet-stream;base64,"
        }
    ]
}
