{
    "asset" : {
        "generator" : "Khronos glTF Blender I/O v1.7.33",
        "version" : "2.0"
    },
    "scene" : 0,
    "scenes" : [
        {
            "name" : "Scene",
            "nodes" : [
                0
            ]
        }
    ],
    "nodes" : [
        {
            "mesh" : 0,
            "name" : "Windmill_SecondAge"
        }
    ],
    "materials" : [
        {
            "doubleSided" : true,
            "name" : "Walls",
            "pbrMetallicRoughness" : {
                "baseColorFactor" : [
                    0.4352165758609772,
                    0.4385380148887634,
                    0.3826240599155426,
                    1
                ],
                "metallicFactor" : 0,
                "roughnessFactor" : 0.5
            }
        },
        {
            "doubleSided" : true,
            "name" : "Main",
            "pbrMetallicRoughness" : {
                "baseColorFactor" : [
                    0.4385380148887634,
                    0.09992149472236633,
                    0.05885644257068634,
                    1
                ],
                "metallicFactor" : 0,
                "roughnessFactor" : 0.5
            }
        },
        {
            "doubleSided" : true,
            "name" : "Stone",
            "pbrMetallicRoughness" : {
                "baseColorFactor" : [
                    0.24436430633068085,
                    0.24618881940841675,
                    0.21545054018497467,
                    1
                ],
                "metallicFactor" : 0,
                "roughnessFactor" : 0.5
            }
        },
        {
            "doubleSided" : true,
            "name" : "Wood",
            "pbrMetallicRoughness" : {
                "baseColorFactor" : [
                    0.24618732929229736,
                    0.14435896277427673,
                    0.053798429667949677,
                    1
                ],
                "metallicFactor" : 0,
                "roughnessFactor" : 0.5
            }
        },
        {
            "doubleSided" : true,
            "name" : "Fabric",
            "pbrMetallicRoughness" : {
                "baseColorFactor" : [
                    0.4575270116329193,
                    0.30435046553611755,
                    0.09043647348880768,
                    1
                ],
                "metallicFactor" : 0,
                "roughnessFactor" : 0.5
            }
        },
        {
            "doubleSided" : true,
            "name" : "Stone_Light",
            "pbrMetallicRoughness" : {
                "baseColorFactor" : [
                    0.454056978225708,
                    0.4575270116329193,
                    0.3991142511367798,
                    1
                ],
                "metallicFactor" : 0,
                "roughnessFactor" : 0.5
            }
        },
        {
            "doubleSided" : true,
            "name" : "Wood_Light",
            "pbrMetallicRoughness" : {
                "baseColorFactor" : [
                    0.3757452964782715,
                    0.24318844079971313,
                    0.09746062755584717,
                    1
                ],
                "metallicFactor" : 0,
                "roughnessFactor" : 0.5
            }
        }
    ],
    "meshes" : [
        {
            "name" : "Cylinder",
            "primitives" : [
                {
                    "attributes" : {
                        "POSITION" : 0,
                        "NORMAL" : 1,
                        "TEXCOORD_0" : 2
                    },
                    "indices" : 3,
                    "material" : 0
                },
                {
                    "attributes" : {
                        "POSITION" : 4,
                        "NORMAL" : 5,
                        "TEXCOORD_0" : 6
                    },
                    "indices" : 7,
                    "material" : 1
                },
                {
                    "attributes" : {
                        "POSITION" : 8,
                        "NORMAL" : 9,
                        "TEXCOORD_0" : 10
                    },
                    "indices" : 11,
                    "material" : 2
                },
                {
                    "attributes" : {
                        "POSITION" : 12,
                        "NORMAL" : 13,
                        "TEXCOORD_0" : 14
                    },
                    "indices" : 15,
                    "material" : 3
                },
                {
                    "attributes" : {
                        "POSITION" : 16,
                        "NORMAL" : 17,
                        "TEXCOORD_0" : 18
                    },
                    "indices" : 19,
                    "material" : 4
                },
                {
                    "attributes" : {
                        "POSITION" : 20,
                        "NORMAL" : 21,
                        "TEXCOORD_0" : 22
                    },
                    "indices" : 23,
                    "material" : 5
                },
                {
                    "attributes" : {
                        "POSITION" : 24,
                        "NORMAL" : 25,
                        "TEXCOORD_0" : 26
                    },
                    "indices" : 27,
                    "material" : 6
                }
            ]
        }
    ],
    "accessors" : [
        {
            "bufferView" : 0,
            "componentType" : 5126,
            "count" : 236,
            "max" : [
                0.31277531385421753,
                0.9940463900566101,
                0.2844485342502594
            ],
            "min" : [
                -0.2844485342502594,
                -0.011564929038286209,
                -0.2844485342502594
            ],
            "type" : "VEC3"
        },
        {
            "bufferView" : 1,
            "componentType" : 5126,
            "count" : 236,
            "type" : "VEC3"
        },
        {
            "bufferView" : 2,
            "componentType" : 5126,
            "count" : 236,
            "type" : "VEC2"
        },
        {
            "bufferView" : 3,
            "componentType" : 5123,
            "count" : 402,
            "type" : "SCALAR"
        },
        {
            "bufferView" : 4,
            "componentType" : 5126,
            "count" : 432,
            "max" : [
                0.2771301865577698,
                1.4654536247253418,
                0.27713021636009216
            ],
            "min" : [
                -0.27713021636009216,
                0.9607029557228088,
                -0.2771301865577698
            ],
            "type" : "VEC3"
        },
        {
            "bufferView" : 5,
            "componentType" : 5126,
            "count" : 432,
            "type" : "VEC3"
        },
        {
            "bufferView" : 6,
            "componentType" : 5126,
            "count" : 432,
            "type" : "VEC2"
        },
        {
            "bufferView" : 7,
            "componentType" : 5123,
            "count" : 642,
            "type" : "SCALAR"
        },
        {
            "bufferView" : 8,
            "componentType" : 5126,
            "count" : 580,
            "max" : [
                0.4058394730091095,
                0.44606611132621765,
                0.5371037125587463
            ],
            "min" : [
                -0.5085940957069397,
                -0.027804825454950333,
                -0.38070347905158997
            ],
            "type" : "VEC3"
        },
        {
            "bufferView" : 9,
            "componentType" : 5126,
            "count" : 580,
            "type" : "VEC3"
        },
        {
            "bufferView" : 10,
            "componentType" : 5126,
            "count" : 580,
            "type" : "VEC2"
        },
        {
            "bufferView" : 11,
            "componentType" : 5123,
            "count" : 900,
            "type" : "SCALAR"
        },
        {
            "bufferView" : 12,
            "componentType" : 5126,
            "count" : 1016,
            "max" : [
                0.6677993535995483,
                1.5834267139434814,
                0.42662808299064636
            ],
            "min" : [
                -0.6677996516227722,
                -0.00748826889321208,
                -0.005185792222619057
            ],
            "type" : "VEC3"
        },
        {
            "bufferView" : 13,
            "componentType" : 5126,
            "count" : 1016,
            "type" : "VEC3"
        },
        {
            "bufferView" : 14,
            "componentType" : 5126,
            "count" : 1016,
            "type" : "VEC2"
        },
        {
            "bufferView" : 15,
            "componentType" : 5123,
            "count" : 1572,
            "type" : "SCALAR"
        },
        {
            "bufferView" : 16,
            "componentType" : 5126,
            "count" : 410,
            "max" : [
                0.6367971897125244,
                1.5524245500564575,
                0.3680197596549988
            ],
            "min" : [
                -0.6367974877357483,
                0.2788299024105072,
                0.3563702702522278
            ],
            "type" : "VEC3"
        },
        {
            "bufferView" : 17,
            "componentType" : 5126,
            "count" : 410,
            "type" : "VEC3"
        },
        {
            "bufferView" : 18,
            "componentType" : 5126,
            "count" : 410,
            "type" : "VEC2"
        },
        {
            "bufferView" : 19,
            "componentType" : 5123,
            "count" : 642,
            "type" : "SCALAR"
        },
        {
            "bufferView" : 20,
            "componentType" : 5126,
            "count" : 80,
            "max" : [
                0.08560720831155777,
                0.07538552582263947,
                0.5616973638534546
            ],
            "min" : [
                -0.08017553389072418,
                -0.00039416240178979933,
                0.3677417039871216
            ],
            "type" : "VEC3"
        },
        {
            "bufferView" : 21,
            "componentType" : 5126,
            "count" : 80,
            "type" : "VEC3"
        },
        {
            "bufferView" : 22,
            "componentType" : 5126,
            "count" : 80,
            "type" : "VEC2"
        },
        {
            "bufferView" : 23,
            "componentType" : 5123,
            "count" : 120,
            "type" : "SCALAR"
        },
        {
            "bufferView" : 24,
            "componentType" : 5126,
            "count" : 576,
            "max" : [
                0.37402817606925964,
                0.3017156422138214,
                0.41100001335144043
            ],
            "min" : [
                0.2223443239927292,
                -0.004241101909428835,
                0.25792354345321655
            ],
            "type" : "VEC3"
        },
        {
            "bufferView" : 25,
            "componentType" : 5126,
            "count" : 576,
            "type" : "VEC3"
        },
        {
            "bufferView" : 26,
            "componentType" : 5126,
            "count" : 576,
            "type" : "VEC2"
        },
        {
            "bufferView" : 27,
            "componentType" : 5123,
            "count" : 864,
            "type" : "SCALAR"
        }
    ],
    "bufferViews" : [
        {
            "buffer" : 0,
            "byteLength" : 2832,
            "byteOffset" : 0
        },
        {
            "buffer" : 0,
            "byteLength" : 2832,
            "byteOffset" : 2832
        },
        {
            "buffer" : 0,
            "byteLength" : 1888,
            "byteOffset" : 5664
        },
        {
            "buffer" : 0,
            "byteLength" : 804,
            "byteOffset" : 7552
        },
        {
            "buffer" : 0,
            "byteLength" : 5184,
            "byteOffset" : 8356
        },
        {
            "buffer" : 0,
            "byteLength" : 5184,
            "byteOffset" : 13540
        },
        {
            "buffer" : 0,
            "byteLength" : 3456,
            "byteOffset" : 18724
        },
        {
            "buffer" : 0,
            "byteLength" : 1284,
            "byteOffset" : 22180
        },
        {
            "buffer" : 0,
            "byteLength" : 6960,
            "byteOffset" : 23464
        },
        {
            "buffer" : 0,
            "byteLength" : 6960,
            "byteOffset" : 30424
        },
        {
            "buffer" : 0,
            "byteLength" : 4640,
            "byteOffset" : 37384
        },
        {
            "buffer" : 0,
            "byteLength" : 1800,
            "byteOffset" : 42024
        },
        {
            "buffer" : 0,
            "byteLength" : 12192,
            "byteOffset" : 43824
        },
        {
            "buffer" : 0,
            "byteLength" : 12192,
            "byteOffset" : 56016
        },
        {
            "buffer" : 0,
            "byteLength" : 8128,
            "byteOffset" : 68208
        },
        {
            "buffer" : 0,
            "byteLength" : 3144,
            "byteOffset" : 76336
        },
        {
            "buffer" : 0,
            "byteLength" : 4920,
            "byteOffset" : 79480
        },
        {
            "buffer" : 0,
            "byteLength" : 4920,
            "byteOffset" : 84400
        },
        {
            "buffer" : 0,
            "byteLength" : 3280,
            "byteOffset" : 89320
        },
        {
            "buffer" : 0,
            "byteLength" : 1284,
            "byteOffset" : 92600
        },
        {
            "buffer" : 0,
            "byteLength" : 960,
            "byteOffset" : 93884
        },
        {
            "buffer" : 0,
            "byteLength" : 960,
            "byteOffset" : 94844
        },
        {
            "buffer" : 0,
            "byteLength" : 640,
            "byteOffset" : 95804
        },
        {
            "buffer" : 0,
            "byteLength" : 240,
            "byteOffset" : 96444
        },
        {
            "buffer" : 0,
            "byteLength" : 6912,
            "byteOffset" : 96684
        },
        {
            "buffer" : 0,
            "byteLength" : 6912,
            "byteOffset" : 103596
        },
        {
            "buffer" : 0,
            "byteLength" : 4608,
            "byteOffset" : 110508
        },
        {
            "buffer" : 0,
            "byteLength" : 1728,
            "byteOffset" : 115116
        }
    ],
    "buffers" : [
        {
            "byteLength" : 116844,
            "uri" : "data:application/octet-stream;base64,"
        }
    ]
}
