{
    "asset" : {
        "generator" : "Khronos glTF Blender I/O v1.7.33",
        "version" : "2.0"
    },
    "scene" : 0,
    "scenes" : [
        {
            "name" : "Scene",
            "nodes" : [
                0
            ]
        }
    ],
    "nodes" : [
        {
            "mesh" : 0,
            "name" : "Windmill_FirstAge"
        }
    ],
    "materials" : [
        {
            "doubleSided" : true,
            "name" : "Wood",
            "pbrMetallicRoughness" : {
                "baseColorFactor" : [
                    0.24618732929229736,
                    0.14435896277427673,
                    0.053798429667949677,
                    1
                ],
                "metallicFactor" : 0,
                "roughnessFactor" : 0.5
            }
        },
        {
            "doubleSided" : true,
            "name" : "Wood_Light",
            "pbrMetallicRoughness" : {
                "baseColorFactor" : [
                    0.3757452964782715,
                    0.24318844079971313,
                    0.09746062755584717,
                    1
                ],
                "metallicFactor" : 0,
                "roughnessFactor" : 0.5
            }
        },
        {
            "doubleSided" : true,
            "name" : "Main",
            "pbrMetallicRoughness" : {
                "baseColorFactor" : [
                    0.4385380148887634,
                    0.09992149472236633,
                    0.05885644257068634,
                    1
                ],
                "metallicFactor" : 0,
                "roughnessFactor" : 0.5
            }
        },
        {
            "doubleSided" : true,
            "name" : "Fabric",
            "pbrMetallicRoughness" : {
                "baseColorFactor" : [
                    0.4575270116329193,
                    0.30435046553611755,
                    0.09043647348880768,
                    1
                ],
                "metallicFactor" : 0,
                "roughnessFactor" : 0.5
            }
        }
    ],
    "meshes" : [
        {
            "name" : "Cube.038",
            "primitives" : [
                {
                    "attributes" : {
                        "POSITION" : 0,
                        "NORMAL" : 1,
                        "TEXCOORD_0" : 2
                    },
                    "indices" : 3,
                    "material" : 0
                },
                {
                    "attributes" : {
                        "POSITION" : 4,
                        "NORMAL" : 5,
                        "TEXCOORD_0" : 6
                    },
                    "indices" : 7,
                    "material" : 1
                },
                {
                    "attributes" : {
                        "POSITION" : 8,
                        "NORMAL" : 9,
                        "TEXCOORD_0" : 10
                    },
                    "indices" : 11,
                    "material" : 2
                },
                {
                    "attributes" : {
                        "POSITION" : 12,
                        "NORMAL" : 13,
                        "TEXCOORD_0" : 14
                    },
                    "indices" : 15,
                    "material" : 3
                }
            ]
        }
    ],
    "accessors" : [
        {
            "bufferView" : 0,
            "componentType" : 5126,
            "count" : 2950,
            "max" : [
                0.6886165738105774,
                1.9172996282577515,
                0.38715460896492004
            ],
            "min" : [
                -0.660930335521698,
                -7.724513806373068e-10,
                -0.2732797861099243
            ],
            "type" : "VEC3"
        },
        {
            "bufferView" : 1,
            "componentType" : 5126,
            "count" : 2950,
            "type" : "VEC3"
        },
        {
            "bufferView" : 2,
            "componentType" : 5126,
            "count" : 2950,
            "type" : "VEC2"
        },
        {
            "bufferView" : 3,
            "componentType" : 5123,
            "count" : 5148,
            "type" : "SCALAR"
        },
        {
            "bufferView" : 4,
            "componentType" : 5126,
            "count" : 296,
            "max" : [
                0.3126978278160095,
                1.779029369354248,
                0.27556556463241577
            ],
            "min" : [
                -0.2786678671836853,
                0.010667504742741585,
                -0.27327969670295715
            ],
            "type" : "VEC3"
        },
        {
            "bufferView" : 5,
            "componentType" : 5126,
            "count" : 296,
            "type" : "VEC3"
        },
        {
            "bufferView" : 6,
            "componentType" : 5126,
            "count" : 296,
            "type" : "VEC2"
        },
        {
            "bufferView" : 7,
            "componentType" : 5123,
            "count" : 444,
            "type" : "SCALAR"
        },
        {
            "bufferView" : 8,
            "componentType" : 5126,
            "count" : 144,
            "max" : [
                0.2673676311969757,
                1.8953611850738525,
                0.17065642774105072
            ],
            "min" : [
                -0.2673676311969757,
                0.743219256401062,
                -0.17719529569149017
            ],
            "type" : "VEC3"
        },
        {
            "bufferView" : 9,
            "componentType" : 5126,
            "count" : 144,
            "type" : "VEC3"
        },
        {
            "bufferView" : 10,
            "componentType" : 5126,
            "count" : 144,
            "type" : "VEC2"
        },
        {
            "bufferView" : 11,
            "componentType" : 5123,
            "count" : 216,
            "type" : "SCALAR"
        },
        {
            "bufferView" : 12,
            "componentType" : 5126,
            "count" : 316,
            "max" : [
                0.6647723317146301,
                1.8934552669525146,
                0.36801981925964355
            ],
            "min" : [
                -0.637086033821106,
                0.5915969014167786,
                0.35637030005455017
            ],
            "type" : "VEC3"
        },
        {
            "bufferView" : 13,
            "componentType" : 5126,
            "count" : 316,
            "type" : "VEC3"
        },
        {
            "bufferView" : 14,
            "componentType" : 5126,
            "count" : 316,
            "type" : "VEC2"
        },
        {
            "bufferView" : 15,
            "componentType" : 5123,
            "count" : 468,
            "type" : "SCALAR"
        }
    ],
    "bufferViews" : [
        {
            "buffer" : 0,
            "byteLength" : 35400,
            "byteOffset" : 0
        },
        {
            "buffer" : 0,
            "byteLength" : 35400,
            "byteOffset" : 35400
        },
        {
            "buffer" : 0,
            "byteLength" : 23600,
            "byteOffset" : 70800
        },
        {
            "buffer" : 0,
            "byteLength" : 10296,
            "byteOffset" : 94400
        },
        {
            "buffer" : 0,
            "byteLength" : 3552,
            "byteOffset" : 104696
        },
        {
            "buffer" : 0,
            "byteLength" : 3552,
            "byteOffset" : 108248
        },
        {
            "buffer" : 0,
            "byteLength" : 2368,
            "byteOffset" : 111800
        },
        {
            "buffer" : 0,
            "byteLength" : 888,
            "byteOffset" : 114168
        },
        {
            "buffer" : 0,
            "byteLength" : 1728,
            "byteOffset" : 115056
        },
        {
            "buffer" : 0,
            "byteLength" : 1728,
            "byteOffset" : 116784
        },
        {
            "buffer" : 0,
            "byteLength" : 1152,
            "byteOffset" : 118512
        },
        {
            "buffer" : 0,
            "byteLength" : 432,
            "byteOffset" : 119664
        },
        {
            "buffer" : 0,
            "byteLength" : 3792,
            "byteOffset" : 120096
        },
        {
            "buffer" : 0,
            "byteLength" : 3792,
            "byteOffset" : 123888
        },
        {
            "buffer" : 0,
            "byteLength" : 2528,
            "byteOffset" : 127680
        },
        {
            "buffer" : 0,
            "byteLength" : 936,
            "byteOffset" : 130208
        }
    ],
    "buffers" : [
        {
            "byteLength" : 131144,
            "uri" : "data:application/octet-stream;base64,"
        }
    ]
}
