{
    "asset" : {
        "generator" : "Khronos glTF Blender I/O v1.7.33",
        "version" : "2.0"
    },
    "scene" : 0,
    "scenes" : [
        {
            "name" : "Scene",
            "nodes" : [
                0
            ]
        }
    ],
    "nodes" : [
        {
            "mesh" : 0,
            "name" : "WonderWalls_SecondAge"
        }
    ],
    "materials" : [
        {
            "doubleSided" : true,
            "name" : "Stone",
            "pbrMetallicRoughness" : {
                "baseColorFactor" : [
                    0.24436430633068085,
                    0.24618881940841675,
                    0.21545054018497467,
                    1
                ],
                "metallicFactor" : 0,
                "roughnessFactor" : 0.5
            }
        },
        {
            "doubleSided" : true,
            "name" : "Stone_Light",
            "pbrMetallicRoughness" : {
                "baseColorFactor" : [
                    0.454056978225708,
                    0.4575270116329193,
                    0.3991142511367798,
                    1
                ],
                "metallicFactor" : 0,
                "roughnessFactor" : 0.5
            }
        },
        {
            "doubleSided" : true,
            "name" : "Wood",
            "pbrMetallicRoughness" : {
                "baseColorFactor" : [
                    0.24618732929229736,
                    0.14435896277427673,
                    0.053798429667949677,
                    1
                ],
                "metallicFactor" : 0,
                "roughnessFactor" : 0.5
            }
        }
    ],
    "meshes" : [
        {
            "name" : "Cube.045",
            "primitives" : [
                {
                    "attributes" : {
                        "POSITION" : 0,
                        "NORMAL" : 1,
                        "TEXCOORD_0" : 2
                    },
                    "indices" : 3,
                    "material" : 0
                },
                {
                    "attributes" : {
                        "POSITION" : 4,
                        "NORMAL" : 5,
                        "TEXCOORD_0" : 6
                    },
                    "indices" : 7,
                    "material" : 1
                },
                {
                    "attributes" : {
                        "POSITION" : 8,
                        "NORMAL" : 9,
                        "TEXCOORD_0" : 10
                    },
                    "indices" : 11,
                    "material" : 2
                }
            ]
        }
    ],
    "accessors" : [
        {
            "bufferView" : 0,
            "componentType" : 5126,
            "count" : 1372,
            "max" : [
                1.0517163276672363,
                0.8592492341995239,
                0.9629009366035461
            ],
            "min" : [
                -1.0517163276672363,
                -4.712889131042175e-05,
                -0.9939679503440857
            ],
            "type" : "VEC3"
        },
        {
            "bufferView" : 1,
            "componentType" : 5126,
            "count" : 1372,
            "type" : "VEC3"
        },
        {
            "bufferView" : 2,
            "componentType" : 5126,
            "count" : 1372,
            "type" : "VEC2"
        },
        {
            "bufferView" : 3,
            "componentType" : 5123,
            "count" : 2568,
            "type" : "SCALAR"
        },
        {
            "bufferView" : 4,
            "componentType" : 5126,
            "count" : 12086,
            "max" : [
                1.0468391180038452,
                0.9368465542793274,
                0.9524401426315308
            ],
            "min" : [
                -1.0468391180038452,
                -4.7135850763879716e-05,
                -0.9847154021263123
            ],
            "type" : "VEC3"
        },
        {
            "bufferView" : 5,
            "componentType" : 5126,
            "count" : 12086,
            "type" : "VEC3"
        },
        {
            "bufferView" : 6,
            "componentType" : 5126,
            "count" : 12086,
            "type" : "VEC2"
        },
        {
            "bufferView" : 7,
            "componentType" : 5123,
            "count" : 18246,
            "type" : "SCALAR"
        },
        {
            "bufferView" : 8,
            "componentType" : 5126,
            "count" : 138,
            "max" : [
                1.0206289291381836,
                0.8592492341995239,
                0.9262298941612244
            ],
            "min" : [
                -1.0206289291381836,
                0.4255792498588562,
                -0.9580998420715332
            ],
            "type" : "VEC3"
        },
        {
            "bufferView" : 9,
            "componentType" : 5126,
            "count" : 138,
            "type" : "VEC3"
        },
        {
            "bufferView" : 10,
            "componentType" : 5126,
            "count" : 138,
            "type" : "VEC2"
        },
        {
            "bufferView" : 11,
            "componentType" : 5123,
            "count" : 336,
            "type" : "SCALAR"
        }
    ],
    "bufferViews" : [
        {
            "buffer" : 0,
            "byteLength" : 16464,
            "byteOffset" : 0
        },
        {
            "buffer" : 0,
            "byteLength" : 16464,
            "byteOffset" : 16464
        },
        {
            "buffer" : 0,
            "byteLength" : 10976,
            "byteOffset" : 32928
        },
        {
            "buffer" : 0,
            "byteLength" : 5136,
            "byteOffset" : 43904
        },
        {
            "buffer" : 0,
            "byteLength" : 145032,
            "byteOffset" : 49040
        },
        {
            "buffer" : 0,
            "byteLength" : 145032,
            "byteOffset" : 194072
        },
        {
            "buffer" : 0,
            "byteLength" : 96688,
            "byteOffset" : 339104
        },
        {
            "buffer" : 0,
            "byteLength" : 36492,
            "byteOffset" : 435792
        },
        {
            "buffer" : 0,
            "byteLength" : 1656,
            "byteOffset" : 472284
        },
        {
            "buffer" : 0,
            "byteLength" : 1656,
            "byteOffset" : 473940
        },
        {
            "buffer" : 0,
            "byteLength" : 1104,
            "byteOffset" : 475596
        },
        {
            "buffer" : 0,
            "byteLength" : 672,
            "byteOffset" : 476700
        }
    ],
    "buffers" : [
        {
            "byteLength" : 477372,
            "uri" : "data:application/octet-stream;base64,"
        }
    ]
}
