{
    "asset" : {
        "generator" : "Khronos glTF Blender I/O v1.7.33",
        "version" : "2.0"
    },
    "scene" : 0,
    "scenes" : [
        {
            "name" : "Scene",
            "nodes" : [
                0
            ]
        }
    ],
    "nodes" : [
        {
            "mesh" : 0,
            "name" : "Wonder_FirstAge_Level2"
        }
    ],
    "materials" : [
        {
            "doubleSided" : true,
            "name" : "Wood",
            "pbrMetallicRoughness" : {
                "baseColorFactor" : [
                    0.24618732929229736,
                    0.14435896277427673,
                    0.053798429667949677,
                    1
                ],
                "metallicFactor" : 0,
                "roughnessFactor" : 0.5
            }
        },
        {
            "doubleSided" : true,
            "name" : "Wood_Light",
            "pbrMetallicRoughness" : {
                "baseColorFactor" : [
                    0.3757452964782715,
                    0.24318844079971313,
                    0.09746062755584717,
                    1
                ],
                "metallicFactor" : 0,
                "roughnessFactor" : 0.5
            }
        },
        {
            "doubleSided" : true,
            "name" : "Main",
            "pbrMetallicRoughness" : {
                "baseColorFactor" : [
                    0.4385380148887634,
                    0.09992149472236633,
                    0.05885644257068634,
                    1
                ],
                "metallicFactor" : 0,
                "roughnessFactor" : 0.5
            }
        }
    ],
    "meshes" : [
        {
            "name" : "Cube.265",
            "primitives" : [
                {
                    "attributes" : {
                        "POSITION" : 0,
                        "NORMAL" : 1,
                        "TEXCOORD_0" : 2
                    },
                    "indices" : 3,
                    "material" : 0
                },
                {
                    "attributes" : {
                        "POSITION" : 4,
                        "NORMAL" : 5,
                        "TEXCOORD_0" : 6
                    },
                    "indices" : 7,
                    "material" : 1
                },
                {
                    "attributes" : {
                        "POSITION" : 8,
                        "NORMAL" : 9,
                        "TEXCOORD_0" : 10
                    },
                    "indices" : 11,
                    "material" : 2
                }
            ]
        }
    ],
    "accessors" : [
        {
            "bufferView" : 0,
            "componentType" : 5126,
            "count" : 11326,
            "max" : [
                1.0987367630004883,
                1.3462870121002197,
                0.9459288120269775
            ],
            "min" : [
                -1.0987367630004883,
                -0.01753142662346363,
                -1.0044273138046265
            ],
            "type" : "VEC3"
        },
        {
            "bufferView" : 1,
            "componentType" : 5126,
            "count" : 11326,
            "type" : "VEC3"
        },
        {
            "bufferView" : 2,
            "componentType" : 5126,
            "count" : 11326,
            "type" : "VEC2"
        },
        {
            "bufferView" : 3,
            "componentType" : 5123,
            "count" : 22260,
            "type" : "SCALAR"
        },
        {
            "bufferView" : 4,
            "componentType" : 5126,
            "count" : 858,
            "max" : [
                1.062848687171936,
                1.263118028640747,
                0.9459288120269775
            ],
            "min" : [
                -1.062848687171936,
                0.2571464776992798,
                -1.0044273138046265
            ],
            "type" : "VEC3"
        },
        {
            "bufferView" : 5,
            "componentType" : 5126,
            "count" : 858,
            "type" : "VEC3"
        },
        {
            "bufferView" : 6,
            "componentType" : 5126,
            "count" : 858,
            "type" : "VEC2"
        },
        {
            "bufferView" : 7,
            "componentType" : 5123,
            "count" : 1296,
            "type" : "SCALAR"
        },
        {
            "bufferView" : 8,
            "componentType" : 5126,
            "count" : 1020,
            "max" : [
                1.081974744796753,
                1.3315119743347168,
                0.9204689860343933
            ],
            "min" : [
                -1.0605424642562866,
                0.5846136212348938,
                -0.9767707586288452
            ],
            "type" : "VEC3"
        },
        {
            "bufferView" : 9,
            "componentType" : 5126,
            "count" : 1020,
            "type" : "VEC3"
        },
        {
            "bufferView" : 10,
            "componentType" : 5126,
            "count" : 1020,
            "type" : "VEC2"
        },
        {
            "bufferView" : 11,
            "componentType" : 5123,
            "count" : 1560,
            "type" : "SCALAR"
        }
    ],
    "bufferViews" : [
        {
            "buffer" : 0,
            "byteLength" : 135912,
            "byteOffset" : 0
        },
        {
            "buffer" : 0,
            "byteLength" : 135912,
            "byteOffset" : 135912
        },
        {
            "buffer" : 0,
            "byteLength" : 90608,
            "byteOffset" : 271824
        },
        {
            "buffer" : 0,
            "byteLength" : 44520,
            "byteOffset" : 362432
        },
        {
            "buffer" : 0,
            "byteLength" : 10296,
            "byteOffset" : 406952
        },
        {
            "buffer" : 0,
            "byteLength" : 10296,
            "byteOffset" : 417248
        },
        {
            "buffer" : 0,
            "byteLength" : 6864,
            "byteOffset" : 427544
        },
        {
            "buffer" : 0,
            "byteLength" : 2592,
            "byteOffset" : 434408
        },
        {
            "buffer" : 0,
            "byteLength" : 12240,
            "byteOffset" : 437000
        },
        {
            "buffer" : 0,
            "byteLength" : 12240,
            "byteOffset" : 449240
        },
        {
            "buffer" : 0,
            "byteLength" : 8160,
            "byteOffset" : 461480
        },
        {
            "buffer" : 0,
            "byteLength" : 3120,
            "byteOffset" : 469640
        }
    ],
    "buffers" : [
        {
            "byteLength" : 472760,
            "uri" : "data:application/octet-stream;base64,"
        }
    ]
}
