{
    "asset" : {
        "generator" : "Khronos glTF Blender I/O v1.7.33",
        "version" : "2.0"
    },
    "scene" : 0,
    "scenes" : [
        {
            "name" : "Scene",
            "nodes" : [
                0
            ]
        }
    ],
    "nodes" : [
        {
            "mesh" : 0,
            "name" : "Wonder_FirstAge_Level1"
        }
    ],
    "materials" : [
        {
            "doubleSided" : true,
            "name" : "Wood",
            "pbrMetallicRoughness" : {
                "baseColorFactor" : [
                    0.24618732929229736,
                    0.14435896277427673,
                    0.053798429667949677,
                    1
                ],
                "metallicFactor" : 0,
                "roughnessFactor" : 0.5
            }
        },
        {
            "doubleSided" : true,
            "name" : "Wood_Light",
            "pbrMetallicRoughness" : {
                "baseColorFactor" : [
                    0.3757452964782715,
                    0.24318844079971313,
                    0.09746062755584717,
                    1
                ],
                "metallicFactor" : 0,
                "roughnessFactor" : 0.5
            }
        },
        {
            "doubleSided" : true,
            "name" : "Main",
            "pbrMetallicRoughness" : {
                "baseColorFactor" : [
                    0.4385380148887634,
                    0.09992149472236633,
                    0.05885644257068634,
                    1
                ],
                "metallicFactor" : 0,
                "roughnessFactor" : 0.5
            }
        }
    ],
    "meshes" : [
        {
            "name" : "Cube.036",
            "primitives" : [
                {
                    "attributes" : {
                        "POSITION" : 0,
                        "NORMAL" : 1,
                        "TEXCOORD_0" : 2
                    },
                    "indices" : 3,
                    "material" : 0
                },
                {
                    "attributes" : {
                        "POSITION" : 4,
                        "NORMAL" : 5,
                        "TEXCOORD_0" : 6
                    },
                    "indices" : 7,
                    "material" : 1
                },
                {
                    "attributes" : {
                        "POSITION" : 8,
                        "NORMAL" : 9,
                        "TEXCOORD_0" : 10
                    },
                    "indices" : 11,
                    "material" : 2
                }
            ]
        }
    ],
    "accessors" : [
        {
            "bufferView" : 0,
            "componentType" : 5126,
            "count" : 5728,
            "max" : [
                0.6286281943321228,
                1.3462870121002197,
                0.6286281943321228
            ],
            "min" : [
                -0.6286281943321228,
                -0.0028428183868527412,
                -0.6286281943321228
            ],
            "type" : "VEC3"
        },
        {
            "bufferView" : 1,
            "componentType" : 5126,
            "count" : 5728,
            "type" : "VEC3"
        },
        {
            "bufferView" : 2,
            "componentType" : 5126,
            "count" : 5728,
            "type" : "VEC2"
        },
        {
            "bufferView" : 3,
            "componentType" : 5123,
            "count" : 11280,
            "type" : "SCALAR"
        },
        {
            "bufferView" : 4,
            "componentType" : 5126,
            "count" : 512,
            "max" : [
                0.5663905739784241,
                1.263118028640747,
                0.5683568716049194
            ],
            "min" : [
                -0.5663905739784241,
                0.2571464776992798,
                -0.5683568716049194
            ],
            "type" : "VEC3"
        },
        {
            "bufferView" : 5,
            "componentType" : 5126,
            "count" : 512,
            "type" : "VEC3"
        },
        {
            "bufferView" : 6,
            "componentType" : 5126,
            "count" : 512,
            "type" : "VEC2"
        },
        {
            "bufferView" : 7,
            "componentType" : 5123,
            "count" : 768,
            "type" : "SCALAR"
        },
        {
            "bufferView" : 8,
            "componentType" : 5126,
            "count" : 506,
            "max" : [
                0.40506115555763245,
                1.3315119743347168,
                0.3469098210334778
            ],
            "min" : [
                -0.3573225140571594,
                1.3019133806228638,
                -0.3470851182937622
            ],
            "type" : "VEC3"
        },
        {
            "bufferView" : 9,
            "componentType" : 5126,
            "count" : 506,
            "type" : "VEC3"
        },
        {
            "bufferView" : 10,
            "componentType" : 5126,
            "count" : 506,
            "type" : "VEC2"
        },
        {
            "bufferView" : 11,
            "componentType" : 5123,
            "count" : 768,
            "type" : "SCALAR"
        }
    ],
    "bufferViews" : [
        {
            "buffer" : 0,
            "byteLength" : 68736,
            "byteOffset" : 0
        },
        {
            "buffer" : 0,
            "byteLength" : 68736,
            "byteOffset" : 68736
        },
        {
            "buffer" : 0,
            "byteLength" : 45824,
            "byteOffset" : 137472
        },
        {
            "buffer" : 0,
            "byteLength" : 22560,
            "byteOffset" : 183296
        },
        {
            "buffer" : 0,
            "byteLength" : 6144,
            "byteOffset" : 205856
        },
        {
            "buffer" : 0,
            "byteLength" : 6144,
            "byteOffset" : 212000
        },
        {
            "buffer" : 0,
            "byteLength" : 4096,
            "byteOffset" : 218144
        },
        {
            "buffer" : 0,
            "byteLength" : 1536,
            "byteOffset" : 222240
        },
        {
            "buffer" : 0,
            "byteLength" : 6072,
            "byteOffset" : 223776
        },
        {
            "buffer" : 0,
            "byteLength" : 6072,
            "byteOffset" : 229848
        },
        {
            "buffer" : 0,
            "byteLength" : 4048,
            "byteOffset" : 235920
        },
        {
            "buffer" : 0,
            "byteLength" : 1536,
            "byteOffset" : 239968
        }
    ],
    "buffers" : [
        {
            "byteLength" : 241504,
            "uri" : "data:application/octet-stream;base64,"
        }
    ]
}
