{
    "asset" : {
        "generator" : "Khronos glTF Blender I/O v1.7.33",
        "version" : "2.0"
    },
    "scene" : 0,
    "scenes" : [
        {
            "name" : "Scene",
            "nodes" : [
                0
            ]
        }
    ],
    "nodes" : [
        {
            "mesh" : 0,
            "name" : "Wonder_SecondAge_Level3"
        }
    ],
    "materials" : [
        {
            "doubleSided" : true,
            "name" : "Stone",
            "pbrMetallicRoughness" : {
                "baseColorFactor" : [
                    0.24436430633068085,
                    0.24618881940841675,
                    0.21545054018497467,
                    1
                ],
                "metallicFactor" : 0,
                "roughnessFactor" : 0.5
            }
        },
        {
            "doubleSided" : true,
            "name" : "Stone_Light",
            "pbrMetallicRoughness" : {
                "baseColorFactor" : [
                    0.454056978225708,
                    0.4575270116329193,
                    0.3991142511367798,
                    1
                ],
                "metallicFactor" : 0,
                "roughnessFactor" : 0.5
            }
        },
        {
            "doubleSided" : true,
            "name" : "Wood",
            "pbrMetallicRoughness" : {
                "baseColorFactor" : [
                    0.24618732929229736,
                    0.14435896277427673,
                    0.053798429667949677,
                    1
                ],
                "metallicFactor" : 0,
                "roughnessFactor" : 0.5
            }
        },
        {
            "doubleSided" : true,
            "name" : "Main",
            "pbrMetallicRoughness" : {
                "baseColorFactor" : [
                    0.4385380148887634,
                    0.09992149472236633,
                    0.05885644257068634,
                    1
                ],
                "metallicFactor" : 0,
                "roughnessFactor" : 0.5
            }
        }
    ],
    "meshes" : [
        {
            "name" : "Cube.009",
            "primitives" : [
                {
                    "attributes" : {
                        "POSITION" : 0,
                        "NORMAL" : 1,
                        "TEXCOORD_0" : 2
                    },
                    "indices" : 3,
                    "material" : 0
                },
                {
                    "attributes" : {
                        "POSITION" : 4,
                        "NORMAL" : 5,
                        "TEXCOORD_0" : 6
                    },
                    "indices" : 7,
                    "material" : 1
                },
                {
                    "attributes" : {
                        "POSITION" : 8,
                        "NORMAL" : 9,
                        "TEXCOORD_0" : 10
                    },
                    "indices" : 11,
                    "material" : 2
                },
                {
                    "attributes" : {
                        "POSITION" : 12,
                        "NORMAL" : 13,
                        "TEXCOORD_0" : 14
                    },
                    "indices" : 15,
                    "material" : 3
                }
            ]
        }
    ],
    "accessors" : [
        {
            "bufferView" : 0,
            "componentType" : 5126,
            "count" : 2000,
            "max" : [
                1.0517163276672363,
                1.1457620859146118,
                0.9629009366035461
            ],
            "min" : [
                -1.0517163276672363,
                -0.050280679017305374,
                -0.9939679503440857
            ],
            "type" : "VEC3"
        },
        {
            "bufferView" : 1,
            "componentType" : 5126,
            "count" : 2000,
            "type" : "VEC3"
        },
        {
            "bufferView" : 2,
            "componentType" : 5126,
            "count" : 2000,
            "type" : "VEC2"
        },
        {
            "bufferView" : 3,
            "componentType" : 5123,
            "count" : 3696,
            "type" : "SCALAR"
        },
        {
            "bufferView" : 4,
            "componentType" : 5126,
            "count" : 12478,
            "max" : [
                1.0468391180038452,
                1.114827036857605,
                0.9524401426315308
            ],
            "min" : [
                -1.0468391180038452,
                -0.003451824188232422,
                -0.9847154021263123
            ],
            "type" : "VEC3"
        },
        {
            "bufferView" : 5,
            "componentType" : 5126,
            "count" : 12478,
            "type" : "VEC3"
        },
        {
            "bufferView" : 6,
            "componentType" : 5126,
            "count" : 12478,
            "type" : "VEC2"
        },
        {
            "bufferView" : 7,
            "componentType" : 5123,
            "count" : 18930,
            "type" : "SCALAR"
        },
        {
            "bufferView" : 8,
            "componentType" : 5126,
            "count" : 730,
            "max" : [
                1.0279477834701538,
                1.2057451009750366,
                0.9281720519065857
            ],
            "min" : [
                -1.0288830995559692,
                0.4255792498588562,
                -0.9650859832763672
            ],
            "type" : "VEC3"
        },
        {
            "bufferView" : 9,
            "componentType" : 5126,
            "count" : 730,
            "type" : "VEC3"
        },
        {
            "bufferView" : 10,
            "componentType" : 5126,
            "count" : 730,
            "type" : "VEC2"
        },
        {
            "bufferView" : 11,
            "componentType" : 5123,
            "count" : 1224,
            "type" : "SCALAR"
        },
        {
            "bufferView" : 12,
            "componentType" : 5126,
            "count" : 1465,
            "max" : [
                1.0741372108459473,
                1.3021560907363892,
                0.9259576797485352
            ],
            "min" : [
                -1.0259056091308594,
                0.696189820766449,
                -0.9628716707229614
            ],
            "type" : "VEC3"
        },
        {
            "bufferView" : 13,
            "componentType" : 5126,
            "count" : 1465,
            "type" : "VEC3"
        },
        {
            "bufferView" : 14,
            "componentType" : 5126,
            "count" : 1465,
            "type" : "VEC2"
        },
        {
            "bufferView" : 15,
            "componentType" : 5123,
            "count" : 5400,
            "type" : "SCALAR"
        }
    ],
    "bufferViews" : [
        {
            "buffer" : 0,
            "byteLength" : 24000,
            "byteOffset" : 0
        },
        {
            "buffer" : 0,
            "byteLength" : 24000,
            "byteOffset" : 24000
        },
        {
            "buffer" : 0,
            "byteLength" : 16000,
            "byteOffset" : 48000
        },
        {
            "buffer" : 0,
            "byteLength" : 7392,
            "byteOffset" : 64000
        },
        {
            "buffer" : 0,
            "byteLength" : 149736,
            "byteOffset" : 71392
        },
        {
            "buffer" : 0,
            "byteLength" : 149736,
            "byteOffset" : 221128
        },
        {
            "buffer" : 0,
            "byteLength" : 99824,
            "byteOffset" : 370864
        },
        {
            "buffer" : 0,
            "byteLength" : 37860,
            "byteOffset" : 470688
        },
        {
            "buffer" : 0,
            "byteLength" : 8760,
            "byteOffset" : 508548
        },
        {
            "buffer" : 0,
            "byteLength" : 8760,
            "byteOffset" : 517308
        },
        {
            "buffer" : 0,
            "byteLength" : 5840,
            "byteOffset" : 526068
        },
        {
            "buffer" : 0,
            "byteLength" : 2448,
            "byteOffset" : 531908
        },
        {
            "buffer" : 0,
            "byteLength" : 17580,
            "byteOffset" : 534356
        },
        {
            "buffer" : 0,
            "byteLength" : 17580,
            "byteOffset" : 551936
        },
        {
            "buffer" : 0,
            "byteLength" : 11720,
            "byteOffset" : 569516
        },
        {
            "buffer" : 0,
            "byteLength" : 10800,
            "byteOffset" : 581236
        }
    ],
    "buffers" : [
        {
            "byteLength" : 592036,
            "uri" : "data:application/octet-stream;base64,"
        }
    ]
}
