{
    "asset" : {
        "generator" : "Khronos glTF Blender I/O v1.7.33",
        "version" : "2.0"
    },
    "scene" : 0,
    "scenes" : [
        {
            "name" : "Scene",
            "nodes" : [
                0
            ]
        }
    ],
    "nodes" : [
        {
            "mesh" : 0,
            "name" : "Wonder_SecondAge_Level2"
        }
    ],
    "materials" : [
        {
            "doubleSided" : true,
            "name" : "Stone",
            "pbrMetallicRoughness" : {
                "baseColorFactor" : [
                    0.24436430633068085,
                    0.24618881940841675,
                    0.21545054018497467,
                    1
                ],
                "metallicFactor" : 0,
                "roughnessFactor" : 0.5
            }
        },
        {
            "doubleSided" : true,
            "name" : "Stone_Light",
            "pbrMetallicRoughness" : {
                "baseColorFactor" : [
                    0.454056978225708,
                    0.4575270116329193,
                    0.3991142511367798,
                    1
                ],
                "metallicFactor" : 0,
                "roughnessFactor" : 0.5
            }
        },
        {
            "doubleSided" : true,
            "name" : "Wood",
            "pbrMetallicRoughness" : {
                "baseColorFactor" : [
                    0.24618732929229736,
                    0.14435896277427673,
                    0.053798429667949677,
                    1
                ],
                "metallicFactor" : 0,
                "roughnessFactor" : 0.5
            }
        },
        {
            "doubleSided" : true,
            "name" : "Main",
            "pbrMetallicRoughness" : {
                "baseColorFactor" : [
                    0.4385380148887634,
                    0.09992149472236633,
                    0.05885644257068634,
                    1
                ],
                "metallicFactor" : 0,
                "roughnessFactor" : 0.5
            }
        }
    ],
    "meshes" : [
        {
            "name" : "Cube.002",
            "primitives" : [
                {
                    "attributes" : {
                        "POSITION" : 0,
                        "NORMAL" : 1,
                        "TEXCOORD_0" : 2
                    },
                    "indices" : 3,
                    "material" : 0
                },
                {
                    "attributes" : {
                        "POSITION" : 4,
                        "NORMAL" : 5,
                        "TEXCOORD_0" : 6
                    },
                    "indices" : 7,
                    "material" : 1
                },
                {
                    "attributes" : {
                        "POSITION" : 8,
                        "NORMAL" : 9,
                        "TEXCOORD_0" : 10
                    },
                    "indices" : 11,
                    "material" : 2
                },
                {
                    "attributes" : {
                        "POSITION" : 12,
                        "NORMAL" : 13,
                        "TEXCOORD_0" : 14
                    },
                    "indices" : 15,
                    "material" : 3
                }
            ]
        }
    ],
    "accessors" : [
        {
            "bufferView" : 0,
            "componentType" : 5126,
            "count" : 1624,
            "max" : [
                1.0517163276672363,
                0.8592492341995239,
                0.9629009366035461
            ],
            "min" : [
                -1.0517163276672363,
                -0.050280679017305374,
                -0.9939679503440857
            ],
            "type" : "VEC3"
        },
        {
            "bufferView" : 1,
            "componentType" : 5126,
            "count" : 1624,
            "type" : "VEC3"
        },
        {
            "bufferView" : 2,
            "componentType" : 5126,
            "count" : 1624,
            "type" : "VEC2"
        },
        {
            "bufferView" : 3,
            "componentType" : 5123,
            "count" : 3036,
            "type" : "SCALAR"
        },
        {
            "bufferView" : 4,
            "componentType" : 5126,
            "count" : 12278,
            "max" : [
                1.0468391180038452,
                0.9368465542793274,
                0.9524401426315308
            ],
            "min" : [
                -1.0468391180038452,
                -0.003451824188232422,
                -0.9847154021263123
            ],
            "type" : "VEC3"
        },
        {
            "bufferView" : 5,
            "componentType" : 5126,
            "count" : 12278,
            "type" : "VEC3"
        },
        {
            "bufferView" : 6,
            "componentType" : 5126,
            "count" : 12278,
            "type" : "VEC2"
        },
        {
            "bufferView" : 7,
            "componentType" : 5123,
            "count" : 18582,
            "type" : "SCALAR"
        },
        {
            "bufferView" : 8,
            "componentType" : 5126,
            "count" : 626,
            "max" : [
                1.0279477834701538,
                1.0331711769104004,
                0.9281720519065857
            ],
            "min" : [
                -1.0288830995559692,
                0.4255792498588562,
                -0.9650859832763672
            ],
            "type" : "VEC3"
        },
        {
            "bufferView" : 9,
            "componentType" : 5126,
            "count" : 626,
            "type" : "VEC3"
        },
        {
            "bufferView" : 10,
            "componentType" : 5126,
            "count" : 626,
            "type" : "VEC2"
        },
        {
            "bufferView" : 11,
            "componentType" : 5123,
            "count" : 1074,
            "type" : "SCALAR"
        },
        {
            "bufferView" : 12,
            "componentType" : 5126,
            "count" : 884,
            "max" : [
                1.0741372108459473,
                1.0192968845367432,
                0.9259576797485352
            ],
            "min" : [
                -1.0259056091308594,
                0.696189820766449,
                -0.9628716707229614
            ],
            "type" : "VEC3"
        },
        {
            "bufferView" : 13,
            "componentType" : 5126,
            "count" : 884,
            "type" : "VEC3"
        },
        {
            "bufferView" : 14,
            "componentType" : 5126,
            "count" : 884,
            "type" : "VEC2"
        },
        {
            "bufferView" : 15,
            "componentType" : 5123,
            "count" : 2688,
            "type" : "SCALAR"
        }
    ],
    "bufferViews" : [
        {
            "buffer" : 0,
            "byteLength" : 19488,
            "byteOffset" : 0
        },
        {
            "buffer" : 0,
            "byteLength" : 19488,
            "byteOffset" : 19488
        },
        {
            "buffer" : 0,
            "byteLength" : 12992,
            "byteOffset" : 38976
        },
        {
            "buffer" : 0,
            "byteLength" : 6072,
            "byteOffset" : 51968
        },
        {
            "buffer" : 0,
            "byteLength" : 147336,
            "byteOffset" : 58040
        },
        {
            "buffer" : 0,
            "byteLength" : 147336,
            "byteOffset" : 205376
        },
        {
            "buffer" : 0,
            "byteLength" : 98224,
            "byteOffset" : 352712
        },
        {
            "buffer" : 0,
            "byteLength" : 37164,
            "byteOffset" : 450936
        },
        {
            "buffer" : 0,
            "byteLength" : 7512,
            "byteOffset" : 488100
        },
        {
            "buffer" : 0,
            "byteLength" : 7512,
            "byteOffset" : 495612
        },
        {
            "buffer" : 0,
            "byteLength" : 5008,
            "byteOffset" : 503124
        },
        {
            "buffer" : 0,
            "byteLength" : 2148,
            "byteOffset" : 508132
        },
        {
            "buffer" : 0,
            "byteLength" : 10608,
            "byteOffset" : 510280
        },
        {
            "buffer" : 0,
            "byteLength" : 10608,
            "byteOffset" : 520888
        },
        {
            "buffer" : 0,
            "byteLength" : 7072,
            "byteOffset" : 531496
        },
        {
            "buffer" : 0,
            "byteLength" : 5376,
            "byteOffset" : 538568
        }
    ],
    "buffers" : [
        {
            "byteLength" : 543944,
            "uri" : "data:application/octet-stream;base64,"
        }
    ]
}
