{
    "asset" : {
        "generator" : "Khronos glTF Blender I/O v1.7.33",
        "version" : "2.0"
    },
    "scene" : 0,
    "scenes" : [
        {
            "name" : "Scene",
            "nodes" : [
                0
            ]
        }
    ],
    "nodes" : [
        {
            "mesh" : 0,
            "name" : "WonderWalls_FirstAge"
        }
    ],
    "materials" : [
        {
            "doubleSided" : true,
            "name" : "Wood",
            "pbrMetallicRoughness" : {
                "baseColorFactor" : [
                    0.24618732929229736,
                    0.14435896277427673,
                    0.053798429667949677,
                    1
                ],
                "metallicFactor" : 0,
                "roughnessFactor" : 0.5
            }
        },
        {
            "doubleSided" : true,
            "name" : "Wood_Light",
            "pbrMetallicRoughness" : {
                "baseColorFactor" : [
                    0.3757452964782715,
                    0.24318844079971313,
                    0.09746062755584717,
                    1
                ],
                "metallicFactor" : 0,
                "roughnessFactor" : 0.5
            }
        },
        {
            "doubleSided" : true,
            "name" : "Main",
            "pbrMetallicRoughness" : {
                "baseColorFactor" : [
                    0.4385380148887634,
                    0.09992149472236633,
                    0.05885644257068634,
                    1
                ],
                "metallicFactor" : 0,
                "roughnessFactor" : 0.5
            }
        }
    ],
    "meshes" : [
        {
            "name" : "Cube.035",
            "primitives" : [
                {
                    "attributes" : {
                        "POSITION" : 0,
                        "NORMAL" : 1,
                        "TEXCOORD_0" : 2
                    },
                    "indices" : 3,
                    "material" : 0
                },
                {
                    "attributes" : {
                        "POSITION" : 4,
                        "NORMAL" : 5,
                        "TEXCOORD_0" : 6
                    },
                    "indices" : 7,
                    "material" : 1
                },
                {
                    "attributes" : {
                        "POSITION" : 8,
                        "NORMAL" : 9,
                        "TEXCOORD_0" : 10
                    },
                    "indices" : 11,
                    "material" : 2
                }
            ]
        }
    ],
    "accessors" : [
        {
            "bufferView" : 0,
            "componentType" : 5126,
            "count" : 5596,
            "max" : [
                1.0987367630004883,
                1.0506657361984253,
                0.9459289312362671
            ],
            "min" : [
                -1.0987367630004883,
                -0.01753142662346363,
                -1.004427194595337
            ],
            "type" : "VEC3"
        },
        {
            "bufferView" : 1,
            "componentType" : 5126,
            "count" : 5596,
            "type" : "VEC3"
        },
        {
            "bufferView" : 2,
            "componentType" : 5126,
            "count" : 5596,
            "type" : "VEC2"
        },
        {
            "bufferView" : 3,
            "componentType" : 5123,
            "count" : 10980,
            "type" : "SCALAR"
        },
        {
            "bufferView" : 4,
            "componentType" : 5126,
            "count" : 346,
            "max" : [
                1.062848687171936,
                0.9418371915817261,
                0.9459289312362671
            ],
            "min" : [
                -1.062848687171936,
                0.5137686133384705,
                -1.004427194595337
            ],
            "type" : "VEC3"
        },
        {
            "bufferView" : 5,
            "componentType" : 5126,
            "count" : 346,
            "type" : "VEC3"
        },
        {
            "bufferView" : 6,
            "componentType" : 5126,
            "count" : 346,
            "type" : "VEC2"
        },
        {
            "bufferView" : 7,
            "componentType" : 5123,
            "count" : 528,
            "type" : "SCALAR"
        },
        {
            "bufferView" : 8,
            "componentType" : 5126,
            "count" : 524,
            "max" : [
                1.081974744796753,
                1.0358906984329224,
                0.9204691052436829
            ],
            "min" : [
                -1.0605424642562866,
                0.5846136212348938,
                -0.9767707586288452
            ],
            "type" : "VEC3"
        },
        {
            "bufferView" : 9,
            "componentType" : 5126,
            "count" : 524,
            "type" : "VEC3"
        },
        {
            "bufferView" : 10,
            "componentType" : 5126,
            "count" : 524,
            "type" : "VEC2"
        },
        {
            "bufferView" : 11,
            "componentType" : 5123,
            "count" : 792,
            "type" : "SCALAR"
        }
    ],
    "bufferViews" : [
        {
            "buffer" : 0,
            "byteLength" : 67152,
            "byteOffset" : 0
        },
        {
            "buffer" : 0,
            "byteLength" : 67152,
            "byteOffset" : 67152
        },
        {
            "buffer" : 0,
            "byteLength" : 44768,
            "byteOffset" : 134304
        },
        {
            "buffer" : 0,
            "byteLength" : 21960,
            "byteOffset" : 179072
        },
        {
            "buffer" : 0,
            "byteLength" : 4152,
            "byteOffset" : 201032
        },
        {
            "buffer" : 0,
            "byteLength" : 4152,
            "byteOffset" : 205184
        },
        {
            "buffer" : 0,
            "byteLength" : 2768,
            "byteOffset" : 209336
        },
        {
            "buffer" : 0,
            "byteLength" : 1056,
            "byteOffset" : 212104
        },
        {
            "buffer" : 0,
            "byteLength" : 6288,
            "byteOffset" : 213160
        },
        {
            "buffer" : 0,
            "byteLength" : 6288,
            "byteOffset" : 219448
        },
        {
            "buffer" : 0,
            "byteLength" : 4192,
            "byteOffset" : 225736
        },
        {
            "buffer" : 0,
            "byteLength" : 1584,
            "byteOffset" : 229928
        }
    ],
    "buffers" : [
        {
            "byteLength" : 231512,
            "uri" : "data:application/octet-stream;base64,"
        }
    ]
}
